G75*
%MOIN*%
%OFA0B0*%
%FSLAX25Y25*%
%IPPOS*%
%LPD*%
%AMOC8*
5,1,8,0,0,1.08239X$1,22.5*
%
%ADD10C,0.13800*%
%ADD11C,0.03300*%
%ADD12R,0.07690X0.02375*%
%ADD13R,0.06548X0.08674*%
%ADD14R,0.10643X0.06410*%
%ADD15C,0.00400*%
%ADD16C,0.08200*%
%ADD17R,0.04737X0.05131*%
%ADD18R,0.05131X0.04737*%
%ADD19R,0.03162X0.05524*%
%ADD20R,0.04146X0.02178*%
%ADD21R,0.06706X0.07690*%
%ADD22C,0.00218*%
%ADD23R,0.06312X0.07887*%
%ADD24R,0.08280X0.06312*%
%ADD25R,0.06706X0.03950*%
%ADD26R,0.05524X0.10643*%
%ADD27C,0.05524*%
%ADD28C,0.01421*%
%ADD29R,0.14580X0.08674*%
%ADD30R,0.24422X0.08674*%
%ADD31C,0.04737*%
%ADD32C,0.05000*%
%ADD33C,0.06706*%
D10*
X0048750Y0038500D03*
X0128750Y0038500D03*
X0160750Y0038500D03*
X0240750Y0038500D03*
X0272750Y0038500D03*
X0352750Y0038500D03*
X0352750Y0223500D03*
X0352750Y0245500D03*
X0272750Y0245500D03*
X0272750Y0223500D03*
X0240750Y0223500D03*
X0240750Y0245500D03*
X0160750Y0245500D03*
X0160750Y0223500D03*
X0128750Y0223500D03*
X0128750Y0245500D03*
X0048750Y0245500D03*
X0048750Y0223500D03*
X0048750Y0430500D03*
X0128750Y0430500D03*
X0160750Y0430500D03*
X0240750Y0430500D03*
X0272750Y0430500D03*
X0352750Y0430500D03*
D11*
X0042250Y0032000D03*
X0154250Y0032000D03*
X0266250Y0032000D03*
X0247750Y0230500D03*
X0266250Y0239000D03*
X0359750Y0230500D03*
X0154250Y0239000D03*
X0135750Y0230500D03*
X0042250Y0239000D03*
X0135750Y0437500D03*
X0247750Y0437500D03*
X0359750Y0437500D03*
D12*
X0346250Y0283618D03*
X0346250Y0281059D03*
X0346250Y0278500D03*
X0346250Y0275941D03*
X0346250Y0273382D03*
X0234250Y0273382D03*
X0234250Y0275941D03*
X0234250Y0278500D03*
X0234250Y0281059D03*
X0234250Y0283618D03*
X0122250Y0283618D03*
X0122250Y0281059D03*
X0122250Y0278500D03*
X0122250Y0275941D03*
X0122250Y0273382D03*
X0122250Y0076618D03*
X0122250Y0074059D03*
X0122250Y0071500D03*
X0122250Y0068941D03*
X0122250Y0066382D03*
X0234250Y0066382D03*
X0234250Y0068941D03*
X0234250Y0071500D03*
X0234250Y0074059D03*
X0234250Y0076618D03*
X0346250Y0076618D03*
X0346250Y0074059D03*
X0346250Y0071500D03*
X0346250Y0068941D03*
X0346250Y0066382D03*
D13*
X0345167Y0060083D03*
X0345167Y0082917D03*
X0233167Y0082917D03*
X0233167Y0060083D03*
X0121167Y0060083D03*
X0121167Y0082917D03*
X0121167Y0267083D03*
X0121167Y0289917D03*
X0233167Y0289917D03*
X0233167Y0267083D03*
X0345167Y0267083D03*
X0345167Y0289917D03*
D14*
X0356781Y0282289D03*
X0356781Y0274711D03*
X0244781Y0274711D03*
X0244781Y0282289D03*
X0132781Y0282289D03*
X0132781Y0274711D03*
X0132781Y0075289D03*
X0132781Y0067711D03*
X0244781Y0067711D03*
X0244781Y0075289D03*
X0356781Y0075289D03*
X0356781Y0067711D03*
D15*
X0358947Y0063626D02*
X0348711Y0063626D01*
X0348711Y0056539D01*
X0351860Y0056539D01*
X0351860Y0058114D01*
X0358947Y0058114D01*
X0359297Y0058154D01*
X0359630Y0058270D01*
X0359929Y0058458D01*
X0360178Y0058707D01*
X0360366Y0059006D01*
X0360482Y0059339D01*
X0360522Y0059689D01*
X0360522Y0062445D01*
X0360443Y0062747D01*
X0360300Y0063023D01*
X0360098Y0063261D01*
X0359849Y0063448D01*
X0359564Y0063575D01*
X0359258Y0063635D01*
X0358947Y0063626D01*
X0359578Y0063569D02*
X0348711Y0063569D01*
X0348711Y0063170D02*
X0360175Y0063170D01*
X0360430Y0062772D02*
X0348711Y0062772D01*
X0348711Y0062373D02*
X0360522Y0062373D01*
X0360522Y0061975D02*
X0348711Y0061975D01*
X0348711Y0061576D02*
X0360522Y0061576D01*
X0360522Y0061178D02*
X0348711Y0061178D01*
X0348711Y0060779D02*
X0360522Y0060779D01*
X0360522Y0060381D02*
X0348711Y0060381D01*
X0348711Y0059982D02*
X0360522Y0059982D01*
X0360510Y0059584D02*
X0348711Y0059584D01*
X0348711Y0059185D02*
X0360429Y0059185D01*
X0360228Y0058787D02*
X0348711Y0058787D01*
X0348711Y0058388D02*
X0359818Y0058388D01*
X0351860Y0057990D02*
X0348711Y0057990D01*
X0348711Y0057591D02*
X0351860Y0057591D01*
X0351860Y0057193D02*
X0348711Y0057193D01*
X0348711Y0056794D02*
X0351860Y0056794D01*
X0348711Y0079374D02*
X0359341Y0079374D01*
X0359603Y0079404D01*
X0359853Y0079491D01*
X0360077Y0079632D01*
X0360264Y0079819D01*
X0360405Y0080043D01*
X0360492Y0080292D01*
X0360522Y0080555D01*
X0360522Y0083705D01*
X0360531Y0084016D01*
X0360471Y0084322D01*
X0360344Y0084607D01*
X0360157Y0084856D01*
X0359919Y0085058D01*
X0359642Y0085201D01*
X0359341Y0085280D01*
X0351860Y0085280D01*
X0351860Y0086461D01*
X0348711Y0086461D01*
X0348711Y0079374D01*
X0348711Y0079509D02*
X0359882Y0079509D01*
X0360320Y0079908D02*
X0348711Y0079908D01*
X0348711Y0080306D02*
X0360494Y0080306D01*
X0360522Y0080705D02*
X0348711Y0080705D01*
X0348711Y0081103D02*
X0360522Y0081103D01*
X0360522Y0081502D02*
X0348711Y0081502D01*
X0348711Y0081901D02*
X0360522Y0081901D01*
X0360522Y0082299D02*
X0348711Y0082299D01*
X0348711Y0082698D02*
X0360522Y0082698D01*
X0360522Y0083096D02*
X0348711Y0083096D01*
X0348711Y0083495D02*
X0360522Y0083495D01*
X0360527Y0083893D02*
X0348711Y0083893D01*
X0348711Y0084292D02*
X0360477Y0084292D01*
X0360281Y0084690D02*
X0348711Y0084690D01*
X0348711Y0085089D02*
X0359859Y0085089D01*
X0351860Y0085487D02*
X0348711Y0085487D01*
X0348711Y0085886D02*
X0351860Y0085886D01*
X0351860Y0086284D02*
X0348711Y0086284D01*
X0248531Y0084016D02*
X0248522Y0083705D01*
X0248522Y0080555D01*
X0248492Y0080292D01*
X0248405Y0080043D01*
X0248264Y0079819D01*
X0248077Y0079632D01*
X0247853Y0079491D01*
X0247603Y0079404D01*
X0247341Y0079374D01*
X0236711Y0079374D01*
X0236711Y0086461D01*
X0239860Y0086461D01*
X0239860Y0085280D01*
X0247341Y0085280D01*
X0247642Y0085201D01*
X0247919Y0085058D01*
X0248157Y0084856D01*
X0248344Y0084607D01*
X0248471Y0084322D01*
X0248531Y0084016D01*
X0248527Y0083893D02*
X0236711Y0083893D01*
X0236711Y0083495D02*
X0248522Y0083495D01*
X0248522Y0083096D02*
X0236711Y0083096D01*
X0236711Y0082698D02*
X0248522Y0082698D01*
X0248522Y0082299D02*
X0236711Y0082299D01*
X0236711Y0081901D02*
X0248522Y0081901D01*
X0248522Y0081502D02*
X0236711Y0081502D01*
X0236711Y0081103D02*
X0248522Y0081103D01*
X0248522Y0080705D02*
X0236711Y0080705D01*
X0236711Y0080306D02*
X0248494Y0080306D01*
X0248320Y0079908D02*
X0236711Y0079908D01*
X0236711Y0079509D02*
X0247882Y0079509D01*
X0248477Y0084292D02*
X0236711Y0084292D01*
X0236711Y0084690D02*
X0248281Y0084690D01*
X0247859Y0085089D02*
X0236711Y0085089D01*
X0236711Y0085487D02*
X0239860Y0085487D01*
X0239860Y0085886D02*
X0236711Y0085886D01*
X0236711Y0086284D02*
X0239860Y0086284D01*
X0236711Y0063626D02*
X0246947Y0063626D01*
X0247258Y0063635D01*
X0247564Y0063575D01*
X0247849Y0063448D01*
X0248098Y0063261D01*
X0248300Y0063023D01*
X0248443Y0062747D01*
X0248522Y0062445D01*
X0248522Y0059689D01*
X0248482Y0059339D01*
X0248366Y0059006D01*
X0248178Y0058707D01*
X0247929Y0058458D01*
X0247630Y0058270D01*
X0247297Y0058154D01*
X0246947Y0058114D01*
X0239860Y0058114D01*
X0239860Y0056539D01*
X0236711Y0056539D01*
X0236711Y0063626D01*
X0236711Y0063569D02*
X0247578Y0063569D01*
X0248175Y0063170D02*
X0236711Y0063170D01*
X0236711Y0062772D02*
X0248430Y0062772D01*
X0248522Y0062373D02*
X0236711Y0062373D01*
X0236711Y0061975D02*
X0248522Y0061975D01*
X0248522Y0061576D02*
X0236711Y0061576D01*
X0236711Y0061178D02*
X0248522Y0061178D01*
X0248522Y0060779D02*
X0236711Y0060779D01*
X0236711Y0060381D02*
X0248522Y0060381D01*
X0248522Y0059982D02*
X0236711Y0059982D01*
X0236711Y0059584D02*
X0248510Y0059584D01*
X0248429Y0059185D02*
X0236711Y0059185D01*
X0236711Y0058787D02*
X0248228Y0058787D01*
X0247818Y0058388D02*
X0236711Y0058388D01*
X0236711Y0057990D02*
X0239860Y0057990D01*
X0239860Y0057591D02*
X0236711Y0057591D01*
X0236711Y0057193D02*
X0239860Y0057193D01*
X0239860Y0056794D02*
X0236711Y0056794D01*
X0136522Y0059689D02*
X0136482Y0059339D01*
X0136366Y0059006D01*
X0136178Y0058707D01*
X0135929Y0058458D01*
X0135630Y0058270D01*
X0135297Y0058154D01*
X0134947Y0058114D01*
X0127860Y0058114D01*
X0127860Y0056539D01*
X0124711Y0056539D01*
X0124711Y0063626D01*
X0134947Y0063626D01*
X0135258Y0063635D01*
X0135564Y0063575D01*
X0135849Y0063448D01*
X0136098Y0063261D01*
X0136300Y0063023D01*
X0136443Y0062747D01*
X0136522Y0062445D01*
X0136522Y0059689D01*
X0136510Y0059584D02*
X0124711Y0059584D01*
X0124711Y0059982D02*
X0136522Y0059982D01*
X0136522Y0060381D02*
X0124711Y0060381D01*
X0124711Y0060779D02*
X0136522Y0060779D01*
X0136522Y0061178D02*
X0124711Y0061178D01*
X0124711Y0061576D02*
X0136522Y0061576D01*
X0136522Y0061975D02*
X0124711Y0061975D01*
X0124711Y0062373D02*
X0136522Y0062373D01*
X0136430Y0062772D02*
X0124711Y0062772D01*
X0124711Y0063170D02*
X0136175Y0063170D01*
X0135578Y0063569D02*
X0124711Y0063569D01*
X0124711Y0059185D02*
X0136429Y0059185D01*
X0136228Y0058787D02*
X0124711Y0058787D01*
X0124711Y0058388D02*
X0135818Y0058388D01*
X0127860Y0057990D02*
X0124711Y0057990D01*
X0124711Y0057591D02*
X0127860Y0057591D01*
X0127860Y0057193D02*
X0124711Y0057193D01*
X0124711Y0056794D02*
X0127860Y0056794D01*
X0124711Y0079374D02*
X0135341Y0079374D01*
X0135603Y0079404D01*
X0135853Y0079491D01*
X0136077Y0079632D01*
X0136264Y0079819D01*
X0136405Y0080043D01*
X0136492Y0080292D01*
X0136522Y0080555D01*
X0136522Y0083705D01*
X0136531Y0084016D01*
X0136471Y0084322D01*
X0136344Y0084607D01*
X0136157Y0084856D01*
X0135919Y0085058D01*
X0135642Y0085201D01*
X0135341Y0085280D01*
X0127860Y0085280D01*
X0127860Y0086461D01*
X0124711Y0086461D01*
X0124711Y0079374D01*
X0124711Y0079509D02*
X0135882Y0079509D01*
X0136320Y0079908D02*
X0124711Y0079908D01*
X0124711Y0080306D02*
X0136494Y0080306D01*
X0136522Y0080705D02*
X0124711Y0080705D01*
X0124711Y0081103D02*
X0136522Y0081103D01*
X0136522Y0081502D02*
X0124711Y0081502D01*
X0124711Y0081901D02*
X0136522Y0081901D01*
X0136522Y0082299D02*
X0124711Y0082299D01*
X0124711Y0082698D02*
X0136522Y0082698D01*
X0136522Y0083096D02*
X0124711Y0083096D01*
X0124711Y0083495D02*
X0136522Y0083495D01*
X0136527Y0083893D02*
X0124711Y0083893D01*
X0124711Y0084292D02*
X0136477Y0084292D01*
X0136281Y0084690D02*
X0124711Y0084690D01*
X0124711Y0085089D02*
X0135859Y0085089D01*
X0127860Y0085487D02*
X0124711Y0085487D01*
X0124711Y0085886D02*
X0127860Y0085886D01*
X0127860Y0086284D02*
X0124711Y0086284D01*
X0124711Y0263539D02*
X0127860Y0263539D01*
X0127860Y0265114D01*
X0134947Y0265114D01*
X0135297Y0265154D01*
X0135630Y0265270D01*
X0135929Y0265458D01*
X0136178Y0265707D01*
X0136366Y0266006D01*
X0136482Y0266339D01*
X0136522Y0266689D01*
X0136522Y0269445D01*
X0136443Y0269747D01*
X0136300Y0270023D01*
X0136098Y0270261D01*
X0135849Y0270448D01*
X0135564Y0270575D01*
X0135258Y0270635D01*
X0134947Y0270626D01*
X0124711Y0270626D01*
X0124711Y0263539D01*
X0124711Y0263622D02*
X0127860Y0263622D01*
X0127860Y0264020D02*
X0124711Y0264020D01*
X0124711Y0264419D02*
X0127860Y0264419D01*
X0127860Y0264817D02*
X0124711Y0264817D01*
X0124711Y0265216D02*
X0135475Y0265216D01*
X0136085Y0265614D02*
X0124711Y0265614D01*
X0124711Y0266013D02*
X0136368Y0266013D01*
X0136490Y0266411D02*
X0124711Y0266411D01*
X0124711Y0266810D02*
X0136522Y0266810D01*
X0136522Y0267208D02*
X0124711Y0267208D01*
X0124711Y0267607D02*
X0136522Y0267607D01*
X0136522Y0268005D02*
X0124711Y0268005D01*
X0124711Y0268404D02*
X0136522Y0268404D01*
X0136522Y0268802D02*
X0124711Y0268802D01*
X0124711Y0269201D02*
X0136522Y0269201D01*
X0136482Y0269599D02*
X0124711Y0269599D01*
X0124711Y0269998D02*
X0136313Y0269998D01*
X0135918Y0270396D02*
X0124711Y0270396D01*
X0124711Y0286374D02*
X0135341Y0286374D01*
X0135603Y0286404D01*
X0135853Y0286491D01*
X0136077Y0286632D01*
X0136264Y0286819D01*
X0136405Y0287043D01*
X0136492Y0287292D01*
X0136522Y0287555D01*
X0136522Y0290705D01*
X0136531Y0291016D01*
X0136471Y0291322D01*
X0136344Y0291607D01*
X0136157Y0291856D01*
X0135919Y0292058D01*
X0135642Y0292201D01*
X0135341Y0292280D01*
X0127860Y0292280D01*
X0127860Y0293461D01*
X0124711Y0293461D01*
X0124711Y0286374D01*
X0124711Y0286735D02*
X0136181Y0286735D01*
X0136437Y0287134D02*
X0124711Y0287134D01*
X0124711Y0287532D02*
X0136519Y0287532D01*
X0136522Y0287931D02*
X0124711Y0287931D01*
X0124711Y0288329D02*
X0136522Y0288329D01*
X0136522Y0288728D02*
X0124711Y0288728D01*
X0124711Y0289126D02*
X0136522Y0289126D01*
X0136522Y0289525D02*
X0124711Y0289525D01*
X0124711Y0289923D02*
X0136522Y0289923D01*
X0136522Y0290322D02*
X0124711Y0290322D01*
X0124711Y0290720D02*
X0136522Y0290720D01*
X0136511Y0291119D02*
X0124711Y0291119D01*
X0124711Y0291517D02*
X0136384Y0291517D01*
X0136086Y0291916D02*
X0124711Y0291916D01*
X0124711Y0292314D02*
X0127860Y0292314D01*
X0127860Y0292713D02*
X0124711Y0292713D01*
X0124711Y0293112D02*
X0127860Y0293112D01*
X0236711Y0293112D02*
X0239860Y0293112D01*
X0239860Y0293461D02*
X0239860Y0292280D01*
X0247341Y0292280D01*
X0247642Y0292201D01*
X0247919Y0292058D01*
X0248157Y0291856D01*
X0248344Y0291607D01*
X0248471Y0291322D01*
X0248531Y0291016D01*
X0248522Y0290705D01*
X0248522Y0287555D01*
X0248492Y0287292D01*
X0248405Y0287043D01*
X0248264Y0286819D01*
X0248077Y0286632D01*
X0247853Y0286491D01*
X0247603Y0286404D01*
X0247341Y0286374D01*
X0236711Y0286374D01*
X0236711Y0293461D01*
X0239860Y0293461D01*
X0239860Y0292713D02*
X0236711Y0292713D01*
X0236711Y0292314D02*
X0239860Y0292314D01*
X0236711Y0291916D02*
X0248086Y0291916D01*
X0248384Y0291517D02*
X0236711Y0291517D01*
X0236711Y0291119D02*
X0248511Y0291119D01*
X0248522Y0290720D02*
X0236711Y0290720D01*
X0236711Y0290322D02*
X0248522Y0290322D01*
X0248522Y0289923D02*
X0236711Y0289923D01*
X0236711Y0289525D02*
X0248522Y0289525D01*
X0248522Y0289126D02*
X0236711Y0289126D01*
X0236711Y0288728D02*
X0248522Y0288728D01*
X0248522Y0288329D02*
X0236711Y0288329D01*
X0236711Y0287931D02*
X0248522Y0287931D01*
X0248519Y0287532D02*
X0236711Y0287532D01*
X0236711Y0287134D02*
X0248437Y0287134D01*
X0248181Y0286735D02*
X0236711Y0286735D01*
X0236711Y0270626D02*
X0246947Y0270626D01*
X0247258Y0270635D01*
X0247564Y0270575D01*
X0247849Y0270448D01*
X0248098Y0270261D01*
X0248300Y0270023D01*
X0248443Y0269747D01*
X0248522Y0269445D01*
X0248522Y0266689D01*
X0248482Y0266339D01*
X0248366Y0266006D01*
X0248178Y0265707D01*
X0247929Y0265458D01*
X0247630Y0265270D01*
X0247297Y0265154D01*
X0246947Y0265114D01*
X0239860Y0265114D01*
X0239860Y0263539D01*
X0236711Y0263539D01*
X0236711Y0270626D01*
X0236711Y0270396D02*
X0247918Y0270396D01*
X0248313Y0269998D02*
X0236711Y0269998D01*
X0236711Y0269599D02*
X0248482Y0269599D01*
X0248522Y0269201D02*
X0236711Y0269201D01*
X0236711Y0268802D02*
X0248522Y0268802D01*
X0248522Y0268404D02*
X0236711Y0268404D01*
X0236711Y0268005D02*
X0248522Y0268005D01*
X0248522Y0267607D02*
X0236711Y0267607D01*
X0236711Y0267208D02*
X0248522Y0267208D01*
X0248522Y0266810D02*
X0236711Y0266810D01*
X0236711Y0266411D02*
X0248490Y0266411D01*
X0248368Y0266013D02*
X0236711Y0266013D01*
X0236711Y0265614D02*
X0248085Y0265614D01*
X0247475Y0265216D02*
X0236711Y0265216D01*
X0236711Y0264817D02*
X0239860Y0264817D01*
X0239860Y0264419D02*
X0236711Y0264419D01*
X0236711Y0264020D02*
X0239860Y0264020D01*
X0239860Y0263622D02*
X0236711Y0263622D01*
X0348711Y0263622D02*
X0351860Y0263622D01*
X0351860Y0263539D02*
X0348711Y0263539D01*
X0348711Y0270626D01*
X0358947Y0270626D01*
X0359258Y0270635D01*
X0359564Y0270575D01*
X0359849Y0270448D01*
X0360098Y0270261D01*
X0360300Y0270023D01*
X0360443Y0269747D01*
X0360522Y0269445D01*
X0360522Y0266689D01*
X0360482Y0266339D01*
X0360366Y0266006D01*
X0360178Y0265707D01*
X0359929Y0265458D01*
X0359630Y0265270D01*
X0359297Y0265154D01*
X0358947Y0265114D01*
X0351860Y0265114D01*
X0351860Y0263539D01*
X0351860Y0264020D02*
X0348711Y0264020D01*
X0348711Y0264419D02*
X0351860Y0264419D01*
X0351860Y0264817D02*
X0348711Y0264817D01*
X0348711Y0265216D02*
X0359475Y0265216D01*
X0360085Y0265614D02*
X0348711Y0265614D01*
X0348711Y0266013D02*
X0360368Y0266013D01*
X0360490Y0266411D02*
X0348711Y0266411D01*
X0348711Y0266810D02*
X0360522Y0266810D01*
X0360522Y0267208D02*
X0348711Y0267208D01*
X0348711Y0267607D02*
X0360522Y0267607D01*
X0360522Y0268005D02*
X0348711Y0268005D01*
X0348711Y0268404D02*
X0360522Y0268404D01*
X0360522Y0268802D02*
X0348711Y0268802D01*
X0348711Y0269201D02*
X0360522Y0269201D01*
X0360482Y0269599D02*
X0348711Y0269599D01*
X0348711Y0269998D02*
X0360313Y0269998D01*
X0359918Y0270396D02*
X0348711Y0270396D01*
X0348711Y0286374D02*
X0359341Y0286374D01*
X0359603Y0286404D01*
X0359853Y0286491D01*
X0360077Y0286632D01*
X0360264Y0286819D01*
X0360405Y0287043D01*
X0360492Y0287292D01*
X0360522Y0287555D01*
X0360522Y0290705D01*
X0360531Y0291016D01*
X0360471Y0291322D01*
X0360344Y0291607D01*
X0360157Y0291856D01*
X0359919Y0292058D01*
X0359642Y0292201D01*
X0359341Y0292280D01*
X0351860Y0292280D01*
X0351860Y0293461D01*
X0348711Y0293461D01*
X0348711Y0286374D01*
X0348711Y0286735D02*
X0360181Y0286735D01*
X0360437Y0287134D02*
X0348711Y0287134D01*
X0348711Y0287532D02*
X0360519Y0287532D01*
X0360522Y0287931D02*
X0348711Y0287931D01*
X0348711Y0288329D02*
X0360522Y0288329D01*
X0360522Y0288728D02*
X0348711Y0288728D01*
X0348711Y0289126D02*
X0360522Y0289126D01*
X0360522Y0289525D02*
X0348711Y0289525D01*
X0348711Y0289923D02*
X0360522Y0289923D01*
X0360522Y0290322D02*
X0348711Y0290322D01*
X0348711Y0290720D02*
X0360522Y0290720D01*
X0360511Y0291119D02*
X0348711Y0291119D01*
X0348711Y0291517D02*
X0360384Y0291517D01*
X0360086Y0291916D02*
X0348711Y0291916D01*
X0348711Y0292314D02*
X0351860Y0292314D01*
X0351860Y0292713D02*
X0348711Y0292713D01*
X0348711Y0293112D02*
X0351860Y0293112D01*
D16*
X0332750Y0240500D03*
X0322750Y0240500D03*
X0312750Y0240500D03*
X0302750Y0240500D03*
X0292750Y0240500D03*
X0292750Y0198500D03*
X0292750Y0188500D03*
X0302750Y0168500D03*
X0302750Y0158500D03*
X0302750Y0148500D03*
X0220750Y0240500D03*
X0210750Y0240500D03*
X0200750Y0240500D03*
X0190750Y0240500D03*
X0180750Y0240500D03*
X0180750Y0198500D03*
X0180750Y0188500D03*
X0190750Y0168500D03*
X0190750Y0158500D03*
X0190750Y0148500D03*
X0108750Y0240500D03*
X0098750Y0240500D03*
X0088750Y0240500D03*
X0078750Y0240500D03*
X0068750Y0240500D03*
X0068750Y0198500D03*
X0068750Y0188500D03*
X0078750Y0168500D03*
X0078750Y0158500D03*
X0078750Y0148500D03*
X0078750Y0033500D03*
X0068750Y0033500D03*
X0088750Y0033500D03*
X0098750Y0033500D03*
X0108750Y0033500D03*
X0180750Y0033500D03*
X0190750Y0033500D03*
X0200750Y0033500D03*
X0210750Y0033500D03*
X0220750Y0033500D03*
X0292750Y0033500D03*
X0302750Y0033500D03*
X0312750Y0033500D03*
X0322750Y0033500D03*
X0332750Y0033500D03*
X0302750Y0355500D03*
X0302750Y0365500D03*
X0302750Y0375500D03*
X0292750Y0395500D03*
X0292750Y0405500D03*
X0190750Y0375500D03*
X0190750Y0365500D03*
X0190750Y0355500D03*
X0180750Y0395500D03*
X0180750Y0405500D03*
X0078750Y0375500D03*
X0078750Y0365500D03*
X0078750Y0355500D03*
X0068750Y0395500D03*
X0068750Y0405500D03*
D17*
X0064750Y0387346D03*
X0064750Y0380654D03*
X0106750Y0319846D03*
X0113750Y0319846D03*
X0113750Y0313154D03*
X0112750Y0306846D03*
X0106750Y0306846D03*
X0106750Y0313154D03*
X0106750Y0300154D03*
X0112750Y0300154D03*
X0124750Y0300154D03*
X0124750Y0306846D03*
X0111750Y0273346D03*
X0111750Y0266654D03*
X0064750Y0180346D03*
X0064750Y0173654D03*
X0106750Y0112846D03*
X0113750Y0112846D03*
X0113750Y0106154D03*
X0112750Y0099846D03*
X0106750Y0099846D03*
X0106750Y0106154D03*
X0106750Y0093154D03*
X0112750Y0093154D03*
X0124750Y0093154D03*
X0124750Y0099846D03*
X0111750Y0066346D03*
X0111750Y0059654D03*
X0218750Y0093154D03*
X0224750Y0093154D03*
X0224750Y0099846D03*
X0225750Y0106154D03*
X0225750Y0112846D03*
X0218750Y0112846D03*
X0218750Y0106154D03*
X0218750Y0099846D03*
X0236750Y0099846D03*
X0236750Y0093154D03*
X0223750Y0066346D03*
X0223750Y0059654D03*
X0330750Y0093154D03*
X0336750Y0093154D03*
X0336750Y0099846D03*
X0330750Y0099846D03*
X0330750Y0106154D03*
X0337750Y0106154D03*
X0337750Y0112846D03*
X0330750Y0112846D03*
X0348750Y0099846D03*
X0348750Y0093154D03*
X0335750Y0066346D03*
X0335750Y0059654D03*
X0288750Y0173654D03*
X0288750Y0180346D03*
X0335750Y0266654D03*
X0335750Y0273346D03*
X0336750Y0300154D03*
X0330750Y0300154D03*
X0330750Y0306846D03*
X0336750Y0306846D03*
X0337750Y0313154D03*
X0330750Y0313154D03*
X0330750Y0319846D03*
X0337750Y0319846D03*
X0348750Y0306846D03*
X0348750Y0300154D03*
X0288750Y0380654D03*
X0288750Y0387346D03*
X0225750Y0319846D03*
X0225750Y0313154D03*
X0224750Y0306846D03*
X0218750Y0306846D03*
X0218750Y0313154D03*
X0218750Y0319846D03*
X0236750Y0306846D03*
X0236750Y0300154D03*
X0224750Y0300154D03*
X0218750Y0300154D03*
X0223750Y0273346D03*
X0223750Y0266654D03*
X0176750Y0180346D03*
X0176750Y0173654D03*
X0176750Y0380654D03*
X0176750Y0387346D03*
D18*
X0176596Y0374500D03*
X0176596Y0368500D03*
X0176596Y0362500D03*
X0169904Y0362500D03*
X0169904Y0368500D03*
X0169904Y0374500D03*
X0163096Y0374500D03*
X0163096Y0368500D03*
X0163096Y0362500D03*
X0156404Y0362500D03*
X0156404Y0368500D03*
X0156404Y0374500D03*
X0156404Y0380500D03*
X0156404Y0386500D03*
X0163096Y0386500D03*
X0163096Y0380500D03*
X0064596Y0374500D03*
X0064596Y0368500D03*
X0064596Y0362500D03*
X0057904Y0362500D03*
X0057904Y0368500D03*
X0057904Y0374500D03*
X0051096Y0374500D03*
X0051096Y0368500D03*
X0051096Y0362500D03*
X0044404Y0362500D03*
X0044404Y0368500D03*
X0044404Y0374500D03*
X0044404Y0380500D03*
X0044404Y0386500D03*
X0051096Y0386500D03*
X0051096Y0380500D03*
X0051096Y0179500D03*
X0044404Y0179500D03*
X0044404Y0173500D03*
X0044404Y0167500D03*
X0044404Y0161500D03*
X0044404Y0155500D03*
X0051096Y0155500D03*
X0051096Y0161500D03*
X0051096Y0167500D03*
X0051096Y0173500D03*
X0057904Y0167500D03*
X0057904Y0161500D03*
X0057904Y0155500D03*
X0064596Y0155500D03*
X0064596Y0161500D03*
X0064596Y0167500D03*
X0156404Y0167500D03*
X0156404Y0161500D03*
X0156404Y0155500D03*
X0163096Y0155500D03*
X0163096Y0161500D03*
X0163096Y0167500D03*
X0163096Y0173500D03*
X0169904Y0167500D03*
X0169904Y0161500D03*
X0169904Y0155500D03*
X0176596Y0155500D03*
X0176596Y0161500D03*
X0176596Y0167500D03*
X0163096Y0179500D03*
X0156404Y0179500D03*
X0156404Y0173500D03*
X0268404Y0173500D03*
X0268404Y0167500D03*
X0268404Y0161500D03*
X0268404Y0155500D03*
X0275096Y0155500D03*
X0275096Y0161500D03*
X0275096Y0167500D03*
X0275096Y0173500D03*
X0275096Y0179500D03*
X0268404Y0179500D03*
X0281904Y0167500D03*
X0281904Y0161500D03*
X0281904Y0155500D03*
X0288596Y0155500D03*
X0288596Y0161500D03*
X0288596Y0167500D03*
X0288596Y0362500D03*
X0288596Y0368500D03*
X0288596Y0374500D03*
X0281904Y0374500D03*
X0281904Y0368500D03*
X0281904Y0362500D03*
X0275096Y0362500D03*
X0275096Y0368500D03*
X0275096Y0374500D03*
X0268404Y0374500D03*
X0268404Y0368500D03*
X0268404Y0362500D03*
X0268404Y0380500D03*
X0268404Y0386500D03*
X0275096Y0386500D03*
X0275096Y0380500D03*
D19*
X0274250Y0288024D03*
X0279250Y0288024D03*
X0284250Y0288024D03*
X0289250Y0288024D03*
X0294250Y0288024D03*
X0299250Y0288024D03*
X0304250Y0288024D03*
X0309250Y0288024D03*
X0309250Y0265976D03*
X0304250Y0265976D03*
X0299250Y0265976D03*
X0294250Y0265976D03*
X0289250Y0265976D03*
X0284250Y0265976D03*
X0279250Y0265976D03*
X0274250Y0265976D03*
X0197250Y0265976D03*
X0192250Y0265976D03*
X0187250Y0265976D03*
X0182250Y0265976D03*
X0177250Y0265976D03*
X0172250Y0265976D03*
X0167250Y0265976D03*
X0162250Y0265976D03*
X0162250Y0288024D03*
X0167250Y0288024D03*
X0172250Y0288024D03*
X0177250Y0288024D03*
X0182250Y0288024D03*
X0187250Y0288024D03*
X0192250Y0288024D03*
X0197250Y0288024D03*
X0085250Y0288024D03*
X0080250Y0288024D03*
X0075250Y0288024D03*
X0070250Y0288024D03*
X0065250Y0288024D03*
X0060250Y0288024D03*
X0055250Y0288024D03*
X0050250Y0288024D03*
X0050250Y0265976D03*
X0055250Y0265976D03*
X0060250Y0265976D03*
X0065250Y0265976D03*
X0070250Y0265976D03*
X0075250Y0265976D03*
X0080250Y0265976D03*
X0085250Y0265976D03*
X0085250Y0081024D03*
X0080250Y0081024D03*
X0075250Y0081024D03*
X0070250Y0081024D03*
X0065250Y0081024D03*
X0060250Y0081024D03*
X0055250Y0081024D03*
X0050250Y0081024D03*
X0050250Y0058976D03*
X0055250Y0058976D03*
X0060250Y0058976D03*
X0065250Y0058976D03*
X0070250Y0058976D03*
X0075250Y0058976D03*
X0080250Y0058976D03*
X0085250Y0058976D03*
X0162250Y0058976D03*
X0167250Y0058976D03*
X0172250Y0058976D03*
X0177250Y0058976D03*
X0182250Y0058976D03*
X0187250Y0058976D03*
X0192250Y0058976D03*
X0197250Y0058976D03*
X0197250Y0081024D03*
X0192250Y0081024D03*
X0187250Y0081024D03*
X0182250Y0081024D03*
X0177250Y0081024D03*
X0172250Y0081024D03*
X0167250Y0081024D03*
X0162250Y0081024D03*
X0274250Y0081024D03*
X0279250Y0081024D03*
X0284250Y0081024D03*
X0289250Y0081024D03*
X0294250Y0081024D03*
X0299250Y0081024D03*
X0304250Y0081024D03*
X0309250Y0081024D03*
X0309250Y0058976D03*
X0304250Y0058976D03*
X0299250Y0058976D03*
X0294250Y0058976D03*
X0289250Y0058976D03*
X0284250Y0058976D03*
X0279250Y0058976D03*
X0274250Y0058976D03*
D20*
X0280557Y0192661D03*
X0280557Y0195220D03*
X0280557Y0197780D03*
X0280557Y0200339D03*
X0268943Y0200339D03*
X0268943Y0197780D03*
X0268943Y0195220D03*
X0168557Y0195220D03*
X0168557Y0192661D03*
X0168557Y0197780D03*
X0168557Y0200339D03*
X0156943Y0200339D03*
X0156943Y0197780D03*
X0156943Y0195220D03*
X0056557Y0195220D03*
X0056557Y0192661D03*
X0056557Y0197780D03*
X0056557Y0200339D03*
X0044943Y0200339D03*
X0044943Y0197780D03*
X0044943Y0195220D03*
X0056557Y0399661D03*
X0056557Y0402220D03*
X0056557Y0404780D03*
X0056557Y0407339D03*
X0044943Y0407339D03*
X0044943Y0404780D03*
X0044943Y0402220D03*
X0156943Y0402220D03*
X0156943Y0404780D03*
X0156943Y0407339D03*
X0168557Y0407339D03*
X0168557Y0404780D03*
X0168557Y0402220D03*
X0168557Y0399661D03*
X0268943Y0402220D03*
X0268943Y0404780D03*
X0268943Y0407339D03*
X0280557Y0407339D03*
X0280557Y0404780D03*
X0280557Y0402220D03*
X0280557Y0399661D03*
D21*
X0274750Y0403500D03*
X0162750Y0403500D03*
X0050750Y0403500D03*
X0050750Y0196500D03*
X0162750Y0196500D03*
X0274750Y0196500D03*
D22*
X0270907Y0191681D02*
X0266979Y0191681D01*
X0266979Y0193641D01*
X0270907Y0193641D01*
X0270907Y0191681D01*
X0270907Y0191898D02*
X0266979Y0191898D01*
X0266979Y0192115D02*
X0270907Y0192115D01*
X0270907Y0192332D02*
X0266979Y0192332D01*
X0266979Y0192549D02*
X0270907Y0192549D01*
X0270907Y0192766D02*
X0266979Y0192766D01*
X0266979Y0192983D02*
X0270907Y0192983D01*
X0270907Y0193200D02*
X0266979Y0193200D01*
X0266979Y0193417D02*
X0270907Y0193417D01*
X0270907Y0193634D02*
X0266979Y0193634D01*
X0158907Y0191681D02*
X0154979Y0191681D01*
X0154979Y0193641D01*
X0158907Y0193641D01*
X0158907Y0191681D01*
X0158907Y0191898D02*
X0154979Y0191898D01*
X0154979Y0192115D02*
X0158907Y0192115D01*
X0158907Y0192332D02*
X0154979Y0192332D01*
X0154979Y0192549D02*
X0158907Y0192549D01*
X0158907Y0192766D02*
X0154979Y0192766D01*
X0154979Y0192983D02*
X0158907Y0192983D01*
X0158907Y0193200D02*
X0154979Y0193200D01*
X0154979Y0193417D02*
X0158907Y0193417D01*
X0158907Y0193634D02*
X0154979Y0193634D01*
X0046907Y0191681D02*
X0042979Y0191681D01*
X0042979Y0193641D01*
X0046907Y0193641D01*
X0046907Y0191681D01*
X0046907Y0191898D02*
X0042979Y0191898D01*
X0042979Y0192115D02*
X0046907Y0192115D01*
X0046907Y0192332D02*
X0042979Y0192332D01*
X0042979Y0192549D02*
X0046907Y0192549D01*
X0046907Y0192766D02*
X0042979Y0192766D01*
X0042979Y0192983D02*
X0046907Y0192983D01*
X0046907Y0193200D02*
X0042979Y0193200D01*
X0042979Y0193417D02*
X0046907Y0193417D01*
X0046907Y0193634D02*
X0042979Y0193634D01*
X0042979Y0398681D02*
X0046907Y0398681D01*
X0042979Y0398681D02*
X0042979Y0400641D01*
X0046907Y0400641D01*
X0046907Y0398681D01*
X0046907Y0398898D02*
X0042979Y0398898D01*
X0042979Y0399115D02*
X0046907Y0399115D01*
X0046907Y0399332D02*
X0042979Y0399332D01*
X0042979Y0399549D02*
X0046907Y0399549D01*
X0046907Y0399766D02*
X0042979Y0399766D01*
X0042979Y0399983D02*
X0046907Y0399983D01*
X0046907Y0400200D02*
X0042979Y0400200D01*
X0042979Y0400417D02*
X0046907Y0400417D01*
X0046907Y0400634D02*
X0042979Y0400634D01*
X0154979Y0398681D02*
X0158907Y0398681D01*
X0154979Y0398681D02*
X0154979Y0400641D01*
X0158907Y0400641D01*
X0158907Y0398681D01*
X0158907Y0398898D02*
X0154979Y0398898D01*
X0154979Y0399115D02*
X0158907Y0399115D01*
X0158907Y0399332D02*
X0154979Y0399332D01*
X0154979Y0399549D02*
X0158907Y0399549D01*
X0158907Y0399766D02*
X0154979Y0399766D01*
X0154979Y0399983D02*
X0158907Y0399983D01*
X0158907Y0400200D02*
X0154979Y0400200D01*
X0154979Y0400417D02*
X0158907Y0400417D01*
X0158907Y0400634D02*
X0154979Y0400634D01*
X0266979Y0398681D02*
X0270907Y0398681D01*
X0266979Y0398681D02*
X0266979Y0400641D01*
X0270907Y0400641D01*
X0270907Y0398681D01*
X0270907Y0398898D02*
X0266979Y0398898D01*
X0266979Y0399115D02*
X0270907Y0399115D01*
X0270907Y0399332D02*
X0266979Y0399332D01*
X0266979Y0399549D02*
X0270907Y0399549D01*
X0270907Y0399766D02*
X0266979Y0399766D01*
X0266979Y0399983D02*
X0270907Y0399983D01*
X0270907Y0400200D02*
X0266979Y0400200D01*
X0266979Y0400417D02*
X0270907Y0400417D01*
X0270907Y0400634D02*
X0266979Y0400634D01*
D23*
X0212175Y0340929D03*
X0212175Y0318488D03*
X0100175Y0318488D03*
X0100175Y0340929D03*
X0100175Y0133929D03*
X0100175Y0111488D03*
X0212175Y0111488D03*
X0212175Y0133929D03*
X0324175Y0133929D03*
X0324175Y0111488D03*
X0324175Y0318488D03*
X0324175Y0340929D03*
D24*
X0272404Y0347228D03*
X0268467Y0295457D03*
X0160404Y0347228D03*
X0156467Y0295457D03*
X0048404Y0347228D03*
X0044467Y0295457D03*
X0048404Y0140228D03*
X0044467Y0088457D03*
X0156467Y0088457D03*
X0160404Y0140228D03*
X0268467Y0088457D03*
X0272404Y0140228D03*
D25*
X0283624Y0137118D03*
X0283624Y0132787D03*
X0282837Y0128457D03*
X0283624Y0124126D03*
X0282837Y0119795D03*
X0283624Y0115465D03*
X0285199Y0111134D03*
X0283624Y0106803D03*
X0173199Y0111134D03*
X0171624Y0115465D03*
X0170837Y0119795D03*
X0171624Y0124126D03*
X0170837Y0128457D03*
X0171624Y0132787D03*
X0171624Y0137118D03*
X0171624Y0106803D03*
X0061199Y0111134D03*
X0059624Y0115465D03*
X0058837Y0119795D03*
X0059624Y0124126D03*
X0058837Y0128457D03*
X0059624Y0132787D03*
X0059624Y0137118D03*
X0059624Y0106803D03*
X0059624Y0313803D03*
X0061199Y0318134D03*
X0059624Y0322465D03*
X0058837Y0326795D03*
X0059624Y0331126D03*
X0058837Y0335457D03*
X0059624Y0339787D03*
X0059624Y0344118D03*
X0170837Y0335457D03*
X0171624Y0339787D03*
X0171624Y0344118D03*
X0171624Y0331126D03*
X0170837Y0326795D03*
X0171624Y0322465D03*
X0173199Y0318134D03*
X0171624Y0313803D03*
X0282837Y0326795D03*
X0283624Y0322465D03*
X0285199Y0318134D03*
X0283624Y0313803D03*
X0283624Y0331126D03*
X0282837Y0335457D03*
X0283624Y0339787D03*
X0283624Y0344118D03*
D26*
X0322593Y0355205D03*
X0338341Y0355205D03*
X0350152Y0355205D03*
X0318262Y0380795D03*
X0238152Y0355205D03*
X0226341Y0355205D03*
X0210593Y0355205D03*
X0206262Y0380795D03*
X0126152Y0355205D03*
X0114341Y0355205D03*
X0098593Y0355205D03*
X0094262Y0380795D03*
X0094262Y0173795D03*
X0098593Y0148205D03*
X0114341Y0148205D03*
X0126152Y0148205D03*
X0206262Y0173795D03*
X0210593Y0148205D03*
X0226341Y0148205D03*
X0238152Y0148205D03*
X0318262Y0173795D03*
X0322593Y0148205D03*
X0338341Y0148205D03*
X0350152Y0148205D03*
D27*
X0356451Y0161000D03*
X0328892Y0161000D03*
X0244451Y0161000D03*
X0216892Y0161000D03*
X0132451Y0161000D03*
X0104892Y0161000D03*
X0104892Y0368000D03*
X0132451Y0368000D03*
X0216892Y0368000D03*
X0244451Y0368000D03*
X0328892Y0368000D03*
X0356451Y0368000D03*
D28*
X0355908Y0305295D02*
X0352592Y0305295D01*
X0352592Y0308611D01*
X0355908Y0308611D01*
X0355908Y0305295D01*
X0355908Y0306715D02*
X0352592Y0306715D01*
X0352592Y0308135D02*
X0355908Y0308135D01*
X0355908Y0298389D02*
X0352592Y0298389D01*
X0352592Y0301705D01*
X0355908Y0301705D01*
X0355908Y0298389D01*
X0355908Y0299809D02*
X0352592Y0299809D01*
X0352592Y0301229D02*
X0355908Y0301229D01*
X0243908Y0298389D02*
X0240592Y0298389D01*
X0240592Y0301705D01*
X0243908Y0301705D01*
X0243908Y0298389D01*
X0243908Y0299809D02*
X0240592Y0299809D01*
X0240592Y0301229D02*
X0243908Y0301229D01*
X0243908Y0305295D02*
X0240592Y0305295D01*
X0240592Y0308611D01*
X0243908Y0308611D01*
X0243908Y0305295D01*
X0243908Y0306715D02*
X0240592Y0306715D01*
X0240592Y0308135D02*
X0243908Y0308135D01*
X0131908Y0305295D02*
X0128592Y0305295D01*
X0128592Y0308611D01*
X0131908Y0308611D01*
X0131908Y0305295D01*
X0131908Y0306715D02*
X0128592Y0306715D01*
X0128592Y0308135D02*
X0131908Y0308135D01*
X0131908Y0298389D02*
X0128592Y0298389D01*
X0128592Y0301705D01*
X0131908Y0301705D01*
X0131908Y0298389D01*
X0131908Y0299809D02*
X0128592Y0299809D01*
X0128592Y0301229D02*
X0131908Y0301229D01*
X0131908Y0098295D02*
X0128592Y0098295D01*
X0128592Y0101611D01*
X0131908Y0101611D01*
X0131908Y0098295D01*
X0131908Y0099715D02*
X0128592Y0099715D01*
X0128592Y0101135D02*
X0131908Y0101135D01*
X0131908Y0091389D02*
X0128592Y0091389D01*
X0128592Y0094705D01*
X0131908Y0094705D01*
X0131908Y0091389D01*
X0131908Y0092809D02*
X0128592Y0092809D01*
X0128592Y0094229D02*
X0131908Y0094229D01*
X0240592Y0091389D02*
X0243908Y0091389D01*
X0240592Y0091389D02*
X0240592Y0094705D01*
X0243908Y0094705D01*
X0243908Y0091389D01*
X0243908Y0092809D02*
X0240592Y0092809D01*
X0240592Y0094229D02*
X0243908Y0094229D01*
X0243908Y0098295D02*
X0240592Y0098295D01*
X0240592Y0101611D01*
X0243908Y0101611D01*
X0243908Y0098295D01*
X0243908Y0099715D02*
X0240592Y0099715D01*
X0240592Y0101135D02*
X0243908Y0101135D01*
X0352592Y0098295D02*
X0355908Y0098295D01*
X0352592Y0098295D02*
X0352592Y0101611D01*
X0355908Y0101611D01*
X0355908Y0098295D01*
X0355908Y0099715D02*
X0352592Y0099715D01*
X0352592Y0101135D02*
X0355908Y0101135D01*
X0355908Y0091389D02*
X0352592Y0091389D01*
X0352592Y0094705D01*
X0355908Y0094705D01*
X0355908Y0091389D01*
X0355908Y0092809D02*
X0352592Y0092809D01*
X0352592Y0094229D02*
X0355908Y0094229D01*
D29*
X0313081Y0188126D03*
X0313081Y0203874D03*
X0201081Y0203874D03*
X0201081Y0188126D03*
X0089081Y0188126D03*
X0089081Y0203874D03*
X0089081Y0395126D03*
X0089081Y0410874D03*
X0201081Y0410874D03*
X0201081Y0395126D03*
X0313081Y0395126D03*
X0313081Y0410874D03*
D30*
X0349498Y0410874D03*
X0349498Y0395126D03*
X0237498Y0395126D03*
X0237498Y0410874D03*
X0125498Y0410874D03*
X0125498Y0395126D03*
X0125498Y0203874D03*
X0125498Y0188126D03*
X0237498Y0188126D03*
X0237498Y0203874D03*
X0349498Y0203874D03*
X0349498Y0188126D03*
D31*
X0325750Y0448750D03*
X0075750Y0448750D03*
D32*
X0072185Y0020250D02*
X0072187Y0020369D01*
X0072193Y0020488D01*
X0072203Y0020607D01*
X0072217Y0020725D01*
X0072235Y0020843D01*
X0072256Y0020960D01*
X0072282Y0021076D01*
X0072312Y0021192D01*
X0072345Y0021306D01*
X0072382Y0021419D01*
X0072423Y0021531D01*
X0072468Y0021642D01*
X0072516Y0021751D01*
X0072568Y0021858D01*
X0072624Y0021963D01*
X0072683Y0022067D01*
X0072745Y0022168D01*
X0072811Y0022268D01*
X0072880Y0022365D01*
X0072952Y0022459D01*
X0073028Y0022552D01*
X0073106Y0022641D01*
X0073187Y0022728D01*
X0073272Y0022813D01*
X0073359Y0022894D01*
X0073448Y0022972D01*
X0073541Y0023048D01*
X0073635Y0023120D01*
X0073732Y0023189D01*
X0073832Y0023255D01*
X0073933Y0023317D01*
X0074037Y0023376D01*
X0074142Y0023432D01*
X0074249Y0023484D01*
X0074358Y0023532D01*
X0074469Y0023577D01*
X0074581Y0023618D01*
X0074694Y0023655D01*
X0074808Y0023688D01*
X0074924Y0023718D01*
X0075040Y0023744D01*
X0075157Y0023765D01*
X0075275Y0023783D01*
X0075393Y0023797D01*
X0075512Y0023807D01*
X0075631Y0023813D01*
X0075750Y0023815D01*
X0075869Y0023813D01*
X0075988Y0023807D01*
X0076107Y0023797D01*
X0076225Y0023783D01*
X0076343Y0023765D01*
X0076460Y0023744D01*
X0076576Y0023718D01*
X0076692Y0023688D01*
X0076806Y0023655D01*
X0076919Y0023618D01*
X0077031Y0023577D01*
X0077142Y0023532D01*
X0077251Y0023484D01*
X0077358Y0023432D01*
X0077463Y0023376D01*
X0077567Y0023317D01*
X0077668Y0023255D01*
X0077768Y0023189D01*
X0077865Y0023120D01*
X0077959Y0023048D01*
X0078052Y0022972D01*
X0078141Y0022894D01*
X0078228Y0022813D01*
X0078313Y0022728D01*
X0078394Y0022641D01*
X0078472Y0022552D01*
X0078548Y0022459D01*
X0078620Y0022365D01*
X0078689Y0022268D01*
X0078755Y0022168D01*
X0078817Y0022067D01*
X0078876Y0021963D01*
X0078932Y0021858D01*
X0078984Y0021751D01*
X0079032Y0021642D01*
X0079077Y0021531D01*
X0079118Y0021419D01*
X0079155Y0021306D01*
X0079188Y0021192D01*
X0079218Y0021076D01*
X0079244Y0020960D01*
X0079265Y0020843D01*
X0079283Y0020725D01*
X0079297Y0020607D01*
X0079307Y0020488D01*
X0079313Y0020369D01*
X0079315Y0020250D01*
X0079313Y0020131D01*
X0079307Y0020012D01*
X0079297Y0019893D01*
X0079283Y0019775D01*
X0079265Y0019657D01*
X0079244Y0019540D01*
X0079218Y0019424D01*
X0079188Y0019308D01*
X0079155Y0019194D01*
X0079118Y0019081D01*
X0079077Y0018969D01*
X0079032Y0018858D01*
X0078984Y0018749D01*
X0078932Y0018642D01*
X0078876Y0018537D01*
X0078817Y0018433D01*
X0078755Y0018332D01*
X0078689Y0018232D01*
X0078620Y0018135D01*
X0078548Y0018041D01*
X0078472Y0017948D01*
X0078394Y0017859D01*
X0078313Y0017772D01*
X0078228Y0017687D01*
X0078141Y0017606D01*
X0078052Y0017528D01*
X0077959Y0017452D01*
X0077865Y0017380D01*
X0077768Y0017311D01*
X0077668Y0017245D01*
X0077567Y0017183D01*
X0077463Y0017124D01*
X0077358Y0017068D01*
X0077251Y0017016D01*
X0077142Y0016968D01*
X0077031Y0016923D01*
X0076919Y0016882D01*
X0076806Y0016845D01*
X0076692Y0016812D01*
X0076576Y0016782D01*
X0076460Y0016756D01*
X0076343Y0016735D01*
X0076225Y0016717D01*
X0076107Y0016703D01*
X0075988Y0016693D01*
X0075869Y0016687D01*
X0075750Y0016685D01*
X0075631Y0016687D01*
X0075512Y0016693D01*
X0075393Y0016703D01*
X0075275Y0016717D01*
X0075157Y0016735D01*
X0075040Y0016756D01*
X0074924Y0016782D01*
X0074808Y0016812D01*
X0074694Y0016845D01*
X0074581Y0016882D01*
X0074469Y0016923D01*
X0074358Y0016968D01*
X0074249Y0017016D01*
X0074142Y0017068D01*
X0074037Y0017124D01*
X0073933Y0017183D01*
X0073832Y0017245D01*
X0073732Y0017311D01*
X0073635Y0017380D01*
X0073541Y0017452D01*
X0073448Y0017528D01*
X0073359Y0017606D01*
X0073272Y0017687D01*
X0073187Y0017772D01*
X0073106Y0017859D01*
X0073028Y0017948D01*
X0072952Y0018041D01*
X0072880Y0018135D01*
X0072811Y0018232D01*
X0072745Y0018332D01*
X0072683Y0018433D01*
X0072624Y0018537D01*
X0072568Y0018642D01*
X0072516Y0018749D01*
X0072468Y0018858D01*
X0072423Y0018969D01*
X0072382Y0019081D01*
X0072345Y0019194D01*
X0072312Y0019308D01*
X0072282Y0019424D01*
X0072256Y0019540D01*
X0072235Y0019657D01*
X0072217Y0019775D01*
X0072203Y0019893D01*
X0072193Y0020012D01*
X0072187Y0020131D01*
X0072185Y0020250D01*
D33*
X0075750Y0020250D03*
M02*
