%
M48
M72
T01C0.0138
T02C0.0150
T03C0.0400
T04C0.0472
T05C0.1300
%
T01
X6325Y6700
X6025Y7050
X6025Y7600
X6575Y7300
X7025Y6400
X7775Y6400
X7275Y5400
X8875Y5050
X9775Y5950
X11625Y7050
X11625Y7400
X11175Y7850
X10575Y8300
X8525Y8600
X8325Y8950
X7775Y8600
X7525Y7650
X6525Y8950
X7025Y10450
X6625Y12400
X6625Y12850
X6625Y13250
X7075Y13150
X7075Y14861
X6875Y15550
X5325Y14850
X4475Y15100
X4125Y14800
X5075Y13250
X4925Y12400
X4575Y8300
X9275Y13350
X10275Y10450
X15325Y14800
X15675Y15100
X16525Y14850
X16275Y13250
X16125Y12400
X17825Y12400
X17825Y12850
X17825Y13250
X18275Y13150
X18275Y14861
X18075Y15550
X17275Y17350
X16725Y17350
X16425Y18700
X16825Y18850
X17475Y20200
X15325Y20100
X15325Y19762
X15325Y19200
X20475Y13350
X21475Y10450
X19525Y8950
X19725Y8600
X18975Y8600
X18725Y7650
X17775Y7300
X17225Y7050
X17525Y6700
X18225Y6400
X18975Y6400
X18475Y5400
X20075Y5050
X20975Y5950
X22825Y7050
X22825Y7400
X22375Y7850
X21775Y8300
X18225Y10450
X17725Y8950
X17225Y7600
X15775Y8300
X6075Y17350
X5525Y17350
X5225Y18700
X5625Y18850
X6275Y20200
X4125Y20100
X4125Y19762
X4125Y19200
X8875Y25750
X9775Y26650
X7775Y27100
X7025Y27100
X6325Y27400
X6025Y27750
X6025Y28300
X6575Y28000
X7525Y28350
X7775Y29300
X8325Y29650
X8525Y29300
X6525Y29650
X7025Y31150
X6625Y33100
X6625Y33550
X6625Y33950
X7075Y33850
X7075Y35561
X6875Y36250
X5325Y35550
X4475Y35800
X4125Y35500
X5075Y33950
X4925Y33100
X4575Y29000
X7275Y26100
X10575Y29000
X11175Y28550
X11625Y28100
X11625Y27750
X10275Y31150
X9275Y34050
X6075Y38050
X5525Y38050
X5225Y39400
X5625Y39550
X6275Y40900
X4125Y40800
X4125Y40462
X4125Y39900
X15325Y39900
X15325Y40462
X15325Y40800
X16425Y39400
X16825Y39550
X17475Y40900
X17275Y38050
X16725Y38050
X18075Y36250
X18275Y35561
X17825Y33950
X17825Y33550
X17825Y33100
X18275Y33850
X16275Y33950
X16125Y33100
X16525Y35550
X15675Y35800
X15325Y35500
X18225Y31150
X17725Y29650
X18975Y29300
X19525Y29650
X19725Y29300
X18725Y28350
X17775Y28000
X17225Y27750
X17525Y27400
X18225Y27100
X18975Y27100
X18475Y26100
X20075Y25750
X20975Y26650
X22825Y27750
X22825Y28100
X22375Y28550
X21775Y29000
X21475Y31150
X20475Y34050
X15775Y29000
X17225Y28300
X26525Y35500
X26875Y35800
X27725Y35550
X27475Y33950
X27325Y33100
X29025Y33100
X29025Y33550
X29025Y33950
X29475Y33850
X29475Y35561
X29275Y36250
X28475Y38050
X27925Y38050
X27625Y39400
X28025Y39550
X28675Y40900
X26525Y40800
X26525Y40462
X26525Y39900
X31675Y34050
X32675Y31150
X30725Y29650
X30925Y29300
X30175Y29300
X29925Y28350
X28975Y28000
X28425Y27750
X28725Y27400
X29425Y27100
X30175Y27100
X29675Y26100
X31275Y25750
X32175Y26650
X34025Y27750
X34025Y28100
X33575Y28550
X32975Y29000
X29425Y31150
X28925Y29650
X28425Y28300
X26975Y29000
X28675Y20200
X28025Y18850
X27625Y18700
X26525Y19200
X26525Y19762
X26525Y20100
X27925Y17350
X28475Y17350
X29275Y15550
X29475Y14861
X29025Y13250
X29025Y12850
X29025Y12400
X29475Y13150
X27725Y14850
X26875Y15100
X26525Y14800
X27475Y13250
X27325Y12400
X29425Y10450
X28925Y8950
X30175Y8600
X30725Y8950
X30925Y8600
X29925Y7650
X28975Y7300
X28425Y7050
X28725Y6700
X29425Y6400
X30175Y6400
X29675Y5400
X31275Y5050
X32175Y5950
X34025Y7050
X34025Y7400
X33575Y7850
X32975Y8300
X32675Y10450
X31675Y13350
X26975Y8300
X28425Y7600
T02
X27725Y6700
X30125Y4950
X34275Y5350
X35425Y8850
X24225Y8850
X23075Y5350
X18925Y4950
X16525Y6700
X13025Y8850
X11875Y5350
X7725Y4950
X5325Y6700
X7725Y25650
X5325Y27400
X11875Y26050
X13025Y29550
X16525Y27400
X18925Y25650
X23075Y26050
X24225Y29550
X27725Y27400
X30125Y25650
X34275Y26050
X35425Y29550
T03
X33275Y24050
X32275Y24050
X31275Y24050
X30275Y24050
X29275Y24050
X29275Y19850
X29275Y18850
X30275Y16850
X30275Y15850
X30275Y14850
X22075Y24050
X21075Y24050
X20075Y24050
X19075Y24050
X18075Y24050
X18075Y19850
X18075Y18850
X19075Y16850
X19075Y15850
X19075Y14850
X10875Y24050
X9875Y24050
X8875Y24050
X7875Y24050
X6875Y24050
X6875Y19850
X6875Y18850
X7875Y16850
X7875Y15850
X7875Y14850
X7875Y3350
X6875Y3350
X8875Y3350
X9875Y3350
X10875Y3350
X18075Y3350
X19075Y3350
X20075Y3350
X21075Y3350
X22075Y3350
X29275Y3350
X30275Y3350
X31275Y3350
X32275Y3350
X33275Y3350
X30275Y35550
X30275Y36550
X30275Y37550
X29275Y39550
X29275Y40550
X19075Y37550
X19075Y36550
X19075Y35550
X18075Y39550
X18075Y40550
X7875Y37550
X7875Y36550
X7875Y35550
X6875Y39550
X6875Y40550
T04
X10489Y36800
X13245Y36800
X21689Y36800
X24445Y36800
X32889Y36800
X35645Y36800
X35645Y16100
X32889Y16100
X24445Y16100
X21689Y16100
X13245Y16100
X10489Y16100
T05
X4875Y3850
X12875Y3850
X16075Y3850
X24075Y3850
X27275Y3850
X35275Y3850
X35275Y22350
X35275Y24550
X27275Y24550
X27275Y22350
X24075Y22350
X24075Y24550
X16075Y24550
X16075Y22350
X12875Y22350
X12875Y24550
X4875Y24550
X4875Y22350
X4875Y43050
X12875Y43050
X16075Y43050
X24075Y43050
X27275Y43050
X35275Y43050
M30
