G75*
%MOIN*%
%OFA0B0*%
%FSLAX25Y25*%
%IPPOS*%
%LPD*%
%AMOC8*
5,1,8,0,0,1.08239X$1,22.5*
%
%ADD10C,0.13800*%
%ADD11C,0.03300*%
%ADD12C,0.08200*%
%ADD13C,0.05524*%
%ADD14C,0.04737*%
%ADD15C,0.05000*%
%ADD16C,0.06706*%
D10*
X0048750Y0038500D03*
X0128750Y0038500D03*
X0160750Y0038500D03*
X0240750Y0038500D03*
X0272750Y0038500D03*
X0352750Y0038500D03*
X0352750Y0223500D03*
X0352750Y0245500D03*
X0272750Y0245500D03*
X0272750Y0223500D03*
X0240750Y0223500D03*
X0240750Y0245500D03*
X0160750Y0245500D03*
X0160750Y0223500D03*
X0128750Y0223500D03*
X0128750Y0245500D03*
X0048750Y0245500D03*
X0048750Y0223500D03*
X0048750Y0430500D03*
X0128750Y0430500D03*
X0160750Y0430500D03*
X0240750Y0430500D03*
X0272750Y0430500D03*
X0352750Y0430500D03*
D11*
X0042250Y0032000D03*
X0154250Y0032000D03*
X0266250Y0032000D03*
X0247750Y0230500D03*
X0266250Y0239000D03*
X0359750Y0230500D03*
X0154250Y0239000D03*
X0135750Y0230500D03*
X0042250Y0239000D03*
X0135750Y0437500D03*
X0247750Y0437500D03*
X0359750Y0437500D03*
D12*
X0302750Y0375500D03*
X0302750Y0365500D03*
X0302750Y0355500D03*
X0292750Y0395500D03*
X0292750Y0405500D03*
X0190750Y0375500D03*
X0190750Y0365500D03*
X0190750Y0355500D03*
X0180750Y0395500D03*
X0180750Y0405500D03*
X0078750Y0375500D03*
X0078750Y0365500D03*
X0078750Y0355500D03*
X0068750Y0395500D03*
X0068750Y0405500D03*
X0068750Y0240500D03*
X0078750Y0240500D03*
X0088750Y0240500D03*
X0098750Y0240500D03*
X0108750Y0240500D03*
X0068750Y0198500D03*
X0068750Y0188500D03*
X0078750Y0168500D03*
X0078750Y0158500D03*
X0078750Y0148500D03*
X0180750Y0188500D03*
X0180750Y0198500D03*
X0190750Y0168500D03*
X0190750Y0158500D03*
X0190750Y0148500D03*
X0190750Y0240500D03*
X0200750Y0240500D03*
X0210750Y0240500D03*
X0220750Y0240500D03*
X0180750Y0240500D03*
X0292750Y0240500D03*
X0302750Y0240500D03*
X0312750Y0240500D03*
X0322750Y0240500D03*
X0332750Y0240500D03*
X0292750Y0198500D03*
X0292750Y0188500D03*
X0302750Y0168500D03*
X0302750Y0158500D03*
X0302750Y0148500D03*
X0302750Y0033500D03*
X0292750Y0033500D03*
X0312750Y0033500D03*
X0322750Y0033500D03*
X0332750Y0033500D03*
X0220750Y0033500D03*
X0210750Y0033500D03*
X0200750Y0033500D03*
X0190750Y0033500D03*
X0180750Y0033500D03*
X0108750Y0033500D03*
X0098750Y0033500D03*
X0088750Y0033500D03*
X0078750Y0033500D03*
X0068750Y0033500D03*
D13*
X0104892Y0161000D03*
X0132451Y0161000D03*
X0216892Y0161000D03*
X0244451Y0161000D03*
X0328892Y0161000D03*
X0356451Y0161000D03*
X0356451Y0368000D03*
X0328892Y0368000D03*
X0244451Y0368000D03*
X0216892Y0368000D03*
X0132451Y0368000D03*
X0104892Y0368000D03*
D14*
X0075750Y0448750D03*
X0325750Y0448750D03*
D15*
X0072185Y0020250D02*
X0072187Y0020369D01*
X0072193Y0020488D01*
X0072203Y0020607D01*
X0072217Y0020725D01*
X0072235Y0020843D01*
X0072256Y0020960D01*
X0072282Y0021076D01*
X0072312Y0021192D01*
X0072345Y0021306D01*
X0072382Y0021419D01*
X0072423Y0021531D01*
X0072468Y0021642D01*
X0072516Y0021751D01*
X0072568Y0021858D01*
X0072624Y0021963D01*
X0072683Y0022067D01*
X0072745Y0022168D01*
X0072811Y0022268D01*
X0072880Y0022365D01*
X0072952Y0022459D01*
X0073028Y0022552D01*
X0073106Y0022641D01*
X0073187Y0022728D01*
X0073272Y0022813D01*
X0073359Y0022894D01*
X0073448Y0022972D01*
X0073541Y0023048D01*
X0073635Y0023120D01*
X0073732Y0023189D01*
X0073832Y0023255D01*
X0073933Y0023317D01*
X0074037Y0023376D01*
X0074142Y0023432D01*
X0074249Y0023484D01*
X0074358Y0023532D01*
X0074469Y0023577D01*
X0074581Y0023618D01*
X0074694Y0023655D01*
X0074808Y0023688D01*
X0074924Y0023718D01*
X0075040Y0023744D01*
X0075157Y0023765D01*
X0075275Y0023783D01*
X0075393Y0023797D01*
X0075512Y0023807D01*
X0075631Y0023813D01*
X0075750Y0023815D01*
X0075869Y0023813D01*
X0075988Y0023807D01*
X0076107Y0023797D01*
X0076225Y0023783D01*
X0076343Y0023765D01*
X0076460Y0023744D01*
X0076576Y0023718D01*
X0076692Y0023688D01*
X0076806Y0023655D01*
X0076919Y0023618D01*
X0077031Y0023577D01*
X0077142Y0023532D01*
X0077251Y0023484D01*
X0077358Y0023432D01*
X0077463Y0023376D01*
X0077567Y0023317D01*
X0077668Y0023255D01*
X0077768Y0023189D01*
X0077865Y0023120D01*
X0077959Y0023048D01*
X0078052Y0022972D01*
X0078141Y0022894D01*
X0078228Y0022813D01*
X0078313Y0022728D01*
X0078394Y0022641D01*
X0078472Y0022552D01*
X0078548Y0022459D01*
X0078620Y0022365D01*
X0078689Y0022268D01*
X0078755Y0022168D01*
X0078817Y0022067D01*
X0078876Y0021963D01*
X0078932Y0021858D01*
X0078984Y0021751D01*
X0079032Y0021642D01*
X0079077Y0021531D01*
X0079118Y0021419D01*
X0079155Y0021306D01*
X0079188Y0021192D01*
X0079218Y0021076D01*
X0079244Y0020960D01*
X0079265Y0020843D01*
X0079283Y0020725D01*
X0079297Y0020607D01*
X0079307Y0020488D01*
X0079313Y0020369D01*
X0079315Y0020250D01*
X0079313Y0020131D01*
X0079307Y0020012D01*
X0079297Y0019893D01*
X0079283Y0019775D01*
X0079265Y0019657D01*
X0079244Y0019540D01*
X0079218Y0019424D01*
X0079188Y0019308D01*
X0079155Y0019194D01*
X0079118Y0019081D01*
X0079077Y0018969D01*
X0079032Y0018858D01*
X0078984Y0018749D01*
X0078932Y0018642D01*
X0078876Y0018537D01*
X0078817Y0018433D01*
X0078755Y0018332D01*
X0078689Y0018232D01*
X0078620Y0018135D01*
X0078548Y0018041D01*
X0078472Y0017948D01*
X0078394Y0017859D01*
X0078313Y0017772D01*
X0078228Y0017687D01*
X0078141Y0017606D01*
X0078052Y0017528D01*
X0077959Y0017452D01*
X0077865Y0017380D01*
X0077768Y0017311D01*
X0077668Y0017245D01*
X0077567Y0017183D01*
X0077463Y0017124D01*
X0077358Y0017068D01*
X0077251Y0017016D01*
X0077142Y0016968D01*
X0077031Y0016923D01*
X0076919Y0016882D01*
X0076806Y0016845D01*
X0076692Y0016812D01*
X0076576Y0016782D01*
X0076460Y0016756D01*
X0076343Y0016735D01*
X0076225Y0016717D01*
X0076107Y0016703D01*
X0075988Y0016693D01*
X0075869Y0016687D01*
X0075750Y0016685D01*
X0075631Y0016687D01*
X0075512Y0016693D01*
X0075393Y0016703D01*
X0075275Y0016717D01*
X0075157Y0016735D01*
X0075040Y0016756D01*
X0074924Y0016782D01*
X0074808Y0016812D01*
X0074694Y0016845D01*
X0074581Y0016882D01*
X0074469Y0016923D01*
X0074358Y0016968D01*
X0074249Y0017016D01*
X0074142Y0017068D01*
X0074037Y0017124D01*
X0073933Y0017183D01*
X0073832Y0017245D01*
X0073732Y0017311D01*
X0073635Y0017380D01*
X0073541Y0017452D01*
X0073448Y0017528D01*
X0073359Y0017606D01*
X0073272Y0017687D01*
X0073187Y0017772D01*
X0073106Y0017859D01*
X0073028Y0017948D01*
X0072952Y0018041D01*
X0072880Y0018135D01*
X0072811Y0018232D01*
X0072745Y0018332D01*
X0072683Y0018433D01*
X0072624Y0018537D01*
X0072568Y0018642D01*
X0072516Y0018749D01*
X0072468Y0018858D01*
X0072423Y0018969D01*
X0072382Y0019081D01*
X0072345Y0019194D01*
X0072312Y0019308D01*
X0072282Y0019424D01*
X0072256Y0019540D01*
X0072235Y0019657D01*
X0072217Y0019775D01*
X0072203Y0019893D01*
X0072193Y0020012D01*
X0072187Y0020131D01*
X0072185Y0020250D01*
D16*
X0075750Y0020250D03*
M02*
