G75*
%MOIN*%
%OFA0B0*%
%FSLAX25Y25*%
%IPPOS*%
%LPD*%
%AMOC8*
5,1,8,0,0,1.08239X$1,22.5*
%
%ADD10R,0.05748X0.07874*%
%ADD11R,0.09843X0.05610*%
%ADD12C,0.00400*%
%ADD13C,0.00197*%
%ADD14R,0.03937X0.04331*%
%ADD15R,0.04331X0.03937*%
%ADD16R,0.02362X0.04724*%
%ADD17R,0.03346X0.01378*%
%ADD18C,0.00138*%
%ADD19R,0.03000X0.03000*%
%ADD20R,0.05512X0.07087*%
%ADD21R,0.07480X0.05512*%
%ADD22R,0.05906X0.03150*%
%ADD23R,0.04724X0.09843*%
%ADD24C,0.01181*%
%ADD25R,0.13780X0.07874*%
%ADD26R,0.23622X0.07874*%
D10*
X0121167Y0060083D03*
X0121167Y0082917D03*
X0233167Y0082917D03*
X0233167Y0060083D03*
X0345167Y0060083D03*
X0345167Y0082917D03*
X0345167Y0267083D03*
X0345167Y0289917D03*
X0233167Y0289917D03*
X0233167Y0267083D03*
X0121167Y0267083D03*
X0121167Y0289917D03*
D11*
X0132781Y0282289D03*
X0132781Y0274711D03*
X0244781Y0274711D03*
X0244781Y0282289D03*
X0356781Y0282289D03*
X0356781Y0274711D03*
X0356781Y0075289D03*
X0356781Y0067711D03*
X0244781Y0067711D03*
X0244781Y0075289D03*
X0132781Y0075289D03*
X0132781Y0067711D03*
D12*
X0134810Y0063643D02*
X0124810Y0063643D01*
X0124810Y0056243D01*
X0127910Y0056243D01*
X0127910Y0058143D01*
X0127917Y0058181D01*
X0127939Y0058214D01*
X0127972Y0058236D01*
X0128010Y0058243D01*
X0134910Y0058243D01*
X0135177Y0058273D01*
X0135430Y0058362D01*
X0135658Y0058505D01*
X0135848Y0058695D01*
X0135991Y0058923D01*
X0136080Y0059176D01*
X0136110Y0059443D01*
X0136110Y0062343D01*
X0136077Y0062632D01*
X0135981Y0062907D01*
X0135826Y0063154D01*
X0135620Y0063360D01*
X0135374Y0063514D01*
X0135099Y0063611D01*
X0134810Y0063643D01*
X0135218Y0063569D02*
X0124810Y0063569D01*
X0124810Y0063170D02*
X0135809Y0063170D01*
X0136028Y0062772D02*
X0124810Y0062772D01*
X0124810Y0062373D02*
X0136106Y0062373D01*
X0136110Y0061975D02*
X0124810Y0061975D01*
X0124810Y0061576D02*
X0136110Y0061576D01*
X0136110Y0061178D02*
X0124810Y0061178D01*
X0124810Y0060779D02*
X0136110Y0060779D01*
X0136110Y0060381D02*
X0124810Y0060381D01*
X0124810Y0059982D02*
X0136110Y0059982D01*
X0136110Y0059584D02*
X0124810Y0059584D01*
X0124810Y0059185D02*
X0136081Y0059185D01*
X0135906Y0058787D02*
X0124810Y0058787D01*
X0124810Y0058388D02*
X0135472Y0058388D01*
X0127910Y0057990D02*
X0124810Y0057990D01*
X0124810Y0057591D02*
X0127910Y0057591D01*
X0127910Y0057193D02*
X0124810Y0057193D01*
X0124810Y0056794D02*
X0127910Y0056794D01*
X0127910Y0056396D02*
X0124810Y0056396D01*
X0124810Y0079306D02*
X0134810Y0079306D01*
X0135099Y0079339D01*
X0135374Y0079435D01*
X0135620Y0079590D01*
X0135826Y0079796D01*
X0135981Y0080042D01*
X0136077Y0080317D01*
X0136110Y0080606D01*
X0136110Y0083506D01*
X0136080Y0083773D01*
X0135991Y0084027D01*
X0135848Y0084254D01*
X0135658Y0084445D01*
X0135430Y0084587D01*
X0135177Y0084676D01*
X0134910Y0084706D01*
X0128010Y0084706D01*
X0127972Y0084714D01*
X0127939Y0084736D01*
X0127917Y0084768D01*
X0127910Y0084806D01*
X0127910Y0086706D01*
X0124810Y0086706D01*
X0124810Y0079306D01*
X0124810Y0079509D02*
X0135492Y0079509D01*
X0135897Y0079908D02*
X0124810Y0079908D01*
X0124810Y0080306D02*
X0136074Y0080306D01*
X0136110Y0080705D02*
X0124810Y0080705D01*
X0124810Y0081103D02*
X0136110Y0081103D01*
X0136110Y0081502D02*
X0124810Y0081502D01*
X0124810Y0081901D02*
X0136110Y0081901D01*
X0136110Y0082299D02*
X0124810Y0082299D01*
X0124810Y0082698D02*
X0136110Y0082698D01*
X0136110Y0083096D02*
X0124810Y0083096D01*
X0124810Y0083495D02*
X0136110Y0083495D01*
X0136038Y0083893D02*
X0124810Y0083893D01*
X0124810Y0084292D02*
X0135811Y0084292D01*
X0135054Y0084690D02*
X0124810Y0084690D01*
X0124810Y0085089D02*
X0127910Y0085089D01*
X0127910Y0085487D02*
X0124810Y0085487D01*
X0124810Y0085886D02*
X0127910Y0085886D01*
X0127910Y0086284D02*
X0124810Y0086284D01*
X0124810Y0086683D02*
X0127910Y0086683D01*
X0236810Y0086706D02*
X0236810Y0079306D01*
X0246810Y0079306D01*
X0247099Y0079339D01*
X0247374Y0079435D01*
X0247620Y0079590D01*
X0247826Y0079796D01*
X0247981Y0080042D01*
X0248077Y0080317D01*
X0248110Y0080606D01*
X0248110Y0083506D01*
X0248080Y0083773D01*
X0247991Y0084027D01*
X0247848Y0084254D01*
X0247658Y0084445D01*
X0247430Y0084587D01*
X0247177Y0084676D01*
X0246910Y0084706D01*
X0240010Y0084706D01*
X0239972Y0084714D01*
X0239939Y0084736D01*
X0239917Y0084768D01*
X0239910Y0084806D01*
X0239910Y0086706D01*
X0236810Y0086706D01*
X0236810Y0086683D02*
X0239910Y0086683D01*
X0239910Y0086284D02*
X0236810Y0086284D01*
X0236810Y0085886D02*
X0239910Y0085886D01*
X0239910Y0085487D02*
X0236810Y0085487D01*
X0236810Y0085089D02*
X0239910Y0085089D01*
X0236810Y0084690D02*
X0247054Y0084690D01*
X0247811Y0084292D02*
X0236810Y0084292D01*
X0236810Y0083893D02*
X0248038Y0083893D01*
X0248110Y0083495D02*
X0236810Y0083495D01*
X0236810Y0083096D02*
X0248110Y0083096D01*
X0248110Y0082698D02*
X0236810Y0082698D01*
X0236810Y0082299D02*
X0248110Y0082299D01*
X0248110Y0081901D02*
X0236810Y0081901D01*
X0236810Y0081502D02*
X0248110Y0081502D01*
X0248110Y0081103D02*
X0236810Y0081103D01*
X0236810Y0080705D02*
X0248110Y0080705D01*
X0248074Y0080306D02*
X0236810Y0080306D01*
X0236810Y0079908D02*
X0247897Y0079908D01*
X0247492Y0079509D02*
X0236810Y0079509D01*
X0236810Y0063643D02*
X0246810Y0063643D01*
X0247099Y0063611D01*
X0247374Y0063514D01*
X0247620Y0063360D01*
X0247826Y0063154D01*
X0247981Y0062907D01*
X0248077Y0062632D01*
X0248110Y0062343D01*
X0248110Y0059443D01*
X0248080Y0059176D01*
X0247991Y0058923D01*
X0247848Y0058695D01*
X0247658Y0058505D01*
X0247430Y0058362D01*
X0247177Y0058273D01*
X0246910Y0058243D01*
X0240010Y0058243D01*
X0239972Y0058236D01*
X0239939Y0058214D01*
X0239917Y0058181D01*
X0239910Y0058143D01*
X0239910Y0056243D01*
X0236810Y0056243D01*
X0236810Y0063643D01*
X0236810Y0063569D02*
X0247218Y0063569D01*
X0247809Y0063170D02*
X0236810Y0063170D01*
X0236810Y0062772D02*
X0248028Y0062772D01*
X0248106Y0062373D02*
X0236810Y0062373D01*
X0236810Y0061975D02*
X0248110Y0061975D01*
X0248110Y0061576D02*
X0236810Y0061576D01*
X0236810Y0061178D02*
X0248110Y0061178D01*
X0248110Y0060779D02*
X0236810Y0060779D01*
X0236810Y0060381D02*
X0248110Y0060381D01*
X0248110Y0059982D02*
X0236810Y0059982D01*
X0236810Y0059584D02*
X0248110Y0059584D01*
X0248081Y0059185D02*
X0236810Y0059185D01*
X0236810Y0058787D02*
X0247906Y0058787D01*
X0247472Y0058388D02*
X0236810Y0058388D01*
X0236810Y0057990D02*
X0239910Y0057990D01*
X0239910Y0057591D02*
X0236810Y0057591D01*
X0236810Y0057193D02*
X0239910Y0057193D01*
X0239910Y0056794D02*
X0236810Y0056794D01*
X0236810Y0056396D02*
X0239910Y0056396D01*
X0348810Y0056396D02*
X0351910Y0056396D01*
X0351910Y0056243D02*
X0351910Y0058143D01*
X0351917Y0058181D01*
X0351939Y0058214D01*
X0351972Y0058236D01*
X0352010Y0058243D01*
X0358910Y0058243D01*
X0359177Y0058273D01*
X0359430Y0058362D01*
X0359658Y0058505D01*
X0359848Y0058695D01*
X0359991Y0058923D01*
X0360080Y0059176D01*
X0360110Y0059443D01*
X0360110Y0062343D01*
X0360077Y0062632D01*
X0359981Y0062907D01*
X0359826Y0063154D01*
X0359620Y0063360D01*
X0359374Y0063514D01*
X0359099Y0063611D01*
X0358810Y0063643D01*
X0348810Y0063643D01*
X0348810Y0056243D01*
X0351910Y0056243D01*
X0351910Y0056794D02*
X0348810Y0056794D01*
X0348810Y0057193D02*
X0351910Y0057193D01*
X0351910Y0057591D02*
X0348810Y0057591D01*
X0348810Y0057990D02*
X0351910Y0057990D01*
X0348810Y0058388D02*
X0359472Y0058388D01*
X0359906Y0058787D02*
X0348810Y0058787D01*
X0348810Y0059185D02*
X0360081Y0059185D01*
X0360110Y0059584D02*
X0348810Y0059584D01*
X0348810Y0059982D02*
X0360110Y0059982D01*
X0360110Y0060381D02*
X0348810Y0060381D01*
X0348810Y0060779D02*
X0360110Y0060779D01*
X0360110Y0061178D02*
X0348810Y0061178D01*
X0348810Y0061576D02*
X0360110Y0061576D01*
X0360110Y0061975D02*
X0348810Y0061975D01*
X0348810Y0062373D02*
X0360106Y0062373D01*
X0360028Y0062772D02*
X0348810Y0062772D01*
X0348810Y0063170D02*
X0359809Y0063170D01*
X0359218Y0063569D02*
X0348810Y0063569D01*
X0348810Y0079306D02*
X0358810Y0079306D01*
X0359099Y0079339D01*
X0359374Y0079435D01*
X0359620Y0079590D01*
X0359826Y0079796D01*
X0359981Y0080042D01*
X0360077Y0080317D01*
X0360110Y0080606D01*
X0360110Y0083506D01*
X0360080Y0083773D01*
X0359991Y0084027D01*
X0359848Y0084254D01*
X0359658Y0084445D01*
X0359430Y0084587D01*
X0359177Y0084676D01*
X0358910Y0084706D01*
X0352010Y0084706D01*
X0351972Y0084714D01*
X0351939Y0084736D01*
X0351917Y0084768D01*
X0351910Y0084806D01*
X0351910Y0086706D01*
X0348810Y0086706D01*
X0348810Y0079306D01*
X0348810Y0079509D02*
X0359492Y0079509D01*
X0359897Y0079908D02*
X0348810Y0079908D01*
X0348810Y0080306D02*
X0360074Y0080306D01*
X0360110Y0080705D02*
X0348810Y0080705D01*
X0348810Y0081103D02*
X0360110Y0081103D01*
X0360110Y0081502D02*
X0348810Y0081502D01*
X0348810Y0081901D02*
X0360110Y0081901D01*
X0360110Y0082299D02*
X0348810Y0082299D01*
X0348810Y0082698D02*
X0360110Y0082698D01*
X0360110Y0083096D02*
X0348810Y0083096D01*
X0348810Y0083495D02*
X0360110Y0083495D01*
X0360038Y0083893D02*
X0348810Y0083893D01*
X0348810Y0084292D02*
X0359811Y0084292D01*
X0359054Y0084690D02*
X0348810Y0084690D01*
X0348810Y0085089D02*
X0351910Y0085089D01*
X0351910Y0085487D02*
X0348810Y0085487D01*
X0348810Y0085886D02*
X0351910Y0085886D01*
X0351910Y0086284D02*
X0348810Y0086284D01*
X0348810Y0086683D02*
X0351910Y0086683D01*
X0351910Y0263243D02*
X0348810Y0263243D01*
X0348810Y0270643D01*
X0358810Y0270643D01*
X0359099Y0270611D01*
X0359374Y0270514D01*
X0359620Y0270360D01*
X0359826Y0270154D01*
X0359981Y0269907D01*
X0360077Y0269632D01*
X0360110Y0269343D01*
X0360110Y0266443D01*
X0360080Y0266176D01*
X0359991Y0265923D01*
X0359848Y0265695D01*
X0359658Y0265505D01*
X0359430Y0265362D01*
X0359177Y0265273D01*
X0358910Y0265243D01*
X0352010Y0265243D01*
X0351972Y0265236D01*
X0351939Y0265214D01*
X0351917Y0265181D01*
X0351910Y0265143D01*
X0351910Y0263243D01*
X0351910Y0263622D02*
X0348810Y0263622D01*
X0348810Y0264020D02*
X0351910Y0264020D01*
X0351910Y0264419D02*
X0348810Y0264419D01*
X0348810Y0264817D02*
X0351910Y0264817D01*
X0351942Y0265216D02*
X0348810Y0265216D01*
X0348810Y0265614D02*
X0359767Y0265614D01*
X0360023Y0266013D02*
X0348810Y0266013D01*
X0348810Y0266411D02*
X0360106Y0266411D01*
X0360110Y0266810D02*
X0348810Y0266810D01*
X0348810Y0267208D02*
X0360110Y0267208D01*
X0360110Y0267607D02*
X0348810Y0267607D01*
X0348810Y0268005D02*
X0360110Y0268005D01*
X0360110Y0268404D02*
X0348810Y0268404D01*
X0348810Y0268802D02*
X0360110Y0268802D01*
X0360110Y0269201D02*
X0348810Y0269201D01*
X0348810Y0269599D02*
X0360081Y0269599D01*
X0359924Y0269998D02*
X0348810Y0269998D01*
X0348810Y0270396D02*
X0359562Y0270396D01*
X0358810Y0286306D02*
X0348810Y0286306D01*
X0348810Y0293706D01*
X0351910Y0293706D01*
X0351910Y0291806D01*
X0351917Y0291768D01*
X0351939Y0291736D01*
X0351972Y0291714D01*
X0352010Y0291706D01*
X0358910Y0291706D01*
X0359177Y0291676D01*
X0359430Y0291587D01*
X0359658Y0291445D01*
X0359848Y0291254D01*
X0359991Y0291027D01*
X0360080Y0290773D01*
X0360110Y0290506D01*
X0360110Y0287606D01*
X0360077Y0287317D01*
X0359981Y0287042D01*
X0359826Y0286796D01*
X0359620Y0286590D01*
X0359374Y0286435D01*
X0359099Y0286339D01*
X0358810Y0286306D01*
X0359081Y0286337D02*
X0348810Y0286337D01*
X0348810Y0286735D02*
X0359766Y0286735D01*
X0360013Y0287134D02*
X0348810Y0287134D01*
X0348810Y0287532D02*
X0360102Y0287532D01*
X0360110Y0287931D02*
X0348810Y0287931D01*
X0348810Y0288329D02*
X0360110Y0288329D01*
X0360110Y0288728D02*
X0348810Y0288728D01*
X0348810Y0289126D02*
X0360110Y0289126D01*
X0360110Y0289525D02*
X0348810Y0289525D01*
X0348810Y0289923D02*
X0360110Y0289923D01*
X0360110Y0290322D02*
X0348810Y0290322D01*
X0348810Y0290720D02*
X0360086Y0290720D01*
X0359933Y0291119D02*
X0348810Y0291119D01*
X0348810Y0291517D02*
X0359542Y0291517D01*
X0351910Y0291916D02*
X0348810Y0291916D01*
X0348810Y0292314D02*
X0351910Y0292314D01*
X0351910Y0292713D02*
X0348810Y0292713D01*
X0348810Y0293112D02*
X0351910Y0293112D01*
X0351910Y0293510D02*
X0348810Y0293510D01*
X0248110Y0290506D02*
X0248080Y0290773D01*
X0247991Y0291027D01*
X0247848Y0291254D01*
X0247658Y0291445D01*
X0247430Y0291587D01*
X0247177Y0291676D01*
X0246910Y0291706D01*
X0240010Y0291706D01*
X0239972Y0291714D01*
X0239939Y0291736D01*
X0239917Y0291768D01*
X0239910Y0291806D01*
X0239910Y0293706D01*
X0236810Y0293706D01*
X0236810Y0286306D01*
X0246810Y0286306D01*
X0247099Y0286339D01*
X0247374Y0286435D01*
X0247620Y0286590D01*
X0247826Y0286796D01*
X0247981Y0287042D01*
X0248077Y0287317D01*
X0248110Y0287606D01*
X0248110Y0290506D01*
X0248110Y0290322D02*
X0236810Y0290322D01*
X0236810Y0290720D02*
X0248086Y0290720D01*
X0247933Y0291119D02*
X0236810Y0291119D01*
X0236810Y0291517D02*
X0247542Y0291517D01*
X0248110Y0289923D02*
X0236810Y0289923D01*
X0236810Y0289525D02*
X0248110Y0289525D01*
X0248110Y0289126D02*
X0236810Y0289126D01*
X0236810Y0288728D02*
X0248110Y0288728D01*
X0248110Y0288329D02*
X0236810Y0288329D01*
X0236810Y0287931D02*
X0248110Y0287931D01*
X0248102Y0287532D02*
X0236810Y0287532D01*
X0236810Y0287134D02*
X0248013Y0287134D01*
X0247766Y0286735D02*
X0236810Y0286735D01*
X0236810Y0286337D02*
X0247081Y0286337D01*
X0239910Y0291916D02*
X0236810Y0291916D01*
X0236810Y0292314D02*
X0239910Y0292314D01*
X0239910Y0292713D02*
X0236810Y0292713D01*
X0236810Y0293112D02*
X0239910Y0293112D01*
X0239910Y0293510D02*
X0236810Y0293510D01*
X0236810Y0270643D02*
X0246810Y0270643D01*
X0247099Y0270611D01*
X0247374Y0270514D01*
X0247620Y0270360D01*
X0247826Y0270154D01*
X0247981Y0269907D01*
X0248077Y0269632D01*
X0248110Y0269343D01*
X0248110Y0266443D01*
X0248080Y0266176D01*
X0247991Y0265923D01*
X0247848Y0265695D01*
X0247658Y0265505D01*
X0247430Y0265362D01*
X0247177Y0265273D01*
X0246910Y0265243D01*
X0240010Y0265243D01*
X0239972Y0265236D01*
X0239939Y0265214D01*
X0239917Y0265181D01*
X0239910Y0265143D01*
X0239910Y0263243D01*
X0236810Y0263243D01*
X0236810Y0270643D01*
X0236810Y0270396D02*
X0247562Y0270396D01*
X0247924Y0269998D02*
X0236810Y0269998D01*
X0236810Y0269599D02*
X0248081Y0269599D01*
X0248110Y0269201D02*
X0236810Y0269201D01*
X0236810Y0268802D02*
X0248110Y0268802D01*
X0248110Y0268404D02*
X0236810Y0268404D01*
X0236810Y0268005D02*
X0248110Y0268005D01*
X0248110Y0267607D02*
X0236810Y0267607D01*
X0236810Y0267208D02*
X0248110Y0267208D01*
X0248110Y0266810D02*
X0236810Y0266810D01*
X0236810Y0266411D02*
X0248106Y0266411D01*
X0248023Y0266013D02*
X0236810Y0266013D01*
X0236810Y0265614D02*
X0247767Y0265614D01*
X0239942Y0265216D02*
X0236810Y0265216D01*
X0236810Y0264817D02*
X0239910Y0264817D01*
X0239910Y0264419D02*
X0236810Y0264419D01*
X0236810Y0264020D02*
X0239910Y0264020D01*
X0239910Y0263622D02*
X0236810Y0263622D01*
X0136110Y0266443D02*
X0136080Y0266176D01*
X0135991Y0265923D01*
X0135848Y0265695D01*
X0135658Y0265505D01*
X0135430Y0265362D01*
X0135177Y0265273D01*
X0134910Y0265243D01*
X0128010Y0265243D01*
X0127972Y0265236D01*
X0127939Y0265214D01*
X0127917Y0265181D01*
X0127910Y0265143D01*
X0127910Y0263243D01*
X0124810Y0263243D01*
X0124810Y0270643D01*
X0134810Y0270643D01*
X0135099Y0270611D01*
X0135374Y0270514D01*
X0135620Y0270360D01*
X0135826Y0270154D01*
X0135981Y0269907D01*
X0136077Y0269632D01*
X0136110Y0269343D01*
X0136110Y0266443D01*
X0136106Y0266411D02*
X0124810Y0266411D01*
X0124810Y0266013D02*
X0136023Y0266013D01*
X0135767Y0265614D02*
X0124810Y0265614D01*
X0124810Y0265216D02*
X0127942Y0265216D01*
X0127910Y0264817D02*
X0124810Y0264817D01*
X0124810Y0264419D02*
X0127910Y0264419D01*
X0127910Y0264020D02*
X0124810Y0264020D01*
X0124810Y0263622D02*
X0127910Y0263622D01*
X0124810Y0266810D02*
X0136110Y0266810D01*
X0136110Y0267208D02*
X0124810Y0267208D01*
X0124810Y0267607D02*
X0136110Y0267607D01*
X0136110Y0268005D02*
X0124810Y0268005D01*
X0124810Y0268404D02*
X0136110Y0268404D01*
X0136110Y0268802D02*
X0124810Y0268802D01*
X0124810Y0269201D02*
X0136110Y0269201D01*
X0136081Y0269599D02*
X0124810Y0269599D01*
X0124810Y0269998D02*
X0135924Y0269998D01*
X0135562Y0270396D02*
X0124810Y0270396D01*
X0124810Y0286306D02*
X0134810Y0286306D01*
X0135099Y0286339D01*
X0135374Y0286435D01*
X0135620Y0286590D01*
X0135826Y0286796D01*
X0135981Y0287042D01*
X0136077Y0287317D01*
X0136110Y0287606D01*
X0136110Y0290506D01*
X0136080Y0290773D01*
X0135991Y0291027D01*
X0135848Y0291254D01*
X0135658Y0291445D01*
X0135430Y0291587D01*
X0135177Y0291676D01*
X0134910Y0291706D01*
X0128010Y0291706D01*
X0127972Y0291714D01*
X0127939Y0291736D01*
X0127917Y0291768D01*
X0127910Y0291806D01*
X0127910Y0293706D01*
X0124810Y0293706D01*
X0124810Y0286306D01*
X0124810Y0286337D02*
X0135081Y0286337D01*
X0135766Y0286735D02*
X0124810Y0286735D01*
X0124810Y0287134D02*
X0136013Y0287134D01*
X0136102Y0287532D02*
X0124810Y0287532D01*
X0124810Y0287931D02*
X0136110Y0287931D01*
X0136110Y0288329D02*
X0124810Y0288329D01*
X0124810Y0288728D02*
X0136110Y0288728D01*
X0136110Y0289126D02*
X0124810Y0289126D01*
X0124810Y0289525D02*
X0136110Y0289525D01*
X0136110Y0289923D02*
X0124810Y0289923D01*
X0124810Y0290322D02*
X0136110Y0290322D01*
X0136086Y0290720D02*
X0124810Y0290720D01*
X0124810Y0291119D02*
X0135933Y0291119D01*
X0135542Y0291517D02*
X0124810Y0291517D01*
X0124810Y0291916D02*
X0127910Y0291916D01*
X0127910Y0292314D02*
X0124810Y0292314D01*
X0124810Y0292713D02*
X0127910Y0292713D01*
X0127910Y0293112D02*
X0124810Y0293112D01*
X0124810Y0293510D02*
X0127910Y0293510D01*
D13*
X0125423Y0284110D02*
X0119025Y0284110D01*
X0119025Y0283126D01*
X0125423Y0283126D01*
X0125423Y0284110D01*
X0125423Y0284033D02*
X0119025Y0284033D01*
X0119025Y0283838D02*
X0125423Y0283838D01*
X0125423Y0283642D02*
X0119025Y0283642D01*
X0119025Y0283447D02*
X0125423Y0283447D01*
X0125423Y0283252D02*
X0119025Y0283252D01*
X0119025Y0281551D02*
X0125423Y0281551D01*
X0125423Y0280567D01*
X0119025Y0280567D01*
X0119025Y0281551D01*
X0119025Y0281493D02*
X0125423Y0281493D01*
X0125423Y0281298D02*
X0119025Y0281298D01*
X0119025Y0281103D02*
X0125423Y0281103D01*
X0125423Y0280907D02*
X0119025Y0280907D01*
X0119025Y0280712D02*
X0125423Y0280712D01*
X0125423Y0278992D02*
X0125423Y0278008D01*
X0119025Y0278008D01*
X0119025Y0278992D01*
X0125423Y0278992D01*
X0125423Y0278954D02*
X0119025Y0278954D01*
X0119025Y0278758D02*
X0125423Y0278758D01*
X0125423Y0278563D02*
X0119025Y0278563D01*
X0119025Y0278368D02*
X0125423Y0278368D01*
X0125423Y0278172D02*
X0119025Y0278172D01*
X0119025Y0276433D02*
X0125423Y0276433D01*
X0125423Y0275449D01*
X0119025Y0275449D01*
X0119025Y0276433D01*
X0119025Y0276414D02*
X0125423Y0276414D01*
X0125423Y0276219D02*
X0119025Y0276219D01*
X0119025Y0276023D02*
X0125423Y0276023D01*
X0125423Y0275828D02*
X0119025Y0275828D01*
X0119025Y0275633D02*
X0125423Y0275633D01*
X0125423Y0273874D02*
X0125423Y0272890D01*
X0119025Y0272890D01*
X0119025Y0273874D01*
X0125423Y0273874D01*
X0125423Y0273679D02*
X0119025Y0273679D01*
X0119025Y0273484D02*
X0125423Y0273484D01*
X0125423Y0273288D02*
X0119025Y0273288D01*
X0119025Y0273093D02*
X0125423Y0273093D01*
X0125423Y0272898D02*
X0119025Y0272898D01*
X0231025Y0272898D02*
X0237423Y0272898D01*
X0237423Y0272890D02*
X0231025Y0272890D01*
X0231025Y0273874D01*
X0237423Y0273874D01*
X0237423Y0272890D01*
X0237423Y0273093D02*
X0231025Y0273093D01*
X0231025Y0273288D02*
X0237423Y0273288D01*
X0237423Y0273484D02*
X0231025Y0273484D01*
X0231025Y0273679D02*
X0237423Y0273679D01*
X0237423Y0275449D02*
X0231025Y0275449D01*
X0231025Y0276433D01*
X0237423Y0276433D01*
X0237423Y0275449D01*
X0237423Y0275633D02*
X0231025Y0275633D01*
X0231025Y0275828D02*
X0237423Y0275828D01*
X0237423Y0276023D02*
X0231025Y0276023D01*
X0231025Y0276219D02*
X0237423Y0276219D01*
X0237423Y0276414D02*
X0231025Y0276414D01*
X0231025Y0278008D02*
X0237423Y0278008D01*
X0237423Y0278992D01*
X0231025Y0278992D01*
X0231025Y0278008D01*
X0231025Y0278172D02*
X0237423Y0278172D01*
X0237423Y0278368D02*
X0231025Y0278368D01*
X0231025Y0278563D02*
X0237423Y0278563D01*
X0237423Y0278758D02*
X0231025Y0278758D01*
X0231025Y0278954D02*
X0237423Y0278954D01*
X0237423Y0280567D02*
X0231025Y0280567D01*
X0231025Y0281551D01*
X0237423Y0281551D01*
X0237423Y0280567D01*
X0237423Y0280712D02*
X0231025Y0280712D01*
X0231025Y0280907D02*
X0237423Y0280907D01*
X0237423Y0281103D02*
X0231025Y0281103D01*
X0231025Y0281298D02*
X0237423Y0281298D01*
X0237423Y0281493D02*
X0231025Y0281493D01*
X0231025Y0283126D02*
X0237423Y0283126D01*
X0237423Y0284110D01*
X0231025Y0284110D01*
X0231025Y0283126D01*
X0231025Y0283252D02*
X0237423Y0283252D01*
X0237423Y0283447D02*
X0231025Y0283447D01*
X0231025Y0283642D02*
X0237423Y0283642D01*
X0237423Y0283838D02*
X0231025Y0283838D01*
X0231025Y0284033D02*
X0237423Y0284033D01*
X0343025Y0284033D02*
X0349423Y0284033D01*
X0349423Y0284110D02*
X0349423Y0283126D01*
X0343025Y0283126D01*
X0343025Y0284110D01*
X0349423Y0284110D01*
X0349423Y0283838D02*
X0343025Y0283838D01*
X0343025Y0283642D02*
X0349423Y0283642D01*
X0349423Y0283447D02*
X0343025Y0283447D01*
X0343025Y0283252D02*
X0349423Y0283252D01*
X0349423Y0281551D02*
X0349423Y0280567D01*
X0343025Y0280567D01*
X0343025Y0281551D01*
X0349423Y0281551D01*
X0349423Y0281493D02*
X0343025Y0281493D01*
X0343025Y0281298D02*
X0349423Y0281298D01*
X0349423Y0281103D02*
X0343025Y0281103D01*
X0343025Y0280907D02*
X0349423Y0280907D01*
X0349423Y0280712D02*
X0343025Y0280712D01*
X0343025Y0278992D02*
X0349423Y0278992D01*
X0349423Y0278008D01*
X0343025Y0278008D01*
X0343025Y0278992D01*
X0343025Y0278954D02*
X0349423Y0278954D01*
X0349423Y0278758D02*
X0343025Y0278758D01*
X0343025Y0278563D02*
X0349423Y0278563D01*
X0349423Y0278368D02*
X0343025Y0278368D01*
X0343025Y0278172D02*
X0349423Y0278172D01*
X0349423Y0276433D02*
X0343025Y0276433D01*
X0343025Y0275449D01*
X0349423Y0275449D01*
X0349423Y0276433D01*
X0349423Y0276414D02*
X0343025Y0276414D01*
X0343025Y0276219D02*
X0349423Y0276219D01*
X0349423Y0276023D02*
X0343025Y0276023D01*
X0343025Y0275828D02*
X0349423Y0275828D01*
X0349423Y0275633D02*
X0343025Y0275633D01*
X0343025Y0273874D02*
X0349423Y0273874D01*
X0349423Y0272890D01*
X0343025Y0272890D01*
X0343025Y0273874D01*
X0343025Y0273679D02*
X0349423Y0273679D01*
X0349423Y0273484D02*
X0343025Y0273484D01*
X0343025Y0273288D02*
X0349423Y0273288D01*
X0349423Y0273093D02*
X0343025Y0273093D01*
X0343025Y0272898D02*
X0349423Y0272898D01*
X0349423Y0077110D02*
X0343025Y0077110D01*
X0343025Y0076126D01*
X0349423Y0076126D01*
X0349423Y0077110D01*
X0349423Y0076950D02*
X0343025Y0076950D01*
X0343025Y0076754D02*
X0349423Y0076754D01*
X0349423Y0076559D02*
X0343025Y0076559D01*
X0343025Y0076364D02*
X0349423Y0076364D01*
X0349423Y0076168D02*
X0343025Y0076168D01*
X0343025Y0074551D02*
X0349423Y0074551D01*
X0349423Y0073567D01*
X0343025Y0073567D01*
X0343025Y0074551D01*
X0343025Y0074410D02*
X0349423Y0074410D01*
X0349423Y0074215D02*
X0343025Y0074215D01*
X0343025Y0074019D02*
X0349423Y0074019D01*
X0349423Y0073824D02*
X0343025Y0073824D01*
X0343025Y0073629D02*
X0349423Y0073629D01*
X0349423Y0071992D02*
X0349423Y0071008D01*
X0343025Y0071008D01*
X0343025Y0071992D01*
X0349423Y0071992D01*
X0349423Y0071870D02*
X0343025Y0071870D01*
X0343025Y0071675D02*
X0349423Y0071675D01*
X0349423Y0071480D02*
X0343025Y0071480D01*
X0343025Y0071284D02*
X0349423Y0071284D01*
X0349423Y0071089D02*
X0343025Y0071089D01*
X0343025Y0069433D02*
X0349423Y0069433D01*
X0349423Y0068449D01*
X0343025Y0068449D01*
X0343025Y0069433D01*
X0343025Y0069331D02*
X0349423Y0069331D01*
X0349423Y0069135D02*
X0343025Y0069135D01*
X0343025Y0068940D02*
X0349423Y0068940D01*
X0349423Y0068745D02*
X0343025Y0068745D01*
X0343025Y0068549D02*
X0349423Y0068549D01*
X0349423Y0066874D02*
X0349423Y0065890D01*
X0343025Y0065890D01*
X0343025Y0066874D01*
X0349423Y0066874D01*
X0349423Y0066791D02*
X0343025Y0066791D01*
X0343025Y0066596D02*
X0349423Y0066596D01*
X0349423Y0066400D02*
X0343025Y0066400D01*
X0343025Y0066205D02*
X0349423Y0066205D01*
X0349423Y0066009D02*
X0343025Y0066009D01*
X0237423Y0066009D02*
X0231025Y0066009D01*
X0231025Y0065890D02*
X0237423Y0065890D01*
X0237423Y0066874D01*
X0231025Y0066874D01*
X0231025Y0065890D01*
X0231025Y0066205D02*
X0237423Y0066205D01*
X0237423Y0066400D02*
X0231025Y0066400D01*
X0231025Y0066596D02*
X0237423Y0066596D01*
X0237423Y0066791D02*
X0231025Y0066791D01*
X0231025Y0068449D02*
X0237423Y0068449D01*
X0237423Y0069433D01*
X0231025Y0069433D01*
X0231025Y0068449D01*
X0231025Y0068549D02*
X0237423Y0068549D01*
X0237423Y0068745D02*
X0231025Y0068745D01*
X0231025Y0068940D02*
X0237423Y0068940D01*
X0237423Y0069135D02*
X0231025Y0069135D01*
X0231025Y0069331D02*
X0237423Y0069331D01*
X0237423Y0071008D02*
X0231025Y0071008D01*
X0231025Y0071992D01*
X0237423Y0071992D01*
X0237423Y0071008D01*
X0237423Y0071089D02*
X0231025Y0071089D01*
X0231025Y0071284D02*
X0237423Y0071284D01*
X0237423Y0071480D02*
X0231025Y0071480D01*
X0231025Y0071675D02*
X0237423Y0071675D01*
X0237423Y0071870D02*
X0231025Y0071870D01*
X0231025Y0073567D02*
X0237423Y0073567D01*
X0237423Y0074551D01*
X0231025Y0074551D01*
X0231025Y0073567D01*
X0231025Y0073629D02*
X0237423Y0073629D01*
X0237423Y0073824D02*
X0231025Y0073824D01*
X0231025Y0074019D02*
X0237423Y0074019D01*
X0237423Y0074215D02*
X0231025Y0074215D01*
X0231025Y0074410D02*
X0237423Y0074410D01*
X0237423Y0076126D02*
X0231025Y0076126D01*
X0231025Y0077110D01*
X0237423Y0077110D01*
X0237423Y0076126D01*
X0237423Y0076168D02*
X0231025Y0076168D01*
X0231025Y0076364D02*
X0237423Y0076364D01*
X0237423Y0076559D02*
X0231025Y0076559D01*
X0231025Y0076754D02*
X0237423Y0076754D01*
X0237423Y0076950D02*
X0231025Y0076950D01*
X0125423Y0076950D02*
X0119025Y0076950D01*
X0119025Y0077110D02*
X0125423Y0077110D01*
X0125423Y0076126D01*
X0119025Y0076126D01*
X0119025Y0077110D01*
X0119025Y0076754D02*
X0125423Y0076754D01*
X0125423Y0076559D02*
X0119025Y0076559D01*
X0119025Y0076364D02*
X0125423Y0076364D01*
X0125423Y0076168D02*
X0119025Y0076168D01*
X0119025Y0074551D02*
X0125423Y0074551D01*
X0125423Y0073567D01*
X0119025Y0073567D01*
X0119025Y0074551D01*
X0119025Y0074410D02*
X0125423Y0074410D01*
X0125423Y0074215D02*
X0119025Y0074215D01*
X0119025Y0074019D02*
X0125423Y0074019D01*
X0125423Y0073824D02*
X0119025Y0073824D01*
X0119025Y0073629D02*
X0125423Y0073629D01*
X0125423Y0071992D02*
X0125423Y0071008D01*
X0119025Y0071008D01*
X0119025Y0071992D01*
X0125423Y0071992D01*
X0125423Y0071870D02*
X0119025Y0071870D01*
X0119025Y0071675D02*
X0125423Y0071675D01*
X0125423Y0071480D02*
X0119025Y0071480D01*
X0119025Y0071284D02*
X0125423Y0071284D01*
X0125423Y0071089D02*
X0119025Y0071089D01*
X0119025Y0069433D02*
X0125423Y0069433D01*
X0125423Y0068449D01*
X0119025Y0068449D01*
X0119025Y0069433D01*
X0119025Y0069331D02*
X0125423Y0069331D01*
X0125423Y0069135D02*
X0119025Y0069135D01*
X0119025Y0068940D02*
X0125423Y0068940D01*
X0125423Y0068745D02*
X0119025Y0068745D01*
X0119025Y0068549D02*
X0125423Y0068549D01*
X0125423Y0066874D02*
X0125423Y0065890D01*
X0119025Y0065890D01*
X0119025Y0066874D01*
X0125423Y0066874D01*
X0125423Y0066791D02*
X0119025Y0066791D01*
X0119025Y0066596D02*
X0125423Y0066596D01*
X0125423Y0066400D02*
X0119025Y0066400D01*
X0119025Y0066205D02*
X0125423Y0066205D01*
X0125423Y0066009D02*
X0119025Y0066009D01*
D14*
X0111750Y0066346D03*
X0111750Y0059654D03*
X0112750Y0093154D03*
X0106750Y0093154D03*
X0106750Y0099846D03*
X0112750Y0099846D03*
X0113750Y0106154D03*
X0106750Y0106154D03*
X0106750Y0112846D03*
X0113750Y0112846D03*
X0124750Y0099846D03*
X0124750Y0093154D03*
X0176750Y0173654D03*
X0176750Y0180346D03*
X0218750Y0112846D03*
X0218750Y0106154D03*
X0218750Y0099846D03*
X0224750Y0099846D03*
X0225750Y0106154D03*
X0225750Y0112846D03*
X0236750Y0099846D03*
X0236750Y0093154D03*
X0224750Y0093154D03*
X0218750Y0093154D03*
X0223750Y0066346D03*
X0223750Y0059654D03*
X0330750Y0093154D03*
X0336750Y0093154D03*
X0336750Y0099846D03*
X0330750Y0099846D03*
X0330750Y0106154D03*
X0337750Y0106154D03*
X0337750Y0112846D03*
X0330750Y0112846D03*
X0348750Y0099846D03*
X0348750Y0093154D03*
X0335750Y0066346D03*
X0335750Y0059654D03*
X0288750Y0173654D03*
X0288750Y0180346D03*
X0335750Y0266654D03*
X0335750Y0273346D03*
X0336750Y0300154D03*
X0330750Y0300154D03*
X0330750Y0306846D03*
X0336750Y0306846D03*
X0337750Y0313154D03*
X0330750Y0313154D03*
X0330750Y0319846D03*
X0337750Y0319846D03*
X0348750Y0306846D03*
X0348750Y0300154D03*
X0288750Y0380654D03*
X0288750Y0387346D03*
X0225750Y0319846D03*
X0225750Y0313154D03*
X0224750Y0306846D03*
X0218750Y0306846D03*
X0218750Y0313154D03*
X0218750Y0319846D03*
X0236750Y0306846D03*
X0236750Y0300154D03*
X0224750Y0300154D03*
X0218750Y0300154D03*
X0223750Y0273346D03*
X0223750Y0266654D03*
X0124750Y0300154D03*
X0124750Y0306846D03*
X0112750Y0306846D03*
X0106750Y0306846D03*
X0106750Y0313154D03*
X0113750Y0313154D03*
X0113750Y0319846D03*
X0106750Y0319846D03*
X0106750Y0300154D03*
X0112750Y0300154D03*
X0111750Y0273346D03*
X0111750Y0266654D03*
X0064750Y0180346D03*
X0064750Y0173654D03*
X0064750Y0380654D03*
X0064750Y0387346D03*
X0176750Y0387346D03*
X0176750Y0380654D03*
D15*
X0176596Y0374500D03*
X0176596Y0368500D03*
X0176596Y0362500D03*
X0169904Y0362500D03*
X0169904Y0368500D03*
X0169904Y0374500D03*
X0163096Y0374500D03*
X0163096Y0368500D03*
X0163096Y0362500D03*
X0156404Y0362500D03*
X0156404Y0368500D03*
X0156404Y0374500D03*
X0156404Y0380500D03*
X0156404Y0386500D03*
X0163096Y0386500D03*
X0163096Y0380500D03*
X0064596Y0374500D03*
X0064596Y0368500D03*
X0064596Y0362500D03*
X0057904Y0362500D03*
X0057904Y0368500D03*
X0057904Y0374500D03*
X0051096Y0374500D03*
X0051096Y0368500D03*
X0051096Y0362500D03*
X0044404Y0362500D03*
X0044404Y0368500D03*
X0044404Y0374500D03*
X0044404Y0380500D03*
X0044404Y0386500D03*
X0051096Y0386500D03*
X0051096Y0380500D03*
X0051096Y0179500D03*
X0044404Y0179500D03*
X0044404Y0173500D03*
X0044404Y0167500D03*
X0044404Y0161500D03*
X0044404Y0155500D03*
X0051096Y0155500D03*
X0051096Y0161500D03*
X0051096Y0167500D03*
X0051096Y0173500D03*
X0057904Y0167500D03*
X0057904Y0161500D03*
X0057904Y0155500D03*
X0064596Y0155500D03*
X0064596Y0161500D03*
X0064596Y0167500D03*
X0156404Y0167500D03*
X0156404Y0161500D03*
X0156404Y0155500D03*
X0163096Y0155500D03*
X0163096Y0161500D03*
X0163096Y0167500D03*
X0163096Y0173500D03*
X0169904Y0167500D03*
X0169904Y0161500D03*
X0169904Y0155500D03*
X0176596Y0155500D03*
X0176596Y0161500D03*
X0176596Y0167500D03*
X0163096Y0179500D03*
X0156404Y0179500D03*
X0156404Y0173500D03*
X0268404Y0173500D03*
X0268404Y0167500D03*
X0268404Y0161500D03*
X0268404Y0155500D03*
X0275096Y0155500D03*
X0275096Y0161500D03*
X0275096Y0167500D03*
X0275096Y0173500D03*
X0275096Y0179500D03*
X0268404Y0179500D03*
X0281904Y0167500D03*
X0281904Y0161500D03*
X0281904Y0155500D03*
X0288596Y0155500D03*
X0288596Y0161500D03*
X0288596Y0167500D03*
X0288596Y0362500D03*
X0288596Y0368500D03*
X0288596Y0374500D03*
X0281904Y0374500D03*
X0281904Y0368500D03*
X0281904Y0362500D03*
X0275096Y0362500D03*
X0275096Y0368500D03*
X0275096Y0374500D03*
X0268404Y0374500D03*
X0268404Y0368500D03*
X0268404Y0362500D03*
X0268404Y0380500D03*
X0268404Y0386500D03*
X0275096Y0386500D03*
X0275096Y0380500D03*
D16*
X0050250Y0058976D03*
X0055250Y0058976D03*
X0060250Y0058976D03*
X0065250Y0058976D03*
X0070250Y0058976D03*
X0075250Y0058976D03*
X0080250Y0058976D03*
X0085250Y0058976D03*
X0085250Y0081024D03*
X0080250Y0081024D03*
X0075250Y0081024D03*
X0070250Y0081024D03*
X0065250Y0081024D03*
X0060250Y0081024D03*
X0055250Y0081024D03*
X0050250Y0081024D03*
X0162250Y0081024D03*
X0167250Y0081024D03*
X0172250Y0081024D03*
X0177250Y0081024D03*
X0182250Y0081024D03*
X0187250Y0081024D03*
X0192250Y0081024D03*
X0197250Y0081024D03*
X0197250Y0058976D03*
X0192250Y0058976D03*
X0187250Y0058976D03*
X0182250Y0058976D03*
X0177250Y0058976D03*
X0172250Y0058976D03*
X0167250Y0058976D03*
X0162250Y0058976D03*
X0274250Y0058976D03*
X0279250Y0058976D03*
X0284250Y0058976D03*
X0289250Y0058976D03*
X0294250Y0058976D03*
X0299250Y0058976D03*
X0304250Y0058976D03*
X0309250Y0058976D03*
X0309250Y0081024D03*
X0304250Y0081024D03*
X0299250Y0081024D03*
X0294250Y0081024D03*
X0289250Y0081024D03*
X0284250Y0081024D03*
X0279250Y0081024D03*
X0274250Y0081024D03*
X0274250Y0265976D03*
X0279250Y0265976D03*
X0284250Y0265976D03*
X0289250Y0265976D03*
X0294250Y0265976D03*
X0299250Y0265976D03*
X0304250Y0265976D03*
X0309250Y0265976D03*
X0309250Y0288024D03*
X0304250Y0288024D03*
X0299250Y0288024D03*
X0294250Y0288024D03*
X0289250Y0288024D03*
X0284250Y0288024D03*
X0279250Y0288024D03*
X0274250Y0288024D03*
X0197250Y0288024D03*
X0192250Y0288024D03*
X0187250Y0288024D03*
X0182250Y0288024D03*
X0177250Y0288024D03*
X0172250Y0288024D03*
X0167250Y0288024D03*
X0162250Y0288024D03*
X0162250Y0265976D03*
X0167250Y0265976D03*
X0172250Y0265976D03*
X0177250Y0265976D03*
X0182250Y0265976D03*
X0187250Y0265976D03*
X0192250Y0265976D03*
X0197250Y0265976D03*
X0085250Y0265976D03*
X0080250Y0265976D03*
X0075250Y0265976D03*
X0070250Y0265976D03*
X0065250Y0265976D03*
X0060250Y0265976D03*
X0055250Y0265976D03*
X0050250Y0265976D03*
X0050250Y0288024D03*
X0055250Y0288024D03*
X0060250Y0288024D03*
X0065250Y0288024D03*
X0070250Y0288024D03*
X0075250Y0288024D03*
X0080250Y0288024D03*
X0085250Y0288024D03*
D17*
X0056557Y0200339D03*
X0056557Y0197780D03*
X0056557Y0195220D03*
X0056557Y0192661D03*
X0044943Y0195220D03*
X0044943Y0197780D03*
X0044943Y0200339D03*
X0156943Y0200339D03*
X0156943Y0197780D03*
X0156943Y0195220D03*
X0168557Y0195220D03*
X0168557Y0192661D03*
X0168557Y0197780D03*
X0168557Y0200339D03*
X0268943Y0200339D03*
X0268943Y0197780D03*
X0268943Y0195220D03*
X0280557Y0195220D03*
X0280557Y0192661D03*
X0280557Y0197780D03*
X0280557Y0200339D03*
X0280557Y0399661D03*
X0280557Y0402220D03*
X0280557Y0404780D03*
X0280557Y0407339D03*
X0268943Y0407339D03*
X0268943Y0404780D03*
X0268943Y0402220D03*
X0168557Y0402220D03*
X0168557Y0399661D03*
X0168557Y0404780D03*
X0168557Y0407339D03*
X0156943Y0407339D03*
X0156943Y0404780D03*
X0156943Y0402220D03*
X0056557Y0402220D03*
X0056557Y0399661D03*
X0056557Y0404780D03*
X0056557Y0407339D03*
X0044943Y0407339D03*
X0044943Y0404780D03*
X0044943Y0402220D03*
D18*
X0046547Y0399041D02*
X0043339Y0399041D01*
X0043339Y0400281D01*
X0046547Y0400281D01*
X0046547Y0399041D01*
X0046547Y0399178D02*
X0043339Y0399178D01*
X0043339Y0399315D02*
X0046547Y0399315D01*
X0046547Y0399452D02*
X0043339Y0399452D01*
X0043339Y0399589D02*
X0046547Y0399589D01*
X0046547Y0399726D02*
X0043339Y0399726D01*
X0043339Y0399863D02*
X0046547Y0399863D01*
X0046547Y0400000D02*
X0043339Y0400000D01*
X0043339Y0400137D02*
X0046547Y0400137D01*
X0046547Y0400274D02*
X0043339Y0400274D01*
X0155339Y0399041D02*
X0158547Y0399041D01*
X0155339Y0399041D02*
X0155339Y0400281D01*
X0158547Y0400281D01*
X0158547Y0399041D01*
X0158547Y0399178D02*
X0155339Y0399178D01*
X0155339Y0399315D02*
X0158547Y0399315D01*
X0158547Y0399452D02*
X0155339Y0399452D01*
X0155339Y0399589D02*
X0158547Y0399589D01*
X0158547Y0399726D02*
X0155339Y0399726D01*
X0155339Y0399863D02*
X0158547Y0399863D01*
X0158547Y0400000D02*
X0155339Y0400000D01*
X0155339Y0400137D02*
X0158547Y0400137D01*
X0158547Y0400274D02*
X0155339Y0400274D01*
X0267339Y0399041D02*
X0270547Y0399041D01*
X0267339Y0399041D02*
X0267339Y0400281D01*
X0270547Y0400281D01*
X0270547Y0399041D01*
X0270547Y0399178D02*
X0267339Y0399178D01*
X0267339Y0399315D02*
X0270547Y0399315D01*
X0270547Y0399452D02*
X0267339Y0399452D01*
X0267339Y0399589D02*
X0270547Y0399589D01*
X0270547Y0399726D02*
X0267339Y0399726D01*
X0267339Y0399863D02*
X0270547Y0399863D01*
X0270547Y0400000D02*
X0267339Y0400000D01*
X0267339Y0400137D02*
X0270547Y0400137D01*
X0270547Y0400274D02*
X0267339Y0400274D01*
X0267339Y0192041D02*
X0270547Y0192041D01*
X0267339Y0192041D02*
X0267339Y0193281D01*
X0270547Y0193281D01*
X0270547Y0192041D01*
X0270547Y0192178D02*
X0267339Y0192178D01*
X0267339Y0192315D02*
X0270547Y0192315D01*
X0270547Y0192452D02*
X0267339Y0192452D01*
X0267339Y0192589D02*
X0270547Y0192589D01*
X0270547Y0192726D02*
X0267339Y0192726D01*
X0267339Y0192863D02*
X0270547Y0192863D01*
X0270547Y0193000D02*
X0267339Y0193000D01*
X0267339Y0193137D02*
X0270547Y0193137D01*
X0270547Y0193274D02*
X0267339Y0193274D01*
X0158547Y0192041D02*
X0155339Y0192041D01*
X0155339Y0193281D01*
X0158547Y0193281D01*
X0158547Y0192041D01*
X0158547Y0192178D02*
X0155339Y0192178D01*
X0155339Y0192315D02*
X0158547Y0192315D01*
X0158547Y0192452D02*
X0155339Y0192452D01*
X0155339Y0192589D02*
X0158547Y0192589D01*
X0158547Y0192726D02*
X0155339Y0192726D01*
X0155339Y0192863D02*
X0158547Y0192863D01*
X0158547Y0193000D02*
X0155339Y0193000D01*
X0155339Y0193137D02*
X0158547Y0193137D01*
X0158547Y0193274D02*
X0155339Y0193274D01*
X0046547Y0192041D02*
X0043339Y0192041D01*
X0043339Y0193281D01*
X0046547Y0193281D01*
X0046547Y0192041D01*
X0046547Y0192178D02*
X0043339Y0192178D01*
X0043339Y0192315D02*
X0046547Y0192315D01*
X0046547Y0192452D02*
X0043339Y0192452D01*
X0043339Y0192589D02*
X0046547Y0192589D01*
X0046547Y0192726D02*
X0043339Y0192726D01*
X0043339Y0192863D02*
X0046547Y0192863D01*
X0046547Y0193000D02*
X0043339Y0193000D01*
X0043339Y0193137D02*
X0046547Y0193137D01*
X0046547Y0193274D02*
X0043339Y0193274D01*
D19*
X0050750Y0196500D03*
X0162750Y0196500D03*
X0274750Y0196500D03*
X0274750Y0403500D03*
X0162750Y0403500D03*
X0050750Y0403500D03*
D20*
X0100175Y0340929D03*
X0100175Y0318488D03*
X0212175Y0318488D03*
X0212175Y0340929D03*
X0324175Y0340929D03*
X0324175Y0318488D03*
X0324175Y0133929D03*
X0324175Y0111488D03*
X0212175Y0111488D03*
X0212175Y0133929D03*
X0100175Y0133929D03*
X0100175Y0111488D03*
D21*
X0048404Y0140228D03*
X0044467Y0088457D03*
X0156467Y0088457D03*
X0160404Y0140228D03*
X0268467Y0088457D03*
X0272404Y0140228D03*
X0268467Y0295457D03*
X0272404Y0347228D03*
X0160404Y0347228D03*
X0156467Y0295457D03*
X0048404Y0347228D03*
X0044467Y0295457D03*
D22*
X0059624Y0313803D03*
X0061199Y0318134D03*
X0059624Y0322465D03*
X0058837Y0326795D03*
X0059624Y0331126D03*
X0058837Y0335457D03*
X0059624Y0339787D03*
X0059624Y0344118D03*
X0170837Y0335457D03*
X0171624Y0339787D03*
X0171624Y0344118D03*
X0171624Y0331126D03*
X0170837Y0326795D03*
X0171624Y0322465D03*
X0173199Y0318134D03*
X0171624Y0313803D03*
X0282837Y0326795D03*
X0283624Y0322465D03*
X0285199Y0318134D03*
X0283624Y0313803D03*
X0283624Y0331126D03*
X0282837Y0335457D03*
X0283624Y0339787D03*
X0283624Y0344118D03*
X0283624Y0137118D03*
X0283624Y0132787D03*
X0282837Y0128457D03*
X0283624Y0124126D03*
X0282837Y0119795D03*
X0283624Y0115465D03*
X0285199Y0111134D03*
X0283624Y0106803D03*
X0173199Y0111134D03*
X0171624Y0115465D03*
X0170837Y0119795D03*
X0171624Y0124126D03*
X0170837Y0128457D03*
X0171624Y0132787D03*
X0171624Y0137118D03*
X0171624Y0106803D03*
X0061199Y0111134D03*
X0059624Y0115465D03*
X0058837Y0119795D03*
X0059624Y0124126D03*
X0058837Y0128457D03*
X0059624Y0132787D03*
X0059624Y0137118D03*
X0059624Y0106803D03*
D23*
X0098593Y0148205D03*
X0114341Y0148205D03*
X0126152Y0148205D03*
X0094262Y0173795D03*
X0206262Y0173795D03*
X0210593Y0148205D03*
X0226341Y0148205D03*
X0238152Y0148205D03*
X0318262Y0173795D03*
X0322593Y0148205D03*
X0338341Y0148205D03*
X0350152Y0148205D03*
X0350152Y0355205D03*
X0338341Y0355205D03*
X0322593Y0355205D03*
X0318262Y0380795D03*
X0238152Y0355205D03*
X0226341Y0355205D03*
X0210593Y0355205D03*
X0206262Y0380795D03*
X0126152Y0355205D03*
X0114341Y0355205D03*
X0098593Y0355205D03*
X0094262Y0380795D03*
D24*
X0128872Y0305575D02*
X0131628Y0305575D01*
X0128872Y0305575D02*
X0128872Y0308331D01*
X0131628Y0308331D01*
X0131628Y0305575D01*
X0131628Y0306755D02*
X0128872Y0306755D01*
X0128872Y0307935D02*
X0131628Y0307935D01*
X0131628Y0298669D02*
X0128872Y0298669D01*
X0128872Y0301425D01*
X0131628Y0301425D01*
X0131628Y0298669D01*
X0131628Y0299849D02*
X0128872Y0299849D01*
X0128872Y0301029D02*
X0131628Y0301029D01*
X0240872Y0298669D02*
X0243628Y0298669D01*
X0240872Y0298669D02*
X0240872Y0301425D01*
X0243628Y0301425D01*
X0243628Y0298669D01*
X0243628Y0299849D02*
X0240872Y0299849D01*
X0240872Y0301029D02*
X0243628Y0301029D01*
X0243628Y0305575D02*
X0240872Y0305575D01*
X0240872Y0308331D01*
X0243628Y0308331D01*
X0243628Y0305575D01*
X0243628Y0306755D02*
X0240872Y0306755D01*
X0240872Y0307935D02*
X0243628Y0307935D01*
X0352872Y0305575D02*
X0355628Y0305575D01*
X0352872Y0305575D02*
X0352872Y0308331D01*
X0355628Y0308331D01*
X0355628Y0305575D01*
X0355628Y0306755D02*
X0352872Y0306755D01*
X0352872Y0307935D02*
X0355628Y0307935D01*
X0355628Y0298669D02*
X0352872Y0298669D01*
X0352872Y0301425D01*
X0355628Y0301425D01*
X0355628Y0298669D01*
X0355628Y0299849D02*
X0352872Y0299849D01*
X0352872Y0301029D02*
X0355628Y0301029D01*
X0355628Y0098575D02*
X0352872Y0098575D01*
X0352872Y0101331D01*
X0355628Y0101331D01*
X0355628Y0098575D01*
X0355628Y0099755D02*
X0352872Y0099755D01*
X0352872Y0100935D02*
X0355628Y0100935D01*
X0355628Y0091669D02*
X0352872Y0091669D01*
X0352872Y0094425D01*
X0355628Y0094425D01*
X0355628Y0091669D01*
X0355628Y0092849D02*
X0352872Y0092849D01*
X0352872Y0094029D02*
X0355628Y0094029D01*
X0243628Y0091669D02*
X0240872Y0091669D01*
X0240872Y0094425D01*
X0243628Y0094425D01*
X0243628Y0091669D01*
X0243628Y0092849D02*
X0240872Y0092849D01*
X0240872Y0094029D02*
X0243628Y0094029D01*
X0243628Y0098575D02*
X0240872Y0098575D01*
X0240872Y0101331D01*
X0243628Y0101331D01*
X0243628Y0098575D01*
X0243628Y0099755D02*
X0240872Y0099755D01*
X0240872Y0100935D02*
X0243628Y0100935D01*
X0131628Y0098575D02*
X0128872Y0098575D01*
X0128872Y0101331D01*
X0131628Y0101331D01*
X0131628Y0098575D01*
X0131628Y0099755D02*
X0128872Y0099755D01*
X0128872Y0100935D02*
X0131628Y0100935D01*
X0131628Y0091669D02*
X0128872Y0091669D01*
X0128872Y0094425D01*
X0131628Y0094425D01*
X0131628Y0091669D01*
X0131628Y0092849D02*
X0128872Y0092849D01*
X0128872Y0094029D02*
X0131628Y0094029D01*
D25*
X0089081Y0188126D03*
X0089081Y0203874D03*
X0201081Y0203874D03*
X0201081Y0188126D03*
X0313081Y0188126D03*
X0313081Y0203874D03*
X0313081Y0395126D03*
X0313081Y0410874D03*
X0201081Y0410874D03*
X0201081Y0395126D03*
X0089081Y0395126D03*
X0089081Y0410874D03*
D26*
X0125498Y0410874D03*
X0125498Y0395126D03*
X0237498Y0395126D03*
X0237498Y0410874D03*
X0349498Y0410874D03*
X0349498Y0395126D03*
X0349498Y0203874D03*
X0349498Y0188126D03*
X0237498Y0188126D03*
X0237498Y0203874D03*
X0125498Y0203874D03*
X0125498Y0188126D03*
M02*
