M48
;GenerationSoftware,Autodesk,EAGLE,9.6.2*%
;CreationDate,2022-01-07T20:18:06Z*%
FMAT,2
ICI,OFF
METRIC,TZ,000.000
T8C0.305
T7C0.400
T6C0.508
T5C0.650
T4C1.000
T3C1.016
T2C1.200
T1C3.302
%
G90
M71
T1
X114300Y48260
X53340Y2540
X2540Y48260
X22860Y48260
X2540Y2540
X22860Y2540
X124460Y2540
X33020Y2540
X93980Y53848
X33020Y99568
X53340Y99568
X33020Y53848
X33020Y48260
X53340Y48260
X144780Y2540
X22860Y99568
X124460Y99568
X114300Y53848
X2540Y99568
X114300Y99568
X2540Y53848
X63500Y48260
X83820Y48260
X63500Y2540
X83820Y2540
X22860Y53848
X144780Y99568
X93980Y99568
X124460Y53848
X144780Y53848
X63500Y99568
X93980Y48260
X53340Y53848
X93980Y2540
X114300Y2540
X83820Y99568
X63500Y53848
X83820Y53848
X124460Y48260
X144780Y48260
T2
X1600Y39370
X8600Y39370
X32080Y39370
X39080Y39370
X32080Y90678
X39080Y90678
X93040Y90678
X62560Y39370
X69560Y39370
X100040Y90678
X62560Y90678
X100040Y39370
X93040Y39370
X130520Y39370
X69560Y90678
X1600Y90678
X8600Y90678
X123520Y90678
X130520Y90678
X123520Y39370
T3
X17780Y67818
X8890Y98298
X100330Y46990
X102870Y46990
X11430Y98298
X13970Y98298
X105410Y46990
X107950Y46990
X16510Y98298
X8890Y100838
X100330Y49530
X102870Y49530
X11430Y100838
X13970Y100838
X105410Y49530
X107950Y49530
X16510Y100838
X15240Y83058
X106680Y31750
X139700Y16510
X15240Y85598
X15240Y88138
X78740Y16510
X97790Y1270
X139700Y67818
X15240Y90678
X15240Y93218
X100330Y1270
X102870Y1270
X19050Y52578
X16510Y52578
X105410Y1270
X107950Y1270
X13970Y52578
X11430Y52578
X110490Y1270
X106680Y41910
X8890Y52578
X6350Y52578
X106680Y39370
X106680Y36830
X6350Y1270
X8890Y1270
X11430Y1270
X13970Y1270
X16510Y1270
X19050Y1270
X15240Y41910
X15240Y39370
X15240Y36830
X15240Y34290
X15240Y31750
X16510Y49530
X13970Y49530
X11430Y49530
X8890Y49530
X16510Y46990
X13970Y46990
X11430Y46990
X8890Y46990
X130810Y46990
X133350Y46990
X135890Y46990
X138430Y46990
X130810Y49530
X133350Y49530
X135890Y49530
X138430Y49530
X137160Y31750
X137160Y34290
X17780Y16510
X36830Y1270
X39370Y1270
X41910Y1270
X44450Y1270
X46990Y1270
X49530Y1270
X45720Y41910
X45720Y39370
X45720Y36830
X45720Y34290
X45720Y31750
X46990Y49530
X44450Y49530
X41910Y49530
X39370Y49530
X46990Y46990
X44450Y46990
X41910Y46990
X39370Y46990
X106680Y34290
X137160Y36830
X137160Y39370
X137160Y41910
X140970Y1270
X138430Y1270
X135890Y1270
X133350Y1270
X130810Y1270
X128270Y1270
X48260Y16510
X67310Y1270
X69850Y1270
X72390Y1270
X74930Y1270
X77470Y1270
X80010Y1270
X76200Y41910
X76200Y39370
X76200Y36830
X76200Y34290
X76200Y31750
X77470Y49530
X74930Y49530
X72390Y49530
X69850Y49530
X77470Y46990
X74930Y46990
X72390Y46990
X69850Y46990
X109220Y16510
X36830Y52578
X39370Y52578
X41910Y52578
X44450Y52578
X46990Y52578
X49530Y52578
X45720Y93218
X45720Y90678
X45720Y88138
X45720Y85598
X45720Y83058
X46990Y100838
X44450Y100838
X41910Y100838
X39370Y100838
X46990Y98298
X44450Y98298
X41910Y98298
X39370Y98298
X106680Y85598
X48260Y67818
X67310Y52578
X69850Y52578
X72390Y52578
X74930Y52578
X77470Y52578
X80010Y52578
X76200Y93218
X76200Y90678
X76200Y88138
X76200Y85598
X76200Y83058
X77470Y100838
X74930Y100838
X72390Y100838
X69850Y100838
X77470Y98298
X74930Y98298
X72390Y98298
X69850Y98298
X78740Y67818
X97790Y52578
X100330Y52578
X102870Y52578
X105410Y52578
X107950Y52578
X110490Y52578
X106680Y93218
X106680Y90678
X106680Y88138
X106680Y83058
X107950Y100838
X105410Y100838
X102870Y100838
X100330Y100838
X107950Y98298
X105410Y98298
X102870Y98298
X100330Y98298
X109220Y67818
X128270Y52578
X130810Y52578
X133350Y52578
X135890Y52578
X138430Y52578
X140970Y52578
X137160Y93218
X137160Y90678
X137160Y88138
X137160Y85598
X137160Y83058
X138430Y100838
X135890Y100838
X133350Y100838
X130810Y100838
X138430Y98298
X135890Y98298
X133350Y98298
X130810Y98298
T4
X126111Y17910
X4191Y25910
X4191Y17910
X34671Y25910
X34671Y17910
X65151Y25910
X65151Y17910
X95631Y25910
X95631Y17910
X126111Y25910
X4191Y77218
X4191Y69218
X34671Y77218
X34671Y69218
X65151Y77218
X65151Y69218
X95631Y77218
X95631Y69218
X126111Y77218
X126111Y69218
T5
X126825Y58578
X4905Y58578
X35385Y64358
X35385Y58578
X65865Y58578
X35385Y7270
X65865Y13050
X65865Y7270
X96345Y13050
X96345Y7270
X126825Y13050
X126825Y7270
X4905Y64358
X96345Y64358
X96345Y58578
X126825Y64358
X4905Y13050
X4905Y7270
X35385Y13050
X65865Y64358
T6
X142240Y77978
X139700Y77978
X142240Y75438
X139700Y75438
X78740Y24130
X81280Y24130
X78740Y26670
X81280Y26670
X78740Y29210
X111760Y29210
X109220Y29210
X111760Y26670
X109220Y26670
X111760Y24130
X109220Y24130
X20320Y26670
X81280Y29210
X48260Y80518
X50800Y77978
X48260Y77978
X50800Y75438
X48260Y75438
X48260Y24130
X50800Y24130
X48260Y26670
X50800Y26670
X48260Y29210
X17780Y24130
X20320Y24130
X17780Y26670
X17780Y29210
X20320Y29210
X142240Y29210
X81280Y80518
X78740Y80518
X81280Y77978
X78740Y77978
X81280Y75438
X78740Y75438
X139700Y29210
X20320Y77978
X139700Y26670
X142240Y24130
X139700Y24130
X50800Y29210
X50800Y80518
X142240Y26670
X111760Y80518
X109220Y80518
X111760Y77978
X109220Y77978
X111760Y75438
X109220Y75438
X20320Y80518
X17780Y80518
X17780Y77978
X20320Y75438
X17780Y75438
X142240Y80518
X139700Y80518
T7
X66395Y14478
X66395Y5842
X62215Y5842
X62215Y14478
X62215Y57150
X92695Y65786
X92695Y57150
X96875Y57150
X96875Y65786
X31735Y14478
X31735Y5842
X35915Y5842
X35915Y14478
X35915Y65786
X35915Y57150
X31735Y57150
X31735Y65786
X96875Y14478
X96875Y5842
X62215Y65786
X1255Y14478
X127355Y5842
X1255Y5842
X5435Y5842
X92695Y14478
X1255Y57150
X5435Y57150
X5435Y65786
X92695Y5842
X5435Y14478
X127355Y14478
X123175Y14478
X123175Y5842
X66395Y65786
X66395Y57150
X123175Y65786
X123175Y57150
X127355Y57150
X127355Y65786
X1255Y65786
T8
X52070Y70358
X47244Y70358
X50800Y56896
X49530Y72898
X47244Y71120
X50659Y55767
X50927Y65278
X40640Y70104
X36830Y81280
X39116Y81280
X37211Y71882
X37211Y75311
X54610Y65278
X46990Y72644
X41783Y75692
X41910Y72136
X40640Y65278
X41275Y61468
X43688Y70358
X41402Y70383
X50800Y85598
X50800Y88646
X49276Y57785
X53340Y81788
X46418Y69914
X43815Y67691
X42545Y66167
X52070Y91948
X53340Y88392
X38735Y75565
X37338Y77343
X46228Y79248
X43053Y73152
X40640Y75565
X34925Y59563
X33020Y62738
X51435Y77089
X45644Y61722
X37592Y60706
X37592Y62230
X40640Y66675
X82550Y59182
X77597Y83058
X64770Y73533
X64643Y70231
X82931Y65659
X80010Y77978
X76327Y77343
X76200Y55753
X78613Y61595
X80010Y65278
X63500Y58928
X63500Y64262
X63500Y61468
X76327Y66675
X80010Y83058
X80010Y84328
X80010Y81788
X63373Y81915
X64135Y91821
X74930Y61468
X72898Y61468
X82550Y73152
X82550Y70358
X77724Y70358
X81280Y56896
X80010Y72898
X77724Y71120
X81139Y55767
X81407Y65278
X71120Y70104
X67310Y81280
X69596Y81280
X67691Y71882
X67691Y75311
X85090Y65278
X77470Y72644
X72263Y75692
X72390Y72136
X71120Y65278
X71755Y61468
X74168Y70358
X71882Y70383
X81280Y85598
X81280Y88646
X79756Y57785
X83820Y81788
X76899Y69914
X74295Y67691
X73025Y66167
X82550Y91948
X83820Y88392
X69215Y75565
X67818Y77343
X76708Y79248
X73533Y73152
X71120Y75565
X65405Y59563
X63500Y62738
X81915Y77089
X76124Y61722
X68072Y60706
X68072Y62230
X71120Y66675
X113030Y59182
X108077Y83058
X95250Y73533
X95123Y70231
X113411Y65659
X110490Y77978
X106807Y77343
X106680Y55753
X109093Y61595
X110490Y65278
X93980Y58928
X64770Y22225
X93980Y61468
X106807Y66675
X110490Y83058
X110490Y84328
X110490Y81788
X93853Y81915
X94615Y91821
X105410Y61468
X103378Y61468
X113030Y73152
X113030Y70358
X108204Y70358
X111760Y56896
X110490Y72898
X108204Y71120
X111619Y55767
X111887Y65278
X101600Y70104
X97790Y81280
X100076Y81280
X98171Y71882
X98171Y75311
X115570Y65278
X107950Y72644
X102743Y75692
X102870Y72136
X101600Y65278
X102235Y61468
X104648Y70358
X102362Y70383
X111760Y85598
X111760Y88646
X110236Y57785
X114300Y81788
X107378Y69914
X104775Y67691
X103505Y66167
X113030Y91948
X114300Y88392
X99695Y75565
X98298Y77343
X107188Y79248
X104013Y73152
X101600Y75565
X95885Y59563
X93980Y62738
X112395Y77089
X106604Y61722
X98552Y60706
X98552Y62230
X101600Y66675
X143510Y59182
X138557Y83058
X125730Y73533
X125603Y70231
X143891Y65659
X140970Y77978
X137287Y77343
X137160Y55753
X139573Y61595
X140970Y65278
X124460Y58928
X124460Y64262
X124460Y61468
X137287Y66675
X140970Y83058
X140970Y84328
X140970Y81788
X124333Y81915
X125095Y91821
X135890Y61468
X133858Y61468
X143510Y73152
X143510Y70358
X138684Y70358
X142240Y56896
X140970Y72898
X138684Y71120
X142099Y55767
X142367Y65278
X132080Y70104
X128270Y81280
X130556Y81280
X128651Y71882
X128651Y75311
X146050Y65278
X138430Y72644
X133223Y75692
X133350Y72136
X132080Y65278
X132715Y61468
X135128Y70358
X132842Y70383
X142240Y85598
X142240Y88646
X140716Y57785
X144780Y81788
X137859Y69914
X135255Y67691
X133985Y66167
X143510Y91948
X144780Y88392
X130175Y75565
X128778Y77343
X137668Y79248
X134493Y73152
X132080Y75565
X126365Y59563
X124460Y62738
X142875Y77089
X137084Y61722
X129032Y60706
X129032Y62230
X132080Y66675
X21590Y7874
X16637Y31750
X3810Y22225
X3683Y18923
X21971Y14351
X19050Y26670
X15367Y26035
X15240Y4445
X17653Y10287
X19050Y13970
X2540Y7620
X2540Y12954
X2540Y10160
X93980Y64262
X15367Y15367
X19050Y31750
X19050Y33020
X19050Y30480
X2413Y30607
X3175Y40513
X13970Y10160
X11938Y10160
X21590Y21844
X21590Y19050
X16764Y19050
X20320Y5588
X19050Y21590
X16764Y19812
X20179Y4459
X20447Y13970
X10160Y18796
X6350Y29972
X8636Y29972
X6731Y20574
X6731Y24003
X24130Y13970
X16510Y21336
X11303Y24384
X11430Y20828
X10160Y13970
X10795Y10160
X13208Y19050
X10922Y19075
X20320Y34290
X20320Y37338
X18796Y6477
X22860Y30480
X15938Y18606
X13335Y16383
X12065Y14859
X21590Y40640
X22860Y37084
X8255Y24257
X6858Y26035
X15748Y27940
X12573Y21844
X10160Y24257
X4445Y8255
X2540Y11430
X20955Y25781
X15164Y10414
X7112Y9398
X7112Y10922
X10160Y15367
X52070Y7874
X47117Y31750
X34290Y22225
X34163Y18923
X52451Y14351
X49530Y26670
X45847Y26035
X45720Y4445
X48133Y10287
X49530Y13970
X33020Y7620
X33020Y12954
X33020Y10160
X45847Y15367
X49530Y31750
X49530Y33020
X49530Y30480
X32893Y30607
X33655Y40513
X44450Y10160
X42418Y10160
X52070Y21844
X52070Y19050
X47244Y19050
X50800Y5588
X49530Y21590
X47244Y19812
X50659Y4459
X50927Y13970
X40640Y18796
X36830Y29972
X39116Y29972
X37211Y20574
X37211Y24003
X54610Y13970
X46990Y21336
X41783Y24384
X41910Y20828
X40640Y13970
X41275Y10160
X43688Y19050
X41402Y19075
X50800Y34290
X50800Y37338
X49276Y6477
X53340Y30480
X46418Y18606
X43815Y16383
X42545Y14859
X52070Y40640
X53340Y37084
X38735Y24257
X37338Y26035
X46228Y27940
X43053Y21844
X40640Y24257
X34925Y8255
X33020Y11430
X51435Y25781
X45644Y10414
X37592Y9398
X37592Y10922
X40640Y15367
X82550Y7874
X77597Y31750
X64643Y18923
X82931Y14351
X80010Y26670
X76327Y26035
X76200Y4445
X78613Y10287
X80010Y13970
X63500Y7620
X63500Y12954
X63500Y10160
X76327Y15367
X80010Y31750
X80010Y33020
X80010Y30480
X63373Y30607
X64135Y40513
X74930Y10160
X72898Y10160
X82550Y21844
X82550Y19050
X77724Y19050
X81280Y5588
X80010Y21590
X77724Y19812
X81139Y4459
X81407Y13970
X71120Y18796
X67310Y29972
X69596Y29972
X67691Y20574
X67691Y24003
X85090Y13970
X77470Y21336
X72263Y24384
X72390Y20828
X71120Y13970
X71755Y10160
X74168Y19050
X71882Y19075
X81280Y34290
X81280Y37338
X79756Y6477
X83820Y30480
X76899Y18606
X74295Y16383
X73025Y14859
X82550Y40640
X83820Y37084
X69215Y24257
X67818Y26035
X76708Y27940
X73533Y21844
X71120Y24257
X65405Y8255
X63500Y11430
X81915Y25781
X76124Y10414
X68072Y9398
X68072Y10922
X71120Y15367
X113030Y7874
X108077Y31750
X95250Y22225
X95123Y18923
X113411Y14351
X110490Y26670
X106807Y26035
X106680Y4445
X109093Y10287
X110490Y13970
X93980Y7620
X93980Y12954
X93980Y10160
X106807Y15367
X110490Y31750
X110490Y33020
X110490Y30480
X93853Y30607
X94615Y40513
X105410Y10160
X103378Y10160
X113030Y21844
X113030Y19050
X108204Y19050
X111760Y5588
X110490Y21590
X108204Y19812
X111619Y4459
X111887Y13970
X101600Y18796
X97790Y29972
X100076Y29972
X98171Y20574
X98171Y24003
X115570Y13970
X107950Y21336
X102743Y24384
X102870Y20828
X101600Y13970
X102235Y10160
X104648Y19050
X102362Y19075
X111760Y34290
X111760Y37338
X110236Y6477
X114300Y30480
X107378Y18606
X104775Y16383
X103505Y14859
X113030Y40640
X114300Y37084
X99695Y24257
X98298Y26035
X107188Y27940
X104013Y21844
X101600Y24257
X95885Y8255
X93980Y11430
X112395Y25781
X106604Y10414
X98552Y9398
X98552Y10922
X101600Y15367
X143510Y7874
X138557Y31750
X125730Y22225
X125603Y18923
X143891Y14351
X140970Y26670
X137287Y26035
X137160Y4445
X139573Y10287
X140970Y13970
X124460Y7620
X124460Y12954
X124460Y10160
X137287Y15367
X140970Y31750
X140970Y33020
X140970Y30480
X124333Y30607
X125095Y40513
X49530Y65278
X135890Y10160
X133858Y10160
X143510Y21844
X143510Y19050
X138684Y19050
X142240Y5588
X140970Y21590
X138684Y19812
X142099Y4459
X142367Y13970
X132080Y18796
X128270Y29972
X130556Y29972
X128651Y20574
X128651Y24003
X146050Y13970
X138430Y21336
X133223Y24384
X133350Y20828
X132080Y13970
X132715Y10160
X135128Y19050
X132842Y19075
X142240Y34290
X142240Y37338
X140716Y6477
X144780Y30480
X137859Y18606
X135255Y16383
X133985Y14859
X143510Y40640
X144780Y37084
X130175Y24257
X128778Y26035
X137668Y27940
X134493Y21844
X132080Y24257
X126365Y8255
X124460Y11430
X142875Y25781
X137084Y10414
X129032Y9398
X129032Y10922
X132080Y15367
X21590Y59182
X16637Y83058
X3810Y73533
X3683Y70231
X21971Y65659
X19050Y77978
X15367Y77343
X15240Y55753
X17653Y61595
X19050Y65278
X2540Y58928
X2540Y64262
X2540Y61468
X15367Y66675
X19050Y83058
X19050Y84328
X19050Y81788
X2413Y81915
X3175Y91821
X13970Y61468
X11938Y61468
X21590Y73152
X21590Y70358
X16764Y70358
X20320Y56896
X19050Y72898
X16764Y71120
X20179Y55767
X20447Y65278
X10160Y70104
X6350Y81280
X8636Y81280
X6731Y71882
X6731Y75311
X24130Y65278
X16510Y72644
X11303Y75692
X11430Y72136
X10160Y65278
X10795Y61468
X13208Y70358
X10922Y70383
X20320Y85598
X20320Y88646
X18796Y57785
X22860Y81788
X15938Y69914
X13335Y67691
X12065Y66167
X21590Y91948
X22860Y88392
X8255Y75565
X6858Y77343
X15748Y79248
X12573Y73152
X10160Y75565
X4445Y59563
X2540Y62738
X20955Y77089
X15164Y61722
X7112Y60706
X7112Y62230
X10160Y66675
X52070Y59182
X47117Y83058
X34290Y73533
X34163Y70231
X52451Y65659
X49530Y77978
X45847Y77343
X45720Y55753
X48133Y61595
X33020Y58928
X33020Y64262
X33020Y61468
X45847Y66675
X49530Y83058
X49530Y84328
X49530Y81788
X32893Y81915
X33655Y91821
X44450Y61468
X42418Y61468
X52070Y73152
M30