G75*
%MOIN*%
%OFA0B0*%
%FSLAX25Y25*%
%IPPOS*%
%LPD*%
%AMOC8*
5,1,8,0,0,1.08239X$1,22.5*
%
%ADD10R,0.02362X0.04724*%
%ADD11R,0.05512X0.07087*%
%ADD12R,0.07480X0.05512*%
%ADD13R,0.05906X0.03150*%
%ADD14R,0.04724X0.02165*%
%ADD15R,0.04331X0.03937*%
%ADD16R,0.03937X0.04331*%
D10*
X0071250Y0057476D03*
X0076250Y0057476D03*
X0081250Y0057476D03*
X0086250Y0057476D03*
X0091250Y0057476D03*
X0096250Y0057476D03*
X0101250Y0057476D03*
X0106250Y0057476D03*
X0106250Y0079524D03*
X0101250Y0079524D03*
X0096250Y0079524D03*
X0091250Y0079524D03*
X0086250Y0079524D03*
X0081250Y0079524D03*
X0076250Y0079524D03*
X0071250Y0079524D03*
X0183250Y0079524D03*
X0188250Y0079524D03*
X0193250Y0079524D03*
X0198250Y0079524D03*
X0203250Y0079524D03*
X0208250Y0079524D03*
X0213250Y0079524D03*
X0218250Y0079524D03*
X0218250Y0057476D03*
X0213250Y0057476D03*
X0208250Y0057476D03*
X0203250Y0057476D03*
X0198250Y0057476D03*
X0193250Y0057476D03*
X0188250Y0057476D03*
X0183250Y0057476D03*
X0295250Y0057476D03*
X0300250Y0057476D03*
X0305250Y0057476D03*
X0310250Y0057476D03*
X0315250Y0057476D03*
X0320250Y0057476D03*
X0325250Y0057476D03*
X0330250Y0057476D03*
X0330250Y0079524D03*
X0325250Y0079524D03*
X0320250Y0079524D03*
X0315250Y0079524D03*
X0310250Y0079524D03*
X0305250Y0079524D03*
X0300250Y0079524D03*
X0295250Y0079524D03*
X0407250Y0079524D03*
X0412250Y0079524D03*
X0417250Y0079524D03*
X0422250Y0079524D03*
X0427250Y0079524D03*
X0432250Y0079524D03*
X0437250Y0079524D03*
X0442250Y0079524D03*
X0442250Y0057476D03*
X0437250Y0057476D03*
X0432250Y0057476D03*
X0427250Y0057476D03*
X0422250Y0057476D03*
X0417250Y0057476D03*
X0412250Y0057476D03*
X0407250Y0057476D03*
X0519250Y0057476D03*
X0524250Y0057476D03*
X0529250Y0057476D03*
X0534250Y0057476D03*
X0539250Y0057476D03*
X0544250Y0057476D03*
X0549250Y0057476D03*
X0554250Y0057476D03*
X0554250Y0079524D03*
X0549250Y0079524D03*
X0544250Y0079524D03*
X0539250Y0079524D03*
X0534250Y0079524D03*
X0529250Y0079524D03*
X0524250Y0079524D03*
X0519250Y0079524D03*
X0631250Y0079524D03*
X0636250Y0079524D03*
X0641250Y0079524D03*
X0646250Y0079524D03*
X0651250Y0079524D03*
X0656250Y0079524D03*
X0661250Y0079524D03*
X0666250Y0079524D03*
X0666250Y0057476D03*
X0661250Y0057476D03*
X0656250Y0057476D03*
X0651250Y0057476D03*
X0646250Y0057476D03*
X0641250Y0057476D03*
X0636250Y0057476D03*
X0631250Y0057476D03*
X0743250Y0057476D03*
X0748250Y0057476D03*
X0753250Y0057476D03*
X0758250Y0057476D03*
X0763250Y0057476D03*
X0768250Y0057476D03*
X0773250Y0057476D03*
X0778250Y0057476D03*
X0778250Y0079524D03*
X0773250Y0079524D03*
X0768250Y0079524D03*
X0763250Y0079524D03*
X0758250Y0079524D03*
X0753250Y0079524D03*
X0748250Y0079524D03*
X0743250Y0079524D03*
X0855250Y0079524D03*
X0860250Y0079524D03*
X0865250Y0079524D03*
X0870250Y0079524D03*
X0875250Y0079524D03*
X0880250Y0079524D03*
X0885250Y0079524D03*
X0890250Y0079524D03*
X0890250Y0057476D03*
X0885250Y0057476D03*
X0880250Y0057476D03*
X0875250Y0057476D03*
X0870250Y0057476D03*
X0865250Y0057476D03*
X0860250Y0057476D03*
X0855250Y0057476D03*
X0855250Y0259476D03*
X0860250Y0259476D03*
X0865250Y0259476D03*
X0870250Y0259476D03*
X0875250Y0259476D03*
X0880250Y0259476D03*
X0885250Y0259476D03*
X0890250Y0259476D03*
X0890250Y0281524D03*
X0885250Y0281524D03*
X0880250Y0281524D03*
X0875250Y0281524D03*
X0870250Y0281524D03*
X0865250Y0281524D03*
X0860250Y0281524D03*
X0855250Y0281524D03*
X0778250Y0281524D03*
X0773250Y0281524D03*
X0768250Y0281524D03*
X0763250Y0281524D03*
X0758250Y0281524D03*
X0753250Y0281524D03*
X0748250Y0281524D03*
X0743250Y0281524D03*
X0743250Y0259476D03*
X0748250Y0259476D03*
X0753250Y0259476D03*
X0758250Y0259476D03*
X0763250Y0259476D03*
X0768250Y0259476D03*
X0773250Y0259476D03*
X0778250Y0259476D03*
X0666250Y0259476D03*
X0661250Y0259476D03*
X0656250Y0259476D03*
X0651250Y0259476D03*
X0646250Y0259476D03*
X0641250Y0259476D03*
X0636250Y0259476D03*
X0631250Y0259476D03*
X0631250Y0281524D03*
X0636250Y0281524D03*
X0641250Y0281524D03*
X0646250Y0281524D03*
X0651250Y0281524D03*
X0656250Y0281524D03*
X0661250Y0281524D03*
X0666250Y0281524D03*
X0554250Y0281524D03*
X0549250Y0281524D03*
X0544250Y0281524D03*
X0539250Y0281524D03*
X0534250Y0281524D03*
X0529250Y0281524D03*
X0524250Y0281524D03*
X0519250Y0281524D03*
X0519250Y0259476D03*
X0524250Y0259476D03*
X0529250Y0259476D03*
X0534250Y0259476D03*
X0539250Y0259476D03*
X0544250Y0259476D03*
X0549250Y0259476D03*
X0554250Y0259476D03*
X0442250Y0259476D03*
X0437250Y0259476D03*
X0432250Y0259476D03*
X0427250Y0259476D03*
X0422250Y0259476D03*
X0417250Y0259476D03*
X0412250Y0259476D03*
X0407250Y0259476D03*
X0407250Y0281524D03*
X0412250Y0281524D03*
X0417250Y0281524D03*
X0422250Y0281524D03*
X0427250Y0281524D03*
X0432250Y0281524D03*
X0437250Y0281524D03*
X0442250Y0281524D03*
X0330250Y0281524D03*
X0325250Y0281524D03*
X0320250Y0281524D03*
X0315250Y0281524D03*
X0310250Y0281524D03*
X0305250Y0281524D03*
X0300250Y0281524D03*
X0295250Y0281524D03*
X0295250Y0259476D03*
X0300250Y0259476D03*
X0305250Y0259476D03*
X0310250Y0259476D03*
X0315250Y0259476D03*
X0320250Y0259476D03*
X0325250Y0259476D03*
X0330250Y0259476D03*
X0218250Y0259476D03*
X0213250Y0259476D03*
X0208250Y0259476D03*
X0203250Y0259476D03*
X0198250Y0259476D03*
X0193250Y0259476D03*
X0188250Y0259476D03*
X0183250Y0259476D03*
X0183250Y0281524D03*
X0188250Y0281524D03*
X0193250Y0281524D03*
X0198250Y0281524D03*
X0203250Y0281524D03*
X0208250Y0281524D03*
X0213250Y0281524D03*
X0218250Y0281524D03*
X0106250Y0281524D03*
X0101250Y0281524D03*
X0096250Y0281524D03*
X0091250Y0281524D03*
X0086250Y0281524D03*
X0081250Y0281524D03*
X0076250Y0281524D03*
X0071250Y0281524D03*
X0071250Y0259476D03*
X0076250Y0259476D03*
X0081250Y0259476D03*
X0086250Y0259476D03*
X0091250Y0259476D03*
X0096250Y0259476D03*
X0101250Y0259476D03*
X0106250Y0259476D03*
D11*
X0100675Y0299571D03*
X0100675Y0322012D03*
X0212675Y0322012D03*
X0212675Y0299571D03*
X0324675Y0299571D03*
X0324675Y0322012D03*
X0436675Y0322012D03*
X0436675Y0299571D03*
X0548675Y0299571D03*
X0548675Y0322012D03*
X0660675Y0322012D03*
X0660675Y0299571D03*
X0772675Y0299571D03*
X0772675Y0322012D03*
X0884675Y0322012D03*
X0884675Y0299571D03*
X0884675Y0120012D03*
X0884675Y0097571D03*
X0772675Y0097571D03*
X0772675Y0120012D03*
X0660675Y0120012D03*
X0660675Y0097571D03*
X0548675Y0097571D03*
X0548675Y0120012D03*
X0436675Y0120012D03*
X0436675Y0097571D03*
X0324675Y0097571D03*
X0324675Y0120012D03*
X0212675Y0120012D03*
X0212675Y0097571D03*
X0100675Y0097571D03*
X0100675Y0120012D03*
D12*
X0044967Y0143043D03*
X0156967Y0143043D03*
X0268967Y0143043D03*
X0380967Y0143043D03*
X0492967Y0143043D03*
X0604967Y0143043D03*
X0716967Y0143043D03*
X0828967Y0143043D03*
X0832904Y0091272D03*
X0720904Y0091272D03*
X0608904Y0091272D03*
X0496904Y0091272D03*
X0384904Y0091272D03*
X0272904Y0091272D03*
X0160904Y0091272D03*
X0048904Y0091272D03*
X0048904Y0293272D03*
X0160904Y0293272D03*
X0272904Y0293272D03*
X0384904Y0293272D03*
X0496904Y0293272D03*
X0608904Y0293272D03*
X0720904Y0293272D03*
X0832904Y0293272D03*
X0828967Y0345043D03*
X0716967Y0345043D03*
X0604967Y0345043D03*
X0492967Y0345043D03*
X0380967Y0345043D03*
X0268967Y0345043D03*
X0156967Y0345043D03*
X0044967Y0345043D03*
D13*
X0060124Y0326697D03*
X0061699Y0322366D03*
X0060124Y0318035D03*
X0059337Y0313705D03*
X0060124Y0309374D03*
X0059337Y0305043D03*
X0060124Y0300713D03*
X0060124Y0296382D03*
X0171337Y0305043D03*
X0172124Y0300713D03*
X0172124Y0296382D03*
X0172124Y0309374D03*
X0171337Y0313705D03*
X0172124Y0318035D03*
X0173699Y0322366D03*
X0172124Y0326697D03*
X0283337Y0313705D03*
X0284124Y0318035D03*
X0285699Y0322366D03*
X0284124Y0326697D03*
X0284124Y0309374D03*
X0283337Y0305043D03*
X0284124Y0300713D03*
X0284124Y0296382D03*
X0395337Y0305043D03*
X0396124Y0300713D03*
X0396124Y0296382D03*
X0396124Y0309374D03*
X0395337Y0313705D03*
X0396124Y0318035D03*
X0397699Y0322366D03*
X0396124Y0326697D03*
X0507337Y0313705D03*
X0508124Y0318035D03*
X0509699Y0322366D03*
X0508124Y0326697D03*
X0508124Y0309374D03*
X0507337Y0305043D03*
X0508124Y0300713D03*
X0508124Y0296382D03*
X0619337Y0305043D03*
X0620124Y0300713D03*
X0620124Y0296382D03*
X0620124Y0309374D03*
X0619337Y0313705D03*
X0620124Y0318035D03*
X0621699Y0322366D03*
X0620124Y0326697D03*
X0731337Y0313705D03*
X0732124Y0318035D03*
X0733699Y0322366D03*
X0732124Y0326697D03*
X0732124Y0309374D03*
X0731337Y0305043D03*
X0732124Y0300713D03*
X0732124Y0296382D03*
X0843337Y0305043D03*
X0844124Y0300713D03*
X0844124Y0296382D03*
X0844124Y0309374D03*
X0843337Y0313705D03*
X0844124Y0318035D03*
X0845699Y0322366D03*
X0844124Y0326697D03*
X0844124Y0124697D03*
X0845699Y0120366D03*
X0844124Y0116035D03*
X0843337Y0111705D03*
X0844124Y0107374D03*
X0843337Y0103043D03*
X0844124Y0098713D03*
X0844124Y0094382D03*
X0732124Y0094382D03*
X0732124Y0098713D03*
X0731337Y0103043D03*
X0732124Y0107374D03*
X0731337Y0111705D03*
X0732124Y0116035D03*
X0733699Y0120366D03*
X0732124Y0124697D03*
X0621699Y0120366D03*
X0620124Y0116035D03*
X0619337Y0111705D03*
X0620124Y0107374D03*
X0619337Y0103043D03*
X0620124Y0098713D03*
X0620124Y0094382D03*
X0620124Y0124697D03*
X0509699Y0120366D03*
X0508124Y0116035D03*
X0507337Y0111705D03*
X0508124Y0107374D03*
X0507337Y0103043D03*
X0508124Y0098713D03*
X0508124Y0094382D03*
X0508124Y0124697D03*
X0397699Y0120366D03*
X0396124Y0116035D03*
X0395337Y0111705D03*
X0396124Y0107374D03*
X0395337Y0103043D03*
X0396124Y0098713D03*
X0396124Y0094382D03*
X0396124Y0124697D03*
X0285699Y0120366D03*
X0284124Y0116035D03*
X0283337Y0111705D03*
X0284124Y0107374D03*
X0283337Y0103043D03*
X0284124Y0098713D03*
X0284124Y0094382D03*
X0284124Y0124697D03*
X0173699Y0120366D03*
X0172124Y0116035D03*
X0171337Y0111705D03*
X0172124Y0107374D03*
X0171337Y0103043D03*
X0172124Y0098713D03*
X0172124Y0094382D03*
X0172124Y0124697D03*
X0061699Y0120366D03*
X0060124Y0116035D03*
X0059337Y0111705D03*
X0060124Y0107374D03*
X0059337Y0103043D03*
X0060124Y0098713D03*
X0060124Y0094382D03*
X0060124Y0124697D03*
D14*
X0113631Y0072240D03*
X0113631Y0068500D03*
X0113631Y0064760D03*
X0123869Y0064760D03*
X0123869Y0072240D03*
X0225631Y0072240D03*
X0225631Y0068500D03*
X0225631Y0064760D03*
X0235869Y0064760D03*
X0235869Y0072240D03*
X0337631Y0072240D03*
X0337631Y0068500D03*
X0337631Y0064760D03*
X0347869Y0064760D03*
X0347869Y0072240D03*
X0449631Y0072240D03*
X0449631Y0068500D03*
X0449631Y0064760D03*
X0459869Y0064760D03*
X0459869Y0072240D03*
X0561631Y0072240D03*
X0561631Y0068500D03*
X0561631Y0064760D03*
X0571869Y0064760D03*
X0571869Y0072240D03*
X0673631Y0072240D03*
X0673631Y0068500D03*
X0673631Y0064760D03*
X0683869Y0064760D03*
X0683869Y0072240D03*
X0785631Y0072240D03*
X0785631Y0068500D03*
X0785631Y0064760D03*
X0795869Y0064760D03*
X0795869Y0072240D03*
X0897631Y0072240D03*
X0897631Y0068500D03*
X0897631Y0064760D03*
X0907869Y0064760D03*
X0907869Y0072240D03*
X0907869Y0266760D03*
X0907869Y0274240D03*
X0897631Y0274240D03*
X0897631Y0270500D03*
X0897631Y0266760D03*
X0795869Y0266760D03*
X0795869Y0274240D03*
X0785631Y0274240D03*
X0785631Y0270500D03*
X0785631Y0266760D03*
X0683869Y0266760D03*
X0683869Y0274240D03*
X0673631Y0274240D03*
X0673631Y0270500D03*
X0673631Y0266760D03*
X0571869Y0266760D03*
X0571869Y0274240D03*
X0561631Y0274240D03*
X0561631Y0270500D03*
X0561631Y0266760D03*
X0459869Y0266760D03*
X0459869Y0274240D03*
X0449631Y0274240D03*
X0449631Y0270500D03*
X0449631Y0266760D03*
X0347869Y0266760D03*
X0347869Y0274240D03*
X0337631Y0274240D03*
X0337631Y0270500D03*
X0337631Y0266760D03*
X0235869Y0266760D03*
X0235869Y0274240D03*
X0225631Y0274240D03*
X0225631Y0270500D03*
X0225631Y0266760D03*
X0123869Y0266760D03*
X0123869Y0274240D03*
X0113631Y0274240D03*
X0113631Y0270500D03*
X0113631Y0266760D03*
D15*
X0115404Y0280500D03*
X0122096Y0280500D03*
X0227404Y0280500D03*
X0234096Y0280500D03*
X0339404Y0280500D03*
X0346096Y0280500D03*
X0451404Y0280500D03*
X0458096Y0280500D03*
X0563404Y0280500D03*
X0570096Y0280500D03*
X0675404Y0280500D03*
X0682096Y0280500D03*
X0787404Y0280500D03*
X0794096Y0280500D03*
X0899404Y0280500D03*
X0906096Y0280500D03*
X0906096Y0078500D03*
X0899404Y0078500D03*
X0794096Y0078500D03*
X0787404Y0078500D03*
X0682096Y0078500D03*
X0675404Y0078500D03*
X0570096Y0078500D03*
X0563404Y0078500D03*
X0458096Y0078500D03*
X0451404Y0078500D03*
X0346096Y0078500D03*
X0339404Y0078500D03*
X0234096Y0078500D03*
X0227404Y0078500D03*
X0122096Y0078500D03*
X0115404Y0078500D03*
D16*
X0043750Y0057654D03*
X0043750Y0064346D03*
X0043750Y0072654D03*
X0053750Y0071846D03*
X0053750Y0065154D03*
X0043750Y0079346D03*
X0155750Y0079346D03*
X0155750Y0072654D03*
X0155750Y0064346D03*
X0165750Y0065154D03*
X0165750Y0071846D03*
X0155750Y0057654D03*
X0267750Y0057654D03*
X0267750Y0064346D03*
X0267750Y0072654D03*
X0277750Y0071846D03*
X0277750Y0065154D03*
X0267750Y0079346D03*
X0379750Y0079346D03*
X0379750Y0072654D03*
X0379750Y0064346D03*
X0389750Y0065154D03*
X0389750Y0071846D03*
X0379750Y0057654D03*
X0491750Y0057654D03*
X0491750Y0064346D03*
X0491750Y0072654D03*
X0501750Y0071846D03*
X0501750Y0065154D03*
X0491750Y0079346D03*
X0603750Y0079346D03*
X0603750Y0072654D03*
X0603750Y0064346D03*
X0613750Y0065154D03*
X0613750Y0071846D03*
X0603750Y0057654D03*
X0715750Y0057654D03*
X0715750Y0064346D03*
X0715750Y0072654D03*
X0725750Y0071846D03*
X0725750Y0065154D03*
X0715750Y0079346D03*
X0827750Y0079346D03*
X0827750Y0072654D03*
X0827750Y0064346D03*
X0837750Y0065154D03*
X0837750Y0071846D03*
X0827750Y0057654D03*
X0827750Y0259654D03*
X0827750Y0266346D03*
X0827750Y0274654D03*
X0837750Y0273846D03*
X0837750Y0267154D03*
X0827750Y0281346D03*
X0725750Y0273846D03*
X0725750Y0267154D03*
X0715750Y0266346D03*
X0715750Y0274654D03*
X0715750Y0281346D03*
X0715750Y0259654D03*
X0613750Y0267154D03*
X0613750Y0273846D03*
X0603750Y0274654D03*
X0603750Y0266346D03*
X0603750Y0259654D03*
X0603750Y0281346D03*
X0501750Y0273846D03*
X0501750Y0267154D03*
X0491750Y0266346D03*
X0491750Y0274654D03*
X0491750Y0281346D03*
X0491750Y0259654D03*
X0389750Y0267154D03*
X0389750Y0273846D03*
X0379750Y0274654D03*
X0379750Y0266346D03*
X0379750Y0259654D03*
X0379750Y0281346D03*
X0277750Y0273846D03*
X0277750Y0267154D03*
X0267750Y0266346D03*
X0267750Y0274654D03*
X0267750Y0281346D03*
X0267750Y0259654D03*
X0165750Y0267154D03*
X0165750Y0273846D03*
X0155750Y0274654D03*
X0155750Y0266346D03*
X0155750Y0259654D03*
X0155750Y0281346D03*
X0053750Y0273846D03*
X0053750Y0267154D03*
X0043750Y0266346D03*
X0043750Y0274654D03*
X0043750Y0281346D03*
X0043750Y0259654D03*
M02*
