%
M48
M72
T01C0.0120
T02C0.0200
T03C0.0256
T04C0.0400
T05C0.0472
T06C0.1300
%
T01
X6775Y5000
X7925Y5200
X7134Y6352
X7115Y6680
X7125Y7000
X7875Y6950
X9025Y6850
X9875Y6850
X10875Y6900
X12875Y7850
X13375Y8350
X11375Y8350
X10625Y8850
X10875Y9350
X10875Y9850
X11875Y9850
X12375Y9850
X9375Y9200
X8875Y8850
X9125Y8450
X8575Y8450
X8125Y8600
X8125Y9150
X6775Y9850
X5375Y9850
X7375Y10950
X8375Y10350
X8625Y11350
X9375Y11400
X11375Y11350
X12375Y11450
X9925Y13100
X11375Y13350
X10075Y13850
X11375Y14850
X11375Y15350
X11375Y15850
X11875Y16350
X10375Y15350
X12875Y14850
X17075Y14950
X18575Y14950
X18575Y13350
X17925Y13350
X17575Y13150
X18575Y12400
X19075Y12400
X21125Y13100
X22575Y13350
X21275Y13850
X22575Y14850
X22575Y15350
X22575Y15850
X23075Y16350
X21575Y15350
X24075Y14850
X28275Y14950
X29775Y14950
X29775Y13350
X29125Y13350
X28775Y13150
X29775Y12400
X30275Y12400
X32325Y13100
X33775Y13350
X32475Y13850
X33775Y14850
X33775Y15350
X33775Y15850
X34275Y16350
X32775Y15350
X35275Y14850
X39475Y14950
X40975Y14950
X40975Y13350
X40325Y13350
X39975Y13150
X40975Y12400
X41475Y12400
X43525Y13100
X44975Y13350
X43675Y13850
X44975Y14850
X44975Y15350
X44975Y15850
X45475Y16350
X43975Y15350
X46475Y14850
X50675Y14950
X52175Y14950
X54875Y13850
X54725Y13100
X56175Y13350
X56175Y14850
X56175Y15350
X56175Y15850
X56675Y16350
X55175Y15350
X57675Y14850
X61875Y14950
X63375Y14950
X66075Y13850
X65925Y13100
X67375Y13350
X67375Y14850
X67375Y15350
X67375Y15850
X67875Y16350
X66375Y15350
X68875Y14850
X73075Y14950
X74575Y14950
X74575Y13350
X73925Y13350
X73575Y13150
X74575Y12400
X75075Y12400
X77125Y13100
X78575Y13350
X77275Y13850
X78575Y14850
X78575Y15350
X78575Y15850
X79075Y16350
X77575Y15350
X80075Y14850
X84275Y14950
X85775Y14950
X85775Y13350
X85125Y13350
X84775Y13150
X85775Y12400
X86275Y12400
X88325Y13100
X89775Y13350
X88475Y13850
X89775Y14850
X89775Y15350
X89775Y15850
X90275Y16350
X88775Y15350
X91275Y14850
X91275Y17450
X90275Y17550
X90775Y18850
X80075Y17450
X79075Y17550
X79575Y18850
X68875Y17450
X67875Y17550
X68375Y18850
X57675Y17450
X56675Y17550
X57175Y18850
X46475Y17450
X45475Y17550
X45975Y18850
X35275Y17450
X34275Y17550
X34775Y18850
X24075Y17450
X23075Y17550
X23575Y18850
X12875Y17450
X11875Y17550
X12375Y18850
X7375Y14950
X5875Y14950
X6725Y13350
X6375Y13150
X7375Y13350
X7375Y12400
X7875Y12400
X5375Y11450
X5375Y8600
X4875Y7950
X4875Y7350
X5900Y7600
X4875Y6850
X4875Y6350
X4875Y5850
X5425Y5900
X9875Y5200
X9875Y4600
X10875Y5350
X11875Y5050
X11819Y4606
X12375Y5950
X16075Y5850
X16075Y6350
X16075Y6850
X16075Y7350
X16075Y7950
X16575Y8600
X17100Y7600
X18325Y7000
X18315Y6680
X18334Y6352
X16625Y5900
X17975Y5000
X19125Y5200
X21075Y5200
X21075Y4600
X22075Y5350
X23075Y5050
X23019Y4606
X23575Y5950
X21075Y6850
X20225Y6850
X19075Y6950
X19775Y8450
X19325Y8600
X19325Y9150
X20075Y8850
X20325Y8450
X20575Y9200
X21825Y8850
X22075Y9350
X22075Y9850
X23075Y9850
X23575Y9850
X23575Y11450
X22575Y11350
X20575Y11400
X19825Y11350
X19575Y10350
X18575Y10950
X16575Y11450
X16575Y9850
X17975Y9850
X22575Y8350
X24075Y7850
X24575Y8350
X27275Y7950
X27275Y7350
X28300Y7600
X29525Y7000
X29515Y6680
X29534Y6352
X30275Y6950
X31425Y6850
X32275Y6850
X33275Y6900
X35275Y7850
X35775Y8350
X33775Y8350
X33025Y8850
X33275Y9350
X33275Y9850
X34275Y9850
X34775Y9850
X34775Y11450
X33775Y11350
X31775Y11400
X31025Y11350
X29775Y10950
X30775Y10350
X29175Y9850
X27775Y9850
X27775Y8600
X30525Y8600
X30975Y8450
X31275Y8850
X31525Y8450
X30525Y9150
X31775Y9200
X27775Y11450
X22075Y6900
X27275Y6850
X27275Y6350
X27275Y5850
X27825Y5900
X29175Y5000
X30325Y5200
X32275Y5200
X32275Y4600
X33275Y5350
X34275Y5050
X34219Y4606
X34775Y5950
X38475Y5850
X38475Y6350
X38475Y6850
X38475Y7350
X38475Y7950
X38975Y8600
X39500Y7600
X40725Y7000
X40715Y6680
X40734Y6352
X41475Y6950
X42625Y6850
X43475Y6850
X44475Y6900
X46475Y7850
X46975Y8350
X44975Y8350
X44225Y8850
X44475Y9350
X44475Y9850
X45475Y9850
X45975Y9850
X45975Y11450
X44975Y11350
X42975Y11400
X42225Y11350
X40975Y10950
X41975Y10350
X42975Y9200
X42475Y8850
X42725Y8450
X42175Y8450
X41725Y8600
X41725Y9150
X40375Y9850
X38975Y9850
X38975Y11450
X49675Y7950
X49675Y7350
X50700Y7600
X50175Y8600
X50175Y9850
X51575Y9850
X52175Y10950
X53175Y10350
X53425Y11350
X54175Y11400
X56175Y11350
X57175Y11450
X57175Y9850
X56675Y9850
X55675Y9850
X55675Y9350
X55425Y8850
X56175Y8350
X57675Y7850
X58175Y8350
X60875Y7950
X60875Y7350
X61900Y7600
X63125Y7000
X63115Y6680
X63134Y6352
X61425Y5900
X60875Y5850
X60875Y6350
X60875Y6850
X63875Y6950
X65025Y6850
X65875Y6850
X66875Y6900
X68875Y7850
X69375Y8350
X67375Y8350
X66625Y8850
X66875Y9350
X66875Y9850
X67875Y9850
X68375Y9850
X68375Y11450
X67375Y11350
X65375Y11400
X64625Y11350
X63375Y10950
X64375Y10350
X65375Y9200
X64875Y8850
X65125Y8450
X64575Y8450
X64125Y8600
X64125Y9150
X62775Y9850
X61375Y9850
X61375Y8600
X61375Y11450
X63375Y12400
X63875Y12400
X62375Y13150
X62725Y13350
X63375Y13350
X72575Y11450
X74575Y10950
X75575Y10350
X73975Y9850
X72575Y9850
X75325Y9150
X75325Y8600
X75775Y8450
X76075Y8850
X76325Y8450
X76575Y9200
X77825Y8850
X78075Y9350
X78075Y9850
X79075Y9850
X79575Y9850
X79575Y11450
X78575Y11350
X76575Y11400
X75825Y11350
X78575Y8350
X80075Y7850
X80575Y8350
X83275Y7950
X83275Y7350
X84300Y7600
X85525Y7000
X85515Y6680
X85534Y6352
X86275Y6950
X87425Y6850
X88275Y6850
X89275Y6900
X91275Y7850
X91775Y8350
X89775Y8350
X89025Y8850
X89275Y9350
X89275Y9850
X90275Y9850
X90775Y9850
X90775Y11450
X89775Y11350
X87775Y11400
X87025Y11350
X86775Y10350
X85775Y10950
X85175Y9850
X83775Y9850
X83775Y8600
X86525Y8600
X86975Y8450
X87275Y8850
X87525Y8450
X86525Y9150
X87775Y9200
X83775Y11450
X78075Y6900
X77075Y6850
X76225Y6850
X75075Y6950
X74325Y7000
X74315Y6680
X74334Y6352
X72625Y5900
X72075Y5850
X72075Y6350
X72075Y6850
X72075Y7350
X72075Y7950
X72575Y8600
X73100Y7600
X68375Y5950
X67875Y5050
X67819Y4606
X66875Y5350
X65875Y5200
X65875Y4600
X63925Y5200
X62775Y5000
X57175Y5950
X56675Y5050
X56619Y4606
X55675Y5350
X54675Y5200
X54675Y4600
X52725Y5200
X51575Y5000
X50225Y5900
X49675Y5850
X49675Y6350
X49675Y6850
X51915Y6680
X51925Y7000
X52675Y6950
X53825Y6850
X54675Y6850
X55675Y6900
X53925Y8450
X53675Y8850
X53375Y8450
X52925Y8600
X52925Y9150
X54175Y9200
X50175Y11450
X52175Y12400
X52675Y12400
X51175Y13150
X51525Y13350
X52175Y13350
X51934Y6352
X45975Y5950
X45475Y5050
X45419Y4606
X44475Y5350
X43475Y5200
X43475Y4600
X41525Y5200
X40375Y5000
X39025Y5900
X73975Y5000
X75125Y5200
X77075Y5200
X77075Y4600
X78075Y5350
X79075Y5050
X79019Y4606
X79575Y5950
X83275Y5850
X83275Y6350
X83275Y6850
X83825Y5900
X85175Y5000
X86325Y5200
X88275Y5200
X88275Y4600
X89275Y5350
X90275Y5050
X90219Y4606
X90775Y5950
X90219Y24806
X90275Y25250
X90775Y26150
X89275Y25550
X88275Y25400
X88275Y24800
X86325Y25400
X85175Y25200
X83825Y26100
X83275Y26050
X83275Y26550
X83275Y27050
X83275Y27550
X83275Y28150
X83775Y28800
X84300Y27800
X85525Y27200
X85515Y26880
X85534Y26552
X86275Y27150
X87425Y27050
X88275Y27050
X89275Y27100
X91275Y28050
X91775Y28550
X89775Y28550
X89025Y29050
X89275Y29550
X89275Y30050
X90275Y30050
X90775Y30050
X90775Y31650
X89775Y31550
X87775Y31600
X87025Y31550
X86775Y30550
X85775Y31150
X85175Y30050
X83775Y30050
X83775Y31650
X85775Y32600
X86275Y32600
X85775Y33550
X85125Y33550
X84775Y33350
X84275Y35150
X85775Y35150
X88475Y34050
X89775Y33550
X88325Y33300
X89775Y35050
X89775Y35550
X89775Y36050
X90275Y36550
X88775Y35550
X91275Y35050
X91275Y37650
X90275Y37750
X90775Y39050
X80075Y37650
X79075Y37750
X79075Y36550
X78575Y36050
X78575Y35550
X78575Y35050
X77575Y35550
X77275Y34050
X78575Y33550
X77125Y33300
X75075Y32600
X74575Y32600
X73575Y33350
X73925Y33550
X74575Y33550
X74575Y35150
X73075Y35150
X68875Y35050
X67375Y35050
X67375Y35550
X67375Y36050
X67875Y36550
X66375Y35550
X66075Y34050
X65925Y33300
X67375Y33550
X63875Y32600
X63375Y32600
X62375Y33350
X62725Y33550
X63375Y33550
X63375Y35150
X61875Y35150
X57675Y35050
X56175Y35050
X56175Y35550
X56175Y36050
X56675Y36550
X55175Y35550
X54875Y34050
X54725Y33300
X56175Y33550
X52675Y32600
X52175Y32600
X51175Y33350
X51525Y33550
X52175Y33550
X52175Y35150
X50675Y35150
X46475Y35050
X44975Y35050
X44975Y35550
X44975Y36050
X45475Y36550
X43975Y35550
X43675Y34050
X44975Y33550
X43525Y33300
X41475Y32600
X40975Y32600
X39975Y33350
X40325Y33550
X40975Y33550
X40975Y35150
X39475Y35150
X35275Y35050
X33775Y35050
X33775Y35550
X33775Y36050
X34275Y36550
X32775Y35550
X32475Y34050
X33775Y33550
X32325Y33300
X30275Y32600
X29775Y32600
X28775Y33350
X29125Y33550
X29775Y33550
X29775Y35150
X28275Y35150
X24075Y35050
X22575Y35050
X22575Y35550
X22575Y36050
X23075Y36550
X21575Y35550
X21275Y34050
X22575Y33550
X21125Y33300
X19075Y32600
X18575Y32600
X17575Y33350
X17925Y33550
X18575Y33550
X18575Y35150
X17075Y35150
X12875Y35050
X11375Y35050
X11375Y35550
X11375Y36050
X11875Y36550
X10375Y35550
X10075Y34050
X11375Y33550
X9925Y33300
X7875Y32600
X7375Y32600
X6375Y33350
X6725Y33550
X7375Y33550
X7375Y35150
X5875Y35150
X11875Y37750
X12875Y37650
X12375Y39050
X23075Y37750
X24075Y37650
X23575Y39050
X34275Y37750
X35275Y37650
X34775Y39050
X45475Y37750
X46475Y37650
X45975Y39050
X56675Y37750
X57675Y37650
X57175Y39050
X67875Y37750
X68875Y37650
X68375Y39050
X79575Y39050
X80075Y35050
X79575Y31650
X78575Y31550
X76575Y31600
X75825Y31550
X75575Y30550
X74575Y31150
X72575Y31650
X72575Y30050
X73975Y30050
X75325Y29350
X75325Y28800
X75775Y28650
X76075Y29050
X76325Y28650
X76575Y29400
X77825Y29050
X78075Y29550
X78075Y30050
X79075Y30050
X79575Y30050
X78575Y28550
X80075Y28050
X80575Y28550
X78075Y27100
X77075Y27050
X76225Y27050
X75075Y27150
X74325Y27200
X74315Y26880
X74334Y26552
X72625Y26100
X72075Y26050
X72075Y26550
X72075Y27050
X72075Y27550
X72075Y28150
X72575Y28800
X73100Y27800
X69375Y28550
X68875Y28050
X67375Y28550
X66625Y29050
X66875Y29550
X66875Y30050
X67875Y30050
X68375Y30050
X68375Y31650
X67375Y31550
X65375Y31600
X64625Y31550
X63375Y31150
X64375Y30550
X65375Y29400
X64875Y29050
X65125Y28650
X64575Y28650
X64125Y28800
X64125Y29350
X62775Y30050
X61375Y30050
X61375Y28800
X60875Y28150
X60875Y27550
X61900Y27800
X63125Y27200
X63115Y26880
X63134Y26552
X61425Y26100
X60875Y26050
X60875Y26550
X60875Y27050
X63875Y27150
X65025Y27050
X65875Y27050
X66875Y27100
X68375Y26150
X67875Y25250
X67819Y24806
X66875Y25550
X65875Y25400
X65875Y24800
X63925Y25400
X62775Y25200
X57175Y26150
X56675Y25250
X56619Y24806
X55675Y25550
X54675Y25400
X54675Y24800
X52725Y25400
X51575Y25200
X50225Y26100
X49675Y26050
X49675Y26550
X49675Y27050
X49675Y27550
X49675Y28150
X50175Y28800
X50700Y27800
X51925Y27200
X51915Y26880
X51934Y26552
X53825Y27050
X54675Y27050
X55675Y27100
X57675Y28050
X58175Y28550
X56175Y28550
X55425Y29050
X55675Y29550
X55675Y30050
X56675Y30050
X57175Y30050
X57175Y31650
X56175Y31550
X54175Y31600
X53425Y31550
X52175Y31150
X53175Y30550
X54175Y29400
X53675Y29050
X53925Y28650
X53375Y28650
X52925Y28800
X52925Y29350
X51575Y30050
X50175Y30050
X50175Y31650
X45975Y31650
X44975Y31550
X42975Y31600
X42225Y31550
X40975Y31150
X41975Y30550
X42975Y29400
X42475Y29050
X42725Y28650
X42175Y28650
X41725Y28800
X41725Y29350
X40375Y30050
X38975Y30050
X38975Y28800
X38475Y28150
X38475Y27550
X39500Y27800
X40725Y27200
X40715Y26880
X40734Y26552
X41475Y27150
X42625Y27050
X43475Y27050
X44475Y27100
X46475Y28050
X46975Y28550
X44975Y28550
X44225Y29050
X44475Y29550
X44475Y30050
X45475Y30050
X45975Y30050
X52675Y27150
X45975Y26150
X45475Y25250
X45419Y24806
X44475Y25550
X43475Y25400
X43475Y24800
X41525Y25400
X40375Y25200
X39025Y26100
X38475Y26050
X38475Y26550
X38475Y27050
X35275Y28050
X35775Y28550
X33775Y28550
X33025Y29050
X33275Y29550
X33275Y30050
X34275Y30050
X34775Y30050
X34775Y31650
X33775Y31550
X31775Y31600
X31025Y31550
X29775Y31150
X30775Y30550
X29175Y30050
X27775Y30050
X27775Y28800
X27275Y28150
X27275Y27550
X28300Y27800
X29525Y27200
X29515Y26880
X29534Y26552
X30275Y27150
X31425Y27050
X32275Y27050
X33275Y27100
X34775Y26150
X34275Y25250
X34219Y24806
X33275Y25550
X32275Y25400
X32275Y24800
X30325Y25400
X29175Y25200
X27825Y26100
X27275Y26050
X27275Y26550
X27275Y27050
X24075Y28050
X24575Y28550
X22575Y28550
X21825Y29050
X22075Y29550
X22075Y30050
X23075Y30050
X23575Y30050
X23575Y31650
X22575Y31550
X20575Y31600
X19825Y31550
X19575Y30550
X18575Y31150
X16575Y31650
X16575Y30050
X17975Y30050
X19325Y29350
X19325Y28800
X19775Y28650
X20075Y29050
X20325Y28650
X20575Y29400
X16575Y28800
X16075Y28150
X16075Y27550
X17100Y27800
X18325Y27200
X18315Y26880
X18334Y26552
X16625Y26100
X16075Y26050
X16075Y26550
X16075Y27050
X19075Y27150
X20225Y27050
X21075Y27050
X22075Y27100
X23575Y26150
X23075Y25250
X23019Y24806
X22075Y25550
X21075Y25400
X21075Y24800
X19125Y25400
X17975Y25200
X12375Y26150
X11875Y25250
X11819Y24806
X10875Y25550
X9875Y25400
X9875Y24800
X7925Y25400
X6775Y25200
X5425Y26100
X4875Y26050
X4875Y26550
X4875Y27050
X4875Y27550
X4875Y28150
X5375Y28800
X5900Y27800
X7125Y27200
X7115Y26880
X7134Y26552
X7875Y27150
X9025Y27050
X9875Y27050
X10875Y27100
X12875Y28050
X13375Y28550
X11375Y28550
X10625Y29050
X10875Y29550
X10875Y30050
X11875Y30050
X12375Y30050
X9375Y29400
X8875Y29050
X9125Y28650
X8575Y28650
X8125Y28800
X8125Y29350
X6775Y30050
X5375Y30050
X7375Y31150
X8375Y30550
X8625Y31550
X9375Y31600
X11375Y31550
X12375Y31650
X5375Y31650
X27775Y31650
X31775Y29400
X31275Y29050
X31525Y28650
X30975Y28650
X30525Y28800
X30525Y29350
X38975Y31650
X61375Y31650
X75125Y25400
X73975Y25200
X77075Y25400
X77075Y24800
X78075Y25550
X79075Y25250
X79019Y24806
X79575Y26150
X86525Y28800
X86975Y28650
X87275Y29050
X87525Y28650
X86525Y29350
X87775Y29400
T02
X89275Y32550
X90275Y32550
X90275Y33550
X89275Y33550
X89275Y34550
X90275Y34550
X79075Y34550
X78075Y34550
X78075Y33550
X79075Y33550
X79075Y32550
X78075Y32550
X67875Y32550
X66875Y32550
X66875Y33550
X67875Y33550
X67875Y34550
X66875Y34550
X56675Y34550
X55675Y34550
X55675Y33550
X56675Y33550
X56675Y32550
X55675Y32550
X45475Y32550
X44475Y32550
X44475Y33550
X45475Y33550
X45475Y34550
X44475Y34550
X34275Y34550
X33275Y34550
X33275Y33550
X34275Y33550
X34275Y32550
X33275Y32550
X23075Y32550
X22075Y32550
X22075Y33550
X23075Y33550
X23075Y34550
X22075Y34550
X11875Y34550
X10875Y34550
X10875Y33550
X11875Y33550
X11875Y32550
X10875Y32550
X10875Y14350
X11875Y14350
X11875Y13350
X10875Y13350
X10875Y12350
X11875Y12350
X22075Y12350
X23075Y12350
X23075Y13350
X22075Y13350
X22075Y14350
X23075Y14350
X33275Y14350
X34275Y14350
X34275Y13350
X33275Y13350
X33275Y12350
X34275Y12350
X44475Y12350
X45475Y12350
X45475Y13350
X44475Y13350
X44475Y14350
X45475Y14350
X55675Y14350
X56675Y14350
X56675Y13350
X55675Y13350
X55675Y12350
X56675Y12350
X66875Y12350
X67875Y12350
X67875Y13350
X66875Y13350
X66875Y14350
X67875Y14350
X78075Y14350
X79075Y14350
X79075Y13350
X78075Y13350
X78075Y12350
X79075Y12350
X89275Y12350
X90275Y12350
X90275Y13350
X89275Y13350
X89275Y14350
X90275Y14350
T03
X84206Y7988
X84206Y5712
X73006Y5712
X73006Y7988
X61806Y7988
X61806Y5712
X50606Y5712
X50606Y7988
X39406Y7988
X39406Y5712
X28206Y5712
X28206Y7988
X17006Y7988
X17006Y5712
X5806Y5712
X5806Y7988
X5806Y25912
X5806Y28188
X17006Y28188
X17006Y25912
X28206Y25912
X28206Y28188
X39406Y28188
X39406Y25912
X50606Y25912
X50606Y28188
X61806Y28188
X61806Y25912
X73006Y25912
X73006Y28188
X84206Y28188
X84206Y25912
T04
X6375Y3350
X7375Y3350
X8375Y3350
X9375Y3350
X10375Y3350
X11375Y3350
X17575Y3350
X18575Y3350
X19575Y3350
X20575Y3350
X21575Y3350
X22575Y3350
X28775Y3350
X29775Y3350
X30775Y3350
X31775Y3350
X32775Y3350
X33775Y3350
X39975Y3350
X40975Y3350
X41975Y3350
X42975Y3350
X43975Y3350
X44975Y3350
X51175Y3350
X52175Y3350
X53175Y3350
X54175Y3350
X55175Y3350
X56175Y3350
X62375Y3350
X63375Y3350
X64375Y3350
X65375Y3350
X66375Y3350
X67375Y3350
X73575Y3350
X74575Y3350
X75575Y3350
X76575Y3350
X77575Y3350
X78575Y3350
X84775Y3350
X85775Y3350
X86775Y3350
X87775Y3350
X88775Y3350
X89775Y3350
X88275Y14950
X88275Y15950
X88275Y17350
X88275Y18350
X88275Y19350
X87775Y21350
X86775Y21350
X85775Y21350
X85775Y22350
X86775Y22350
X87775Y22350
X88775Y22350
X88775Y21350
X88775Y23550
X87775Y23550
X86775Y23550
X85775Y23550
X84775Y23550
X89775Y23550
X78575Y23550
X77575Y23550
X76575Y23550
X75575Y23550
X74575Y23550
X73575Y23550
X74575Y22350
X75575Y22350
X76575Y22350
X77575Y22350
X77575Y21350
X76575Y21350
X75575Y21350
X74575Y21350
X77075Y19350
X77075Y18350
X77075Y17350
X77075Y15950
X77075Y14950
X65875Y14950
X65875Y15950
X65875Y17350
X65875Y18350
X65875Y19350
X65375Y21350
X64375Y21350
X63375Y21350
X63375Y22350
X64375Y22350
X65375Y22350
X66375Y22350
X66375Y21350
X66375Y23550
X65375Y23550
X64375Y23550
X63375Y23550
X62375Y23550
X67375Y23550
X56175Y23550
X55175Y23550
X54175Y23550
X53175Y23550
X52175Y23550
X51175Y23550
X52175Y22350
X53175Y22350
X54175Y22350
X55175Y22350
X55175Y21350
X54175Y21350
X53175Y21350
X52175Y21350
X54675Y19350
X54675Y18350
X54675Y17350
X54675Y15950
X54675Y14950
X43475Y14950
X43475Y15950
X43475Y17350
X43475Y18350
X43475Y19350
X42975Y21350
X41975Y21350
X40975Y21350
X40975Y22350
X41975Y22350
X42975Y22350
X43975Y22350
X43975Y21350
X43975Y23550
X42975Y23550
X41975Y23550
X40975Y23550
X39975Y23550
X44975Y23550
X33775Y23550
X32775Y23550
X31775Y23550
X30775Y23550
X29775Y23550
X28775Y23550
X29775Y22350
X30775Y22350
X31775Y22350
X32775Y22350
X32775Y21350
X31775Y21350
X30775Y21350
X29775Y21350
X32275Y19350
X32275Y18350
X32275Y17350
X32275Y15950
X32275Y14950
X21075Y14950
X21075Y15950
X21075Y17350
X21075Y18350
X21075Y19350
X20575Y21350
X19575Y21350
X18575Y21350
X18575Y22350
X19575Y22350
X20575Y22350
X21575Y22350
X21575Y21350
X21575Y23550
X20575Y23550
X19575Y23550
X18575Y23550
X17575Y23550
X22575Y23550
X11375Y23550
X10375Y23550
X9375Y23550
X8375Y23550
X7375Y23550
X6375Y23550
X7375Y22350
X8375Y22350
X9375Y22350
X10375Y22350
X10375Y21350
X9375Y21350
X8375Y21350
X7375Y21350
X9875Y19350
X9875Y18350
X9875Y17350
X9875Y15950
X9875Y14950
X9875Y35150
X9875Y36150
X9875Y37550
X9875Y38550
X9875Y39550
X9375Y41550
X8375Y41550
X7375Y41550
X7375Y42550
X8375Y42550
X9375Y42550
X10375Y42550
X10375Y41550
X18575Y41550
X19575Y41550
X20575Y41550
X21575Y41550
X21575Y42550
X20575Y42550
X19575Y42550
X18575Y42550
X21075Y39550
X21075Y38550
X21075Y37550
X21075Y36150
X21075Y35150
X32275Y35150
X32275Y36150
X32275Y37550
X32275Y38550
X32275Y39550
X31775Y41550
X30775Y41550
X29775Y41550
X29775Y42550
X30775Y42550
X31775Y42550
X32775Y42550
X32775Y41550
X40975Y41550
X41975Y41550
X42975Y41550
X43975Y41550
X43975Y42550
X42975Y42550
X41975Y42550
X40975Y42550
X43475Y39550
X43475Y38550
X43475Y37550
X43475Y36150
X43475Y35150
X54675Y35150
X54675Y36150
X54675Y37550
X54675Y38550
X54675Y39550
X54175Y41550
X53175Y41550
X52175Y41550
X52175Y42550
X53175Y42550
X54175Y42550
X55175Y42550
X55175Y41550
X63375Y41550
X64375Y41550
X65375Y41550
X66375Y41550
X66375Y42550
X65375Y42550
X64375Y42550
X63375Y42550
X65875Y39550
X65875Y38550
X65875Y37550
X65875Y36150
X65875Y35150
X77075Y35150
X77075Y36150
X77075Y37550
X77075Y38550
X77075Y39550
X76575Y41550
X75575Y41550
X74575Y41550
X74575Y42550
X75575Y42550
X76575Y42550
X77575Y42550
X77575Y41550
X85775Y41550
X86775Y41550
X87775Y41550
X88775Y41550
X88775Y42550
X87775Y42550
X86775Y42550
X85775Y42550
X88275Y39550
X88275Y38550
X88275Y37550
X88275Y36150
X88275Y35150
T05
X85661Y38550
X82905Y38550
X74461Y38550
X71705Y38550
X63261Y38550
X60505Y38550
X52061Y38550
X49305Y38550
X40861Y38550
X38105Y38550
X29661Y38550
X26905Y38550
X18461Y38550
X15705Y38550
X7261Y38550
X4505Y38550
X4505Y18350
X7261Y18350
X15705Y18350
X18461Y18350
X26905Y18350
X29661Y18350
X38105Y18350
X40861Y18350
X49305Y18350
X52061Y18350
X60505Y18350
X63261Y18350
X71705Y18350
X74461Y18350
X82905Y18350
X85661Y18350
T06
X83275Y21850
X80075Y21850
X80075Y24050
X83275Y24050
X91275Y24050
X91275Y21850
X72075Y21850
X68875Y21850
X68875Y24050
X72075Y24050
X60875Y24050
X57675Y24050
X57675Y21850
X60875Y21850
X49675Y21850
X46475Y21850
X46475Y24050
X49675Y24050
X38475Y24050
X35275Y24050
X35275Y21850
X38475Y21850
X27275Y21850
X24075Y21850
X24075Y24050
X27275Y24050
X16075Y24050
X12875Y24050
X12875Y21850
X16075Y21850
X4875Y21850
X4875Y24050
X4875Y42050
X12875Y42050
X16075Y42050
X24075Y42050
X27275Y42050
X35275Y42050
X38475Y42050
X46475Y42050
X49675Y42050
X57675Y42050
X60875Y42050
X68875Y42050
X72075Y42050
X80075Y42050
X83275Y42050
X91275Y42050
X91275Y3850
X83275Y3850
X80075Y3850
X72075Y3850
X68875Y3850
X60875Y3850
X57675Y3850
X49675Y3850
X46475Y3850
X38475Y3850
X35275Y3850
X27275Y3850
X24075Y3850
X16075Y3850
X12875Y3850
X4875Y3850
M30
