G75*
%MOIN*%
%OFA0B0*%
%FSLAX25Y25*%
%IPPOS*%
%LPD*%
%AMOC8*
5,1,8,0,0,1.08239X$1,22.5*
%
%ADD10R,0.02362X0.04724*%
%ADD11R,0.05512X0.07087*%
%ADD12R,0.07480X0.05512*%
%ADD13R,0.05906X0.03150*%
%ADD14R,0.04724X0.02165*%
%ADD15R,0.04331X0.03937*%
D10*
X0155855Y0057476D03*
X0160855Y0057476D03*
X0165855Y0057476D03*
X0170855Y0057476D03*
X0175855Y0057476D03*
X0180855Y0057476D03*
X0185855Y0057476D03*
X0190855Y0057476D03*
X0190855Y0079524D03*
X0185855Y0079524D03*
X0180855Y0079524D03*
X0175855Y0079524D03*
X0170855Y0079524D03*
X0165855Y0079524D03*
X0160855Y0079524D03*
X0155855Y0079524D03*
X0273855Y0079524D03*
X0278855Y0079524D03*
X0283855Y0079524D03*
X0288855Y0079524D03*
X0293855Y0079524D03*
X0298855Y0079524D03*
X0303855Y0079524D03*
X0308855Y0079524D03*
X0308855Y0057476D03*
X0303855Y0057476D03*
X0298855Y0057476D03*
X0293855Y0057476D03*
X0288855Y0057476D03*
X0283855Y0057476D03*
X0278855Y0057476D03*
X0273855Y0057476D03*
X0391855Y0057476D03*
X0396855Y0057476D03*
X0401855Y0057476D03*
X0406855Y0057476D03*
X0411855Y0057476D03*
X0416855Y0057476D03*
X0421855Y0057476D03*
X0426855Y0057476D03*
X0426855Y0079524D03*
X0421855Y0079524D03*
X0416855Y0079524D03*
X0411855Y0079524D03*
X0406855Y0079524D03*
X0401855Y0079524D03*
X0396855Y0079524D03*
X0391855Y0079524D03*
X0391855Y0259476D03*
X0396855Y0259476D03*
X0401855Y0259476D03*
X0406855Y0259476D03*
X0411855Y0259476D03*
X0416855Y0259476D03*
X0421855Y0259476D03*
X0426855Y0259476D03*
X0426855Y0281524D03*
X0421855Y0281524D03*
X0416855Y0281524D03*
X0411855Y0281524D03*
X0406855Y0281524D03*
X0401855Y0281524D03*
X0396855Y0281524D03*
X0391855Y0281524D03*
X0308855Y0281524D03*
X0303855Y0281524D03*
X0298855Y0281524D03*
X0293855Y0281524D03*
X0288855Y0281524D03*
X0283855Y0281524D03*
X0278855Y0281524D03*
X0273855Y0281524D03*
X0273855Y0259476D03*
X0278855Y0259476D03*
X0283855Y0259476D03*
X0288855Y0259476D03*
X0293855Y0259476D03*
X0298855Y0259476D03*
X0303855Y0259476D03*
X0308855Y0259476D03*
X0190855Y0259476D03*
X0185855Y0259476D03*
X0180855Y0259476D03*
X0175855Y0259476D03*
X0170855Y0259476D03*
X0165855Y0259476D03*
X0160855Y0259476D03*
X0155855Y0259476D03*
X0155855Y0281524D03*
X0160855Y0281524D03*
X0165855Y0281524D03*
X0170855Y0281524D03*
X0175855Y0281524D03*
X0180855Y0281524D03*
X0185855Y0281524D03*
X0190855Y0281524D03*
D11*
X0161430Y0296071D03*
X0161430Y0318512D03*
X0279430Y0318512D03*
X0279430Y0296071D03*
X0397430Y0296071D03*
X0397430Y0318512D03*
X0397430Y0116512D03*
X0397430Y0094071D03*
X0279430Y0094071D03*
X0279430Y0116512D03*
X0161430Y0116512D03*
X0161430Y0094071D03*
D12*
X0213202Y0087772D03*
X0217139Y0139543D03*
X0331202Y0087772D03*
X0335139Y0139543D03*
X0453139Y0139543D03*
X0449202Y0087772D03*
X0449202Y0289772D03*
X0453139Y0341543D03*
X0335139Y0341543D03*
X0331202Y0289772D03*
X0217139Y0341543D03*
X0213202Y0289772D03*
D13*
X0201981Y0292882D03*
X0201981Y0297213D03*
X0202769Y0301543D03*
X0201981Y0305874D03*
X0202769Y0310205D03*
X0201981Y0314535D03*
X0200407Y0318866D03*
X0201981Y0323197D03*
X0318407Y0318866D03*
X0319981Y0314535D03*
X0320769Y0310205D03*
X0319981Y0305874D03*
X0320769Y0301543D03*
X0319981Y0297213D03*
X0319981Y0292882D03*
X0319981Y0323197D03*
X0436407Y0318866D03*
X0437981Y0314535D03*
X0438769Y0310205D03*
X0437981Y0305874D03*
X0438769Y0301543D03*
X0437981Y0297213D03*
X0437981Y0292882D03*
X0437981Y0323197D03*
X0437981Y0121197D03*
X0436407Y0116866D03*
X0437981Y0112535D03*
X0438769Y0108205D03*
X0437981Y0103874D03*
X0438769Y0099543D03*
X0437981Y0095213D03*
X0437981Y0090882D03*
X0320769Y0099543D03*
X0319981Y0095213D03*
X0319981Y0090882D03*
X0319981Y0103874D03*
X0320769Y0108205D03*
X0319981Y0112535D03*
X0318407Y0116866D03*
X0319981Y0121197D03*
X0202769Y0108205D03*
X0201981Y0112535D03*
X0200407Y0116866D03*
X0201981Y0121197D03*
X0201981Y0103874D03*
X0202769Y0099543D03*
X0201981Y0095213D03*
X0201981Y0090882D03*
D14*
X0138237Y0064760D03*
X0138237Y0072240D03*
X0148474Y0072240D03*
X0148474Y0068500D03*
X0148474Y0064760D03*
X0256237Y0064760D03*
X0256237Y0072240D03*
X0266474Y0072240D03*
X0266474Y0068500D03*
X0266474Y0064760D03*
X0374237Y0064760D03*
X0374237Y0072240D03*
X0384474Y0072240D03*
X0384474Y0068500D03*
X0384474Y0064760D03*
X0384474Y0266760D03*
X0384474Y0270500D03*
X0384474Y0274240D03*
X0374237Y0274240D03*
X0374237Y0266760D03*
X0266474Y0266760D03*
X0266474Y0270500D03*
X0266474Y0274240D03*
X0256237Y0274240D03*
X0256237Y0266760D03*
X0148474Y0266760D03*
X0148474Y0270500D03*
X0148474Y0274240D03*
X0138237Y0274240D03*
X0138237Y0266760D03*
D15*
X0140009Y0280500D03*
X0146702Y0280500D03*
X0258009Y0280500D03*
X0264702Y0280500D03*
X0376009Y0280500D03*
X0382702Y0280500D03*
X0382702Y0078500D03*
X0376009Y0078500D03*
X0264702Y0078500D03*
X0258009Y0078500D03*
X0146702Y0078500D03*
X0140009Y0078500D03*
M02*
