G04 EAGLE Gerber RS-274X export*
G75*
%MOMM*%
%FSLAX34Y34*%
%LPD*%
%INSoldermask Bottom*%
%IPPOS*%
%AMOC8*
5,1,8,0,0,1.08239X$1,22.5*%
G01*
%ADD10C,3.429000*%
%ADD11C,2.006600*%
%ADD12C,0.762000*%
%ADD13C,1.221313*%
%ADD14C,1.327000*%
%ADD15C,0.223409*%
%ADD16C,0.225400*%
%ADD17C,0.777000*%
%ADD18C,0.228344*%
%ADD19C,0.231559*%
%ADD20C,1.127000*%
%ADD21C,0.225588*%
%ADD22C,0.229050*%
%ADD23C,0.225369*%
%ADD24C,1.270000*%
%ADD25C,1.627000*%

G36*
X830645Y789952D02*
X830645Y789952D01*
X830711Y789954D01*
X830754Y789972D01*
X830801Y789980D01*
X830858Y790014D01*
X830918Y790039D01*
X830953Y790070D01*
X830994Y790095D01*
X831036Y790146D01*
X831084Y790190D01*
X831106Y790232D01*
X831135Y790269D01*
X831156Y790331D01*
X831187Y790390D01*
X831195Y790444D01*
X831207Y790481D01*
X831206Y790521D01*
X831214Y790575D01*
X831214Y794385D01*
X831203Y794450D01*
X831201Y794516D01*
X831183Y794559D01*
X831175Y794606D01*
X831141Y794663D01*
X831116Y794723D01*
X831085Y794758D01*
X831060Y794799D01*
X831009Y794841D01*
X830965Y794889D01*
X830923Y794911D01*
X830886Y794940D01*
X830824Y794961D01*
X830765Y794992D01*
X830711Y795000D01*
X830674Y795012D01*
X830634Y795011D01*
X830580Y795019D01*
X828040Y795019D01*
X827975Y795008D01*
X827909Y795006D01*
X827866Y794988D01*
X827819Y794980D01*
X827762Y794946D01*
X827702Y794921D01*
X827667Y794890D01*
X827626Y794865D01*
X827585Y794814D01*
X827536Y794770D01*
X827514Y794728D01*
X827485Y794691D01*
X827464Y794629D01*
X827433Y794570D01*
X827425Y794516D01*
X827413Y794479D01*
X827413Y794475D01*
X827413Y794474D01*
X827414Y794439D01*
X827406Y794385D01*
X827406Y790575D01*
X827417Y790510D01*
X827419Y790444D01*
X827437Y790401D01*
X827445Y790354D01*
X827479Y790297D01*
X827504Y790237D01*
X827535Y790202D01*
X827560Y790161D01*
X827611Y790120D01*
X827655Y790071D01*
X827697Y790049D01*
X827734Y790020D01*
X827796Y789999D01*
X827855Y789968D01*
X827909Y789960D01*
X827946Y789948D01*
X827986Y789949D01*
X828040Y789941D01*
X830580Y789941D01*
X830645Y789952D01*
G37*
G36*
X525845Y789952D02*
X525845Y789952D01*
X525911Y789954D01*
X525954Y789972D01*
X526001Y789980D01*
X526058Y790014D01*
X526118Y790039D01*
X526153Y790070D01*
X526194Y790095D01*
X526236Y790146D01*
X526284Y790190D01*
X526306Y790232D01*
X526335Y790269D01*
X526356Y790331D01*
X526387Y790390D01*
X526395Y790444D01*
X526407Y790481D01*
X526406Y790521D01*
X526414Y790575D01*
X526414Y794385D01*
X526403Y794450D01*
X526401Y794516D01*
X526383Y794559D01*
X526375Y794606D01*
X526341Y794663D01*
X526316Y794723D01*
X526285Y794758D01*
X526260Y794799D01*
X526209Y794841D01*
X526165Y794889D01*
X526123Y794911D01*
X526086Y794940D01*
X526024Y794961D01*
X525965Y794992D01*
X525911Y795000D01*
X525874Y795012D01*
X525834Y795011D01*
X525780Y795019D01*
X523240Y795019D01*
X523175Y795008D01*
X523109Y795006D01*
X523066Y794988D01*
X523019Y794980D01*
X522962Y794946D01*
X522902Y794921D01*
X522867Y794890D01*
X522826Y794865D01*
X522785Y794814D01*
X522736Y794770D01*
X522714Y794728D01*
X522685Y794691D01*
X522664Y794629D01*
X522633Y794570D01*
X522625Y794516D01*
X522613Y794479D01*
X522613Y794475D01*
X522613Y794474D01*
X522614Y794439D01*
X522606Y794385D01*
X522606Y790575D01*
X522617Y790510D01*
X522619Y790444D01*
X522637Y790401D01*
X522645Y790354D01*
X522679Y790297D01*
X522704Y790237D01*
X522735Y790202D01*
X522760Y790161D01*
X522811Y790120D01*
X522855Y790071D01*
X522897Y790049D01*
X522934Y790020D01*
X522996Y789999D01*
X523055Y789968D01*
X523109Y789960D01*
X523146Y789948D01*
X523186Y789949D01*
X523240Y789941D01*
X525780Y789941D01*
X525845Y789952D01*
G37*
G36*
X221045Y789952D02*
X221045Y789952D01*
X221111Y789954D01*
X221154Y789972D01*
X221201Y789980D01*
X221258Y790014D01*
X221318Y790039D01*
X221353Y790070D01*
X221394Y790095D01*
X221436Y790146D01*
X221484Y790190D01*
X221506Y790232D01*
X221535Y790269D01*
X221556Y790331D01*
X221587Y790390D01*
X221595Y790444D01*
X221607Y790481D01*
X221606Y790521D01*
X221614Y790575D01*
X221614Y794385D01*
X221603Y794450D01*
X221601Y794516D01*
X221583Y794559D01*
X221575Y794606D01*
X221541Y794663D01*
X221516Y794723D01*
X221485Y794758D01*
X221460Y794799D01*
X221409Y794841D01*
X221365Y794889D01*
X221323Y794911D01*
X221286Y794940D01*
X221224Y794961D01*
X221165Y794992D01*
X221111Y795000D01*
X221074Y795012D01*
X221034Y795011D01*
X220980Y795019D01*
X218440Y795019D01*
X218375Y795008D01*
X218309Y795006D01*
X218266Y794988D01*
X218219Y794980D01*
X218162Y794946D01*
X218102Y794921D01*
X218067Y794890D01*
X218026Y794865D01*
X217985Y794814D01*
X217936Y794770D01*
X217914Y794728D01*
X217885Y794691D01*
X217864Y794629D01*
X217833Y794570D01*
X217825Y794516D01*
X217813Y794479D01*
X217813Y794475D01*
X217813Y794474D01*
X217814Y794439D01*
X217806Y794385D01*
X217806Y790575D01*
X217817Y790510D01*
X217819Y790444D01*
X217837Y790401D01*
X217845Y790354D01*
X217879Y790297D01*
X217904Y790237D01*
X217935Y790202D01*
X217960Y790161D01*
X218011Y790120D01*
X218055Y790071D01*
X218097Y790049D01*
X218134Y790020D01*
X218196Y789999D01*
X218255Y789968D01*
X218309Y789960D01*
X218346Y789948D01*
X218386Y789949D01*
X218440Y789941D01*
X220980Y789941D01*
X221045Y789952D01*
G37*
G36*
X830645Y276872D02*
X830645Y276872D01*
X830711Y276874D01*
X830754Y276892D01*
X830801Y276900D01*
X830858Y276934D01*
X830918Y276959D01*
X830953Y276990D01*
X830994Y277015D01*
X831036Y277066D01*
X831084Y277110D01*
X831106Y277152D01*
X831135Y277189D01*
X831156Y277251D01*
X831187Y277310D01*
X831195Y277364D01*
X831207Y277401D01*
X831206Y277441D01*
X831214Y277495D01*
X831214Y281305D01*
X831203Y281370D01*
X831201Y281436D01*
X831183Y281479D01*
X831175Y281526D01*
X831141Y281583D01*
X831116Y281643D01*
X831085Y281678D01*
X831060Y281719D01*
X831009Y281761D01*
X830965Y281809D01*
X830923Y281831D01*
X830886Y281860D01*
X830824Y281881D01*
X830765Y281912D01*
X830711Y281920D01*
X830674Y281932D01*
X830634Y281931D01*
X830580Y281939D01*
X828040Y281939D01*
X827975Y281928D01*
X827909Y281926D01*
X827866Y281908D01*
X827819Y281900D01*
X827762Y281866D01*
X827702Y281841D01*
X827667Y281810D01*
X827626Y281785D01*
X827585Y281734D01*
X827536Y281690D01*
X827514Y281648D01*
X827485Y281611D01*
X827464Y281549D01*
X827433Y281490D01*
X827425Y281436D01*
X827413Y281399D01*
X827413Y281395D01*
X827413Y281394D01*
X827414Y281359D01*
X827406Y281305D01*
X827406Y277495D01*
X827417Y277430D01*
X827419Y277364D01*
X827437Y277321D01*
X827445Y277274D01*
X827479Y277217D01*
X827504Y277157D01*
X827535Y277122D01*
X827560Y277081D01*
X827611Y277040D01*
X827655Y276991D01*
X827697Y276969D01*
X827734Y276940D01*
X827796Y276919D01*
X827855Y276888D01*
X827909Y276880D01*
X827946Y276868D01*
X827986Y276869D01*
X828040Y276861D01*
X830580Y276861D01*
X830645Y276872D01*
G37*
G36*
X525845Y276872D02*
X525845Y276872D01*
X525911Y276874D01*
X525954Y276892D01*
X526001Y276900D01*
X526058Y276934D01*
X526118Y276959D01*
X526153Y276990D01*
X526194Y277015D01*
X526236Y277066D01*
X526284Y277110D01*
X526306Y277152D01*
X526335Y277189D01*
X526356Y277251D01*
X526387Y277310D01*
X526395Y277364D01*
X526407Y277401D01*
X526406Y277441D01*
X526414Y277495D01*
X526414Y281305D01*
X526403Y281370D01*
X526401Y281436D01*
X526383Y281479D01*
X526375Y281526D01*
X526341Y281583D01*
X526316Y281643D01*
X526285Y281678D01*
X526260Y281719D01*
X526209Y281761D01*
X526165Y281809D01*
X526123Y281831D01*
X526086Y281860D01*
X526024Y281881D01*
X525965Y281912D01*
X525911Y281920D01*
X525874Y281932D01*
X525834Y281931D01*
X525780Y281939D01*
X523240Y281939D01*
X523175Y281928D01*
X523109Y281926D01*
X523066Y281908D01*
X523019Y281900D01*
X522962Y281866D01*
X522902Y281841D01*
X522867Y281810D01*
X522826Y281785D01*
X522785Y281734D01*
X522736Y281690D01*
X522714Y281648D01*
X522685Y281611D01*
X522664Y281549D01*
X522633Y281490D01*
X522625Y281436D01*
X522613Y281399D01*
X522613Y281395D01*
X522613Y281394D01*
X522614Y281359D01*
X522606Y281305D01*
X522606Y277495D01*
X522617Y277430D01*
X522619Y277364D01*
X522637Y277321D01*
X522645Y277274D01*
X522679Y277217D01*
X522704Y277157D01*
X522735Y277122D01*
X522760Y277081D01*
X522811Y277040D01*
X522855Y276991D01*
X522897Y276969D01*
X522934Y276940D01*
X522996Y276919D01*
X523055Y276888D01*
X523109Y276880D01*
X523146Y276868D01*
X523186Y276869D01*
X523240Y276861D01*
X525780Y276861D01*
X525845Y276872D01*
G37*
G36*
X221045Y276872D02*
X221045Y276872D01*
X221111Y276874D01*
X221154Y276892D01*
X221201Y276900D01*
X221258Y276934D01*
X221318Y276959D01*
X221353Y276990D01*
X221394Y277015D01*
X221436Y277066D01*
X221484Y277110D01*
X221506Y277152D01*
X221535Y277189D01*
X221556Y277251D01*
X221587Y277310D01*
X221595Y277364D01*
X221607Y277401D01*
X221606Y277441D01*
X221614Y277495D01*
X221614Y281305D01*
X221603Y281370D01*
X221601Y281436D01*
X221583Y281479D01*
X221575Y281526D01*
X221541Y281583D01*
X221516Y281643D01*
X221485Y281678D01*
X221460Y281719D01*
X221409Y281761D01*
X221365Y281809D01*
X221323Y281831D01*
X221286Y281860D01*
X221224Y281881D01*
X221165Y281912D01*
X221111Y281920D01*
X221074Y281932D01*
X221034Y281931D01*
X220980Y281939D01*
X218440Y281939D01*
X218375Y281928D01*
X218309Y281926D01*
X218266Y281908D01*
X218219Y281900D01*
X218162Y281866D01*
X218102Y281841D01*
X218067Y281810D01*
X218026Y281785D01*
X217985Y281734D01*
X217936Y281690D01*
X217914Y281648D01*
X217885Y281611D01*
X217864Y281549D01*
X217833Y281490D01*
X217825Y281436D01*
X217813Y281399D01*
X217813Y281395D01*
X217813Y281394D01*
X217814Y281359D01*
X217806Y281305D01*
X217806Y277495D01*
X217817Y277430D01*
X217819Y277364D01*
X217837Y277321D01*
X217845Y277274D01*
X217879Y277217D01*
X217904Y277157D01*
X217935Y277122D01*
X217960Y277081D01*
X218011Y277040D01*
X218055Y276991D01*
X218097Y276969D01*
X218134Y276940D01*
X218196Y276919D01*
X218255Y276888D01*
X218309Y276880D01*
X218346Y276868D01*
X218386Y276869D01*
X218440Y276861D01*
X220980Y276861D01*
X221045Y276872D01*
G37*
D10*
X25400Y482600D03*
X228600Y482600D03*
D11*
X63500Y12700D03*
X88900Y12700D03*
X114300Y12700D03*
X139700Y12700D03*
X165100Y12700D03*
D12*
X7620Y500380D03*
X245110Y8890D03*
D11*
X190500Y12700D03*
X152400Y419100D03*
X152400Y393700D03*
X152400Y368300D03*
X152400Y342900D03*
X152400Y317500D03*
X165100Y495300D03*
X139700Y495300D03*
X114300Y495300D03*
X88900Y495300D03*
X165100Y469900D03*
X139700Y469900D03*
X114300Y469900D03*
X88900Y469900D03*
D13*
X177800Y292100D03*
X177800Y266700D03*
X177800Y241300D03*
X203200Y292100D03*
X203200Y266700D03*
X203200Y241300D03*
D10*
X25400Y25400D03*
X228600Y25400D03*
D14*
X16000Y393700D03*
X86000Y393700D03*
D15*
X195717Y94368D02*
X195717Y89832D01*
X184681Y89832D01*
X184681Y94368D01*
X195717Y94368D01*
X195717Y91954D02*
X184681Y91954D01*
X184681Y94076D02*
X195717Y94076D01*
X195717Y99332D02*
X195717Y103868D01*
X195717Y99332D02*
X184681Y99332D01*
X184681Y103868D01*
X195717Y103868D01*
X195717Y101454D02*
X184681Y101454D01*
X184681Y103576D02*
X195717Y103576D01*
X195717Y108832D02*
X195717Y113368D01*
X195717Y108832D02*
X184681Y108832D01*
X184681Y113368D01*
X195717Y113368D01*
X195717Y110954D02*
X184681Y110954D01*
X184681Y113076D02*
X195717Y113076D01*
X221719Y113368D02*
X221719Y108832D01*
X210683Y108832D01*
X210683Y113368D01*
X221719Y113368D01*
X221719Y110954D02*
X210683Y110954D01*
X210683Y113076D02*
X221719Y113076D01*
X221719Y94368D02*
X221719Y89832D01*
X210683Y89832D01*
X210683Y94368D01*
X221719Y94368D01*
X221719Y91954D02*
X210683Y91954D01*
X210683Y94076D02*
X221719Y94076D01*
D16*
X216708Y131508D02*
X206692Y131508D01*
X216708Y131508D02*
X216708Y122492D01*
X206692Y122492D01*
X206692Y131508D01*
X206692Y124633D02*
X216708Y124633D01*
X216708Y126774D02*
X206692Y126774D01*
X206692Y128915D02*
X216708Y128915D01*
X216708Y131056D02*
X206692Y131056D01*
X199708Y131508D02*
X189692Y131508D01*
X199708Y131508D02*
X199708Y122492D01*
X189692Y122492D01*
X189692Y131508D01*
X189692Y124633D02*
X199708Y124633D01*
X199708Y126774D02*
X189692Y126774D01*
X189692Y128915D02*
X199708Y128915D01*
X199708Y131056D02*
X189692Y131056D01*
X33592Y115108D02*
X33592Y105092D01*
X33592Y115108D02*
X42608Y115108D01*
X42608Y105092D01*
X33592Y105092D01*
X33592Y107233D02*
X42608Y107233D01*
X42608Y109374D02*
X33592Y109374D01*
X33592Y111515D02*
X42608Y111515D01*
X42608Y113656D02*
X33592Y113656D01*
X33592Y98108D02*
X33592Y88092D01*
X33592Y98108D02*
X42608Y98108D01*
X42608Y88092D01*
X33592Y88092D01*
X33592Y90233D02*
X42608Y90233D01*
X42608Y92374D02*
X33592Y92374D01*
X33592Y94515D02*
X42608Y94515D01*
X42608Y96656D02*
X33592Y96656D01*
D17*
X49050Y130500D03*
X49050Y72700D03*
D16*
X17208Y69042D02*
X17208Y79058D01*
X17208Y69042D02*
X8192Y69042D01*
X8192Y79058D01*
X17208Y79058D01*
X17208Y71183D02*
X8192Y71183D01*
X8192Y73324D02*
X17208Y73324D01*
X17208Y75465D02*
X8192Y75465D01*
X8192Y77606D02*
X17208Y77606D01*
X17208Y86042D02*
X17208Y96058D01*
X17208Y86042D02*
X8192Y86042D01*
X8192Y96058D01*
X17208Y96058D01*
X17208Y88183D02*
X8192Y88183D01*
X8192Y90324D02*
X17208Y90324D01*
X17208Y92465D02*
X8192Y92465D01*
X8192Y94606D02*
X17208Y94606D01*
X8192Y124142D02*
X8192Y134158D01*
X17208Y134158D01*
X17208Y124142D01*
X8192Y124142D01*
X8192Y126283D02*
X17208Y126283D01*
X17208Y128424D02*
X8192Y128424D01*
X8192Y130565D02*
X17208Y130565D01*
X17208Y132706D02*
X8192Y132706D01*
X8192Y117158D02*
X8192Y107142D01*
X8192Y117158D02*
X17208Y117158D01*
X17208Y107142D01*
X8192Y107142D01*
X8192Y109283D02*
X17208Y109283D01*
X17208Y111424D02*
X8192Y111424D01*
X8192Y113565D02*
X17208Y113565D01*
X17208Y115706D02*
X8192Y115706D01*
D18*
X225554Y271397D02*
X225554Y276989D01*
X225554Y271397D02*
X213866Y271397D01*
X213866Y276989D01*
X225554Y276989D01*
X225554Y273566D02*
X213866Y273566D01*
X213866Y275735D02*
X225554Y275735D01*
X225554Y281811D02*
X225554Y287403D01*
X225554Y281811D02*
X213866Y281811D01*
X213866Y287403D01*
X225554Y287403D01*
X225554Y283980D02*
X213866Y283980D01*
X213866Y286149D02*
X225554Y286149D01*
D19*
X154387Y226123D02*
X139433Y226123D01*
X139433Y232077D01*
X154387Y232077D01*
X154387Y226123D01*
X154387Y228323D02*
X139433Y228323D01*
X139433Y230523D02*
X154387Y230523D01*
X154387Y237123D02*
X139433Y237123D01*
X139433Y243077D01*
X154387Y243077D01*
X154387Y237123D01*
X154387Y239323D02*
X139433Y239323D01*
X139433Y241523D02*
X154387Y241523D01*
X154387Y248123D02*
X139433Y248123D01*
X139433Y254077D01*
X154387Y254077D01*
X154387Y248123D01*
X154387Y250323D02*
X139433Y250323D01*
X139433Y252523D02*
X154387Y252523D01*
X154387Y215123D02*
X139433Y215123D01*
X139433Y221077D01*
X154387Y221077D01*
X154387Y215123D01*
X154387Y217323D02*
X139433Y217323D01*
X139433Y219523D02*
X154387Y219523D01*
X154387Y204123D02*
X139433Y204123D01*
X139433Y210077D01*
X154387Y210077D01*
X154387Y204123D01*
X154387Y206323D02*
X139433Y206323D01*
X139433Y208523D02*
X154387Y208523D01*
X154387Y193123D02*
X139433Y193123D01*
X139433Y199077D01*
X154387Y199077D01*
X154387Y193123D01*
X154387Y195323D02*
X139433Y195323D01*
X139433Y197523D02*
X154387Y197523D01*
X154387Y182123D02*
X139433Y182123D01*
X139433Y188077D01*
X154387Y188077D01*
X154387Y182123D01*
X154387Y184323D02*
X139433Y184323D01*
X139433Y186523D02*
X154387Y186523D01*
X154387Y171123D02*
X139433Y171123D01*
X139433Y177077D01*
X154387Y177077D01*
X154387Y171123D01*
X154387Y173323D02*
X139433Y173323D01*
X139433Y175523D02*
X154387Y175523D01*
X154387Y160123D02*
X139433Y160123D01*
X139433Y166077D01*
X154387Y166077D01*
X154387Y160123D01*
X154387Y162323D02*
X139433Y162323D01*
X139433Y164523D02*
X154387Y164523D01*
D20*
X41910Y259100D03*
X41910Y179100D03*
D21*
X56417Y300593D02*
X56417Y311607D01*
X56417Y300593D02*
X35403Y300593D01*
X35403Y311607D01*
X56417Y311607D01*
X56417Y302736D02*
X35403Y302736D01*
X35403Y304879D02*
X56417Y304879D01*
X56417Y307022D02*
X35403Y307022D01*
X35403Y309165D02*
X56417Y309165D01*
X56417Y311308D02*
X35403Y311308D01*
X56417Y156607D02*
X56417Y145593D01*
X35403Y145593D01*
X35403Y156607D01*
X56417Y156607D01*
X56417Y147736D02*
X35403Y147736D01*
X35403Y149879D02*
X56417Y149879D01*
X56417Y152022D02*
X35403Y152022D01*
X35403Y154165D02*
X56417Y154165D01*
X56417Y156308D02*
X35403Y156308D01*
D22*
X148400Y289610D02*
X148400Y304590D01*
X148400Y289610D02*
X135420Y289610D01*
X135420Y304590D01*
X148400Y304590D01*
X148400Y291786D02*
X135420Y291786D01*
X135420Y293962D02*
X148400Y293962D01*
X148400Y296138D02*
X135420Y296138D01*
X135420Y298314D02*
X148400Y298314D01*
X148400Y300490D02*
X135420Y300490D01*
X135420Y302666D02*
X148400Y302666D01*
D21*
X148417Y156607D02*
X148417Y145593D01*
X133403Y145593D01*
X133403Y156607D01*
X148417Y156607D01*
X148417Y147736D02*
X133403Y147736D01*
X133403Y149879D02*
X148417Y149879D01*
X148417Y152022D02*
X133403Y152022D01*
X133403Y154165D02*
X148417Y154165D01*
X148417Y156308D02*
X133403Y156308D01*
D23*
X85058Y124092D02*
X80042Y124092D01*
X80042Y135108D01*
X85058Y135108D01*
X85058Y124092D01*
X85058Y126233D02*
X80042Y126233D01*
X80042Y128374D02*
X85058Y128374D01*
X85058Y130515D02*
X80042Y130515D01*
X80042Y132656D02*
X85058Y132656D01*
X85058Y134797D02*
X80042Y134797D01*
X92742Y124092D02*
X97758Y124092D01*
X92742Y124092D02*
X92742Y135108D01*
X97758Y135108D01*
X97758Y124092D01*
X97758Y126233D02*
X92742Y126233D01*
X92742Y128374D02*
X97758Y128374D01*
X97758Y130515D02*
X92742Y130515D01*
X92742Y132656D02*
X97758Y132656D01*
X97758Y134797D02*
X92742Y134797D01*
X105442Y124092D02*
X110458Y124092D01*
X105442Y124092D02*
X105442Y135108D01*
X110458Y135108D01*
X110458Y124092D01*
X110458Y126233D02*
X105442Y126233D01*
X105442Y128374D02*
X110458Y128374D01*
X110458Y130515D02*
X105442Y130515D01*
X105442Y132656D02*
X110458Y132656D01*
X110458Y134797D02*
X105442Y134797D01*
X118142Y124092D02*
X123158Y124092D01*
X118142Y124092D02*
X118142Y135108D01*
X123158Y135108D01*
X123158Y124092D01*
X123158Y126233D02*
X118142Y126233D01*
X118142Y128374D02*
X123158Y128374D01*
X123158Y130515D02*
X118142Y130515D01*
X118142Y132656D02*
X123158Y132656D01*
X123158Y134797D02*
X118142Y134797D01*
X130842Y124092D02*
X135858Y124092D01*
X130842Y124092D02*
X130842Y135108D01*
X135858Y135108D01*
X135858Y124092D01*
X135858Y126233D02*
X130842Y126233D01*
X130842Y128374D02*
X135858Y128374D01*
X135858Y130515D02*
X130842Y130515D01*
X130842Y132656D02*
X135858Y132656D01*
X135858Y134797D02*
X130842Y134797D01*
X143542Y124092D02*
X148558Y124092D01*
X143542Y124092D02*
X143542Y135108D01*
X148558Y135108D01*
X148558Y124092D01*
X148558Y126233D02*
X143542Y126233D01*
X143542Y128374D02*
X148558Y128374D01*
X148558Y130515D02*
X143542Y130515D01*
X143542Y132656D02*
X148558Y132656D01*
X148558Y134797D02*
X143542Y134797D01*
X156242Y124092D02*
X161258Y124092D01*
X156242Y124092D02*
X156242Y135108D01*
X161258Y135108D01*
X161258Y124092D01*
X161258Y126233D02*
X156242Y126233D01*
X156242Y128374D02*
X161258Y128374D01*
X161258Y130515D02*
X156242Y130515D01*
X156242Y132656D02*
X161258Y132656D01*
X161258Y134797D02*
X156242Y134797D01*
X168942Y124092D02*
X173958Y124092D01*
X168942Y124092D02*
X168942Y135108D01*
X173958Y135108D01*
X173958Y124092D01*
X173958Y126233D02*
X168942Y126233D01*
X168942Y128374D02*
X173958Y128374D01*
X173958Y130515D02*
X168942Y130515D01*
X168942Y132656D02*
X173958Y132656D01*
X173958Y134797D02*
X168942Y134797D01*
X168942Y68092D02*
X173958Y68092D01*
X168942Y68092D02*
X168942Y79108D01*
X173958Y79108D01*
X173958Y68092D01*
X173958Y70233D02*
X168942Y70233D01*
X168942Y72374D02*
X173958Y72374D01*
X173958Y74515D02*
X168942Y74515D01*
X168942Y76656D02*
X173958Y76656D01*
X173958Y78797D02*
X168942Y78797D01*
X161258Y68092D02*
X156242Y68092D01*
X156242Y79108D01*
X161258Y79108D01*
X161258Y68092D01*
X161258Y70233D02*
X156242Y70233D01*
X156242Y72374D02*
X161258Y72374D01*
X161258Y74515D02*
X156242Y74515D01*
X156242Y76656D02*
X161258Y76656D01*
X161258Y78797D02*
X156242Y78797D01*
X148558Y68092D02*
X143542Y68092D01*
X143542Y79108D01*
X148558Y79108D01*
X148558Y68092D01*
X148558Y70233D02*
X143542Y70233D01*
X143542Y72374D02*
X148558Y72374D01*
X148558Y74515D02*
X143542Y74515D01*
X143542Y76656D02*
X148558Y76656D01*
X148558Y78797D02*
X143542Y78797D01*
X135858Y68092D02*
X130842Y68092D01*
X130842Y79108D01*
X135858Y79108D01*
X135858Y68092D01*
X135858Y70233D02*
X130842Y70233D01*
X130842Y72374D02*
X135858Y72374D01*
X135858Y74515D02*
X130842Y74515D01*
X130842Y76656D02*
X135858Y76656D01*
X135858Y78797D02*
X130842Y78797D01*
X123158Y68092D02*
X118142Y68092D01*
X118142Y79108D01*
X123158Y79108D01*
X123158Y68092D01*
X123158Y70233D02*
X118142Y70233D01*
X118142Y72374D02*
X123158Y72374D01*
X123158Y74515D02*
X118142Y74515D01*
X118142Y76656D02*
X123158Y76656D01*
X123158Y78797D02*
X118142Y78797D01*
X110458Y68092D02*
X105442Y68092D01*
X105442Y79108D01*
X110458Y79108D01*
X110458Y68092D01*
X110458Y70233D02*
X105442Y70233D01*
X105442Y72374D02*
X110458Y72374D01*
X110458Y74515D02*
X105442Y74515D01*
X105442Y76656D02*
X110458Y76656D01*
X110458Y78797D02*
X105442Y78797D01*
X97758Y68092D02*
X92742Y68092D01*
X92742Y79108D01*
X97758Y79108D01*
X97758Y68092D01*
X97758Y70233D02*
X92742Y70233D01*
X92742Y72374D02*
X97758Y72374D01*
X97758Y74515D02*
X92742Y74515D01*
X92742Y76656D02*
X97758Y76656D01*
X97758Y78797D02*
X92742Y78797D01*
X85058Y68092D02*
X80042Y68092D01*
X80042Y79108D01*
X85058Y79108D01*
X85058Y68092D01*
X85058Y70233D02*
X80042Y70233D01*
X80042Y72374D02*
X85058Y72374D01*
X85058Y74515D02*
X80042Y74515D01*
X80042Y76656D02*
X85058Y76656D01*
X85058Y78797D02*
X80042Y78797D01*
D10*
X330200Y482600D03*
X533400Y482600D03*
D11*
X368300Y12700D03*
X393700Y12700D03*
X419100Y12700D03*
X444500Y12700D03*
X469900Y12700D03*
D12*
X312420Y500380D03*
X549910Y8890D03*
D11*
X495300Y12700D03*
X457200Y419100D03*
X457200Y393700D03*
X457200Y368300D03*
X457200Y342900D03*
X457200Y317500D03*
X469900Y495300D03*
X444500Y495300D03*
X419100Y495300D03*
X393700Y495300D03*
X469900Y469900D03*
X444500Y469900D03*
X419100Y469900D03*
X393700Y469900D03*
D13*
X482600Y292100D03*
X482600Y266700D03*
X482600Y241300D03*
X508000Y292100D03*
X508000Y266700D03*
X508000Y241300D03*
D10*
X330200Y25400D03*
X533400Y25400D03*
D14*
X320800Y393700D03*
X390800Y393700D03*
D15*
X500517Y94368D02*
X500517Y89832D01*
X489481Y89832D01*
X489481Y94368D01*
X500517Y94368D01*
X500517Y91954D02*
X489481Y91954D01*
X489481Y94076D02*
X500517Y94076D01*
X500517Y99332D02*
X500517Y103868D01*
X500517Y99332D02*
X489481Y99332D01*
X489481Y103868D01*
X500517Y103868D01*
X500517Y101454D02*
X489481Y101454D01*
X489481Y103576D02*
X500517Y103576D01*
X500517Y108832D02*
X500517Y113368D01*
X500517Y108832D02*
X489481Y108832D01*
X489481Y113368D01*
X500517Y113368D01*
X500517Y110954D02*
X489481Y110954D01*
X489481Y113076D02*
X500517Y113076D01*
X526519Y113368D02*
X526519Y108832D01*
X515483Y108832D01*
X515483Y113368D01*
X526519Y113368D01*
X526519Y110954D02*
X515483Y110954D01*
X515483Y113076D02*
X526519Y113076D01*
X526519Y94368D02*
X526519Y89832D01*
X515483Y89832D01*
X515483Y94368D01*
X526519Y94368D01*
X526519Y91954D02*
X515483Y91954D01*
X515483Y94076D02*
X526519Y94076D01*
D16*
X521508Y131508D02*
X511492Y131508D01*
X521508Y131508D02*
X521508Y122492D01*
X511492Y122492D01*
X511492Y131508D01*
X511492Y124633D02*
X521508Y124633D01*
X521508Y126774D02*
X511492Y126774D01*
X511492Y128915D02*
X521508Y128915D01*
X521508Y131056D02*
X511492Y131056D01*
X504508Y131508D02*
X494492Y131508D01*
X504508Y131508D02*
X504508Y122492D01*
X494492Y122492D01*
X494492Y131508D01*
X494492Y124633D02*
X504508Y124633D01*
X504508Y126774D02*
X494492Y126774D01*
X494492Y128915D02*
X504508Y128915D01*
X504508Y131056D02*
X494492Y131056D01*
X338392Y115108D02*
X338392Y105092D01*
X338392Y115108D02*
X347408Y115108D01*
X347408Y105092D01*
X338392Y105092D01*
X338392Y107233D02*
X347408Y107233D01*
X347408Y109374D02*
X338392Y109374D01*
X338392Y111515D02*
X347408Y111515D01*
X347408Y113656D02*
X338392Y113656D01*
X338392Y98108D02*
X338392Y88092D01*
X338392Y98108D02*
X347408Y98108D01*
X347408Y88092D01*
X338392Y88092D01*
X338392Y90233D02*
X347408Y90233D01*
X347408Y92374D02*
X338392Y92374D01*
X338392Y94515D02*
X347408Y94515D01*
X347408Y96656D02*
X338392Y96656D01*
D17*
X353850Y130500D03*
X353850Y72700D03*
D16*
X322008Y69042D02*
X322008Y79058D01*
X322008Y69042D02*
X312992Y69042D01*
X312992Y79058D01*
X322008Y79058D01*
X322008Y71183D02*
X312992Y71183D01*
X312992Y73324D02*
X322008Y73324D01*
X322008Y75465D02*
X312992Y75465D01*
X312992Y77606D02*
X322008Y77606D01*
X322008Y86042D02*
X322008Y96058D01*
X322008Y86042D02*
X312992Y86042D01*
X312992Y96058D01*
X322008Y96058D01*
X322008Y88183D02*
X312992Y88183D01*
X312992Y90324D02*
X322008Y90324D01*
X322008Y92465D02*
X312992Y92465D01*
X312992Y94606D02*
X322008Y94606D01*
X312992Y124142D02*
X312992Y134158D01*
X322008Y134158D01*
X322008Y124142D01*
X312992Y124142D01*
X312992Y126283D02*
X322008Y126283D01*
X322008Y128424D02*
X312992Y128424D01*
X312992Y130565D02*
X322008Y130565D01*
X322008Y132706D02*
X312992Y132706D01*
X312992Y117158D02*
X312992Y107142D01*
X312992Y117158D02*
X322008Y117158D01*
X322008Y107142D01*
X312992Y107142D01*
X312992Y109283D02*
X322008Y109283D01*
X322008Y111424D02*
X312992Y111424D01*
X312992Y113565D02*
X322008Y113565D01*
X322008Y115706D02*
X312992Y115706D01*
D18*
X530354Y271397D02*
X530354Y276989D01*
X530354Y271397D02*
X518666Y271397D01*
X518666Y276989D01*
X530354Y276989D01*
X530354Y273566D02*
X518666Y273566D01*
X518666Y275735D02*
X530354Y275735D01*
X530354Y281811D02*
X530354Y287403D01*
X530354Y281811D02*
X518666Y281811D01*
X518666Y287403D01*
X530354Y287403D01*
X530354Y283980D02*
X518666Y283980D01*
X518666Y286149D02*
X530354Y286149D01*
D19*
X459187Y226123D02*
X444233Y226123D01*
X444233Y232077D01*
X459187Y232077D01*
X459187Y226123D01*
X459187Y228323D02*
X444233Y228323D01*
X444233Y230523D02*
X459187Y230523D01*
X459187Y237123D02*
X444233Y237123D01*
X444233Y243077D01*
X459187Y243077D01*
X459187Y237123D01*
X459187Y239323D02*
X444233Y239323D01*
X444233Y241523D02*
X459187Y241523D01*
X459187Y248123D02*
X444233Y248123D01*
X444233Y254077D01*
X459187Y254077D01*
X459187Y248123D01*
X459187Y250323D02*
X444233Y250323D01*
X444233Y252523D02*
X459187Y252523D01*
X459187Y215123D02*
X444233Y215123D01*
X444233Y221077D01*
X459187Y221077D01*
X459187Y215123D01*
X459187Y217323D02*
X444233Y217323D01*
X444233Y219523D02*
X459187Y219523D01*
X459187Y204123D02*
X444233Y204123D01*
X444233Y210077D01*
X459187Y210077D01*
X459187Y204123D01*
X459187Y206323D02*
X444233Y206323D01*
X444233Y208523D02*
X459187Y208523D01*
X459187Y193123D02*
X444233Y193123D01*
X444233Y199077D01*
X459187Y199077D01*
X459187Y193123D01*
X459187Y195323D02*
X444233Y195323D01*
X444233Y197523D02*
X459187Y197523D01*
X459187Y182123D02*
X444233Y182123D01*
X444233Y188077D01*
X459187Y188077D01*
X459187Y182123D01*
X459187Y184323D02*
X444233Y184323D01*
X444233Y186523D02*
X459187Y186523D01*
X459187Y171123D02*
X444233Y171123D01*
X444233Y177077D01*
X459187Y177077D01*
X459187Y171123D01*
X459187Y173323D02*
X444233Y173323D01*
X444233Y175523D02*
X459187Y175523D01*
X459187Y160123D02*
X444233Y160123D01*
X444233Y166077D01*
X459187Y166077D01*
X459187Y160123D01*
X459187Y162323D02*
X444233Y162323D01*
X444233Y164523D02*
X459187Y164523D01*
D20*
X346710Y259100D03*
X346710Y179100D03*
D21*
X361217Y300593D02*
X361217Y311607D01*
X361217Y300593D02*
X340203Y300593D01*
X340203Y311607D01*
X361217Y311607D01*
X361217Y302736D02*
X340203Y302736D01*
X340203Y304879D02*
X361217Y304879D01*
X361217Y307022D02*
X340203Y307022D01*
X340203Y309165D02*
X361217Y309165D01*
X361217Y311308D02*
X340203Y311308D01*
X361217Y156607D02*
X361217Y145593D01*
X340203Y145593D01*
X340203Y156607D01*
X361217Y156607D01*
X361217Y147736D02*
X340203Y147736D01*
X340203Y149879D02*
X361217Y149879D01*
X361217Y152022D02*
X340203Y152022D01*
X340203Y154165D02*
X361217Y154165D01*
X361217Y156308D02*
X340203Y156308D01*
D22*
X453200Y289610D02*
X453200Y304590D01*
X453200Y289610D02*
X440220Y289610D01*
X440220Y304590D01*
X453200Y304590D01*
X453200Y291786D02*
X440220Y291786D01*
X440220Y293962D02*
X453200Y293962D01*
X453200Y296138D02*
X440220Y296138D01*
X440220Y298314D02*
X453200Y298314D01*
X453200Y300490D02*
X440220Y300490D01*
X440220Y302666D02*
X453200Y302666D01*
D21*
X453217Y156607D02*
X453217Y145593D01*
X438203Y145593D01*
X438203Y156607D01*
X453217Y156607D01*
X453217Y147736D02*
X438203Y147736D01*
X438203Y149879D02*
X453217Y149879D01*
X453217Y152022D02*
X438203Y152022D01*
X438203Y154165D02*
X453217Y154165D01*
X453217Y156308D02*
X438203Y156308D01*
D23*
X389858Y124092D02*
X384842Y124092D01*
X384842Y135108D01*
X389858Y135108D01*
X389858Y124092D01*
X389858Y126233D02*
X384842Y126233D01*
X384842Y128374D02*
X389858Y128374D01*
X389858Y130515D02*
X384842Y130515D01*
X384842Y132656D02*
X389858Y132656D01*
X389858Y134797D02*
X384842Y134797D01*
X397542Y124092D02*
X402558Y124092D01*
X397542Y124092D02*
X397542Y135108D01*
X402558Y135108D01*
X402558Y124092D01*
X402558Y126233D02*
X397542Y126233D01*
X397542Y128374D02*
X402558Y128374D01*
X402558Y130515D02*
X397542Y130515D01*
X397542Y132656D02*
X402558Y132656D01*
X402558Y134797D02*
X397542Y134797D01*
X410242Y124092D02*
X415258Y124092D01*
X410242Y124092D02*
X410242Y135108D01*
X415258Y135108D01*
X415258Y124092D01*
X415258Y126233D02*
X410242Y126233D01*
X410242Y128374D02*
X415258Y128374D01*
X415258Y130515D02*
X410242Y130515D01*
X410242Y132656D02*
X415258Y132656D01*
X415258Y134797D02*
X410242Y134797D01*
X422942Y124092D02*
X427958Y124092D01*
X422942Y124092D02*
X422942Y135108D01*
X427958Y135108D01*
X427958Y124092D01*
X427958Y126233D02*
X422942Y126233D01*
X422942Y128374D02*
X427958Y128374D01*
X427958Y130515D02*
X422942Y130515D01*
X422942Y132656D02*
X427958Y132656D01*
X427958Y134797D02*
X422942Y134797D01*
X435642Y124092D02*
X440658Y124092D01*
X435642Y124092D02*
X435642Y135108D01*
X440658Y135108D01*
X440658Y124092D01*
X440658Y126233D02*
X435642Y126233D01*
X435642Y128374D02*
X440658Y128374D01*
X440658Y130515D02*
X435642Y130515D01*
X435642Y132656D02*
X440658Y132656D01*
X440658Y134797D02*
X435642Y134797D01*
X448342Y124092D02*
X453358Y124092D01*
X448342Y124092D02*
X448342Y135108D01*
X453358Y135108D01*
X453358Y124092D01*
X453358Y126233D02*
X448342Y126233D01*
X448342Y128374D02*
X453358Y128374D01*
X453358Y130515D02*
X448342Y130515D01*
X448342Y132656D02*
X453358Y132656D01*
X453358Y134797D02*
X448342Y134797D01*
X461042Y124092D02*
X466058Y124092D01*
X461042Y124092D02*
X461042Y135108D01*
X466058Y135108D01*
X466058Y124092D01*
X466058Y126233D02*
X461042Y126233D01*
X461042Y128374D02*
X466058Y128374D01*
X466058Y130515D02*
X461042Y130515D01*
X461042Y132656D02*
X466058Y132656D01*
X466058Y134797D02*
X461042Y134797D01*
X473742Y124092D02*
X478758Y124092D01*
X473742Y124092D02*
X473742Y135108D01*
X478758Y135108D01*
X478758Y124092D01*
X478758Y126233D02*
X473742Y126233D01*
X473742Y128374D02*
X478758Y128374D01*
X478758Y130515D02*
X473742Y130515D01*
X473742Y132656D02*
X478758Y132656D01*
X478758Y134797D02*
X473742Y134797D01*
X473742Y68092D02*
X478758Y68092D01*
X473742Y68092D02*
X473742Y79108D01*
X478758Y79108D01*
X478758Y68092D01*
X478758Y70233D02*
X473742Y70233D01*
X473742Y72374D02*
X478758Y72374D01*
X478758Y74515D02*
X473742Y74515D01*
X473742Y76656D02*
X478758Y76656D01*
X478758Y78797D02*
X473742Y78797D01*
X466058Y68092D02*
X461042Y68092D01*
X461042Y79108D01*
X466058Y79108D01*
X466058Y68092D01*
X466058Y70233D02*
X461042Y70233D01*
X461042Y72374D02*
X466058Y72374D01*
X466058Y74515D02*
X461042Y74515D01*
X461042Y76656D02*
X466058Y76656D01*
X466058Y78797D02*
X461042Y78797D01*
X453358Y68092D02*
X448342Y68092D01*
X448342Y79108D01*
X453358Y79108D01*
X453358Y68092D01*
X453358Y70233D02*
X448342Y70233D01*
X448342Y72374D02*
X453358Y72374D01*
X453358Y74515D02*
X448342Y74515D01*
X448342Y76656D02*
X453358Y76656D01*
X453358Y78797D02*
X448342Y78797D01*
X440658Y68092D02*
X435642Y68092D01*
X435642Y79108D01*
X440658Y79108D01*
X440658Y68092D01*
X440658Y70233D02*
X435642Y70233D01*
X435642Y72374D02*
X440658Y72374D01*
X440658Y74515D02*
X435642Y74515D01*
X435642Y76656D02*
X440658Y76656D01*
X440658Y78797D02*
X435642Y78797D01*
X427958Y68092D02*
X422942Y68092D01*
X422942Y79108D01*
X427958Y79108D01*
X427958Y68092D01*
X427958Y70233D02*
X422942Y70233D01*
X422942Y72374D02*
X427958Y72374D01*
X427958Y74515D02*
X422942Y74515D01*
X422942Y76656D02*
X427958Y76656D01*
X427958Y78797D02*
X422942Y78797D01*
X415258Y68092D02*
X410242Y68092D01*
X410242Y79108D01*
X415258Y79108D01*
X415258Y68092D01*
X415258Y70233D02*
X410242Y70233D01*
X410242Y72374D02*
X415258Y72374D01*
X415258Y74515D02*
X410242Y74515D01*
X410242Y76656D02*
X415258Y76656D01*
X415258Y78797D02*
X410242Y78797D01*
X402558Y68092D02*
X397542Y68092D01*
X397542Y79108D01*
X402558Y79108D01*
X402558Y68092D01*
X402558Y70233D02*
X397542Y70233D01*
X397542Y72374D02*
X402558Y72374D01*
X402558Y74515D02*
X397542Y74515D01*
X397542Y76656D02*
X402558Y76656D01*
X402558Y78797D02*
X397542Y78797D01*
X389858Y68092D02*
X384842Y68092D01*
X384842Y79108D01*
X389858Y79108D01*
X389858Y68092D01*
X389858Y70233D02*
X384842Y70233D01*
X384842Y72374D02*
X389858Y72374D01*
X389858Y74515D02*
X384842Y74515D01*
X384842Y76656D02*
X389858Y76656D01*
X389858Y78797D02*
X384842Y78797D01*
D10*
X635000Y482600D03*
X838200Y482600D03*
D11*
X673100Y12700D03*
X698500Y12700D03*
X723900Y12700D03*
X749300Y12700D03*
X774700Y12700D03*
D12*
X617220Y500380D03*
X854710Y8890D03*
D11*
X800100Y12700D03*
X762000Y419100D03*
X762000Y393700D03*
X762000Y368300D03*
X762000Y342900D03*
X762000Y317500D03*
X774700Y495300D03*
X749300Y495300D03*
X723900Y495300D03*
X698500Y495300D03*
X774700Y469900D03*
X749300Y469900D03*
X723900Y469900D03*
X698500Y469900D03*
D13*
X787400Y292100D03*
X787400Y266700D03*
X787400Y241300D03*
X812800Y292100D03*
X812800Y266700D03*
X812800Y241300D03*
D10*
X635000Y25400D03*
X838200Y25400D03*
D14*
X625600Y393700D03*
X695600Y393700D03*
D15*
X805317Y94368D02*
X805317Y89832D01*
X794281Y89832D01*
X794281Y94368D01*
X805317Y94368D01*
X805317Y91954D02*
X794281Y91954D01*
X794281Y94076D02*
X805317Y94076D01*
X805317Y99332D02*
X805317Y103868D01*
X805317Y99332D02*
X794281Y99332D01*
X794281Y103868D01*
X805317Y103868D01*
X805317Y101454D02*
X794281Y101454D01*
X794281Y103576D02*
X805317Y103576D01*
X805317Y108832D02*
X805317Y113368D01*
X805317Y108832D02*
X794281Y108832D01*
X794281Y113368D01*
X805317Y113368D01*
X805317Y110954D02*
X794281Y110954D01*
X794281Y113076D02*
X805317Y113076D01*
X831319Y113368D02*
X831319Y108832D01*
X820283Y108832D01*
X820283Y113368D01*
X831319Y113368D01*
X831319Y110954D02*
X820283Y110954D01*
X820283Y113076D02*
X831319Y113076D01*
X831319Y94368D02*
X831319Y89832D01*
X820283Y89832D01*
X820283Y94368D01*
X831319Y94368D01*
X831319Y91954D02*
X820283Y91954D01*
X820283Y94076D02*
X831319Y94076D01*
D16*
X826308Y131508D02*
X816292Y131508D01*
X826308Y131508D02*
X826308Y122492D01*
X816292Y122492D01*
X816292Y131508D01*
X816292Y124633D02*
X826308Y124633D01*
X826308Y126774D02*
X816292Y126774D01*
X816292Y128915D02*
X826308Y128915D01*
X826308Y131056D02*
X816292Y131056D01*
X809308Y131508D02*
X799292Y131508D01*
X809308Y131508D02*
X809308Y122492D01*
X799292Y122492D01*
X799292Y131508D01*
X799292Y124633D02*
X809308Y124633D01*
X809308Y126774D02*
X799292Y126774D01*
X799292Y128915D02*
X809308Y128915D01*
X809308Y131056D02*
X799292Y131056D01*
X643192Y115108D02*
X643192Y105092D01*
X643192Y115108D02*
X652208Y115108D01*
X652208Y105092D01*
X643192Y105092D01*
X643192Y107233D02*
X652208Y107233D01*
X652208Y109374D02*
X643192Y109374D01*
X643192Y111515D02*
X652208Y111515D01*
X652208Y113656D02*
X643192Y113656D01*
X643192Y98108D02*
X643192Y88092D01*
X643192Y98108D02*
X652208Y98108D01*
X652208Y88092D01*
X643192Y88092D01*
X643192Y90233D02*
X652208Y90233D01*
X652208Y92374D02*
X643192Y92374D01*
X643192Y94515D02*
X652208Y94515D01*
X652208Y96656D02*
X643192Y96656D01*
D17*
X658650Y130500D03*
X658650Y72700D03*
D16*
X626808Y69042D02*
X626808Y79058D01*
X626808Y69042D02*
X617792Y69042D01*
X617792Y79058D01*
X626808Y79058D01*
X626808Y71183D02*
X617792Y71183D01*
X617792Y73324D02*
X626808Y73324D01*
X626808Y75465D02*
X617792Y75465D01*
X617792Y77606D02*
X626808Y77606D01*
X626808Y86042D02*
X626808Y96058D01*
X626808Y86042D02*
X617792Y86042D01*
X617792Y96058D01*
X626808Y96058D01*
X626808Y88183D02*
X617792Y88183D01*
X617792Y90324D02*
X626808Y90324D01*
X626808Y92465D02*
X617792Y92465D01*
X617792Y94606D02*
X626808Y94606D01*
X617792Y124142D02*
X617792Y134158D01*
X626808Y134158D01*
X626808Y124142D01*
X617792Y124142D01*
X617792Y126283D02*
X626808Y126283D01*
X626808Y128424D02*
X617792Y128424D01*
X617792Y130565D02*
X626808Y130565D01*
X626808Y132706D02*
X617792Y132706D01*
X617792Y117158D02*
X617792Y107142D01*
X617792Y117158D02*
X626808Y117158D01*
X626808Y107142D01*
X617792Y107142D01*
X617792Y109283D02*
X626808Y109283D01*
X626808Y111424D02*
X617792Y111424D01*
X617792Y113565D02*
X626808Y113565D01*
X626808Y115706D02*
X617792Y115706D01*
D18*
X835154Y271397D02*
X835154Y276989D01*
X835154Y271397D02*
X823466Y271397D01*
X823466Y276989D01*
X835154Y276989D01*
X835154Y273566D02*
X823466Y273566D01*
X823466Y275735D02*
X835154Y275735D01*
X835154Y281811D02*
X835154Y287403D01*
X835154Y281811D02*
X823466Y281811D01*
X823466Y287403D01*
X835154Y287403D01*
X835154Y283980D02*
X823466Y283980D01*
X823466Y286149D02*
X835154Y286149D01*
D19*
X763987Y226123D02*
X749033Y226123D01*
X749033Y232077D01*
X763987Y232077D01*
X763987Y226123D01*
X763987Y228323D02*
X749033Y228323D01*
X749033Y230523D02*
X763987Y230523D01*
X763987Y237123D02*
X749033Y237123D01*
X749033Y243077D01*
X763987Y243077D01*
X763987Y237123D01*
X763987Y239323D02*
X749033Y239323D01*
X749033Y241523D02*
X763987Y241523D01*
X763987Y248123D02*
X749033Y248123D01*
X749033Y254077D01*
X763987Y254077D01*
X763987Y248123D01*
X763987Y250323D02*
X749033Y250323D01*
X749033Y252523D02*
X763987Y252523D01*
X763987Y215123D02*
X749033Y215123D01*
X749033Y221077D01*
X763987Y221077D01*
X763987Y215123D01*
X763987Y217323D02*
X749033Y217323D01*
X749033Y219523D02*
X763987Y219523D01*
X763987Y204123D02*
X749033Y204123D01*
X749033Y210077D01*
X763987Y210077D01*
X763987Y204123D01*
X763987Y206323D02*
X749033Y206323D01*
X749033Y208523D02*
X763987Y208523D01*
X763987Y193123D02*
X749033Y193123D01*
X749033Y199077D01*
X763987Y199077D01*
X763987Y193123D01*
X763987Y195323D02*
X749033Y195323D01*
X749033Y197523D02*
X763987Y197523D01*
X763987Y182123D02*
X749033Y182123D01*
X749033Y188077D01*
X763987Y188077D01*
X763987Y182123D01*
X763987Y184323D02*
X749033Y184323D01*
X749033Y186523D02*
X763987Y186523D01*
X763987Y171123D02*
X749033Y171123D01*
X749033Y177077D01*
X763987Y177077D01*
X763987Y171123D01*
X763987Y173323D02*
X749033Y173323D01*
X749033Y175523D02*
X763987Y175523D01*
X763987Y160123D02*
X749033Y160123D01*
X749033Y166077D01*
X763987Y166077D01*
X763987Y160123D01*
X763987Y162323D02*
X749033Y162323D01*
X749033Y164523D02*
X763987Y164523D01*
D20*
X651510Y259100D03*
X651510Y179100D03*
D21*
X666017Y300593D02*
X666017Y311607D01*
X666017Y300593D02*
X645003Y300593D01*
X645003Y311607D01*
X666017Y311607D01*
X666017Y302736D02*
X645003Y302736D01*
X645003Y304879D02*
X666017Y304879D01*
X666017Y307022D02*
X645003Y307022D01*
X645003Y309165D02*
X666017Y309165D01*
X666017Y311308D02*
X645003Y311308D01*
X666017Y156607D02*
X666017Y145593D01*
X645003Y145593D01*
X645003Y156607D01*
X666017Y156607D01*
X666017Y147736D02*
X645003Y147736D01*
X645003Y149879D02*
X666017Y149879D01*
X666017Y152022D02*
X645003Y152022D01*
X645003Y154165D02*
X666017Y154165D01*
X666017Y156308D02*
X645003Y156308D01*
D22*
X758000Y289610D02*
X758000Y304590D01*
X758000Y289610D02*
X745020Y289610D01*
X745020Y304590D01*
X758000Y304590D01*
X758000Y291786D02*
X745020Y291786D01*
X745020Y293962D02*
X758000Y293962D01*
X758000Y296138D02*
X745020Y296138D01*
X745020Y298314D02*
X758000Y298314D01*
X758000Y300490D02*
X745020Y300490D01*
X745020Y302666D02*
X758000Y302666D01*
D21*
X758017Y156607D02*
X758017Y145593D01*
X743003Y145593D01*
X743003Y156607D01*
X758017Y156607D01*
X758017Y147736D02*
X743003Y147736D01*
X743003Y149879D02*
X758017Y149879D01*
X758017Y152022D02*
X743003Y152022D01*
X743003Y154165D02*
X758017Y154165D01*
X758017Y156308D02*
X743003Y156308D01*
D23*
X694658Y124092D02*
X689642Y124092D01*
X689642Y135108D01*
X694658Y135108D01*
X694658Y124092D01*
X694658Y126233D02*
X689642Y126233D01*
X689642Y128374D02*
X694658Y128374D01*
X694658Y130515D02*
X689642Y130515D01*
X689642Y132656D02*
X694658Y132656D01*
X694658Y134797D02*
X689642Y134797D01*
X702342Y124092D02*
X707358Y124092D01*
X702342Y124092D02*
X702342Y135108D01*
X707358Y135108D01*
X707358Y124092D01*
X707358Y126233D02*
X702342Y126233D01*
X702342Y128374D02*
X707358Y128374D01*
X707358Y130515D02*
X702342Y130515D01*
X702342Y132656D02*
X707358Y132656D01*
X707358Y134797D02*
X702342Y134797D01*
X715042Y124092D02*
X720058Y124092D01*
X715042Y124092D02*
X715042Y135108D01*
X720058Y135108D01*
X720058Y124092D01*
X720058Y126233D02*
X715042Y126233D01*
X715042Y128374D02*
X720058Y128374D01*
X720058Y130515D02*
X715042Y130515D01*
X715042Y132656D02*
X720058Y132656D01*
X720058Y134797D02*
X715042Y134797D01*
X727742Y124092D02*
X732758Y124092D01*
X727742Y124092D02*
X727742Y135108D01*
X732758Y135108D01*
X732758Y124092D01*
X732758Y126233D02*
X727742Y126233D01*
X727742Y128374D02*
X732758Y128374D01*
X732758Y130515D02*
X727742Y130515D01*
X727742Y132656D02*
X732758Y132656D01*
X732758Y134797D02*
X727742Y134797D01*
X740442Y124092D02*
X745458Y124092D01*
X740442Y124092D02*
X740442Y135108D01*
X745458Y135108D01*
X745458Y124092D01*
X745458Y126233D02*
X740442Y126233D01*
X740442Y128374D02*
X745458Y128374D01*
X745458Y130515D02*
X740442Y130515D01*
X740442Y132656D02*
X745458Y132656D01*
X745458Y134797D02*
X740442Y134797D01*
X753142Y124092D02*
X758158Y124092D01*
X753142Y124092D02*
X753142Y135108D01*
X758158Y135108D01*
X758158Y124092D01*
X758158Y126233D02*
X753142Y126233D01*
X753142Y128374D02*
X758158Y128374D01*
X758158Y130515D02*
X753142Y130515D01*
X753142Y132656D02*
X758158Y132656D01*
X758158Y134797D02*
X753142Y134797D01*
X765842Y124092D02*
X770858Y124092D01*
X765842Y124092D02*
X765842Y135108D01*
X770858Y135108D01*
X770858Y124092D01*
X770858Y126233D02*
X765842Y126233D01*
X765842Y128374D02*
X770858Y128374D01*
X770858Y130515D02*
X765842Y130515D01*
X765842Y132656D02*
X770858Y132656D01*
X770858Y134797D02*
X765842Y134797D01*
X778542Y124092D02*
X783558Y124092D01*
X778542Y124092D02*
X778542Y135108D01*
X783558Y135108D01*
X783558Y124092D01*
X783558Y126233D02*
X778542Y126233D01*
X778542Y128374D02*
X783558Y128374D01*
X783558Y130515D02*
X778542Y130515D01*
X778542Y132656D02*
X783558Y132656D01*
X783558Y134797D02*
X778542Y134797D01*
X778542Y68092D02*
X783558Y68092D01*
X778542Y68092D02*
X778542Y79108D01*
X783558Y79108D01*
X783558Y68092D01*
X783558Y70233D02*
X778542Y70233D01*
X778542Y72374D02*
X783558Y72374D01*
X783558Y74515D02*
X778542Y74515D01*
X778542Y76656D02*
X783558Y76656D01*
X783558Y78797D02*
X778542Y78797D01*
X770858Y68092D02*
X765842Y68092D01*
X765842Y79108D01*
X770858Y79108D01*
X770858Y68092D01*
X770858Y70233D02*
X765842Y70233D01*
X765842Y72374D02*
X770858Y72374D01*
X770858Y74515D02*
X765842Y74515D01*
X765842Y76656D02*
X770858Y76656D01*
X770858Y78797D02*
X765842Y78797D01*
X758158Y68092D02*
X753142Y68092D01*
X753142Y79108D01*
X758158Y79108D01*
X758158Y68092D01*
X758158Y70233D02*
X753142Y70233D01*
X753142Y72374D02*
X758158Y72374D01*
X758158Y74515D02*
X753142Y74515D01*
X753142Y76656D02*
X758158Y76656D01*
X758158Y78797D02*
X753142Y78797D01*
X745458Y68092D02*
X740442Y68092D01*
X740442Y79108D01*
X745458Y79108D01*
X745458Y68092D01*
X745458Y70233D02*
X740442Y70233D01*
X740442Y72374D02*
X745458Y72374D01*
X745458Y74515D02*
X740442Y74515D01*
X740442Y76656D02*
X745458Y76656D01*
X745458Y78797D02*
X740442Y78797D01*
X732758Y68092D02*
X727742Y68092D01*
X727742Y79108D01*
X732758Y79108D01*
X732758Y68092D01*
X732758Y70233D02*
X727742Y70233D01*
X727742Y72374D02*
X732758Y72374D01*
X732758Y74515D02*
X727742Y74515D01*
X727742Y76656D02*
X732758Y76656D01*
X732758Y78797D02*
X727742Y78797D01*
X720058Y68092D02*
X715042Y68092D01*
X715042Y79108D01*
X720058Y79108D01*
X720058Y68092D01*
X720058Y70233D02*
X715042Y70233D01*
X715042Y72374D02*
X720058Y72374D01*
X720058Y74515D02*
X715042Y74515D01*
X715042Y76656D02*
X720058Y76656D01*
X720058Y78797D02*
X715042Y78797D01*
X707358Y68092D02*
X702342Y68092D01*
X702342Y79108D01*
X707358Y79108D01*
X707358Y68092D01*
X707358Y70233D02*
X702342Y70233D01*
X702342Y72374D02*
X707358Y72374D01*
X707358Y74515D02*
X702342Y74515D01*
X702342Y76656D02*
X707358Y76656D01*
X707358Y78797D02*
X702342Y78797D01*
X694658Y68092D02*
X689642Y68092D01*
X689642Y79108D01*
X694658Y79108D01*
X694658Y68092D01*
X694658Y70233D02*
X689642Y70233D01*
X689642Y72374D02*
X694658Y72374D01*
X694658Y74515D02*
X689642Y74515D01*
X689642Y76656D02*
X694658Y76656D01*
X694658Y78797D02*
X689642Y78797D01*
D10*
X25400Y995680D03*
X228600Y995680D03*
D11*
X63500Y525780D03*
X88900Y525780D03*
X114300Y525780D03*
X139700Y525780D03*
X165100Y525780D03*
D12*
X7620Y1013460D03*
X245110Y521970D03*
D11*
X190500Y525780D03*
X152400Y932180D03*
X152400Y906780D03*
X152400Y881380D03*
X152400Y855980D03*
X152400Y830580D03*
X165100Y1008380D03*
X139700Y1008380D03*
X114300Y1008380D03*
X88900Y1008380D03*
X165100Y982980D03*
X139700Y982980D03*
X114300Y982980D03*
X88900Y982980D03*
D13*
X177800Y805180D03*
X177800Y779780D03*
X177800Y754380D03*
X203200Y805180D03*
X203200Y779780D03*
X203200Y754380D03*
D10*
X25400Y538480D03*
X228600Y538480D03*
D14*
X16000Y906780D03*
X86000Y906780D03*
D15*
X195717Y607448D02*
X195717Y602912D01*
X184681Y602912D01*
X184681Y607448D01*
X195717Y607448D01*
X195717Y605034D02*
X184681Y605034D01*
X184681Y607156D02*
X195717Y607156D01*
X195717Y612412D02*
X195717Y616948D01*
X195717Y612412D02*
X184681Y612412D01*
X184681Y616948D01*
X195717Y616948D01*
X195717Y614534D02*
X184681Y614534D01*
X184681Y616656D02*
X195717Y616656D01*
X195717Y621912D02*
X195717Y626448D01*
X195717Y621912D02*
X184681Y621912D01*
X184681Y626448D01*
X195717Y626448D01*
X195717Y624034D02*
X184681Y624034D01*
X184681Y626156D02*
X195717Y626156D01*
X221719Y626448D02*
X221719Y621912D01*
X210683Y621912D01*
X210683Y626448D01*
X221719Y626448D01*
X221719Y624034D02*
X210683Y624034D01*
X210683Y626156D02*
X221719Y626156D01*
X221719Y607448D02*
X221719Y602912D01*
X210683Y602912D01*
X210683Y607448D01*
X221719Y607448D01*
X221719Y605034D02*
X210683Y605034D01*
X210683Y607156D02*
X221719Y607156D01*
D16*
X216708Y644588D02*
X206692Y644588D01*
X216708Y644588D02*
X216708Y635572D01*
X206692Y635572D01*
X206692Y644588D01*
X206692Y637713D02*
X216708Y637713D01*
X216708Y639854D02*
X206692Y639854D01*
X206692Y641995D02*
X216708Y641995D01*
X216708Y644136D02*
X206692Y644136D01*
X199708Y644588D02*
X189692Y644588D01*
X199708Y644588D02*
X199708Y635572D01*
X189692Y635572D01*
X189692Y644588D01*
X189692Y637713D02*
X199708Y637713D01*
X199708Y639854D02*
X189692Y639854D01*
X189692Y641995D02*
X199708Y641995D01*
X199708Y644136D02*
X189692Y644136D01*
X33592Y628188D02*
X33592Y618172D01*
X33592Y628188D02*
X42608Y628188D01*
X42608Y618172D01*
X33592Y618172D01*
X33592Y620313D02*
X42608Y620313D01*
X42608Y622454D02*
X33592Y622454D01*
X33592Y624595D02*
X42608Y624595D01*
X42608Y626736D02*
X33592Y626736D01*
X33592Y611188D02*
X33592Y601172D01*
X33592Y611188D02*
X42608Y611188D01*
X42608Y601172D01*
X33592Y601172D01*
X33592Y603313D02*
X42608Y603313D01*
X42608Y605454D02*
X33592Y605454D01*
X33592Y607595D02*
X42608Y607595D01*
X42608Y609736D02*
X33592Y609736D01*
D17*
X49050Y643580D03*
X49050Y585780D03*
D16*
X17208Y582122D02*
X17208Y592138D01*
X17208Y582122D02*
X8192Y582122D01*
X8192Y592138D01*
X17208Y592138D01*
X17208Y584263D02*
X8192Y584263D01*
X8192Y586404D02*
X17208Y586404D01*
X17208Y588545D02*
X8192Y588545D01*
X8192Y590686D02*
X17208Y590686D01*
X17208Y599122D02*
X17208Y609138D01*
X17208Y599122D02*
X8192Y599122D01*
X8192Y609138D01*
X17208Y609138D01*
X17208Y601263D02*
X8192Y601263D01*
X8192Y603404D02*
X17208Y603404D01*
X17208Y605545D02*
X8192Y605545D01*
X8192Y607686D02*
X17208Y607686D01*
X8192Y637222D02*
X8192Y647238D01*
X17208Y647238D01*
X17208Y637222D01*
X8192Y637222D01*
X8192Y639363D02*
X17208Y639363D01*
X17208Y641504D02*
X8192Y641504D01*
X8192Y643645D02*
X17208Y643645D01*
X17208Y645786D02*
X8192Y645786D01*
X8192Y630238D02*
X8192Y620222D01*
X8192Y630238D02*
X17208Y630238D01*
X17208Y620222D01*
X8192Y620222D01*
X8192Y622363D02*
X17208Y622363D01*
X17208Y624504D02*
X8192Y624504D01*
X8192Y626645D02*
X17208Y626645D01*
X17208Y628786D02*
X8192Y628786D01*
D18*
X225554Y784477D02*
X225554Y790069D01*
X225554Y784477D02*
X213866Y784477D01*
X213866Y790069D01*
X225554Y790069D01*
X225554Y786646D02*
X213866Y786646D01*
X213866Y788815D02*
X225554Y788815D01*
X225554Y794891D02*
X225554Y800483D01*
X225554Y794891D02*
X213866Y794891D01*
X213866Y800483D01*
X225554Y800483D01*
X225554Y797060D02*
X213866Y797060D01*
X213866Y799229D02*
X225554Y799229D01*
D19*
X154387Y739203D02*
X139433Y739203D01*
X139433Y745157D01*
X154387Y745157D01*
X154387Y739203D01*
X154387Y741403D02*
X139433Y741403D01*
X139433Y743603D02*
X154387Y743603D01*
X154387Y750203D02*
X139433Y750203D01*
X139433Y756157D01*
X154387Y756157D01*
X154387Y750203D01*
X154387Y752403D02*
X139433Y752403D01*
X139433Y754603D02*
X154387Y754603D01*
X154387Y761203D02*
X139433Y761203D01*
X139433Y767157D01*
X154387Y767157D01*
X154387Y761203D01*
X154387Y763403D02*
X139433Y763403D01*
X139433Y765603D02*
X154387Y765603D01*
X154387Y728203D02*
X139433Y728203D01*
X139433Y734157D01*
X154387Y734157D01*
X154387Y728203D01*
X154387Y730403D02*
X139433Y730403D01*
X139433Y732603D02*
X154387Y732603D01*
X154387Y717203D02*
X139433Y717203D01*
X139433Y723157D01*
X154387Y723157D01*
X154387Y717203D01*
X154387Y719403D02*
X139433Y719403D01*
X139433Y721603D02*
X154387Y721603D01*
X154387Y706203D02*
X139433Y706203D01*
X139433Y712157D01*
X154387Y712157D01*
X154387Y706203D01*
X154387Y708403D02*
X139433Y708403D01*
X139433Y710603D02*
X154387Y710603D01*
X154387Y695203D02*
X139433Y695203D01*
X139433Y701157D01*
X154387Y701157D01*
X154387Y695203D01*
X154387Y697403D02*
X139433Y697403D01*
X139433Y699603D02*
X154387Y699603D01*
X154387Y684203D02*
X139433Y684203D01*
X139433Y690157D01*
X154387Y690157D01*
X154387Y684203D01*
X154387Y686403D02*
X139433Y686403D01*
X139433Y688603D02*
X154387Y688603D01*
X154387Y673203D02*
X139433Y673203D01*
X139433Y679157D01*
X154387Y679157D01*
X154387Y673203D01*
X154387Y675403D02*
X139433Y675403D01*
X139433Y677603D02*
X154387Y677603D01*
D20*
X41910Y772180D03*
X41910Y692180D03*
D21*
X56417Y813673D02*
X56417Y824687D01*
X56417Y813673D02*
X35403Y813673D01*
X35403Y824687D01*
X56417Y824687D01*
X56417Y815816D02*
X35403Y815816D01*
X35403Y817959D02*
X56417Y817959D01*
X56417Y820102D02*
X35403Y820102D01*
X35403Y822245D02*
X56417Y822245D01*
X56417Y824388D02*
X35403Y824388D01*
X56417Y669687D02*
X56417Y658673D01*
X35403Y658673D01*
X35403Y669687D01*
X56417Y669687D01*
X56417Y660816D02*
X35403Y660816D01*
X35403Y662959D02*
X56417Y662959D01*
X56417Y665102D02*
X35403Y665102D01*
X35403Y667245D02*
X56417Y667245D01*
X56417Y669388D02*
X35403Y669388D01*
D22*
X148400Y802690D02*
X148400Y817670D01*
X148400Y802690D02*
X135420Y802690D01*
X135420Y817670D01*
X148400Y817670D01*
X148400Y804866D02*
X135420Y804866D01*
X135420Y807042D02*
X148400Y807042D01*
X148400Y809218D02*
X135420Y809218D01*
X135420Y811394D02*
X148400Y811394D01*
X148400Y813570D02*
X135420Y813570D01*
X135420Y815746D02*
X148400Y815746D01*
D21*
X148417Y669687D02*
X148417Y658673D01*
X133403Y658673D01*
X133403Y669687D01*
X148417Y669687D01*
X148417Y660816D02*
X133403Y660816D01*
X133403Y662959D02*
X148417Y662959D01*
X148417Y665102D02*
X133403Y665102D01*
X133403Y667245D02*
X148417Y667245D01*
X148417Y669388D02*
X133403Y669388D01*
D23*
X85058Y637172D02*
X80042Y637172D01*
X80042Y648188D01*
X85058Y648188D01*
X85058Y637172D01*
X85058Y639313D02*
X80042Y639313D01*
X80042Y641454D02*
X85058Y641454D01*
X85058Y643595D02*
X80042Y643595D01*
X80042Y645736D02*
X85058Y645736D01*
X85058Y647877D02*
X80042Y647877D01*
X92742Y637172D02*
X97758Y637172D01*
X92742Y637172D02*
X92742Y648188D01*
X97758Y648188D01*
X97758Y637172D01*
X97758Y639313D02*
X92742Y639313D01*
X92742Y641454D02*
X97758Y641454D01*
X97758Y643595D02*
X92742Y643595D01*
X92742Y645736D02*
X97758Y645736D01*
X97758Y647877D02*
X92742Y647877D01*
X105442Y637172D02*
X110458Y637172D01*
X105442Y637172D02*
X105442Y648188D01*
X110458Y648188D01*
X110458Y637172D01*
X110458Y639313D02*
X105442Y639313D01*
X105442Y641454D02*
X110458Y641454D01*
X110458Y643595D02*
X105442Y643595D01*
X105442Y645736D02*
X110458Y645736D01*
X110458Y647877D02*
X105442Y647877D01*
X118142Y637172D02*
X123158Y637172D01*
X118142Y637172D02*
X118142Y648188D01*
X123158Y648188D01*
X123158Y637172D01*
X123158Y639313D02*
X118142Y639313D01*
X118142Y641454D02*
X123158Y641454D01*
X123158Y643595D02*
X118142Y643595D01*
X118142Y645736D02*
X123158Y645736D01*
X123158Y647877D02*
X118142Y647877D01*
X130842Y637172D02*
X135858Y637172D01*
X130842Y637172D02*
X130842Y648188D01*
X135858Y648188D01*
X135858Y637172D01*
X135858Y639313D02*
X130842Y639313D01*
X130842Y641454D02*
X135858Y641454D01*
X135858Y643595D02*
X130842Y643595D01*
X130842Y645736D02*
X135858Y645736D01*
X135858Y647877D02*
X130842Y647877D01*
X143542Y637172D02*
X148558Y637172D01*
X143542Y637172D02*
X143542Y648188D01*
X148558Y648188D01*
X148558Y637172D01*
X148558Y639313D02*
X143542Y639313D01*
X143542Y641454D02*
X148558Y641454D01*
X148558Y643595D02*
X143542Y643595D01*
X143542Y645736D02*
X148558Y645736D01*
X148558Y647877D02*
X143542Y647877D01*
X156242Y637172D02*
X161258Y637172D01*
X156242Y637172D02*
X156242Y648188D01*
X161258Y648188D01*
X161258Y637172D01*
X161258Y639313D02*
X156242Y639313D01*
X156242Y641454D02*
X161258Y641454D01*
X161258Y643595D02*
X156242Y643595D01*
X156242Y645736D02*
X161258Y645736D01*
X161258Y647877D02*
X156242Y647877D01*
X168942Y637172D02*
X173958Y637172D01*
X168942Y637172D02*
X168942Y648188D01*
X173958Y648188D01*
X173958Y637172D01*
X173958Y639313D02*
X168942Y639313D01*
X168942Y641454D02*
X173958Y641454D01*
X173958Y643595D02*
X168942Y643595D01*
X168942Y645736D02*
X173958Y645736D01*
X173958Y647877D02*
X168942Y647877D01*
X168942Y581172D02*
X173958Y581172D01*
X168942Y581172D02*
X168942Y592188D01*
X173958Y592188D01*
X173958Y581172D01*
X173958Y583313D02*
X168942Y583313D01*
X168942Y585454D02*
X173958Y585454D01*
X173958Y587595D02*
X168942Y587595D01*
X168942Y589736D02*
X173958Y589736D01*
X173958Y591877D02*
X168942Y591877D01*
X161258Y581172D02*
X156242Y581172D01*
X156242Y592188D01*
X161258Y592188D01*
X161258Y581172D01*
X161258Y583313D02*
X156242Y583313D01*
X156242Y585454D02*
X161258Y585454D01*
X161258Y587595D02*
X156242Y587595D01*
X156242Y589736D02*
X161258Y589736D01*
X161258Y591877D02*
X156242Y591877D01*
X148558Y581172D02*
X143542Y581172D01*
X143542Y592188D01*
X148558Y592188D01*
X148558Y581172D01*
X148558Y583313D02*
X143542Y583313D01*
X143542Y585454D02*
X148558Y585454D01*
X148558Y587595D02*
X143542Y587595D01*
X143542Y589736D02*
X148558Y589736D01*
X148558Y591877D02*
X143542Y591877D01*
X135858Y581172D02*
X130842Y581172D01*
X130842Y592188D01*
X135858Y592188D01*
X135858Y581172D01*
X135858Y583313D02*
X130842Y583313D01*
X130842Y585454D02*
X135858Y585454D01*
X135858Y587595D02*
X130842Y587595D01*
X130842Y589736D02*
X135858Y589736D01*
X135858Y591877D02*
X130842Y591877D01*
X123158Y581172D02*
X118142Y581172D01*
X118142Y592188D01*
X123158Y592188D01*
X123158Y581172D01*
X123158Y583313D02*
X118142Y583313D01*
X118142Y585454D02*
X123158Y585454D01*
X123158Y587595D02*
X118142Y587595D01*
X118142Y589736D02*
X123158Y589736D01*
X123158Y591877D02*
X118142Y591877D01*
X110458Y581172D02*
X105442Y581172D01*
X105442Y592188D01*
X110458Y592188D01*
X110458Y581172D01*
X110458Y583313D02*
X105442Y583313D01*
X105442Y585454D02*
X110458Y585454D01*
X110458Y587595D02*
X105442Y587595D01*
X105442Y589736D02*
X110458Y589736D01*
X110458Y591877D02*
X105442Y591877D01*
X97758Y581172D02*
X92742Y581172D01*
X92742Y592188D01*
X97758Y592188D01*
X97758Y581172D01*
X97758Y583313D02*
X92742Y583313D01*
X92742Y585454D02*
X97758Y585454D01*
X97758Y587595D02*
X92742Y587595D01*
X92742Y589736D02*
X97758Y589736D01*
X97758Y591877D02*
X92742Y591877D01*
X85058Y581172D02*
X80042Y581172D01*
X80042Y592188D01*
X85058Y592188D01*
X85058Y581172D01*
X85058Y583313D02*
X80042Y583313D01*
X80042Y585454D02*
X85058Y585454D01*
X85058Y587595D02*
X80042Y587595D01*
X80042Y589736D02*
X85058Y589736D01*
X85058Y591877D02*
X80042Y591877D01*
D10*
X330200Y995680D03*
X533400Y995680D03*
D11*
X368300Y525780D03*
X393700Y525780D03*
X419100Y525780D03*
X444500Y525780D03*
X469900Y525780D03*
D12*
X312420Y1013460D03*
X549910Y521970D03*
D11*
X495300Y525780D03*
X457200Y932180D03*
X457200Y906780D03*
X457200Y881380D03*
X457200Y855980D03*
X457200Y830580D03*
X469900Y1008380D03*
X444500Y1008380D03*
X419100Y1008380D03*
X393700Y1008380D03*
X469900Y982980D03*
X444500Y982980D03*
X419100Y982980D03*
X393700Y982980D03*
D13*
X482600Y805180D03*
X482600Y779780D03*
X482600Y754380D03*
X508000Y805180D03*
X508000Y779780D03*
X508000Y754380D03*
D10*
X330200Y538480D03*
X533400Y538480D03*
D14*
X320800Y906780D03*
X390800Y906780D03*
D15*
X500517Y607448D02*
X500517Y602912D01*
X489481Y602912D01*
X489481Y607448D01*
X500517Y607448D01*
X500517Y605034D02*
X489481Y605034D01*
X489481Y607156D02*
X500517Y607156D01*
X500517Y612412D02*
X500517Y616948D01*
X500517Y612412D02*
X489481Y612412D01*
X489481Y616948D01*
X500517Y616948D01*
X500517Y614534D02*
X489481Y614534D01*
X489481Y616656D02*
X500517Y616656D01*
X500517Y621912D02*
X500517Y626448D01*
X500517Y621912D02*
X489481Y621912D01*
X489481Y626448D01*
X500517Y626448D01*
X500517Y624034D02*
X489481Y624034D01*
X489481Y626156D02*
X500517Y626156D01*
X526519Y626448D02*
X526519Y621912D01*
X515483Y621912D01*
X515483Y626448D01*
X526519Y626448D01*
X526519Y624034D02*
X515483Y624034D01*
X515483Y626156D02*
X526519Y626156D01*
X526519Y607448D02*
X526519Y602912D01*
X515483Y602912D01*
X515483Y607448D01*
X526519Y607448D01*
X526519Y605034D02*
X515483Y605034D01*
X515483Y607156D02*
X526519Y607156D01*
D16*
X521508Y644588D02*
X511492Y644588D01*
X521508Y644588D02*
X521508Y635572D01*
X511492Y635572D01*
X511492Y644588D01*
X511492Y637713D02*
X521508Y637713D01*
X521508Y639854D02*
X511492Y639854D01*
X511492Y641995D02*
X521508Y641995D01*
X521508Y644136D02*
X511492Y644136D01*
X504508Y644588D02*
X494492Y644588D01*
X504508Y644588D02*
X504508Y635572D01*
X494492Y635572D01*
X494492Y644588D01*
X494492Y637713D02*
X504508Y637713D01*
X504508Y639854D02*
X494492Y639854D01*
X494492Y641995D02*
X504508Y641995D01*
X504508Y644136D02*
X494492Y644136D01*
X338392Y628188D02*
X338392Y618172D01*
X338392Y628188D02*
X347408Y628188D01*
X347408Y618172D01*
X338392Y618172D01*
X338392Y620313D02*
X347408Y620313D01*
X347408Y622454D02*
X338392Y622454D01*
X338392Y624595D02*
X347408Y624595D01*
X347408Y626736D02*
X338392Y626736D01*
X338392Y611188D02*
X338392Y601172D01*
X338392Y611188D02*
X347408Y611188D01*
X347408Y601172D01*
X338392Y601172D01*
X338392Y603313D02*
X347408Y603313D01*
X347408Y605454D02*
X338392Y605454D01*
X338392Y607595D02*
X347408Y607595D01*
X347408Y609736D02*
X338392Y609736D01*
D17*
X353850Y643580D03*
X353850Y585780D03*
D16*
X322008Y582122D02*
X322008Y592138D01*
X322008Y582122D02*
X312992Y582122D01*
X312992Y592138D01*
X322008Y592138D01*
X322008Y584263D02*
X312992Y584263D01*
X312992Y586404D02*
X322008Y586404D01*
X322008Y588545D02*
X312992Y588545D01*
X312992Y590686D02*
X322008Y590686D01*
X322008Y599122D02*
X322008Y609138D01*
X322008Y599122D02*
X312992Y599122D01*
X312992Y609138D01*
X322008Y609138D01*
X322008Y601263D02*
X312992Y601263D01*
X312992Y603404D02*
X322008Y603404D01*
X322008Y605545D02*
X312992Y605545D01*
X312992Y607686D02*
X322008Y607686D01*
X312992Y637222D02*
X312992Y647238D01*
X322008Y647238D01*
X322008Y637222D01*
X312992Y637222D01*
X312992Y639363D02*
X322008Y639363D01*
X322008Y641504D02*
X312992Y641504D01*
X312992Y643645D02*
X322008Y643645D01*
X322008Y645786D02*
X312992Y645786D01*
X312992Y630238D02*
X312992Y620222D01*
X312992Y630238D02*
X322008Y630238D01*
X322008Y620222D01*
X312992Y620222D01*
X312992Y622363D02*
X322008Y622363D01*
X322008Y624504D02*
X312992Y624504D01*
X312992Y626645D02*
X322008Y626645D01*
X322008Y628786D02*
X312992Y628786D01*
D18*
X530354Y784477D02*
X530354Y790069D01*
X530354Y784477D02*
X518666Y784477D01*
X518666Y790069D01*
X530354Y790069D01*
X530354Y786646D02*
X518666Y786646D01*
X518666Y788815D02*
X530354Y788815D01*
X530354Y794891D02*
X530354Y800483D01*
X530354Y794891D02*
X518666Y794891D01*
X518666Y800483D01*
X530354Y800483D01*
X530354Y797060D02*
X518666Y797060D01*
X518666Y799229D02*
X530354Y799229D01*
D19*
X459187Y739203D02*
X444233Y739203D01*
X444233Y745157D01*
X459187Y745157D01*
X459187Y739203D01*
X459187Y741403D02*
X444233Y741403D01*
X444233Y743603D02*
X459187Y743603D01*
X459187Y750203D02*
X444233Y750203D01*
X444233Y756157D01*
X459187Y756157D01*
X459187Y750203D01*
X459187Y752403D02*
X444233Y752403D01*
X444233Y754603D02*
X459187Y754603D01*
X459187Y761203D02*
X444233Y761203D01*
X444233Y767157D01*
X459187Y767157D01*
X459187Y761203D01*
X459187Y763403D02*
X444233Y763403D01*
X444233Y765603D02*
X459187Y765603D01*
X459187Y728203D02*
X444233Y728203D01*
X444233Y734157D01*
X459187Y734157D01*
X459187Y728203D01*
X459187Y730403D02*
X444233Y730403D01*
X444233Y732603D02*
X459187Y732603D01*
X459187Y717203D02*
X444233Y717203D01*
X444233Y723157D01*
X459187Y723157D01*
X459187Y717203D01*
X459187Y719403D02*
X444233Y719403D01*
X444233Y721603D02*
X459187Y721603D01*
X459187Y706203D02*
X444233Y706203D01*
X444233Y712157D01*
X459187Y712157D01*
X459187Y706203D01*
X459187Y708403D02*
X444233Y708403D01*
X444233Y710603D02*
X459187Y710603D01*
X459187Y695203D02*
X444233Y695203D01*
X444233Y701157D01*
X459187Y701157D01*
X459187Y695203D01*
X459187Y697403D02*
X444233Y697403D01*
X444233Y699603D02*
X459187Y699603D01*
X459187Y684203D02*
X444233Y684203D01*
X444233Y690157D01*
X459187Y690157D01*
X459187Y684203D01*
X459187Y686403D02*
X444233Y686403D01*
X444233Y688603D02*
X459187Y688603D01*
X459187Y673203D02*
X444233Y673203D01*
X444233Y679157D01*
X459187Y679157D01*
X459187Y673203D01*
X459187Y675403D02*
X444233Y675403D01*
X444233Y677603D02*
X459187Y677603D01*
D20*
X346710Y772180D03*
X346710Y692180D03*
D21*
X361217Y813673D02*
X361217Y824687D01*
X361217Y813673D02*
X340203Y813673D01*
X340203Y824687D01*
X361217Y824687D01*
X361217Y815816D02*
X340203Y815816D01*
X340203Y817959D02*
X361217Y817959D01*
X361217Y820102D02*
X340203Y820102D01*
X340203Y822245D02*
X361217Y822245D01*
X361217Y824388D02*
X340203Y824388D01*
X361217Y669687D02*
X361217Y658673D01*
X340203Y658673D01*
X340203Y669687D01*
X361217Y669687D01*
X361217Y660816D02*
X340203Y660816D01*
X340203Y662959D02*
X361217Y662959D01*
X361217Y665102D02*
X340203Y665102D01*
X340203Y667245D02*
X361217Y667245D01*
X361217Y669388D02*
X340203Y669388D01*
D22*
X453200Y802690D02*
X453200Y817670D01*
X453200Y802690D02*
X440220Y802690D01*
X440220Y817670D01*
X453200Y817670D01*
X453200Y804866D02*
X440220Y804866D01*
X440220Y807042D02*
X453200Y807042D01*
X453200Y809218D02*
X440220Y809218D01*
X440220Y811394D02*
X453200Y811394D01*
X453200Y813570D02*
X440220Y813570D01*
X440220Y815746D02*
X453200Y815746D01*
D21*
X453217Y669687D02*
X453217Y658673D01*
X438203Y658673D01*
X438203Y669687D01*
X453217Y669687D01*
X453217Y660816D02*
X438203Y660816D01*
X438203Y662959D02*
X453217Y662959D01*
X453217Y665102D02*
X438203Y665102D01*
X438203Y667245D02*
X453217Y667245D01*
X453217Y669388D02*
X438203Y669388D01*
D23*
X389858Y637172D02*
X384842Y637172D01*
X384842Y648188D01*
X389858Y648188D01*
X389858Y637172D01*
X389858Y639313D02*
X384842Y639313D01*
X384842Y641454D02*
X389858Y641454D01*
X389858Y643595D02*
X384842Y643595D01*
X384842Y645736D02*
X389858Y645736D01*
X389858Y647877D02*
X384842Y647877D01*
X397542Y637172D02*
X402558Y637172D01*
X397542Y637172D02*
X397542Y648188D01*
X402558Y648188D01*
X402558Y637172D01*
X402558Y639313D02*
X397542Y639313D01*
X397542Y641454D02*
X402558Y641454D01*
X402558Y643595D02*
X397542Y643595D01*
X397542Y645736D02*
X402558Y645736D01*
X402558Y647877D02*
X397542Y647877D01*
X410242Y637172D02*
X415258Y637172D01*
X410242Y637172D02*
X410242Y648188D01*
X415258Y648188D01*
X415258Y637172D01*
X415258Y639313D02*
X410242Y639313D01*
X410242Y641454D02*
X415258Y641454D01*
X415258Y643595D02*
X410242Y643595D01*
X410242Y645736D02*
X415258Y645736D01*
X415258Y647877D02*
X410242Y647877D01*
X422942Y637172D02*
X427958Y637172D01*
X422942Y637172D02*
X422942Y648188D01*
X427958Y648188D01*
X427958Y637172D01*
X427958Y639313D02*
X422942Y639313D01*
X422942Y641454D02*
X427958Y641454D01*
X427958Y643595D02*
X422942Y643595D01*
X422942Y645736D02*
X427958Y645736D01*
X427958Y647877D02*
X422942Y647877D01*
X435642Y637172D02*
X440658Y637172D01*
X435642Y637172D02*
X435642Y648188D01*
X440658Y648188D01*
X440658Y637172D01*
X440658Y639313D02*
X435642Y639313D01*
X435642Y641454D02*
X440658Y641454D01*
X440658Y643595D02*
X435642Y643595D01*
X435642Y645736D02*
X440658Y645736D01*
X440658Y647877D02*
X435642Y647877D01*
X448342Y637172D02*
X453358Y637172D01*
X448342Y637172D02*
X448342Y648188D01*
X453358Y648188D01*
X453358Y637172D01*
X453358Y639313D02*
X448342Y639313D01*
X448342Y641454D02*
X453358Y641454D01*
X453358Y643595D02*
X448342Y643595D01*
X448342Y645736D02*
X453358Y645736D01*
X453358Y647877D02*
X448342Y647877D01*
X461042Y637172D02*
X466058Y637172D01*
X461042Y637172D02*
X461042Y648188D01*
X466058Y648188D01*
X466058Y637172D01*
X466058Y639313D02*
X461042Y639313D01*
X461042Y641454D02*
X466058Y641454D01*
X466058Y643595D02*
X461042Y643595D01*
X461042Y645736D02*
X466058Y645736D01*
X466058Y647877D02*
X461042Y647877D01*
X473742Y637172D02*
X478758Y637172D01*
X473742Y637172D02*
X473742Y648188D01*
X478758Y648188D01*
X478758Y637172D01*
X478758Y639313D02*
X473742Y639313D01*
X473742Y641454D02*
X478758Y641454D01*
X478758Y643595D02*
X473742Y643595D01*
X473742Y645736D02*
X478758Y645736D01*
X478758Y647877D02*
X473742Y647877D01*
X473742Y581172D02*
X478758Y581172D01*
X473742Y581172D02*
X473742Y592188D01*
X478758Y592188D01*
X478758Y581172D01*
X478758Y583313D02*
X473742Y583313D01*
X473742Y585454D02*
X478758Y585454D01*
X478758Y587595D02*
X473742Y587595D01*
X473742Y589736D02*
X478758Y589736D01*
X478758Y591877D02*
X473742Y591877D01*
X466058Y581172D02*
X461042Y581172D01*
X461042Y592188D01*
X466058Y592188D01*
X466058Y581172D01*
X466058Y583313D02*
X461042Y583313D01*
X461042Y585454D02*
X466058Y585454D01*
X466058Y587595D02*
X461042Y587595D01*
X461042Y589736D02*
X466058Y589736D01*
X466058Y591877D02*
X461042Y591877D01*
X453358Y581172D02*
X448342Y581172D01*
X448342Y592188D01*
X453358Y592188D01*
X453358Y581172D01*
X453358Y583313D02*
X448342Y583313D01*
X448342Y585454D02*
X453358Y585454D01*
X453358Y587595D02*
X448342Y587595D01*
X448342Y589736D02*
X453358Y589736D01*
X453358Y591877D02*
X448342Y591877D01*
X440658Y581172D02*
X435642Y581172D01*
X435642Y592188D01*
X440658Y592188D01*
X440658Y581172D01*
X440658Y583313D02*
X435642Y583313D01*
X435642Y585454D02*
X440658Y585454D01*
X440658Y587595D02*
X435642Y587595D01*
X435642Y589736D02*
X440658Y589736D01*
X440658Y591877D02*
X435642Y591877D01*
X427958Y581172D02*
X422942Y581172D01*
X422942Y592188D01*
X427958Y592188D01*
X427958Y581172D01*
X427958Y583313D02*
X422942Y583313D01*
X422942Y585454D02*
X427958Y585454D01*
X427958Y587595D02*
X422942Y587595D01*
X422942Y589736D02*
X427958Y589736D01*
X427958Y591877D02*
X422942Y591877D01*
X415258Y581172D02*
X410242Y581172D01*
X410242Y592188D01*
X415258Y592188D01*
X415258Y581172D01*
X415258Y583313D02*
X410242Y583313D01*
X410242Y585454D02*
X415258Y585454D01*
X415258Y587595D02*
X410242Y587595D01*
X410242Y589736D02*
X415258Y589736D01*
X415258Y591877D02*
X410242Y591877D01*
X402558Y581172D02*
X397542Y581172D01*
X397542Y592188D01*
X402558Y592188D01*
X402558Y581172D01*
X402558Y583313D02*
X397542Y583313D01*
X397542Y585454D02*
X402558Y585454D01*
X402558Y587595D02*
X397542Y587595D01*
X397542Y589736D02*
X402558Y589736D01*
X402558Y591877D02*
X397542Y591877D01*
X389858Y581172D02*
X384842Y581172D01*
X384842Y592188D01*
X389858Y592188D01*
X389858Y581172D01*
X389858Y583313D02*
X384842Y583313D01*
X384842Y585454D02*
X389858Y585454D01*
X389858Y587595D02*
X384842Y587595D01*
X384842Y589736D02*
X389858Y589736D01*
X389858Y591877D02*
X384842Y591877D01*
D10*
X635000Y995680D03*
X838200Y995680D03*
D11*
X673100Y525780D03*
X698500Y525780D03*
X723900Y525780D03*
X749300Y525780D03*
X774700Y525780D03*
D12*
X617220Y1013460D03*
X854710Y521970D03*
D11*
X800100Y525780D03*
X762000Y932180D03*
X762000Y906780D03*
X762000Y881380D03*
X762000Y855980D03*
X762000Y830580D03*
X774700Y1008380D03*
X749300Y1008380D03*
X723900Y1008380D03*
X698500Y1008380D03*
X774700Y982980D03*
X749300Y982980D03*
X723900Y982980D03*
X698500Y982980D03*
D13*
X787400Y805180D03*
X787400Y779780D03*
X787400Y754380D03*
X812800Y805180D03*
X812800Y779780D03*
X812800Y754380D03*
D10*
X635000Y538480D03*
X838200Y538480D03*
D14*
X625600Y906780D03*
X695600Y906780D03*
D15*
X805317Y607448D02*
X805317Y602912D01*
X794281Y602912D01*
X794281Y607448D01*
X805317Y607448D01*
X805317Y605034D02*
X794281Y605034D01*
X794281Y607156D02*
X805317Y607156D01*
X805317Y612412D02*
X805317Y616948D01*
X805317Y612412D02*
X794281Y612412D01*
X794281Y616948D01*
X805317Y616948D01*
X805317Y614534D02*
X794281Y614534D01*
X794281Y616656D02*
X805317Y616656D01*
X805317Y621912D02*
X805317Y626448D01*
X805317Y621912D02*
X794281Y621912D01*
X794281Y626448D01*
X805317Y626448D01*
X805317Y624034D02*
X794281Y624034D01*
X794281Y626156D02*
X805317Y626156D01*
X831319Y626448D02*
X831319Y621912D01*
X820283Y621912D01*
X820283Y626448D01*
X831319Y626448D01*
X831319Y624034D02*
X820283Y624034D01*
X820283Y626156D02*
X831319Y626156D01*
X831319Y607448D02*
X831319Y602912D01*
X820283Y602912D01*
X820283Y607448D01*
X831319Y607448D01*
X831319Y605034D02*
X820283Y605034D01*
X820283Y607156D02*
X831319Y607156D01*
D16*
X826308Y644588D02*
X816292Y644588D01*
X826308Y644588D02*
X826308Y635572D01*
X816292Y635572D01*
X816292Y644588D01*
X816292Y637713D02*
X826308Y637713D01*
X826308Y639854D02*
X816292Y639854D01*
X816292Y641995D02*
X826308Y641995D01*
X826308Y644136D02*
X816292Y644136D01*
X809308Y644588D02*
X799292Y644588D01*
X809308Y644588D02*
X809308Y635572D01*
X799292Y635572D01*
X799292Y644588D01*
X799292Y637713D02*
X809308Y637713D01*
X809308Y639854D02*
X799292Y639854D01*
X799292Y641995D02*
X809308Y641995D01*
X809308Y644136D02*
X799292Y644136D01*
X643192Y628188D02*
X643192Y618172D01*
X643192Y628188D02*
X652208Y628188D01*
X652208Y618172D01*
X643192Y618172D01*
X643192Y620313D02*
X652208Y620313D01*
X652208Y622454D02*
X643192Y622454D01*
X643192Y624595D02*
X652208Y624595D01*
X652208Y626736D02*
X643192Y626736D01*
X643192Y611188D02*
X643192Y601172D01*
X643192Y611188D02*
X652208Y611188D01*
X652208Y601172D01*
X643192Y601172D01*
X643192Y603313D02*
X652208Y603313D01*
X652208Y605454D02*
X643192Y605454D01*
X643192Y607595D02*
X652208Y607595D01*
X652208Y609736D02*
X643192Y609736D01*
D17*
X658650Y643580D03*
X658650Y585780D03*
D16*
X626808Y582122D02*
X626808Y592138D01*
X626808Y582122D02*
X617792Y582122D01*
X617792Y592138D01*
X626808Y592138D01*
X626808Y584263D02*
X617792Y584263D01*
X617792Y586404D02*
X626808Y586404D01*
X626808Y588545D02*
X617792Y588545D01*
X617792Y590686D02*
X626808Y590686D01*
X626808Y599122D02*
X626808Y609138D01*
X626808Y599122D02*
X617792Y599122D01*
X617792Y609138D01*
X626808Y609138D01*
X626808Y601263D02*
X617792Y601263D01*
X617792Y603404D02*
X626808Y603404D01*
X626808Y605545D02*
X617792Y605545D01*
X617792Y607686D02*
X626808Y607686D01*
X617792Y637222D02*
X617792Y647238D01*
X626808Y647238D01*
X626808Y637222D01*
X617792Y637222D01*
X617792Y639363D02*
X626808Y639363D01*
X626808Y641504D02*
X617792Y641504D01*
X617792Y643645D02*
X626808Y643645D01*
X626808Y645786D02*
X617792Y645786D01*
X617792Y630238D02*
X617792Y620222D01*
X617792Y630238D02*
X626808Y630238D01*
X626808Y620222D01*
X617792Y620222D01*
X617792Y622363D02*
X626808Y622363D01*
X626808Y624504D02*
X617792Y624504D01*
X617792Y626645D02*
X626808Y626645D01*
X626808Y628786D02*
X617792Y628786D01*
D18*
X835154Y784477D02*
X835154Y790069D01*
X835154Y784477D02*
X823466Y784477D01*
X823466Y790069D01*
X835154Y790069D01*
X835154Y786646D02*
X823466Y786646D01*
X823466Y788815D02*
X835154Y788815D01*
X835154Y794891D02*
X835154Y800483D01*
X835154Y794891D02*
X823466Y794891D01*
X823466Y800483D01*
X835154Y800483D01*
X835154Y797060D02*
X823466Y797060D01*
X823466Y799229D02*
X835154Y799229D01*
D19*
X763987Y739203D02*
X749033Y739203D01*
X749033Y745157D01*
X763987Y745157D01*
X763987Y739203D01*
X763987Y741403D02*
X749033Y741403D01*
X749033Y743603D02*
X763987Y743603D01*
X763987Y750203D02*
X749033Y750203D01*
X749033Y756157D01*
X763987Y756157D01*
X763987Y750203D01*
X763987Y752403D02*
X749033Y752403D01*
X749033Y754603D02*
X763987Y754603D01*
X763987Y761203D02*
X749033Y761203D01*
X749033Y767157D01*
X763987Y767157D01*
X763987Y761203D01*
X763987Y763403D02*
X749033Y763403D01*
X749033Y765603D02*
X763987Y765603D01*
X763987Y728203D02*
X749033Y728203D01*
X749033Y734157D01*
X763987Y734157D01*
X763987Y728203D01*
X763987Y730403D02*
X749033Y730403D01*
X749033Y732603D02*
X763987Y732603D01*
X763987Y717203D02*
X749033Y717203D01*
X749033Y723157D01*
X763987Y723157D01*
X763987Y717203D01*
X763987Y719403D02*
X749033Y719403D01*
X749033Y721603D02*
X763987Y721603D01*
X763987Y706203D02*
X749033Y706203D01*
X749033Y712157D01*
X763987Y712157D01*
X763987Y706203D01*
X763987Y708403D02*
X749033Y708403D01*
X749033Y710603D02*
X763987Y710603D01*
X763987Y695203D02*
X749033Y695203D01*
X749033Y701157D01*
X763987Y701157D01*
X763987Y695203D01*
X763987Y697403D02*
X749033Y697403D01*
X749033Y699603D02*
X763987Y699603D01*
X763987Y684203D02*
X749033Y684203D01*
X749033Y690157D01*
X763987Y690157D01*
X763987Y684203D01*
X763987Y686403D02*
X749033Y686403D01*
X749033Y688603D02*
X763987Y688603D01*
X763987Y673203D02*
X749033Y673203D01*
X749033Y679157D01*
X763987Y679157D01*
X763987Y673203D01*
X763987Y675403D02*
X749033Y675403D01*
X749033Y677603D02*
X763987Y677603D01*
D20*
X651510Y772180D03*
X651510Y692180D03*
D21*
X666017Y813673D02*
X666017Y824687D01*
X666017Y813673D02*
X645003Y813673D01*
X645003Y824687D01*
X666017Y824687D01*
X666017Y815816D02*
X645003Y815816D01*
X645003Y817959D02*
X666017Y817959D01*
X666017Y820102D02*
X645003Y820102D01*
X645003Y822245D02*
X666017Y822245D01*
X666017Y824388D02*
X645003Y824388D01*
X666017Y669687D02*
X666017Y658673D01*
X645003Y658673D01*
X645003Y669687D01*
X666017Y669687D01*
X666017Y660816D02*
X645003Y660816D01*
X645003Y662959D02*
X666017Y662959D01*
X666017Y665102D02*
X645003Y665102D01*
X645003Y667245D02*
X666017Y667245D01*
X666017Y669388D02*
X645003Y669388D01*
D22*
X758000Y802690D02*
X758000Y817670D01*
X758000Y802690D02*
X745020Y802690D01*
X745020Y817670D01*
X758000Y817670D01*
X758000Y804866D02*
X745020Y804866D01*
X745020Y807042D02*
X758000Y807042D01*
X758000Y809218D02*
X745020Y809218D01*
X745020Y811394D02*
X758000Y811394D01*
X758000Y813570D02*
X745020Y813570D01*
X745020Y815746D02*
X758000Y815746D01*
D21*
X758017Y669687D02*
X758017Y658673D01*
X743003Y658673D01*
X743003Y669687D01*
X758017Y669687D01*
X758017Y660816D02*
X743003Y660816D01*
X743003Y662959D02*
X758017Y662959D01*
X758017Y665102D02*
X743003Y665102D01*
X743003Y667245D02*
X758017Y667245D01*
X758017Y669388D02*
X743003Y669388D01*
D23*
X694658Y637172D02*
X689642Y637172D01*
X689642Y648188D01*
X694658Y648188D01*
X694658Y637172D01*
X694658Y639313D02*
X689642Y639313D01*
X689642Y641454D02*
X694658Y641454D01*
X694658Y643595D02*
X689642Y643595D01*
X689642Y645736D02*
X694658Y645736D01*
X694658Y647877D02*
X689642Y647877D01*
X702342Y637172D02*
X707358Y637172D01*
X702342Y637172D02*
X702342Y648188D01*
X707358Y648188D01*
X707358Y637172D01*
X707358Y639313D02*
X702342Y639313D01*
X702342Y641454D02*
X707358Y641454D01*
X707358Y643595D02*
X702342Y643595D01*
X702342Y645736D02*
X707358Y645736D01*
X707358Y647877D02*
X702342Y647877D01*
X715042Y637172D02*
X720058Y637172D01*
X715042Y637172D02*
X715042Y648188D01*
X720058Y648188D01*
X720058Y637172D01*
X720058Y639313D02*
X715042Y639313D01*
X715042Y641454D02*
X720058Y641454D01*
X720058Y643595D02*
X715042Y643595D01*
X715042Y645736D02*
X720058Y645736D01*
X720058Y647877D02*
X715042Y647877D01*
X727742Y637172D02*
X732758Y637172D01*
X727742Y637172D02*
X727742Y648188D01*
X732758Y648188D01*
X732758Y637172D01*
X732758Y639313D02*
X727742Y639313D01*
X727742Y641454D02*
X732758Y641454D01*
X732758Y643595D02*
X727742Y643595D01*
X727742Y645736D02*
X732758Y645736D01*
X732758Y647877D02*
X727742Y647877D01*
X740442Y637172D02*
X745458Y637172D01*
X740442Y637172D02*
X740442Y648188D01*
X745458Y648188D01*
X745458Y637172D01*
X745458Y639313D02*
X740442Y639313D01*
X740442Y641454D02*
X745458Y641454D01*
X745458Y643595D02*
X740442Y643595D01*
X740442Y645736D02*
X745458Y645736D01*
X745458Y647877D02*
X740442Y647877D01*
X753142Y637172D02*
X758158Y637172D01*
X753142Y637172D02*
X753142Y648188D01*
X758158Y648188D01*
X758158Y637172D01*
X758158Y639313D02*
X753142Y639313D01*
X753142Y641454D02*
X758158Y641454D01*
X758158Y643595D02*
X753142Y643595D01*
X753142Y645736D02*
X758158Y645736D01*
X758158Y647877D02*
X753142Y647877D01*
X765842Y637172D02*
X770858Y637172D01*
X765842Y637172D02*
X765842Y648188D01*
X770858Y648188D01*
X770858Y637172D01*
X770858Y639313D02*
X765842Y639313D01*
X765842Y641454D02*
X770858Y641454D01*
X770858Y643595D02*
X765842Y643595D01*
X765842Y645736D02*
X770858Y645736D01*
X770858Y647877D02*
X765842Y647877D01*
X778542Y637172D02*
X783558Y637172D01*
X778542Y637172D02*
X778542Y648188D01*
X783558Y648188D01*
X783558Y637172D01*
X783558Y639313D02*
X778542Y639313D01*
X778542Y641454D02*
X783558Y641454D01*
X783558Y643595D02*
X778542Y643595D01*
X778542Y645736D02*
X783558Y645736D01*
X783558Y647877D02*
X778542Y647877D01*
X778542Y581172D02*
X783558Y581172D01*
X778542Y581172D02*
X778542Y592188D01*
X783558Y592188D01*
X783558Y581172D01*
X783558Y583313D02*
X778542Y583313D01*
X778542Y585454D02*
X783558Y585454D01*
X783558Y587595D02*
X778542Y587595D01*
X778542Y589736D02*
X783558Y589736D01*
X783558Y591877D02*
X778542Y591877D01*
X770858Y581172D02*
X765842Y581172D01*
X765842Y592188D01*
X770858Y592188D01*
X770858Y581172D01*
X770858Y583313D02*
X765842Y583313D01*
X765842Y585454D02*
X770858Y585454D01*
X770858Y587595D02*
X765842Y587595D01*
X765842Y589736D02*
X770858Y589736D01*
X770858Y591877D02*
X765842Y591877D01*
X758158Y581172D02*
X753142Y581172D01*
X753142Y592188D01*
X758158Y592188D01*
X758158Y581172D01*
X758158Y583313D02*
X753142Y583313D01*
X753142Y585454D02*
X758158Y585454D01*
X758158Y587595D02*
X753142Y587595D01*
X753142Y589736D02*
X758158Y589736D01*
X758158Y591877D02*
X753142Y591877D01*
X745458Y581172D02*
X740442Y581172D01*
X740442Y592188D01*
X745458Y592188D01*
X745458Y581172D01*
X745458Y583313D02*
X740442Y583313D01*
X740442Y585454D02*
X745458Y585454D01*
X745458Y587595D02*
X740442Y587595D01*
X740442Y589736D02*
X745458Y589736D01*
X745458Y591877D02*
X740442Y591877D01*
X732758Y581172D02*
X727742Y581172D01*
X727742Y592188D01*
X732758Y592188D01*
X732758Y581172D01*
X732758Y583313D02*
X727742Y583313D01*
X727742Y585454D02*
X732758Y585454D01*
X732758Y587595D02*
X727742Y587595D01*
X727742Y589736D02*
X732758Y589736D01*
X732758Y591877D02*
X727742Y591877D01*
X720058Y581172D02*
X715042Y581172D01*
X715042Y592188D01*
X720058Y592188D01*
X720058Y581172D01*
X720058Y583313D02*
X715042Y583313D01*
X715042Y585454D02*
X720058Y585454D01*
X720058Y587595D02*
X715042Y587595D01*
X715042Y589736D02*
X720058Y589736D01*
X720058Y591877D02*
X715042Y591877D01*
X707358Y581172D02*
X702342Y581172D01*
X702342Y592188D01*
X707358Y592188D01*
X707358Y581172D01*
X707358Y583313D02*
X702342Y583313D01*
X702342Y585454D02*
X707358Y585454D01*
X707358Y587595D02*
X702342Y587595D01*
X702342Y589736D02*
X707358Y589736D01*
X707358Y591877D02*
X702342Y591877D01*
X694658Y581172D02*
X689642Y581172D01*
X689642Y592188D01*
X694658Y592188D01*
X694658Y581172D01*
X694658Y583313D02*
X689642Y583313D01*
X689642Y585454D02*
X694658Y585454D01*
X694658Y587595D02*
X689642Y587595D01*
X689642Y589736D02*
X694658Y589736D01*
X694658Y591877D02*
X689642Y591877D01*
D20*
X-71958Y994410D03*
X935558Y994410D03*
D24*
X-81013Y63500D02*
X-81010Y63722D01*
X-81002Y63944D01*
X-80988Y64166D01*
X-80969Y64388D01*
X-80945Y64608D01*
X-80915Y64829D01*
X-80880Y65048D01*
X-80839Y65267D01*
X-80793Y65484D01*
X-80742Y65700D01*
X-80685Y65915D01*
X-80623Y66129D01*
X-80556Y66340D01*
X-80484Y66551D01*
X-80406Y66759D01*
X-80324Y66965D01*
X-80236Y67169D01*
X-80144Y67372D01*
X-80046Y67571D01*
X-79944Y67768D01*
X-79837Y67963D01*
X-79725Y68155D01*
X-79608Y68344D01*
X-79487Y68531D01*
X-79361Y68714D01*
X-79231Y68894D01*
X-79096Y69071D01*
X-78958Y69244D01*
X-78815Y69414D01*
X-78667Y69581D01*
X-78516Y69744D01*
X-78361Y69903D01*
X-78202Y70058D01*
X-78039Y70209D01*
X-77872Y70357D01*
X-77702Y70500D01*
X-77529Y70638D01*
X-77352Y70773D01*
X-77172Y70903D01*
X-76989Y71029D01*
X-76802Y71150D01*
X-76613Y71267D01*
X-76421Y71379D01*
X-76226Y71486D01*
X-76029Y71588D01*
X-75830Y71686D01*
X-75627Y71778D01*
X-75423Y71866D01*
X-75217Y71948D01*
X-75009Y72026D01*
X-74798Y72098D01*
X-74587Y72165D01*
X-74373Y72227D01*
X-74158Y72284D01*
X-73942Y72335D01*
X-73725Y72381D01*
X-73506Y72422D01*
X-73287Y72457D01*
X-73066Y72487D01*
X-72846Y72511D01*
X-72624Y72530D01*
X-72402Y72544D01*
X-72180Y72552D01*
X-71958Y72555D01*
X-71736Y72552D01*
X-71514Y72544D01*
X-71292Y72530D01*
X-71070Y72511D01*
X-70850Y72487D01*
X-70629Y72457D01*
X-70410Y72422D01*
X-70191Y72381D01*
X-69974Y72335D01*
X-69758Y72284D01*
X-69543Y72227D01*
X-69329Y72165D01*
X-69118Y72098D01*
X-68907Y72026D01*
X-68699Y71948D01*
X-68493Y71866D01*
X-68289Y71778D01*
X-68086Y71686D01*
X-67887Y71588D01*
X-67690Y71486D01*
X-67495Y71379D01*
X-67303Y71267D01*
X-67114Y71150D01*
X-66927Y71029D01*
X-66744Y70903D01*
X-66564Y70773D01*
X-66387Y70638D01*
X-66214Y70500D01*
X-66044Y70357D01*
X-65877Y70209D01*
X-65714Y70058D01*
X-65555Y69903D01*
X-65400Y69744D01*
X-65249Y69581D01*
X-65101Y69414D01*
X-64958Y69244D01*
X-64820Y69071D01*
X-64685Y68894D01*
X-64555Y68714D01*
X-64429Y68531D01*
X-64308Y68344D01*
X-64191Y68155D01*
X-64079Y67963D01*
X-63972Y67768D01*
X-63870Y67571D01*
X-63772Y67372D01*
X-63680Y67169D01*
X-63592Y66965D01*
X-63510Y66759D01*
X-63432Y66551D01*
X-63360Y66340D01*
X-63293Y66129D01*
X-63231Y65915D01*
X-63174Y65700D01*
X-63123Y65484D01*
X-63077Y65267D01*
X-63036Y65048D01*
X-63001Y64829D01*
X-62971Y64608D01*
X-62947Y64388D01*
X-62928Y64166D01*
X-62914Y63944D01*
X-62906Y63722D01*
X-62903Y63500D01*
X-62906Y63278D01*
X-62914Y63056D01*
X-62928Y62834D01*
X-62947Y62612D01*
X-62971Y62392D01*
X-63001Y62171D01*
X-63036Y61952D01*
X-63077Y61733D01*
X-63123Y61516D01*
X-63174Y61300D01*
X-63231Y61085D01*
X-63293Y60871D01*
X-63360Y60660D01*
X-63432Y60449D01*
X-63510Y60241D01*
X-63592Y60035D01*
X-63680Y59831D01*
X-63772Y59628D01*
X-63870Y59429D01*
X-63972Y59232D01*
X-64079Y59037D01*
X-64191Y58845D01*
X-64308Y58656D01*
X-64429Y58469D01*
X-64555Y58286D01*
X-64685Y58106D01*
X-64820Y57929D01*
X-64958Y57756D01*
X-65101Y57586D01*
X-65249Y57419D01*
X-65400Y57256D01*
X-65555Y57097D01*
X-65714Y56942D01*
X-65877Y56791D01*
X-66044Y56643D01*
X-66214Y56500D01*
X-66387Y56362D01*
X-66564Y56227D01*
X-66744Y56097D01*
X-66927Y55971D01*
X-67114Y55850D01*
X-67303Y55733D01*
X-67495Y55621D01*
X-67690Y55514D01*
X-67887Y55412D01*
X-68086Y55314D01*
X-68289Y55222D01*
X-68493Y55134D01*
X-68699Y55052D01*
X-68907Y54974D01*
X-69118Y54902D01*
X-69329Y54835D01*
X-69543Y54773D01*
X-69758Y54716D01*
X-69974Y54665D01*
X-70191Y54619D01*
X-70410Y54578D01*
X-70629Y54543D01*
X-70850Y54513D01*
X-71070Y54489D01*
X-71292Y54470D01*
X-71514Y54456D01*
X-71736Y54448D01*
X-71958Y54445D01*
X-72180Y54448D01*
X-72402Y54456D01*
X-72624Y54470D01*
X-72846Y54489D01*
X-73066Y54513D01*
X-73287Y54543D01*
X-73506Y54578D01*
X-73725Y54619D01*
X-73942Y54665D01*
X-74158Y54716D01*
X-74373Y54773D01*
X-74587Y54835D01*
X-74798Y54902D01*
X-75009Y54974D01*
X-75217Y55052D01*
X-75423Y55134D01*
X-75627Y55222D01*
X-75830Y55314D01*
X-76029Y55412D01*
X-76226Y55514D01*
X-76421Y55621D01*
X-76613Y55733D01*
X-76802Y55850D01*
X-76989Y55971D01*
X-77172Y56097D01*
X-77352Y56227D01*
X-77529Y56362D01*
X-77702Y56500D01*
X-77872Y56643D01*
X-78039Y56791D01*
X-78202Y56942D01*
X-78361Y57097D01*
X-78516Y57256D01*
X-78667Y57419D01*
X-78815Y57586D01*
X-78958Y57756D01*
X-79096Y57929D01*
X-79231Y58106D01*
X-79361Y58286D01*
X-79487Y58469D01*
X-79608Y58656D01*
X-79725Y58845D01*
X-79837Y59037D01*
X-79944Y59232D01*
X-80046Y59429D01*
X-80144Y59628D01*
X-80236Y59831D01*
X-80324Y60035D01*
X-80406Y60241D01*
X-80484Y60449D01*
X-80556Y60660D01*
X-80623Y60871D01*
X-80685Y61085D01*
X-80742Y61300D01*
X-80793Y61516D01*
X-80839Y61733D01*
X-80880Y61952D01*
X-80915Y62171D01*
X-80945Y62392D01*
X-80969Y62612D01*
X-80988Y62834D01*
X-81002Y63056D01*
X-81010Y63278D01*
X-81013Y63500D01*
D25*
X-71958Y63500D03*
M02*
