%
M48
M72
T01C0.0120
T02C0.0200
T03C0.0400
T04C0.0472
T05C0.1300
%
T01
X6975Y6850
X6975Y7350
X7375Y7450
X7725Y7000
X8475Y6950
X9625Y6850
X10475Y6850
X11475Y6850
X11475Y5350
X11975Y5350
X12475Y5050
X12975Y5950
X13475Y7850
X13975Y8350
X12475Y8350
X11975Y8350
X11225Y8850
X11475Y9350
X11475Y9850
X12475Y9850
X12975Y9850
X12975Y11450
X12475Y11850
X11975Y11350
X10475Y12450
X10975Y13350
X12475Y13850
X11975Y14850
X11975Y15350
X11975Y15850
X12475Y16350
X12475Y17350
X13475Y17350
X12975Y18850
X10975Y15350
X7975Y14950
X6475Y14950
X7325Y13350
X6975Y13150
X7975Y13350
X7975Y12400
X8475Y12400
X9225Y11350
X9975Y11400
X8975Y10350
X7975Y10950
X7375Y9850
X5975Y9850
X6075Y8700
X8725Y8600
X8725Y9150
X9475Y8850
X9725Y8450
X9975Y9200
X5975Y11450
X10475Y5200
X10475Y4600
X17875Y8700
X18775Y7350
X19175Y7450
X19525Y7000
X20275Y6950
X21425Y6850
X22275Y6850
X23275Y6850
X23275Y5350
X23775Y5350
X24275Y5050
X24775Y5950
X25275Y7850
X25775Y8350
X24275Y8350
X23775Y8350
X23025Y8850
X23275Y9350
X23275Y9850
X24275Y9850
X24775Y9850
X24775Y11450
X24275Y11850
X23775Y11350
X22275Y12450
X22775Y13350
X24275Y13850
X23775Y14850
X23775Y15350
X23775Y15850
X24275Y16350
X24275Y17350
X25275Y17350
X24775Y18850
X22775Y15350
X19775Y14950
X18275Y14950
X19125Y13350
X18775Y13150
X19775Y13350
X19775Y12400
X20275Y12400
X21025Y11350
X21775Y11400
X20775Y10350
X19775Y10950
X19175Y9850
X17775Y9850
X17775Y11450
X20525Y9150
X20525Y8600
X21275Y8850
X21525Y8450
X21775Y9200
X18775Y6850
X22275Y5200
X22275Y4600
X29675Y8700
X30575Y7350
X30975Y7450
X31325Y7000
X30575Y6850
X32075Y6950
X33225Y6850
X34075Y6850
X35075Y6850
X35075Y5350
X35575Y5350
X36075Y5050
X36575Y5950
X37075Y7850
X37575Y8350
X36075Y8350
X35575Y8350
X34825Y8850
X35075Y9350
X35075Y9850
X36075Y9850
X36575Y9850
X36575Y11450
X36075Y11850
X35575Y11350
X34075Y12450
X34575Y13350
X36075Y13850
X35575Y14850
X35575Y15350
X35575Y15850
X36075Y16350
X36075Y17350
X37075Y17350
X36575Y18850
X34575Y15350
X31575Y14950
X30075Y14950
X30925Y13350
X30575Y13150
X31575Y13350
X31575Y12400
X32075Y12400
X32825Y11350
X33575Y11400
X32575Y10350
X31575Y10950
X30975Y9850
X29575Y9850
X29575Y11450
X32325Y9150
X32325Y8600
X33075Y8850
X33325Y8450
X33575Y9200
X34075Y5200
X34075Y4600
X37775Y14850
X34075Y24800
X34075Y25400
X35075Y25550
X35575Y25550
X36075Y25250
X36575Y26150
X35075Y27050
X34075Y27050
X33225Y27050
X32075Y27150
X31325Y27200
X30975Y27650
X30575Y27550
X30575Y27050
X29675Y28900
X29575Y30050
X30975Y30050
X31575Y31150
X32575Y30550
X32825Y31550
X33575Y31600
X34075Y32650
X34575Y33550
X36075Y34050
X35575Y35050
X35575Y35550
X35575Y36050
X36075Y36550
X36075Y37550
X37075Y37550
X36575Y39050
X34575Y35550
X31575Y35150
X30075Y35150
X30925Y33550
X30575Y33350
X31575Y33550
X31575Y32600
X32075Y32600
X29575Y31650
X32325Y29350
X32325Y28800
X33075Y29050
X33325Y28650
X33575Y29400
X34825Y29050
X35075Y29550
X35075Y30050
X36075Y30050
X36575Y30050
X36075Y28550
X35575Y28550
X37075Y28050
X37575Y28550
X36575Y31650
X36075Y32050
X35575Y31550
X37775Y35050
X25975Y35050
X24275Y34050
X23775Y35050
X23775Y35550
X23775Y36050
X24275Y36550
X24275Y37550
X25275Y37550
X24775Y39050
X22775Y35550
X22775Y33550
X22275Y32650
X21775Y31600
X21025Y31550
X20775Y30550
X19775Y31150
X19175Y30050
X17775Y30050
X17875Y28900
X18775Y27550
X19175Y27650
X19525Y27200
X20275Y27150
X21425Y27050
X22275Y27050
X23275Y27050
X23275Y25550
X23775Y25550
X24275Y25250
X24775Y26150
X25275Y28050
X25775Y28550
X24275Y28550
X23775Y28550
X23025Y29050
X23275Y29550
X23275Y30050
X24275Y30050
X24775Y30050
X24775Y31650
X24275Y32050
X23775Y31550
X21775Y29400
X21275Y29050
X21525Y28650
X20525Y28800
X20525Y29350
X18775Y27050
X22275Y25400
X22275Y24800
X17775Y31650
X18775Y33350
X19125Y33550
X19775Y33550
X19775Y32600
X20275Y32600
X19775Y35150
X18275Y35150
X14175Y35050
X12475Y34050
X11975Y35050
X11975Y35550
X11975Y36050
X12475Y36550
X12475Y37550
X13475Y37550
X12975Y39050
X10975Y35550
X10975Y33550
X10475Y32650
X9975Y31600
X9225Y31550
X8975Y30550
X7975Y31150
X7375Y30050
X5975Y30050
X6075Y28900
X6975Y27550
X7375Y27650
X7725Y27200
X8475Y27150
X9625Y27050
X10475Y27050
X11475Y27050
X11475Y25550
X11975Y25550
X12475Y25250
X12975Y26150
X13475Y28050
X13975Y28550
X12475Y28550
X11975Y28550
X11225Y29050
X11475Y29550
X11475Y30050
X12475Y30050
X12975Y30050
X12975Y31650
X12475Y32050
X11975Y31550
X9975Y29400
X9475Y29050
X9725Y28650
X8725Y28800
X8725Y29350
X6975Y27050
X10475Y25400
X10475Y24800
X5975Y31650
X6975Y33350
X7325Y33550
X7975Y33550
X7975Y32600
X8475Y32600
X7975Y35150
X6475Y35150
X14175Y14850
X25975Y14850
T02
X24275Y14350
X24275Y13350
X23275Y13350
X23275Y14350
X23275Y12350
X24275Y12350
X35075Y12350
X36075Y12350
X36075Y13350
X36075Y14350
X35075Y14350
X35075Y13350
X35075Y32550
X36075Y32550
X36075Y33550
X36075Y34550
X35075Y34550
X35075Y33550
X24275Y33550
X24275Y34550
X23275Y34550
X23275Y33550
X23275Y32550
X24275Y32550
X12475Y32550
X11475Y32550
X11475Y33550
X11475Y34550
X12475Y34550
X12475Y33550
X12475Y14350
X12475Y13350
X11475Y13350
X11475Y14350
X11475Y12350
X12475Y12350
T03
X10475Y14850
X10475Y15850
X10475Y17350
X10475Y18350
X10475Y19350
X9975Y21350
X9975Y22350
X8975Y22350
X8975Y21350
X7975Y21350
X7975Y22350
X7975Y23550
X6975Y23550
X8975Y23550
X9975Y23550
X10975Y23550
X11975Y23550
X10975Y22350
X10975Y21350
X18775Y23550
X19775Y23550
X20775Y23550
X21775Y23550
X22775Y23550
X23775Y23550
X22775Y22350
X22775Y21350
X21775Y21350
X21775Y22350
X20775Y22350
X20775Y21350
X19775Y21350
X19775Y22350
X22275Y19350
X22275Y18350
X22275Y17350
X22275Y15850
X22275Y14850
X31575Y21350
X31575Y22350
X32575Y22350
X32575Y21350
X33575Y21350
X33575Y22350
X34575Y22350
X34575Y21350
X34075Y19350
X34075Y18350
X34075Y17350
X34075Y15850
X34075Y14850
X33575Y23550
X32575Y23550
X31575Y23550
X30575Y23550
X34575Y23550
X35575Y23550
X34075Y35050
X34075Y36050
X34075Y37550
X34075Y38550
X34075Y39550
X33575Y41550
X33575Y42550
X32575Y42550
X32575Y41550
X31575Y41550
X31575Y42550
X34575Y42550
X34575Y41550
X22775Y41550
X22775Y42550
X21775Y42550
X21775Y41550
X20775Y41550
X20775Y42550
X19775Y42550
X19775Y41550
X22275Y39550
X22275Y38550
X22275Y37550
X22275Y36050
X22275Y35050
X10975Y41550
X10975Y42550
X9975Y42550
X9975Y41550
X8975Y41550
X8975Y42550
X7975Y42550
X7975Y41550
X10475Y39550
X10475Y38550
X10475Y37550
X10475Y36050
X10475Y35050
X9975Y3350
X8975Y3350
X7975Y3350
X6975Y3350
X10975Y3350
X11975Y3350
X18775Y3350
X19775Y3350
X20775Y3350
X21775Y3350
X22775Y3350
X23775Y3350
X30575Y3350
X31575Y3350
X32575Y3350
X33575Y3350
X34575Y3350
X35575Y3350
T04
X31461Y18350
X28705Y18350
X19661Y18350
X16905Y18350
X7861Y18350
X5105Y18350
X5105Y38550
X7861Y38550
X16905Y38550
X19661Y38550
X28705Y38550
X31461Y38550
T05
X5475Y3850
X13475Y3850
X17275Y3850
X25275Y3850
X29075Y3850
X37075Y3850
X37075Y21850
X37075Y24050
X29075Y24050
X29075Y21850
X25275Y21850
X25275Y24050
X17275Y24050
X17275Y21850
X13475Y21850
X13475Y24050
X5475Y24050
X5475Y21850
X5475Y42050
X13475Y42050
X17275Y42050
X25275Y42050
X29075Y42050
X37075Y42050
M30
