M48
;GenerationSoftware,Autodesk,EAGLE,9.6.2*%
;CreationDate,2021-11-16T16:21:18Z*%
FMAT,2
ICI,OFF
METRIC,TZ,000.000
T8C0.305
T7C0.400
T6C0.508
T5C0.650
T4C1.000
T3C1.016
T2C1.200
T1C3.302
%
G90
M71
T1
X83820Y99568
X83820Y2540
X2540Y48260
X22860Y48260
X2540Y2540
X22860Y2540
X53340Y53848
X2540Y99568
X63500Y53848
X83820Y53848
X22860Y99568
X33020Y48260
X53340Y48260
X33020Y2540
X53340Y2540
X2540Y53848
X22860Y53848
X63500Y99568
X33020Y99568
X53340Y99568
X33020Y53848
X63500Y48260
X83820Y48260
X63500Y2540
T2
X1600Y39370
X8600Y39370
X8600Y90678
X62560Y90678
X32080Y39370
X39080Y39370
X69560Y90678
X69560Y39370
X62560Y39370
X32080Y90678
X39080Y90678
X1600Y90678
T3
X46990Y52578
X49530Y52578
X45720Y93218
X45720Y90678
X45720Y88138
X45720Y85598
X45720Y83058
X46990Y100838
X44450Y100838
X41910Y100838
X39370Y100838
X46990Y98298
X44450Y98298
X41910Y98298
X39370Y98298
X67310Y52578
X69850Y52578
X72390Y52578
X74930Y52578
X77470Y52578
X80010Y52578
X76200Y93218
X76200Y90678
X76200Y88138
X76200Y85598
X6350Y1270
X8890Y1270
X11430Y1270
X13970Y1270
X16510Y1270
X19050Y1270
X15240Y41910
X15240Y39370
X15240Y36830
X15240Y34290
X15240Y31750
X16510Y49530
X13970Y49530
X11430Y49530
X8890Y49530
X16510Y46990
X13970Y46990
X11430Y46990
X8890Y46990
X76200Y83058
X77470Y100838
X15240Y83058
X74930Y100838
X72390Y100838
X69850Y100838
X77470Y98298
X74930Y98298
X72390Y98298
X69850Y98298
X36830Y1270
X39370Y1270
X41910Y1270
X44450Y1270
X46990Y1270
X49530Y1270
X45720Y41910
X45720Y39370
X45720Y36830
X45720Y34290
X45720Y31750
X46990Y49530
X44450Y49530
X41910Y49530
X39370Y49530
X46990Y46990
X44450Y46990
X41910Y46990
X39370Y46990
X67310Y1270
X69850Y1270
X72390Y1270
X74930Y1270
X77470Y1270
X80010Y1270
X76200Y41910
X76200Y39370
X76200Y36830
X76200Y34290
X76200Y31750
X77470Y49530
X74930Y49530
X72390Y49530
X69850Y49530
X77470Y46990
X74930Y46990
X72390Y46990
X69850Y46990
X6350Y52578
X8890Y52578
X11430Y52578
X13970Y52578
X16510Y52578
X19050Y52578
X15240Y93218
X15240Y90678
X15240Y88138
X15240Y85598
X16510Y100838
X13970Y100838
X11430Y100838
X8890Y100838
X16510Y98298
X13970Y98298
X11430Y98298
X8890Y98298
X36830Y52578
X39370Y52578
X41910Y52578
X44450Y52578
T4
X34671Y17910
X4191Y25910
X4191Y17910
X34671Y25910
X4191Y77218
X65151Y17910
X4191Y69218
X34671Y77218
X34671Y69218
X65151Y25910
X65151Y69218
X65151Y77218
T5
X4905Y7270
X35385Y13050
X35385Y7270
X65865Y13050
X65865Y7270
X65865Y58578
X4905Y64358
X4905Y58578
X4905Y13050
X35385Y64358
X35385Y58578
X65865Y64358
T6
X20320Y26670
X20320Y29210
X17780Y29210
X17780Y26670
X20320Y24130
X17780Y24130
X50800Y26670
X48260Y26670
X50800Y24130
X48260Y24130
X48260Y75438
X78740Y24130
X48260Y29210
X50800Y29210
X20320Y80518
X17780Y80518
X20320Y77978
X17780Y77978
X20320Y75438
X17780Y75438
X81280Y29210
X78740Y29210
X81280Y26670
X78740Y26670
X81280Y24130
X50800Y80518
X48260Y80518
X50800Y77978
X48260Y77978
X50800Y75438
X81280Y80518
X78740Y80518
X81280Y77978
X78740Y77978
X81280Y75438
X78740Y75438
T7
X5435Y57150
X5435Y65786
X1255Y5842
X5435Y5842
X5435Y14478
X31735Y14478
X31735Y5842
X35915Y5842
X35915Y14478
X1255Y14478
X62215Y14478
X31735Y65786
X31735Y57150
X35915Y57150
X35915Y65786
X62215Y5842
X66395Y5842
X66395Y14478
X1255Y65786
X1255Y57150
X62215Y65786
X62215Y57150
X66395Y57150
X66395Y65786
T8
X6858Y66548
X12040Y60452
X16256Y67056
X14478Y61468
X15875Y66040
X21590Y91948
X22860Y88392
X8255Y75565
X6858Y77343
X15748Y79248
X12573Y73152
X10160Y75565
X4699Y59563
X2540Y62738
X20955Y77089
X15164Y61722
X7112Y60706
X7112Y62230
X52070Y59182
X47117Y83058
X43180Y56388
X43180Y55118
X34290Y73533
X34163Y70231
X51054Y69088
X49530Y77978
X45847Y77343
X45720Y55753
X48133Y61595
X49530Y65278
X33020Y58928
X33020Y64262
X33020Y61468
X47625Y67818
X49530Y83058
X49530Y84328
X49530Y81788
X47498Y65532
X52070Y73152
X52070Y70358
X47244Y70358
X50800Y56896
X49530Y72898
X47244Y71120
X50659Y55767
X50927Y65278
X40640Y70104
X36830Y81280
X39116Y81280
X37211Y71882
X37211Y75311
X54610Y65278
X46990Y72644
X41783Y75692
X41910Y72136
X40640Y65278
X43688Y70358
X41402Y70383
X50800Y85598
X50800Y88646
X49276Y57785
X53340Y81788
X47280Y68489
X37338Y66548
X42520Y60452
X46736Y67056
X44958Y61468
X46355Y66040
X52070Y91948
X53340Y88392
X38735Y75565
X37338Y77343
X33020Y12954
X43053Y73152
X40640Y75565
X35179Y59563
X33020Y62738
X51435Y77089
X45644Y61722
X37592Y60706
X37592Y62230
X82550Y59182
X77597Y83058
X73660Y56388
X73660Y55118
X64770Y73533
X64643Y70231
X81534Y69088
X80010Y77978
X76327Y77343
X76200Y55753
X78613Y61595
X80010Y65278
X63500Y58928
X63500Y64262
X63500Y61468
X78105Y67818
X80010Y83058
X80010Y84328
X80010Y81788
X77978Y65532
X82550Y73152
X82550Y70358
X77724Y70358
X81280Y56896
X80010Y72898
X77724Y71120
X81139Y55767
X81407Y65278
X71120Y70104
X67310Y81280
X69596Y81280
X67691Y71882
X67691Y75311
X85090Y65278
X77470Y72644
X72263Y75692
X72390Y72136
X71120Y65278
X74168Y70358
X71882Y70383
X81280Y85598
X81280Y88646
X79756Y57785
X83820Y81788
X77760Y68489
X67818Y66548
X73000Y60452
X77216Y67056
X75438Y61468
X76835Y66040
X82550Y91948
X83820Y88392
X69215Y75565
X67818Y77343
X76708Y79248
X73533Y73152
X71120Y75565
X65659Y59563
X63500Y62738
X81915Y77089
X76124Y61722
X68072Y60706
X68072Y62230
X21590Y7874
X16637Y31750
X12700Y5080
X12700Y3810
X46228Y79248
X3810Y22225
X3683Y18923
X20574Y17780
X19050Y26670
X15367Y26035
X15240Y4445
X17653Y10287
X19050Y13970
X2540Y7620
X2540Y12954
X2540Y10160
X17145Y16510
X19050Y31750
X19050Y33020
X19050Y30480
X17018Y14224
X21590Y21844
X21590Y19050
X16764Y19050
X20320Y5588
X19050Y21590
X16764Y19812
X20179Y4459
X20447Y13970
X10160Y18796
X6350Y29972
X8636Y29972
X6731Y20574
X6731Y24003
X24130Y13970
X16510Y21336
X11303Y24384
X11430Y20828
X10160Y13970
X13208Y19050
X10922Y19075
X20320Y34290
X20320Y37338
X18796Y6477
X22860Y30480
X16800Y17181
X6858Y15240
X12040Y9144
X16256Y15748
X14478Y10160
X15875Y14732
X21590Y40640
X22860Y37084
X8255Y24257
X6858Y26035
X15748Y27940
X12573Y21844
X10160Y24257
X4699Y8255
X2540Y11430
X20955Y25781
X15164Y10414
X7112Y9398
X7112Y10922
X52070Y7874
X47117Y31750
X43180Y5080
X43180Y3810
X34290Y22225
X34163Y18923
X51054Y17780
X49530Y26670
X45847Y26035
X45720Y4445
X48133Y10287
X49530Y13970
X33020Y7620
X33020Y10160
X47625Y16510
X49530Y31750
X49530Y33020
X49530Y30480
X47498Y14224
X52070Y21844
X52070Y19050
X47244Y19050
X50800Y5588
X49530Y21590
X47244Y19812
X50659Y4459
X50927Y13970
X40640Y18796
X36830Y29972
X39116Y29972
X37211Y20574
X37211Y24003
X54610Y13970
X46990Y21336
X41783Y24384
X41910Y20828
X40640Y13970
X43688Y19050
X41402Y19075
X50800Y34290
X50800Y37338
X49276Y6477
X53340Y30480
X47280Y17181
X37338Y15240
X42520Y9144
X46736Y15748
X44958Y10160
X46355Y14732
X52070Y40640
X53340Y37084
X38735Y24257
X37338Y26035
X46228Y27940
X43053Y21844
X40640Y24257
X35179Y8255
X33020Y11430
X51435Y25781
X45644Y10414
X37592Y9398
X37592Y10922
X82550Y7874
X77597Y31750
X73660Y5080
X73660Y3810
X64770Y22225
X64643Y18923
X81534Y17780
X80010Y26670
X76327Y26035
X76200Y4445
X78613Y10287
X80010Y13970
X63500Y7620
X63500Y12954
X63500Y10160
X78105Y16510
X80010Y31750
X80010Y33020
X80010Y30480
X77978Y14224
X82550Y21844
X82550Y19050
X77724Y19050
X81280Y5588
X80010Y21590
X77724Y19812
X81139Y4459
X81407Y13970
X71120Y18796
X67310Y29972
X69596Y29972
X20320Y88646
X67691Y20574
X67691Y24003
X85090Y13970
X77470Y21336
X72263Y24384
X72390Y20828
X71120Y13970
X74168Y19050
X71882Y19075
X81280Y34290
X81280Y37338
X79756Y6477
X83820Y30480
X77760Y17181
X67818Y15240
X73000Y9144
X77216Y15748
X75438Y10160
X76835Y14732
X82550Y40640
X83820Y37084
X69215Y24257
X67818Y26035
X76708Y27940
X73533Y21844
X71120Y24257
X65659Y8255
X63500Y11430
X81915Y25781
X76124Y10414
X68072Y9398
X68072Y10922
X21590Y59182
X16637Y83058
X12700Y56388
X12700Y55118
X3810Y73533
X3683Y70231
X20574Y69088
X19050Y77978
X15367Y77343
X15240Y55753
X17653Y61595
X19050Y65278
X2540Y58928
X2540Y64262
X2540Y61468
X17145Y67818
X19050Y83058
X19050Y84328
X19050Y81788
X17018Y65532
X21590Y73152
X21590Y70358
X16764Y70358
X20320Y56896
X19050Y72898
X16764Y71120
X20179Y55767
X20447Y65278
X10160Y70104
X6350Y81280
X8636Y81280
X6731Y71882
X6731Y75311
X24130Y65278
X16510Y72644
X11303Y75692
X11430Y72136
X10160Y65278
X13208Y70358
X10922Y70383
X20320Y85598
X18796Y57785
X22860Y81788
X16800Y68489
M30