G75*
%MOIN*%
%OFA0B0*%
%FSLAX25Y25*%
%IPPOS*%
%LPD*%
%AMOC8*
5,1,8,0,0,1.08239X$1,22.5*
%
%ADD10C,0.13800*%
%ADD11C,0.03300*%
%ADD12R,0.08674X0.05524*%
%ADD13R,0.06115X0.03162*%
%ADD14C,0.08200*%
%ADD15R,0.05131X0.04737*%
%ADD16C,0.01421*%
%ADD17R,0.04737X0.05131*%
%ADD18R,0.07690X0.02375*%
%ADD19R,0.06548X0.08674*%
%ADD20R,0.10643X0.06410*%
%ADD21C,0.00400*%
%ADD22R,0.04146X0.02178*%
%ADD23R,0.06706X0.07690*%
%ADD24C,0.00218*%
%ADD25R,0.03300X0.05800*%
%ADD26R,0.03162X0.05524*%
%ADD27C,0.00500*%
%ADD28C,0.04808*%
%ADD29R,0.14580X0.08674*%
%ADD30R,0.24422X0.08674*%
%ADD31R,0.05524X0.10643*%
%ADD32C,0.05524*%
%ADD33C,0.04737*%
%ADD34C,0.05000*%
%ADD35C,0.06706*%
D10*
X0054750Y0038500D03*
X0134750Y0038500D03*
X0172750Y0038500D03*
X0252750Y0038500D03*
X0290750Y0038500D03*
X0370750Y0038500D03*
X0370750Y0218500D03*
X0370750Y0240500D03*
X0290750Y0240500D03*
X0290750Y0218500D03*
X0252750Y0218500D03*
X0252750Y0240500D03*
X0172750Y0240500D03*
X0172750Y0218500D03*
X0134750Y0218500D03*
X0134750Y0240500D03*
X0054750Y0240500D03*
X0054750Y0218500D03*
X0054750Y0420500D03*
X0134750Y0420500D03*
X0172750Y0420500D03*
X0252750Y0420500D03*
X0290750Y0420500D03*
X0370750Y0420500D03*
D11*
X0283750Y0427500D03*
X0165750Y0427500D03*
X0047750Y0427500D03*
X0141250Y0234000D03*
X0165750Y0225500D03*
X0259250Y0234000D03*
X0283750Y0225500D03*
X0377250Y0234000D03*
X0377250Y0032000D03*
X0259250Y0032000D03*
X0141250Y0032000D03*
X0047750Y0225500D03*
D12*
X0050281Y0299476D03*
X0050281Y0321524D03*
X0139219Y0321524D03*
X0139219Y0299476D03*
X0168281Y0299476D03*
X0168281Y0321524D03*
X0257219Y0321524D03*
X0257219Y0299476D03*
X0286281Y0299476D03*
X0286281Y0321524D03*
X0375219Y0321524D03*
X0375219Y0299476D03*
X0375219Y0119524D03*
X0375219Y0097476D03*
X0286281Y0097476D03*
X0286281Y0119524D03*
X0257219Y0119524D03*
X0257219Y0097476D03*
X0168281Y0097476D03*
X0168281Y0119524D03*
X0139219Y0119524D03*
X0139219Y0097476D03*
X0050281Y0097476D03*
X0050281Y0119524D03*
D13*
X0064750Y0114406D03*
X0064750Y0110469D03*
X0064750Y0106531D03*
X0064750Y0102594D03*
X0124750Y0102594D03*
X0124750Y0106531D03*
X0124750Y0110469D03*
X0124750Y0114406D03*
X0182750Y0114406D03*
X0182750Y0110469D03*
X0182750Y0106531D03*
X0182750Y0102594D03*
X0242750Y0102594D03*
X0242750Y0106531D03*
X0242750Y0110469D03*
X0242750Y0114406D03*
X0300750Y0114406D03*
X0300750Y0110469D03*
X0300750Y0106531D03*
X0300750Y0102594D03*
X0360750Y0102594D03*
X0360750Y0106531D03*
X0360750Y0110469D03*
X0360750Y0114406D03*
X0360750Y0304594D03*
X0360750Y0308531D03*
X0360750Y0312469D03*
X0360750Y0316406D03*
X0300750Y0316406D03*
X0300750Y0312469D03*
X0300750Y0308531D03*
X0300750Y0304594D03*
X0242750Y0304594D03*
X0242750Y0308531D03*
X0242750Y0312469D03*
X0242750Y0316406D03*
X0182750Y0316406D03*
X0182750Y0312469D03*
X0182750Y0308531D03*
X0182750Y0304594D03*
X0124750Y0304594D03*
X0124750Y0308531D03*
X0124750Y0312469D03*
X0124750Y0316406D03*
X0064750Y0316406D03*
X0064750Y0312469D03*
X0064750Y0308531D03*
X0064750Y0304594D03*
D14*
X0104750Y0350500D03*
X0104750Y0360500D03*
X0104750Y0375500D03*
X0104750Y0385500D03*
X0104750Y0395500D03*
X0099750Y0415500D03*
X0099750Y0425500D03*
X0089750Y0425500D03*
X0089750Y0415500D03*
X0079750Y0415500D03*
X0079750Y0425500D03*
X0109750Y0425500D03*
X0109750Y0415500D03*
X0197750Y0415500D03*
X0197750Y0425500D03*
X0207750Y0425500D03*
X0207750Y0415500D03*
X0217750Y0415500D03*
X0217750Y0425500D03*
X0227750Y0425500D03*
X0227750Y0415500D03*
X0222750Y0395500D03*
X0222750Y0385500D03*
X0222750Y0375500D03*
X0222750Y0360500D03*
X0222750Y0350500D03*
X0315750Y0415500D03*
X0315750Y0425500D03*
X0325750Y0425500D03*
X0325750Y0415500D03*
X0335750Y0415500D03*
X0335750Y0425500D03*
X0345750Y0425500D03*
X0345750Y0415500D03*
X0340750Y0395500D03*
X0340750Y0385500D03*
X0340750Y0375500D03*
X0340750Y0360500D03*
X0340750Y0350500D03*
X0335750Y0235500D03*
X0325750Y0235500D03*
X0315750Y0235500D03*
X0305750Y0235500D03*
X0315750Y0223500D03*
X0315750Y0213500D03*
X0325750Y0213500D03*
X0325750Y0223500D03*
X0335750Y0223500D03*
X0335750Y0213500D03*
X0345750Y0213500D03*
X0345750Y0223500D03*
X0345750Y0235500D03*
X0355750Y0235500D03*
X0340750Y0193500D03*
X0340750Y0183500D03*
X0340750Y0173500D03*
X0340750Y0158500D03*
X0340750Y0148500D03*
X0237750Y0235500D03*
X0227750Y0235500D03*
X0217750Y0235500D03*
X0207750Y0235500D03*
X0197750Y0235500D03*
X0187750Y0235500D03*
X0197750Y0223500D03*
X0197750Y0213500D03*
X0207750Y0213500D03*
X0207750Y0223500D03*
X0217750Y0223500D03*
X0217750Y0213500D03*
X0227750Y0213500D03*
X0227750Y0223500D03*
X0222750Y0193500D03*
X0222750Y0183500D03*
X0222750Y0173500D03*
X0222750Y0158500D03*
X0222750Y0148500D03*
X0119750Y0235500D03*
X0109750Y0235500D03*
X0099750Y0235500D03*
X0089750Y0235500D03*
X0079750Y0235500D03*
X0069750Y0235500D03*
X0079750Y0223500D03*
X0079750Y0213500D03*
X0089750Y0213500D03*
X0089750Y0223500D03*
X0099750Y0223500D03*
X0099750Y0213500D03*
X0109750Y0213500D03*
X0109750Y0223500D03*
X0104750Y0193500D03*
X0104750Y0183500D03*
X0104750Y0173500D03*
X0104750Y0158500D03*
X0104750Y0148500D03*
X0099750Y0033500D03*
X0089750Y0033500D03*
X0079750Y0033500D03*
X0069750Y0033500D03*
X0109750Y0033500D03*
X0119750Y0033500D03*
X0187750Y0033500D03*
X0197750Y0033500D03*
X0207750Y0033500D03*
X0217750Y0033500D03*
X0227750Y0033500D03*
X0237750Y0033500D03*
X0305750Y0033500D03*
X0315750Y0033500D03*
X0325750Y0033500D03*
X0335750Y0033500D03*
X0345750Y0033500D03*
X0355750Y0033500D03*
D15*
X0339096Y0063500D03*
X0332404Y0063500D03*
X0324096Y0063500D03*
X0317404Y0063500D03*
X0317404Y0073500D03*
X0324096Y0073500D03*
X0332404Y0073500D03*
X0339096Y0073500D03*
X0324096Y0128500D03*
X0317404Y0128500D03*
X0352404Y0168500D03*
X0359096Y0168500D03*
X0367404Y0168500D03*
X0367404Y0163500D03*
X0367404Y0158500D03*
X0367404Y0153500D03*
X0374096Y0153500D03*
X0374096Y0158500D03*
X0374096Y0163500D03*
X0374096Y0168500D03*
X0374096Y0178500D03*
X0374096Y0183500D03*
X0367404Y0183500D03*
X0367404Y0178500D03*
X0359096Y0183500D03*
X0352404Y0183500D03*
X0367404Y0145000D03*
X0374096Y0145000D03*
X0374096Y0128500D03*
X0367404Y0128500D03*
X0256096Y0128500D03*
X0249404Y0128500D03*
X0249404Y0145000D03*
X0256096Y0145000D03*
X0256096Y0153500D03*
X0256096Y0158500D03*
X0256096Y0163500D03*
X0256096Y0168500D03*
X0249404Y0168500D03*
X0249404Y0163500D03*
X0249404Y0158500D03*
X0249404Y0153500D03*
X0241096Y0168500D03*
X0234404Y0168500D03*
X0234404Y0183500D03*
X0241096Y0183500D03*
X0249404Y0183500D03*
X0249404Y0178500D03*
X0256096Y0178500D03*
X0256096Y0183500D03*
X0206096Y0128500D03*
X0199404Y0128500D03*
X0199404Y0073500D03*
X0206096Y0073500D03*
X0214404Y0073500D03*
X0221096Y0073500D03*
X0221096Y0063500D03*
X0214404Y0063500D03*
X0206096Y0063500D03*
X0199404Y0063500D03*
X0138096Y0128500D03*
X0131404Y0128500D03*
X0131404Y0145000D03*
X0138096Y0145000D03*
X0138096Y0153500D03*
X0138096Y0158500D03*
X0138096Y0163500D03*
X0138096Y0168500D03*
X0131404Y0168500D03*
X0131404Y0163500D03*
X0131404Y0158500D03*
X0131404Y0153500D03*
X0123096Y0168500D03*
X0116404Y0168500D03*
X0116404Y0183500D03*
X0123096Y0183500D03*
X0131404Y0183500D03*
X0131404Y0178500D03*
X0138096Y0178500D03*
X0138096Y0183500D03*
X0088096Y0128500D03*
X0081404Y0128500D03*
X0081404Y0073500D03*
X0088096Y0073500D03*
X0096404Y0073500D03*
X0103096Y0073500D03*
X0103096Y0063500D03*
X0096404Y0063500D03*
X0088096Y0063500D03*
X0081404Y0063500D03*
X0081404Y0265500D03*
X0088096Y0265500D03*
X0096404Y0265500D03*
X0103096Y0265500D03*
X0103096Y0275500D03*
X0096404Y0275500D03*
X0088096Y0275500D03*
X0081404Y0275500D03*
X0081404Y0330500D03*
X0088096Y0330500D03*
X0116404Y0370500D03*
X0123096Y0370500D03*
X0131404Y0370500D03*
X0131404Y0365500D03*
X0131404Y0360500D03*
X0131404Y0355500D03*
X0138096Y0355500D03*
X0138096Y0360500D03*
X0138096Y0365500D03*
X0138096Y0370500D03*
X0138096Y0380500D03*
X0138096Y0385500D03*
X0131404Y0385500D03*
X0131404Y0380500D03*
X0123096Y0385500D03*
X0116404Y0385500D03*
X0131404Y0347000D03*
X0138096Y0347000D03*
X0138096Y0330500D03*
X0131404Y0330500D03*
X0199404Y0330500D03*
X0206096Y0330500D03*
X0249404Y0330500D03*
X0256096Y0330500D03*
X0256096Y0347000D03*
X0249404Y0347000D03*
X0249404Y0355500D03*
X0249404Y0360500D03*
X0249404Y0365500D03*
X0249404Y0370500D03*
X0241096Y0370500D03*
X0234404Y0370500D03*
X0234404Y0385500D03*
X0241096Y0385500D03*
X0249404Y0385500D03*
X0249404Y0380500D03*
X0256096Y0380500D03*
X0256096Y0385500D03*
X0256096Y0370500D03*
X0256096Y0365500D03*
X0256096Y0360500D03*
X0256096Y0355500D03*
X0317404Y0330500D03*
X0324096Y0330500D03*
X0352404Y0370500D03*
X0359096Y0370500D03*
X0367404Y0370500D03*
X0367404Y0365500D03*
X0367404Y0360500D03*
X0367404Y0355500D03*
X0374096Y0355500D03*
X0374096Y0360500D03*
X0374096Y0365500D03*
X0374096Y0370500D03*
X0374096Y0380500D03*
X0374096Y0385500D03*
X0367404Y0385500D03*
X0367404Y0380500D03*
X0359096Y0385500D03*
X0352404Y0385500D03*
X0367404Y0347000D03*
X0374096Y0347000D03*
X0374096Y0330500D03*
X0367404Y0330500D03*
X0339096Y0275500D03*
X0332404Y0275500D03*
X0324096Y0275500D03*
X0317404Y0275500D03*
X0317404Y0265500D03*
X0324096Y0265500D03*
X0332404Y0265500D03*
X0339096Y0265500D03*
X0221096Y0265500D03*
X0214404Y0265500D03*
X0206096Y0265500D03*
X0199404Y0265500D03*
X0199404Y0275500D03*
X0206096Y0275500D03*
X0214404Y0275500D03*
X0221096Y0275500D03*
D16*
X0250955Y0333842D02*
X0250955Y0337158D01*
X0250955Y0333842D02*
X0247639Y0333842D01*
X0247639Y0337158D01*
X0250955Y0337158D01*
X0250955Y0335262D02*
X0247639Y0335262D01*
X0247639Y0336682D02*
X0250955Y0336682D01*
X0257861Y0337158D02*
X0257861Y0333842D01*
X0254545Y0333842D01*
X0254545Y0337158D01*
X0257861Y0337158D01*
X0257861Y0335262D02*
X0254545Y0335262D01*
X0254545Y0336682D02*
X0257861Y0336682D01*
X0368955Y0337158D02*
X0368955Y0333842D01*
X0365639Y0333842D01*
X0365639Y0337158D01*
X0368955Y0337158D01*
X0368955Y0335262D02*
X0365639Y0335262D01*
X0365639Y0336682D02*
X0368955Y0336682D01*
X0375861Y0337158D02*
X0375861Y0333842D01*
X0372545Y0333842D01*
X0372545Y0337158D01*
X0375861Y0337158D01*
X0375861Y0335262D02*
X0372545Y0335262D01*
X0372545Y0336682D02*
X0375861Y0336682D01*
X0375861Y0135158D02*
X0375861Y0131842D01*
X0372545Y0131842D01*
X0372545Y0135158D01*
X0375861Y0135158D01*
X0375861Y0133262D02*
X0372545Y0133262D01*
X0372545Y0134682D02*
X0375861Y0134682D01*
X0368955Y0135158D02*
X0368955Y0131842D01*
X0365639Y0131842D01*
X0365639Y0135158D01*
X0368955Y0135158D01*
X0368955Y0133262D02*
X0365639Y0133262D01*
X0365639Y0134682D02*
X0368955Y0134682D01*
X0257861Y0135158D02*
X0257861Y0131842D01*
X0254545Y0131842D01*
X0254545Y0135158D01*
X0257861Y0135158D01*
X0257861Y0133262D02*
X0254545Y0133262D01*
X0254545Y0134682D02*
X0257861Y0134682D01*
X0250955Y0135158D02*
X0250955Y0131842D01*
X0247639Y0131842D01*
X0247639Y0135158D01*
X0250955Y0135158D01*
X0250955Y0133262D02*
X0247639Y0133262D01*
X0247639Y0134682D02*
X0250955Y0134682D01*
X0139861Y0135158D02*
X0139861Y0131842D01*
X0136545Y0131842D01*
X0136545Y0135158D01*
X0139861Y0135158D01*
X0139861Y0133262D02*
X0136545Y0133262D01*
X0136545Y0134682D02*
X0139861Y0134682D01*
X0132955Y0135158D02*
X0132955Y0131842D01*
X0129639Y0131842D01*
X0129639Y0135158D01*
X0132955Y0135158D01*
X0132955Y0133262D02*
X0129639Y0133262D01*
X0129639Y0134682D02*
X0132955Y0134682D01*
X0132955Y0333842D02*
X0132955Y0337158D01*
X0132955Y0333842D02*
X0129639Y0333842D01*
X0129639Y0337158D01*
X0132955Y0337158D01*
X0132955Y0335262D02*
X0129639Y0335262D01*
X0129639Y0336682D02*
X0132955Y0336682D01*
X0139861Y0337158D02*
X0139861Y0333842D01*
X0136545Y0333842D01*
X0136545Y0337158D01*
X0139861Y0337158D01*
X0139861Y0335262D02*
X0136545Y0335262D01*
X0136545Y0336682D02*
X0139861Y0336682D01*
D17*
X0114750Y0313846D03*
X0114750Y0307154D03*
X0124750Y0268846D03*
X0124750Y0262154D03*
X0134750Y0262154D03*
X0134750Y0268846D03*
X0232750Y0307154D03*
X0232750Y0313846D03*
X0242750Y0268846D03*
X0242750Y0262154D03*
X0252750Y0262154D03*
X0252750Y0268846D03*
X0350750Y0307154D03*
X0350750Y0313846D03*
X0360750Y0268846D03*
X0360750Y0262154D03*
X0370750Y0262154D03*
X0370750Y0268846D03*
X0350750Y0111846D03*
X0350750Y0105154D03*
X0360750Y0066846D03*
X0360750Y0060154D03*
X0370750Y0060154D03*
X0370750Y0066846D03*
X0252750Y0066846D03*
X0252750Y0060154D03*
X0242750Y0060154D03*
X0242750Y0066846D03*
X0232750Y0105154D03*
X0232750Y0111846D03*
X0134750Y0066846D03*
X0134750Y0060154D03*
X0124750Y0060154D03*
X0124750Y0066846D03*
X0114750Y0105154D03*
X0114750Y0111846D03*
D18*
X0059990Y0073494D03*
X0059990Y0070935D03*
X0059990Y0068376D03*
X0059990Y0065817D03*
X0059990Y0063258D03*
X0177990Y0063258D03*
X0177990Y0065817D03*
X0177990Y0068376D03*
X0177990Y0070935D03*
X0177990Y0073494D03*
X0295990Y0073494D03*
X0295990Y0070935D03*
X0295990Y0068376D03*
X0295990Y0065817D03*
X0295990Y0063258D03*
X0295990Y0265258D03*
X0295990Y0267817D03*
X0295990Y0270376D03*
X0295990Y0272935D03*
X0295990Y0275494D03*
X0177990Y0275494D03*
X0177990Y0272935D03*
X0177990Y0270376D03*
X0177990Y0267817D03*
X0177990Y0265258D03*
X0059990Y0265258D03*
X0059990Y0267817D03*
X0059990Y0270376D03*
X0059990Y0272935D03*
X0059990Y0275494D03*
D19*
X0061073Y0281498D03*
X0061073Y0259354D03*
X0179073Y0259354D03*
X0179073Y0281498D03*
X0297073Y0281498D03*
X0297073Y0259354D03*
X0297073Y0079498D03*
X0297073Y0057354D03*
X0179073Y0057354D03*
X0179073Y0079498D03*
X0061073Y0079498D03*
X0061073Y0057354D03*
D20*
X0049428Y0064578D03*
X0049439Y0072353D03*
X0167439Y0072353D03*
X0167428Y0064578D03*
X0285428Y0064578D03*
X0285439Y0072353D03*
X0285428Y0266578D03*
X0285439Y0274353D03*
X0167439Y0274353D03*
X0167428Y0266578D03*
X0049428Y0266578D03*
X0049439Y0274353D03*
D21*
X0047953Y0277968D02*
X0057630Y0277968D01*
X0057630Y0277870D02*
X0054230Y0277870D01*
X0047830Y0277970D01*
X0047330Y0277970D01*
X0047006Y0277995D01*
X0046696Y0278092D01*
X0046415Y0278255D01*
X0046178Y0278477D01*
X0045995Y0278746D01*
X0045877Y0279049D01*
X0045830Y0279370D01*
X0045830Y0282270D01*
X0045858Y0282616D01*
X0045962Y0282947D01*
X0046137Y0283247D01*
X0046374Y0283501D01*
X0046662Y0283695D01*
X0046986Y0283820D01*
X0047330Y0283870D01*
X0054286Y0283850D01*
X0054286Y0285750D01*
X0057630Y0285770D01*
X0057630Y0277870D01*
X0057630Y0278367D02*
X0046296Y0278367D01*
X0045988Y0278765D02*
X0057630Y0278765D01*
X0057630Y0279164D02*
X0045860Y0279164D01*
X0045830Y0279562D02*
X0057630Y0279562D01*
X0057630Y0279961D02*
X0045830Y0279961D01*
X0045830Y0280359D02*
X0057630Y0280359D01*
X0057630Y0280758D02*
X0045830Y0280758D01*
X0045830Y0281156D02*
X0057630Y0281156D01*
X0057630Y0281555D02*
X0045830Y0281555D01*
X0045830Y0281953D02*
X0057630Y0281953D01*
X0057630Y0282352D02*
X0045837Y0282352D01*
X0045900Y0282750D02*
X0057630Y0282750D01*
X0057630Y0283149D02*
X0046079Y0283149D01*
X0046444Y0283547D02*
X0057630Y0283547D01*
X0057630Y0283946D02*
X0054286Y0283946D01*
X0054286Y0284344D02*
X0057630Y0284344D01*
X0057630Y0284743D02*
X0054286Y0284743D01*
X0054286Y0285141D02*
X0057630Y0285141D01*
X0057630Y0285540D02*
X0054286Y0285540D01*
X0057630Y0262970D02*
X0047230Y0262870D01*
X0046909Y0262823D01*
X0046606Y0262705D01*
X0046337Y0262522D01*
X0046115Y0262285D01*
X0045952Y0262004D01*
X0045855Y0261694D01*
X0045830Y0261370D01*
X0045830Y0258370D01*
X0045880Y0258026D01*
X0046005Y0257702D01*
X0046199Y0257415D01*
X0046453Y0257177D01*
X0046753Y0257002D01*
X0047084Y0256898D01*
X0047430Y0256870D01*
X0054325Y0256870D01*
X0054325Y0255067D01*
X0057630Y0255067D01*
X0057630Y0262970D01*
X0057630Y0262825D02*
X0046923Y0262825D01*
X0046247Y0262426D02*
X0057630Y0262426D01*
X0057630Y0262028D02*
X0045966Y0262028D01*
X0045850Y0261629D02*
X0057630Y0261629D01*
X0057630Y0261231D02*
X0045830Y0261231D01*
X0045830Y0260832D02*
X0057630Y0260832D01*
X0057630Y0260434D02*
X0045830Y0260434D01*
X0045830Y0260035D02*
X0057630Y0260035D01*
X0057630Y0259637D02*
X0045830Y0259637D01*
X0045830Y0259238D02*
X0057630Y0259238D01*
X0057630Y0258840D02*
X0045830Y0258840D01*
X0045830Y0258441D02*
X0057630Y0258441D01*
X0057630Y0258043D02*
X0045878Y0258043D01*
X0046045Y0257644D02*
X0057630Y0257644D01*
X0057630Y0257245D02*
X0046380Y0257245D01*
X0054325Y0256847D02*
X0057630Y0256847D01*
X0057630Y0256448D02*
X0054325Y0256448D01*
X0054325Y0256050D02*
X0057630Y0256050D01*
X0057630Y0255651D02*
X0054325Y0255651D01*
X0054325Y0255253D02*
X0057630Y0255253D01*
X0163830Y0258370D02*
X0163830Y0261370D01*
X0163855Y0261694D01*
X0163952Y0262004D01*
X0164115Y0262285D01*
X0164337Y0262522D01*
X0164606Y0262705D01*
X0164909Y0262823D01*
X0165230Y0262870D01*
X0175630Y0262970D01*
X0175630Y0255067D01*
X0172325Y0255067D01*
X0172325Y0256870D01*
X0165430Y0256870D01*
X0165084Y0256898D01*
X0164753Y0257002D01*
X0164453Y0257177D01*
X0164199Y0257415D01*
X0164005Y0257702D01*
X0163880Y0258026D01*
X0163830Y0258370D01*
X0163830Y0258441D02*
X0175630Y0258441D01*
X0175630Y0258043D02*
X0163878Y0258043D01*
X0164045Y0257644D02*
X0175630Y0257644D01*
X0175630Y0257245D02*
X0164380Y0257245D01*
X0163830Y0258840D02*
X0175630Y0258840D01*
X0175630Y0259238D02*
X0163830Y0259238D01*
X0163830Y0259637D02*
X0175630Y0259637D01*
X0175630Y0260035D02*
X0163830Y0260035D01*
X0163830Y0260434D02*
X0175630Y0260434D01*
X0175630Y0260832D02*
X0163830Y0260832D01*
X0163830Y0261231D02*
X0175630Y0261231D01*
X0175630Y0261629D02*
X0163850Y0261629D01*
X0163966Y0262028D02*
X0175630Y0262028D01*
X0175630Y0262426D02*
X0164247Y0262426D01*
X0164923Y0262825D02*
X0175630Y0262825D01*
X0175630Y0256847D02*
X0172325Y0256847D01*
X0172325Y0256448D02*
X0175630Y0256448D01*
X0175630Y0256050D02*
X0172325Y0256050D01*
X0172325Y0255651D02*
X0175630Y0255651D01*
X0175630Y0255253D02*
X0172325Y0255253D01*
X0172230Y0277870D02*
X0165830Y0277970D01*
X0165330Y0277970D01*
X0165006Y0277995D01*
X0164696Y0278092D01*
X0164415Y0278255D01*
X0164178Y0278477D01*
X0163995Y0278746D01*
X0163877Y0279049D01*
X0163830Y0279370D01*
X0163830Y0282270D01*
X0163858Y0282616D01*
X0163962Y0282947D01*
X0164137Y0283247D01*
X0164374Y0283501D01*
X0164662Y0283695D01*
X0164986Y0283820D01*
X0165330Y0283870D01*
X0172286Y0283850D01*
X0172286Y0285750D01*
X0175630Y0285770D01*
X0175630Y0277870D01*
X0172230Y0277870D01*
X0175630Y0277968D02*
X0165953Y0277968D01*
X0164296Y0278367D02*
X0175630Y0278367D01*
X0175630Y0278765D02*
X0163988Y0278765D01*
X0163860Y0279164D02*
X0175630Y0279164D01*
X0175630Y0279562D02*
X0163830Y0279562D01*
X0163830Y0279961D02*
X0175630Y0279961D01*
X0175630Y0280359D02*
X0163830Y0280359D01*
X0163830Y0280758D02*
X0175630Y0280758D01*
X0175630Y0281156D02*
X0163830Y0281156D01*
X0163830Y0281555D02*
X0175630Y0281555D01*
X0175630Y0281953D02*
X0163830Y0281953D01*
X0163837Y0282352D02*
X0175630Y0282352D01*
X0175630Y0282750D02*
X0163900Y0282750D01*
X0164079Y0283149D02*
X0175630Y0283149D01*
X0175630Y0283547D02*
X0164444Y0283547D01*
X0172286Y0283946D02*
X0175630Y0283946D01*
X0175630Y0284344D02*
X0172286Y0284344D01*
X0172286Y0284743D02*
X0175630Y0284743D01*
X0175630Y0285141D02*
X0172286Y0285141D01*
X0172286Y0285540D02*
X0175630Y0285540D01*
X0281830Y0282270D02*
X0281830Y0279370D01*
X0281877Y0279049D01*
X0281995Y0278746D01*
X0282178Y0278477D01*
X0282415Y0278255D01*
X0282696Y0278092D01*
X0283006Y0277995D01*
X0283330Y0277970D01*
X0283830Y0277970D01*
X0290230Y0277870D01*
X0293630Y0277870D01*
X0293630Y0285770D01*
X0290286Y0285750D01*
X0290286Y0283850D01*
X0283330Y0283870D01*
X0282986Y0283820D01*
X0282662Y0283695D01*
X0282374Y0283501D01*
X0282137Y0283247D01*
X0281962Y0282947D01*
X0281858Y0282616D01*
X0281830Y0282270D01*
X0281837Y0282352D02*
X0293630Y0282352D01*
X0293630Y0282750D02*
X0281900Y0282750D01*
X0282079Y0283149D02*
X0293630Y0283149D01*
X0293630Y0283547D02*
X0282444Y0283547D01*
X0281830Y0281953D02*
X0293630Y0281953D01*
X0293630Y0281555D02*
X0281830Y0281555D01*
X0281830Y0281156D02*
X0293630Y0281156D01*
X0293630Y0280758D02*
X0281830Y0280758D01*
X0281830Y0280359D02*
X0293630Y0280359D01*
X0293630Y0279961D02*
X0281830Y0279961D01*
X0281830Y0279562D02*
X0293630Y0279562D01*
X0293630Y0279164D02*
X0281860Y0279164D01*
X0281988Y0278765D02*
X0293630Y0278765D01*
X0293630Y0278367D02*
X0282296Y0278367D01*
X0283953Y0277968D02*
X0293630Y0277968D01*
X0293630Y0283946D02*
X0290286Y0283946D01*
X0290286Y0284344D02*
X0293630Y0284344D01*
X0293630Y0284743D02*
X0290286Y0284743D01*
X0290286Y0285141D02*
X0293630Y0285141D01*
X0293630Y0285540D02*
X0290286Y0285540D01*
X0293630Y0262970D02*
X0283230Y0262870D01*
X0282909Y0262823D01*
X0282606Y0262705D01*
X0282337Y0262522D01*
X0282115Y0262285D01*
X0281952Y0262004D01*
X0281855Y0261694D01*
X0281830Y0261370D01*
X0281830Y0258370D01*
X0281880Y0258026D01*
X0282005Y0257702D01*
X0282199Y0257415D01*
X0282453Y0257177D01*
X0282753Y0257002D01*
X0283084Y0256898D01*
X0283430Y0256870D01*
X0290325Y0256870D01*
X0290325Y0255067D01*
X0293630Y0255067D01*
X0293630Y0262970D01*
X0293630Y0262825D02*
X0282923Y0262825D01*
X0282247Y0262426D02*
X0293630Y0262426D01*
X0293630Y0262028D02*
X0281966Y0262028D01*
X0281850Y0261629D02*
X0293630Y0261629D01*
X0293630Y0261231D02*
X0281830Y0261231D01*
X0281830Y0260832D02*
X0293630Y0260832D01*
X0293630Y0260434D02*
X0281830Y0260434D01*
X0281830Y0260035D02*
X0293630Y0260035D01*
X0293630Y0259637D02*
X0281830Y0259637D01*
X0281830Y0259238D02*
X0293630Y0259238D01*
X0293630Y0258840D02*
X0281830Y0258840D01*
X0281830Y0258441D02*
X0293630Y0258441D01*
X0293630Y0258043D02*
X0281878Y0258043D01*
X0282045Y0257644D02*
X0293630Y0257644D01*
X0293630Y0257245D02*
X0282380Y0257245D01*
X0290325Y0256847D02*
X0293630Y0256847D01*
X0293630Y0256448D02*
X0290325Y0256448D01*
X0290325Y0256050D02*
X0293630Y0256050D01*
X0293630Y0255651D02*
X0290325Y0255651D01*
X0290325Y0255253D02*
X0293630Y0255253D01*
X0293630Y0083770D02*
X0290286Y0083750D01*
X0290286Y0081850D01*
X0283330Y0081870D01*
X0282986Y0081820D01*
X0282662Y0081695D01*
X0282374Y0081501D01*
X0282137Y0081247D01*
X0281962Y0080947D01*
X0281858Y0080616D01*
X0281830Y0080270D01*
X0281830Y0077370D01*
X0281877Y0077049D01*
X0281995Y0076746D01*
X0282178Y0076477D01*
X0282415Y0076255D01*
X0282696Y0076092D01*
X0283006Y0075995D01*
X0283330Y0075970D01*
X0283830Y0075970D01*
X0290230Y0075870D01*
X0293630Y0075870D01*
X0293630Y0083770D01*
X0293630Y0083495D02*
X0290286Y0083495D01*
X0290286Y0083096D02*
X0293630Y0083096D01*
X0293630Y0082698D02*
X0290286Y0082698D01*
X0290286Y0082299D02*
X0293630Y0082299D01*
X0293630Y0081901D02*
X0290286Y0081901D01*
X0293630Y0081502D02*
X0282376Y0081502D01*
X0282053Y0081103D02*
X0293630Y0081103D01*
X0293630Y0080705D02*
X0281886Y0080705D01*
X0281833Y0080306D02*
X0293630Y0080306D01*
X0293630Y0079908D02*
X0281830Y0079908D01*
X0281830Y0079509D02*
X0293630Y0079509D01*
X0293630Y0079111D02*
X0281830Y0079111D01*
X0281830Y0078712D02*
X0293630Y0078712D01*
X0293630Y0078314D02*
X0281830Y0078314D01*
X0281830Y0077915D02*
X0293630Y0077915D01*
X0293630Y0077517D02*
X0281830Y0077517D01*
X0281867Y0077118D02*
X0293630Y0077118D01*
X0293630Y0076720D02*
X0282013Y0076720D01*
X0282344Y0076321D02*
X0293630Y0076321D01*
X0293630Y0075923D02*
X0286848Y0075923D01*
X0283230Y0060870D02*
X0293630Y0060970D01*
X0293630Y0053067D01*
X0290325Y0053067D01*
X0290325Y0054870D01*
X0283430Y0054870D01*
X0283084Y0054898D01*
X0282753Y0055002D01*
X0282453Y0055177D01*
X0282199Y0055415D01*
X0282005Y0055702D01*
X0281880Y0056026D01*
X0281830Y0056370D01*
X0281830Y0059370D01*
X0281855Y0059694D01*
X0281952Y0060004D01*
X0282115Y0060285D01*
X0282337Y0060522D01*
X0282606Y0060705D01*
X0282909Y0060823D01*
X0283230Y0060870D01*
X0282798Y0060779D02*
X0293630Y0060779D01*
X0293630Y0060381D02*
X0282205Y0060381D01*
X0281945Y0059982D02*
X0293630Y0059982D01*
X0293630Y0059584D02*
X0281847Y0059584D01*
X0281830Y0059185D02*
X0293630Y0059185D01*
X0293630Y0058787D02*
X0281830Y0058787D01*
X0281830Y0058388D02*
X0293630Y0058388D01*
X0293630Y0057990D02*
X0281830Y0057990D01*
X0281830Y0057591D02*
X0293630Y0057591D01*
X0293630Y0057193D02*
X0281830Y0057193D01*
X0281830Y0056794D02*
X0293630Y0056794D01*
X0293630Y0056396D02*
X0281830Y0056396D01*
X0281891Y0055997D02*
X0293630Y0055997D01*
X0293630Y0055599D02*
X0282075Y0055599D01*
X0282428Y0055200D02*
X0293630Y0055200D01*
X0293630Y0054802D02*
X0290325Y0054802D01*
X0290325Y0054403D02*
X0293630Y0054403D01*
X0293630Y0054005D02*
X0290325Y0054005D01*
X0290325Y0053606D02*
X0293630Y0053606D01*
X0293630Y0053208D02*
X0290325Y0053208D01*
X0175630Y0053208D02*
X0172325Y0053208D01*
X0172325Y0053067D02*
X0172325Y0054870D01*
X0165430Y0054870D01*
X0165084Y0054898D01*
X0164753Y0055002D01*
X0164453Y0055177D01*
X0164199Y0055415D01*
X0164005Y0055702D01*
X0163880Y0056026D01*
X0163830Y0056370D01*
X0163830Y0059370D01*
X0163855Y0059694D01*
X0163952Y0060004D01*
X0164115Y0060285D01*
X0164337Y0060522D01*
X0164606Y0060705D01*
X0164909Y0060823D01*
X0165230Y0060870D01*
X0175630Y0060970D01*
X0175630Y0053067D01*
X0172325Y0053067D01*
X0172325Y0053606D02*
X0175630Y0053606D01*
X0175630Y0054005D02*
X0172325Y0054005D01*
X0172325Y0054403D02*
X0175630Y0054403D01*
X0175630Y0054802D02*
X0172325Y0054802D01*
X0175630Y0055200D02*
X0164428Y0055200D01*
X0164075Y0055599D02*
X0175630Y0055599D01*
X0175630Y0055997D02*
X0163891Y0055997D01*
X0163830Y0056396D02*
X0175630Y0056396D01*
X0175630Y0056794D02*
X0163830Y0056794D01*
X0163830Y0057193D02*
X0175630Y0057193D01*
X0175630Y0057591D02*
X0163830Y0057591D01*
X0163830Y0057990D02*
X0175630Y0057990D01*
X0175630Y0058388D02*
X0163830Y0058388D01*
X0163830Y0058787D02*
X0175630Y0058787D01*
X0175630Y0059185D02*
X0163830Y0059185D01*
X0163847Y0059584D02*
X0175630Y0059584D01*
X0175630Y0059982D02*
X0163945Y0059982D01*
X0164205Y0060381D02*
X0175630Y0060381D01*
X0175630Y0060779D02*
X0164798Y0060779D01*
X0165330Y0075970D02*
X0165006Y0075995D01*
X0164696Y0076092D01*
X0164415Y0076255D01*
X0164178Y0076477D01*
X0163995Y0076746D01*
X0163877Y0077049D01*
X0163830Y0077370D01*
X0163830Y0080270D01*
X0163858Y0080616D01*
X0163962Y0080947D01*
X0164137Y0081247D01*
X0164374Y0081501D01*
X0164662Y0081695D01*
X0164986Y0081820D01*
X0165330Y0081870D01*
X0172286Y0081850D01*
X0172286Y0083750D01*
X0175630Y0083770D01*
X0175630Y0075870D01*
X0172230Y0075870D01*
X0165830Y0075970D01*
X0165330Y0075970D01*
X0164344Y0076321D02*
X0175630Y0076321D01*
X0175630Y0075923D02*
X0168848Y0075923D01*
X0164013Y0076720D02*
X0175630Y0076720D01*
X0175630Y0077118D02*
X0163867Y0077118D01*
X0163830Y0077517D02*
X0175630Y0077517D01*
X0175630Y0077915D02*
X0163830Y0077915D01*
X0163830Y0078314D02*
X0175630Y0078314D01*
X0175630Y0078712D02*
X0163830Y0078712D01*
X0163830Y0079111D02*
X0175630Y0079111D01*
X0175630Y0079509D02*
X0163830Y0079509D01*
X0163830Y0079908D02*
X0175630Y0079908D01*
X0175630Y0080306D02*
X0163833Y0080306D01*
X0163886Y0080705D02*
X0175630Y0080705D01*
X0175630Y0081103D02*
X0164053Y0081103D01*
X0164376Y0081502D02*
X0175630Y0081502D01*
X0175630Y0081901D02*
X0172286Y0081901D01*
X0172286Y0082299D02*
X0175630Y0082299D01*
X0175630Y0082698D02*
X0172286Y0082698D01*
X0172286Y0083096D02*
X0175630Y0083096D01*
X0175630Y0083495D02*
X0172286Y0083495D01*
X0057630Y0083495D02*
X0054286Y0083495D01*
X0054286Y0083750D02*
X0057630Y0083770D01*
X0057630Y0075870D01*
X0054230Y0075870D01*
X0047830Y0075970D01*
X0047330Y0075970D01*
X0047006Y0075995D01*
X0046696Y0076092D01*
X0046415Y0076255D01*
X0046178Y0076477D01*
X0045995Y0076746D01*
X0045877Y0077049D01*
X0045830Y0077370D01*
X0045830Y0080270D01*
X0045858Y0080616D01*
X0045962Y0080947D01*
X0046137Y0081247D01*
X0046374Y0081501D01*
X0046662Y0081695D01*
X0046986Y0081820D01*
X0047330Y0081870D01*
X0054286Y0081850D01*
X0054286Y0083750D01*
X0054286Y0083096D02*
X0057630Y0083096D01*
X0057630Y0082698D02*
X0054286Y0082698D01*
X0054286Y0082299D02*
X0057630Y0082299D01*
X0057630Y0081901D02*
X0054286Y0081901D01*
X0057630Y0081502D02*
X0046376Y0081502D01*
X0046053Y0081103D02*
X0057630Y0081103D01*
X0057630Y0080705D02*
X0045886Y0080705D01*
X0045833Y0080306D02*
X0057630Y0080306D01*
X0057630Y0079908D02*
X0045830Y0079908D01*
X0045830Y0079509D02*
X0057630Y0079509D01*
X0057630Y0079111D02*
X0045830Y0079111D01*
X0045830Y0078712D02*
X0057630Y0078712D01*
X0057630Y0078314D02*
X0045830Y0078314D01*
X0045830Y0077915D02*
X0057630Y0077915D01*
X0057630Y0077517D02*
X0045830Y0077517D01*
X0045867Y0077118D02*
X0057630Y0077118D01*
X0057630Y0076720D02*
X0046013Y0076720D01*
X0046344Y0076321D02*
X0057630Y0076321D01*
X0057630Y0075923D02*
X0050848Y0075923D01*
X0047230Y0060870D02*
X0057630Y0060970D01*
X0057630Y0053067D01*
X0054325Y0053067D01*
X0054325Y0054870D01*
X0047430Y0054870D01*
X0047084Y0054898D01*
X0046753Y0055002D01*
X0046453Y0055177D01*
X0046199Y0055415D01*
X0046005Y0055702D01*
X0045880Y0056026D01*
X0045830Y0056370D01*
X0045830Y0059370D01*
X0045855Y0059694D01*
X0045952Y0060004D01*
X0046115Y0060285D01*
X0046337Y0060522D01*
X0046606Y0060705D01*
X0046909Y0060823D01*
X0047230Y0060870D01*
X0046798Y0060779D02*
X0057630Y0060779D01*
X0057630Y0060381D02*
X0046205Y0060381D01*
X0045945Y0059982D02*
X0057630Y0059982D01*
X0057630Y0059584D02*
X0045847Y0059584D01*
X0045830Y0059185D02*
X0057630Y0059185D01*
X0057630Y0058787D02*
X0045830Y0058787D01*
X0045830Y0058388D02*
X0057630Y0058388D01*
X0057630Y0057990D02*
X0045830Y0057990D01*
X0045830Y0057591D02*
X0057630Y0057591D01*
X0057630Y0057193D02*
X0045830Y0057193D01*
X0045830Y0056794D02*
X0057630Y0056794D01*
X0057630Y0056396D02*
X0045830Y0056396D01*
X0045891Y0055997D02*
X0057630Y0055997D01*
X0057630Y0055599D02*
X0046075Y0055599D01*
X0046428Y0055200D02*
X0057630Y0055200D01*
X0057630Y0054802D02*
X0054325Y0054802D01*
X0054325Y0054403D02*
X0057630Y0054403D01*
X0057630Y0054005D02*
X0054325Y0054005D01*
X0054325Y0053606D02*
X0057630Y0053606D01*
X0057630Y0053208D02*
X0054325Y0053208D01*
D22*
X0125557Y0149661D03*
X0125557Y0152220D03*
X0125557Y0154780D03*
X0125557Y0157339D03*
X0113943Y0157339D03*
X0113943Y0154780D03*
X0113943Y0152220D03*
X0231943Y0152220D03*
X0231943Y0154780D03*
X0231943Y0157339D03*
X0243557Y0157339D03*
X0243557Y0154780D03*
X0243557Y0152220D03*
X0243557Y0149661D03*
X0349943Y0152220D03*
X0349943Y0154780D03*
X0349943Y0157339D03*
X0361557Y0157339D03*
X0361557Y0154780D03*
X0361557Y0152220D03*
X0361557Y0149661D03*
X0361557Y0351661D03*
X0361557Y0354220D03*
X0361557Y0356780D03*
X0361557Y0359339D03*
X0349943Y0359339D03*
X0349943Y0356780D03*
X0349943Y0354220D03*
X0243557Y0354220D03*
X0243557Y0351661D03*
X0243557Y0356780D03*
X0243557Y0359339D03*
X0231943Y0359339D03*
X0231943Y0356780D03*
X0231943Y0354220D03*
X0125557Y0354220D03*
X0125557Y0351661D03*
X0125557Y0356780D03*
X0125557Y0359339D03*
X0113943Y0359339D03*
X0113943Y0356780D03*
X0113943Y0354220D03*
D23*
X0119750Y0355500D03*
X0237750Y0355500D03*
X0355750Y0355500D03*
X0355750Y0153500D03*
X0237750Y0153500D03*
X0119750Y0153500D03*
D24*
X0115907Y0148681D02*
X0111979Y0148681D01*
X0111979Y0150641D01*
X0115907Y0150641D01*
X0115907Y0148681D01*
X0115907Y0148898D02*
X0111979Y0148898D01*
X0111979Y0149115D02*
X0115907Y0149115D01*
X0115907Y0149332D02*
X0111979Y0149332D01*
X0111979Y0149549D02*
X0115907Y0149549D01*
X0115907Y0149766D02*
X0111979Y0149766D01*
X0111979Y0149983D02*
X0115907Y0149983D01*
X0115907Y0150200D02*
X0111979Y0150200D01*
X0111979Y0150417D02*
X0115907Y0150417D01*
X0115907Y0150634D02*
X0111979Y0150634D01*
X0229979Y0148681D02*
X0233907Y0148681D01*
X0229979Y0148681D02*
X0229979Y0150641D01*
X0233907Y0150641D01*
X0233907Y0148681D01*
X0233907Y0148898D02*
X0229979Y0148898D01*
X0229979Y0149115D02*
X0233907Y0149115D01*
X0233907Y0149332D02*
X0229979Y0149332D01*
X0229979Y0149549D02*
X0233907Y0149549D01*
X0233907Y0149766D02*
X0229979Y0149766D01*
X0229979Y0149983D02*
X0233907Y0149983D01*
X0233907Y0150200D02*
X0229979Y0150200D01*
X0229979Y0150417D02*
X0233907Y0150417D01*
X0233907Y0150634D02*
X0229979Y0150634D01*
X0347979Y0148681D02*
X0351907Y0148681D01*
X0347979Y0148681D02*
X0347979Y0150641D01*
X0351907Y0150641D01*
X0351907Y0148681D01*
X0351907Y0148898D02*
X0347979Y0148898D01*
X0347979Y0149115D02*
X0351907Y0149115D01*
X0351907Y0149332D02*
X0347979Y0149332D01*
X0347979Y0149549D02*
X0351907Y0149549D01*
X0351907Y0149766D02*
X0347979Y0149766D01*
X0347979Y0149983D02*
X0351907Y0149983D01*
X0351907Y0150200D02*
X0347979Y0150200D01*
X0347979Y0150417D02*
X0351907Y0150417D01*
X0351907Y0150634D02*
X0347979Y0150634D01*
X0347979Y0350681D02*
X0351907Y0350681D01*
X0347979Y0350681D02*
X0347979Y0352641D01*
X0351907Y0352641D01*
X0351907Y0350681D01*
X0351907Y0350898D02*
X0347979Y0350898D01*
X0347979Y0351115D02*
X0351907Y0351115D01*
X0351907Y0351332D02*
X0347979Y0351332D01*
X0347979Y0351549D02*
X0351907Y0351549D01*
X0351907Y0351766D02*
X0347979Y0351766D01*
X0347979Y0351983D02*
X0351907Y0351983D01*
X0351907Y0352200D02*
X0347979Y0352200D01*
X0347979Y0352417D02*
X0351907Y0352417D01*
X0351907Y0352634D02*
X0347979Y0352634D01*
X0233907Y0350681D02*
X0229979Y0350681D01*
X0229979Y0352641D01*
X0233907Y0352641D01*
X0233907Y0350681D01*
X0233907Y0350898D02*
X0229979Y0350898D01*
X0229979Y0351115D02*
X0233907Y0351115D01*
X0233907Y0351332D02*
X0229979Y0351332D01*
X0229979Y0351549D02*
X0233907Y0351549D01*
X0233907Y0351766D02*
X0229979Y0351766D01*
X0229979Y0351983D02*
X0233907Y0351983D01*
X0233907Y0352200D02*
X0229979Y0352200D01*
X0229979Y0352417D02*
X0233907Y0352417D01*
X0233907Y0352634D02*
X0229979Y0352634D01*
X0115907Y0350681D02*
X0111979Y0350681D01*
X0111979Y0352641D01*
X0115907Y0352641D01*
X0115907Y0350681D01*
X0115907Y0350898D02*
X0111979Y0350898D01*
X0111979Y0351115D02*
X0115907Y0351115D01*
X0115907Y0351332D02*
X0111979Y0351332D01*
X0111979Y0351549D02*
X0115907Y0351549D01*
X0115907Y0351766D02*
X0111979Y0351766D01*
X0111979Y0351983D02*
X0115907Y0351983D01*
X0115907Y0352200D02*
X0111979Y0352200D01*
X0111979Y0352417D02*
X0115907Y0352417D01*
X0115907Y0352634D02*
X0111979Y0352634D01*
D25*
X0101350Y0330500D03*
X0098150Y0330500D03*
X0125750Y0275500D03*
X0129750Y0275500D03*
X0133750Y0275500D03*
X0216150Y0330500D03*
X0219350Y0330500D03*
X0243750Y0275500D03*
X0247750Y0275500D03*
X0251750Y0275500D03*
X0334150Y0330500D03*
X0337350Y0330500D03*
X0361750Y0275500D03*
X0365750Y0275500D03*
X0369750Y0275500D03*
X0337350Y0128500D03*
X0334150Y0128500D03*
X0361750Y0073500D03*
X0365750Y0073500D03*
X0369750Y0073500D03*
X0251750Y0073500D03*
X0247750Y0073500D03*
X0243750Y0073500D03*
X0219350Y0128500D03*
X0216150Y0128500D03*
X0133750Y0073500D03*
X0129750Y0073500D03*
X0125750Y0073500D03*
X0101350Y0128500D03*
X0098150Y0128500D03*
D26*
X0097250Y0119524D03*
X0092250Y0119524D03*
X0087250Y0119524D03*
X0082250Y0119524D03*
X0077250Y0119524D03*
X0077250Y0097476D03*
X0082250Y0097476D03*
X0087250Y0097476D03*
X0092250Y0097476D03*
X0097250Y0097476D03*
X0102250Y0097476D03*
X0107250Y0097476D03*
X0107250Y0119524D03*
X0102250Y0119524D03*
X0195250Y0119524D03*
X0200250Y0119524D03*
X0205250Y0119524D03*
X0210250Y0119524D03*
X0215250Y0119524D03*
X0220250Y0119524D03*
X0225250Y0119524D03*
X0225250Y0097476D03*
X0220250Y0097476D03*
X0215250Y0097476D03*
X0210250Y0097476D03*
X0205250Y0097476D03*
X0200250Y0097476D03*
X0195250Y0097476D03*
X0313250Y0097476D03*
X0318250Y0097476D03*
X0323250Y0097476D03*
X0328250Y0097476D03*
X0333250Y0097476D03*
X0338250Y0097476D03*
X0343250Y0097476D03*
X0343250Y0119524D03*
X0338250Y0119524D03*
X0333250Y0119524D03*
X0328250Y0119524D03*
X0323250Y0119524D03*
X0318250Y0119524D03*
X0313250Y0119524D03*
X0313250Y0299476D03*
X0318250Y0299476D03*
X0323250Y0299476D03*
X0328250Y0299476D03*
X0333250Y0299476D03*
X0338250Y0299476D03*
X0343250Y0299476D03*
X0343250Y0321524D03*
X0338250Y0321524D03*
X0333250Y0321524D03*
X0328250Y0321524D03*
X0323250Y0321524D03*
X0318250Y0321524D03*
X0313250Y0321524D03*
X0225250Y0321524D03*
X0220250Y0321524D03*
X0215250Y0321524D03*
X0210250Y0321524D03*
X0205250Y0321524D03*
X0200250Y0321524D03*
X0195250Y0321524D03*
X0195250Y0299476D03*
X0200250Y0299476D03*
X0205250Y0299476D03*
X0210250Y0299476D03*
X0215250Y0299476D03*
X0220250Y0299476D03*
X0225250Y0299476D03*
X0107250Y0299476D03*
X0102250Y0299476D03*
X0097250Y0299476D03*
X0092250Y0299476D03*
X0087250Y0299476D03*
X0082250Y0299476D03*
X0077250Y0299476D03*
X0077250Y0321524D03*
X0082250Y0321524D03*
X0087250Y0321524D03*
X0092250Y0321524D03*
X0097250Y0321524D03*
X0102250Y0321524D03*
X0107250Y0321524D03*
D27*
X0127000Y0276000D02*
X0132500Y0276000D01*
X0132500Y0275000D01*
X0127000Y0275000D01*
X0127000Y0276000D01*
X0127000Y0275762D02*
X0132500Y0275762D01*
X0132500Y0275263D02*
X0127000Y0275263D01*
X0245000Y0275263D02*
X0250500Y0275263D01*
X0250500Y0275000D02*
X0250500Y0276000D01*
X0245000Y0276000D01*
X0245000Y0275000D01*
X0250500Y0275000D01*
X0250500Y0275762D02*
X0245000Y0275762D01*
X0363000Y0275762D02*
X0368500Y0275762D01*
X0368500Y0276000D02*
X0368500Y0275000D01*
X0363000Y0275000D01*
X0363000Y0276000D01*
X0368500Y0276000D01*
X0368500Y0275263D02*
X0363000Y0275263D01*
X0363000Y0074000D02*
X0368500Y0074000D01*
X0368500Y0073000D01*
X0363000Y0073000D01*
X0363000Y0074000D01*
X0363000Y0073865D02*
X0368500Y0073865D01*
X0368500Y0073366D02*
X0363000Y0073366D01*
X0250500Y0073366D02*
X0245000Y0073366D01*
X0245000Y0073000D02*
X0245000Y0074000D01*
X0250500Y0074000D01*
X0250500Y0073000D01*
X0245000Y0073000D01*
X0245000Y0073865D02*
X0250500Y0073865D01*
X0132500Y0073865D02*
X0127000Y0073865D01*
X0127000Y0074000D02*
X0132500Y0074000D01*
X0132500Y0073000D01*
X0127000Y0073000D01*
X0127000Y0074000D01*
X0127000Y0073366D02*
X0132500Y0073366D01*
D28*
X0124750Y0123500D03*
X0114750Y0123500D03*
X0114750Y0133500D03*
X0114750Y0143500D03*
X0124750Y0143500D03*
X0124750Y0133500D03*
X0232750Y0133500D03*
X0232750Y0143500D03*
X0242750Y0143500D03*
X0242750Y0133500D03*
X0242750Y0123500D03*
X0232750Y0123500D03*
X0350750Y0123500D03*
X0360750Y0123500D03*
X0360750Y0133500D03*
X0360750Y0143500D03*
X0350750Y0143500D03*
X0350750Y0133500D03*
X0350750Y0325500D03*
X0360750Y0325500D03*
X0360750Y0335500D03*
X0360750Y0345500D03*
X0350750Y0345500D03*
X0350750Y0335500D03*
X0242750Y0335500D03*
X0242750Y0345500D03*
X0232750Y0345500D03*
X0232750Y0335500D03*
X0232750Y0325500D03*
X0242750Y0325500D03*
X0124750Y0325500D03*
X0114750Y0325500D03*
X0114750Y0335500D03*
X0114750Y0345500D03*
X0124750Y0345500D03*
X0124750Y0335500D03*
D29*
X0093419Y0342626D03*
X0093419Y0358374D03*
X0211419Y0358374D03*
X0211419Y0342626D03*
X0329419Y0342626D03*
X0329419Y0358374D03*
X0329419Y0156374D03*
X0329419Y0140626D03*
X0211419Y0140626D03*
X0211419Y0156374D03*
X0093419Y0156374D03*
X0093419Y0140626D03*
D30*
X0057002Y0140626D03*
X0057002Y0156374D03*
X0175002Y0156374D03*
X0175002Y0140626D03*
X0293002Y0140626D03*
X0293002Y0156374D03*
X0293002Y0342626D03*
X0293002Y0358374D03*
X0175002Y0358374D03*
X0175002Y0342626D03*
X0057002Y0342626D03*
X0057002Y0358374D03*
D31*
X0089238Y0372705D03*
X0084907Y0398295D03*
X0069159Y0398295D03*
X0057348Y0398295D03*
X0175348Y0398295D03*
X0187159Y0398295D03*
X0202907Y0398295D03*
X0207238Y0372705D03*
X0293348Y0398295D03*
X0305159Y0398295D03*
X0320907Y0398295D03*
X0325238Y0372705D03*
X0320907Y0196295D03*
X0305159Y0196295D03*
X0293348Y0196295D03*
X0325238Y0170705D03*
X0207238Y0170705D03*
X0202907Y0196295D03*
X0187159Y0196295D03*
X0175348Y0196295D03*
X0089238Y0170705D03*
X0084907Y0196295D03*
X0069159Y0196295D03*
X0057348Y0196295D03*
D32*
X0051049Y0183500D03*
X0078608Y0183500D03*
X0169049Y0183500D03*
X0196608Y0183500D03*
X0287049Y0183500D03*
X0314608Y0183500D03*
X0314608Y0385500D03*
X0287049Y0385500D03*
X0196608Y0385500D03*
X0169049Y0385500D03*
X0078608Y0385500D03*
X0051049Y0385500D03*
D33*
X0087750Y0438750D03*
X0337750Y0438750D03*
D34*
X0084185Y0020250D02*
X0084187Y0020369D01*
X0084193Y0020488D01*
X0084203Y0020607D01*
X0084217Y0020725D01*
X0084235Y0020843D01*
X0084256Y0020960D01*
X0084282Y0021076D01*
X0084312Y0021192D01*
X0084345Y0021306D01*
X0084382Y0021419D01*
X0084423Y0021531D01*
X0084468Y0021642D01*
X0084516Y0021751D01*
X0084568Y0021858D01*
X0084624Y0021963D01*
X0084683Y0022067D01*
X0084745Y0022168D01*
X0084811Y0022268D01*
X0084880Y0022365D01*
X0084952Y0022459D01*
X0085028Y0022552D01*
X0085106Y0022641D01*
X0085187Y0022728D01*
X0085272Y0022813D01*
X0085359Y0022894D01*
X0085448Y0022972D01*
X0085541Y0023048D01*
X0085635Y0023120D01*
X0085732Y0023189D01*
X0085832Y0023255D01*
X0085933Y0023317D01*
X0086037Y0023376D01*
X0086142Y0023432D01*
X0086249Y0023484D01*
X0086358Y0023532D01*
X0086469Y0023577D01*
X0086581Y0023618D01*
X0086694Y0023655D01*
X0086808Y0023688D01*
X0086924Y0023718D01*
X0087040Y0023744D01*
X0087157Y0023765D01*
X0087275Y0023783D01*
X0087393Y0023797D01*
X0087512Y0023807D01*
X0087631Y0023813D01*
X0087750Y0023815D01*
X0087869Y0023813D01*
X0087988Y0023807D01*
X0088107Y0023797D01*
X0088225Y0023783D01*
X0088343Y0023765D01*
X0088460Y0023744D01*
X0088576Y0023718D01*
X0088692Y0023688D01*
X0088806Y0023655D01*
X0088919Y0023618D01*
X0089031Y0023577D01*
X0089142Y0023532D01*
X0089251Y0023484D01*
X0089358Y0023432D01*
X0089463Y0023376D01*
X0089567Y0023317D01*
X0089668Y0023255D01*
X0089768Y0023189D01*
X0089865Y0023120D01*
X0089959Y0023048D01*
X0090052Y0022972D01*
X0090141Y0022894D01*
X0090228Y0022813D01*
X0090313Y0022728D01*
X0090394Y0022641D01*
X0090472Y0022552D01*
X0090548Y0022459D01*
X0090620Y0022365D01*
X0090689Y0022268D01*
X0090755Y0022168D01*
X0090817Y0022067D01*
X0090876Y0021963D01*
X0090932Y0021858D01*
X0090984Y0021751D01*
X0091032Y0021642D01*
X0091077Y0021531D01*
X0091118Y0021419D01*
X0091155Y0021306D01*
X0091188Y0021192D01*
X0091218Y0021076D01*
X0091244Y0020960D01*
X0091265Y0020843D01*
X0091283Y0020725D01*
X0091297Y0020607D01*
X0091307Y0020488D01*
X0091313Y0020369D01*
X0091315Y0020250D01*
X0091313Y0020131D01*
X0091307Y0020012D01*
X0091297Y0019893D01*
X0091283Y0019775D01*
X0091265Y0019657D01*
X0091244Y0019540D01*
X0091218Y0019424D01*
X0091188Y0019308D01*
X0091155Y0019194D01*
X0091118Y0019081D01*
X0091077Y0018969D01*
X0091032Y0018858D01*
X0090984Y0018749D01*
X0090932Y0018642D01*
X0090876Y0018537D01*
X0090817Y0018433D01*
X0090755Y0018332D01*
X0090689Y0018232D01*
X0090620Y0018135D01*
X0090548Y0018041D01*
X0090472Y0017948D01*
X0090394Y0017859D01*
X0090313Y0017772D01*
X0090228Y0017687D01*
X0090141Y0017606D01*
X0090052Y0017528D01*
X0089959Y0017452D01*
X0089865Y0017380D01*
X0089768Y0017311D01*
X0089668Y0017245D01*
X0089567Y0017183D01*
X0089463Y0017124D01*
X0089358Y0017068D01*
X0089251Y0017016D01*
X0089142Y0016968D01*
X0089031Y0016923D01*
X0088919Y0016882D01*
X0088806Y0016845D01*
X0088692Y0016812D01*
X0088576Y0016782D01*
X0088460Y0016756D01*
X0088343Y0016735D01*
X0088225Y0016717D01*
X0088107Y0016703D01*
X0087988Y0016693D01*
X0087869Y0016687D01*
X0087750Y0016685D01*
X0087631Y0016687D01*
X0087512Y0016693D01*
X0087393Y0016703D01*
X0087275Y0016717D01*
X0087157Y0016735D01*
X0087040Y0016756D01*
X0086924Y0016782D01*
X0086808Y0016812D01*
X0086694Y0016845D01*
X0086581Y0016882D01*
X0086469Y0016923D01*
X0086358Y0016968D01*
X0086249Y0017016D01*
X0086142Y0017068D01*
X0086037Y0017124D01*
X0085933Y0017183D01*
X0085832Y0017245D01*
X0085732Y0017311D01*
X0085635Y0017380D01*
X0085541Y0017452D01*
X0085448Y0017528D01*
X0085359Y0017606D01*
X0085272Y0017687D01*
X0085187Y0017772D01*
X0085106Y0017859D01*
X0085028Y0017948D01*
X0084952Y0018041D01*
X0084880Y0018135D01*
X0084811Y0018232D01*
X0084745Y0018332D01*
X0084683Y0018433D01*
X0084624Y0018537D01*
X0084568Y0018642D01*
X0084516Y0018749D01*
X0084468Y0018858D01*
X0084423Y0018969D01*
X0084382Y0019081D01*
X0084345Y0019194D01*
X0084312Y0019308D01*
X0084282Y0019424D01*
X0084256Y0019540D01*
X0084235Y0019657D01*
X0084217Y0019775D01*
X0084203Y0019893D01*
X0084193Y0020012D01*
X0084187Y0020131D01*
X0084185Y0020250D01*
D35*
X0087750Y0020250D03*
M02*
