M48
;GenerationSoftware,Autodesk,EAGLE,9.6.2*%
;CreationDate,2021-09-23T19:43:43Z*%
FMAT,2
ICI,OFF
METRIC,TZ,000.000
T7C0.305
T6C0.400
T5C0.508
T4C0.650
T3C1.016
T2C1.200
T1C3.302
%
G90
M71
T1
X2540Y53848
X83820Y48260
X2540Y48260
X22860Y48260
X2540Y2540
X22860Y2540
X83820Y99568
X22860Y53848
X53340Y53848
X63500Y53848
X33020Y48260
X53340Y48260
X33020Y2540
X53340Y2540
X83820Y53848
X33020Y99568
X53340Y99568
X33020Y53848
X63500Y48260
X63500Y2540
X83820Y2540
X63500Y99568
X2540Y99568
X22860Y99568
T2
X1600Y39370
X8600Y39370
X32080Y90678
X32080Y39370
X39080Y39370
X39080Y90678
X62560Y90678
X69560Y90678
X62560Y39370
X69560Y39370
X1600Y90678
X8600Y90678
T3
X45720Y93218
X45720Y90678
X45720Y88138
X45720Y84328
X45720Y81788
X46990Y100838
X8890Y98298
X44450Y100838
X41910Y100838
X39370Y100838
X46990Y98298
X44450Y98298
X41910Y98298
X6350Y1270
X8890Y1270
X11430Y1270
X13970Y1270
X16510Y1270
X19050Y1270
X15240Y41910
X15240Y39370
X15240Y36830
X15240Y33020
X15240Y30480
X16510Y49530
X13970Y49530
X11430Y49530
X8890Y49530
X16510Y46990
X13970Y46990
X11430Y46990
X8890Y46990
X39370Y98298
X67310Y52578
X69850Y52578
X72390Y52578
X74930Y52578
X77470Y52578
X80010Y52578
X76200Y93218
X76200Y90678
X76200Y88138
X36830Y1270
X39370Y1270
X41910Y1270
X44450Y1270
X46990Y1270
X49530Y1270
X45720Y41910
X45720Y39370
X45720Y36830
X45720Y33020
X45720Y30480
X46990Y49530
X44450Y49530
X41910Y49530
X39370Y49530
X46990Y46990
X44450Y46990
X41910Y46990
X39370Y46990
X76200Y84328
X76200Y81788
X77470Y100838
X74930Y100838
X72390Y100838
X69850Y100838
X77470Y98298
X74930Y98298
X72390Y98298
X69850Y98298
X67310Y1270
X69850Y1270
X72390Y1270
X74930Y1270
X77470Y1270
X80010Y1270
X76200Y41910
X76200Y39370
X76200Y36830
X76200Y33020
X76200Y30480
X77470Y49530
X74930Y49530
X72390Y49530
X69850Y49530
X77470Y46990
X74930Y46990
X72390Y46990
X69850Y46990
X6350Y52578
X8890Y52578
X11430Y52578
X13970Y52578
X16510Y52578
X19050Y52578
X15240Y93218
X15240Y90678
X15240Y88138
X15240Y84328
X15240Y81788
X16510Y100838
X13970Y100838
X11430Y100838
X8890Y100838
X16510Y98298
X13970Y98298
X11430Y98298
X36830Y52578
X39370Y52578
X41910Y52578
X44450Y52578
X46990Y52578
X49530Y52578
T4
X4905Y13050
X4905Y7270
X35385Y13050
X35385Y7270
X65865Y13050
X65865Y7270
X4905Y64358
X4905Y58578
X35385Y64358
X35385Y58578
X65865Y64358
X65865Y58578
T5
X20320Y29210
X17780Y29210
X20320Y26670
X17780Y26670
X20320Y24130
X17780Y24130
X20320Y77978
X17780Y77978
X20320Y75438
X17780Y75438
X50800Y29210
X48260Y29210
X50800Y26670
X48260Y26670
X50800Y24130
X48260Y24130
X78740Y80518
X81280Y77978
X78740Y77978
X81280Y75438
X78740Y75438
X50800Y80518
X48260Y80518
X50800Y77978
X48260Y77978
X50800Y75438
X48260Y75438
X81280Y29210
X78740Y29210
X81280Y26670
X78740Y26670
X81280Y24130
X78740Y24130
X81280Y80518
X20320Y80518
X17780Y80518
T6
X1255Y14478
X1255Y5842
X5435Y5842
X5435Y14478
X31735Y14478
X31735Y5842
X35915Y5842
X35915Y14478
X5435Y57150
X35915Y65786
X5435Y65786
X66395Y5842
X1255Y65786
X1255Y57150
X62215Y5842
X62215Y14478
X66395Y14478
X31735Y65786
X31735Y57150
X35915Y57150
X62215Y65786
X62215Y57150
X66395Y57150
X66395Y65786
T7
X49530Y77978
X45847Y77343
X45720Y55753
X48133Y61595
X49530Y65278
X33020Y58928
X33020Y64262
X33020Y61468
X47625Y67818
X49530Y83058
X49530Y84328
X49530Y81788
X47498Y65532
X41402Y70231
X52070Y73152
X52070Y70358
X38862Y71882
X50800Y56896
X49530Y72898
X50659Y55767
X50927Y65278
X40640Y70104
X35560Y82042
X39370Y82042
X54610Y65278
X41910Y72898
X40640Y65278
X50800Y85598
X50800Y88646
X49276Y57785
X37719Y62230
X37592Y60706
X42418Y67437
X53340Y81788
X41123Y61468
X44450Y66040
X44958Y61468
X46355Y63094
X52070Y91948
X53340Y88392
X38735Y75565
X36830Y77470
X46228Y79248
X44450Y73025
X40640Y75565
X35179Y59563
X33020Y62738
X51435Y77089
X82550Y59182
X77470Y83058
X76200Y61468
X47625Y16510
X64643Y70231
X81534Y69088
X80010Y77978
X76327Y77343
X76200Y55753
X78613Y61595
X80010Y65278
X63500Y58928
X63500Y64262
X63500Y61468
X78105Y67818
X80010Y83058
X80010Y84328
X80010Y81788
X77978Y65532
X71882Y70231
X82550Y73152
X82550Y70358
X69342Y71882
X81280Y56896
X80010Y72898
X81139Y55767
X81407Y65278
X71120Y70104
X66040Y82042
X69850Y82042
X85090Y65278
X72390Y72898
X71120Y65278
X81280Y85598
X81280Y88646
X79756Y57785
X68199Y62230
X68072Y60706
X72898Y67437
X83820Y81788
X71603Y61468
X74930Y66040
X75438Y61468
X76835Y63094
X82550Y91948
X83820Y88392
X69215Y75565
X67310Y77470
X76708Y79248
X74930Y73025
X71120Y75565
X65659Y59563
X63500Y62738
X81915Y77089
X21590Y7874
X16510Y31750
X15240Y10160
X3810Y22225
X3683Y18923
X20574Y17780
X19050Y26670
X15367Y26035
X15240Y4445
X17653Y10287
X19050Y13970
X2540Y7620
X2540Y12954
X2540Y10160
X17145Y16510
X19050Y31750
X19050Y33020
X64770Y73533
X19050Y30480
X17018Y14224
X10922Y18923
X21590Y21844
X21590Y19050
X8382Y20574
X20320Y5588
X19050Y21590
X20179Y4459
X20447Y13970
X10160Y18796
X5080Y30734
X8890Y30734
X24130Y13970
X11430Y21590
X10160Y13970
X20320Y34290
X20320Y37338
X18796Y6477
X7239Y10922
X7112Y9398
X11938Y16129
X22860Y30480
X10643Y10160
X13970Y14732
X14478Y10160
X15875Y11786
X21590Y40640
X22860Y37084
X8255Y24257
X6350Y26162
X15748Y27940
X13970Y21717
X10160Y24257
X4699Y8255
X2540Y11430
X20955Y25781
X52070Y7874
X46990Y31750
X45720Y10160
X34290Y22225
X34163Y18923
X51054Y17780
X49530Y26670
X45847Y26035
X45720Y4445
X48133Y10287
X49530Y13970
X33020Y7620
X33020Y12954
X33020Y10160
X49530Y31750
X49530Y33020
X49530Y30480
X47498Y14224
X41402Y18923
X52070Y21844
X52070Y19050
X38862Y20574
X50800Y5588
X49530Y21590
X50659Y4459
X50927Y13970
X40640Y18796
X35560Y30734
X39370Y30734
X54610Y13970
X41910Y21590
X40640Y13970
X50800Y34290
X50800Y37338
X49276Y6477
X37719Y10922
X37592Y9398
X42418Y16129
X53340Y30480
X41123Y10160
X44450Y14732
X44958Y10160
X46355Y11786
X52070Y40640
X53340Y37084
X38735Y24257
X36830Y26162
X46228Y27940
X44450Y21717
X40640Y24257
X35179Y8255
X33020Y11430
X51435Y25781
X82550Y7874
X77470Y31750
X76200Y10160
X64770Y22225
X64643Y18923
X81534Y17780
X80010Y26670
X76327Y26035
X76200Y4445
X78613Y10287
X80010Y13970
X63500Y7620
X63500Y12954
X63500Y10160
X78105Y16510
X80010Y31750
X80010Y33020
X80010Y30480
X77978Y14224
X71882Y18923
X82550Y21844
X82550Y19050
X69342Y20574
X81280Y5588
X80010Y21590
X81139Y4459
X81407Y13970
X71120Y18796
X66040Y30734
X69850Y30734
X85090Y13970
X72390Y21590
X71120Y13970
X81280Y34290
X81280Y37338
X79756Y6477
X68199Y10922
X68072Y9398
X72898Y16129
X83820Y30480
X71603Y10160
X74930Y14732
X75438Y10160
X76835Y11786
X82550Y40640
X15875Y63094
X83820Y37084
X69215Y24257
X67310Y26162
X76708Y27940
X74930Y21717
X71120Y24257
X65659Y8255
X63500Y11430
X81915Y25781
X21590Y59182
X16510Y83058
X15240Y61468
X3810Y73533
X3683Y70231
X20574Y69088
X19050Y77978
X15367Y77343
X15240Y55753
X17653Y61595
X19050Y65278
X2540Y58928
X2540Y64262
X2540Y61468
X17145Y67818
X19050Y83058
X19050Y84328
X19050Y81788
X17018Y65532
X10922Y70231
X21590Y73152
X21590Y70358
X8382Y71882
X20320Y56896
X19050Y72898
X20179Y55767
X20447Y65278
X10160Y70104
X5080Y82042
X8890Y82042
X24130Y65278
X11430Y72898
X10160Y65278
X20320Y85598
X20320Y88646
X18796Y57785
X7239Y62230
X7112Y60706
X11938Y67437
X22860Y81788
X10643Y61468
X13970Y66040
X14478Y61468
X21590Y91948
X22860Y88392
X8255Y75565
X6350Y77470
X15748Y79248
X13970Y73025
X10160Y75565
X4699Y59563
X2540Y62738
X20955Y77089
X52070Y59182
X46990Y83058
X45720Y61468
X34290Y73533
X34163Y70231
X51054Y69088
M30