G04 EAGLE Gerber RS-274X export*
G75*
%MOMM*%
%FSLAX34Y34*%
%LPD*%
%INSolderpaste Bottom*%
%IPPOS*%
%AMOC8*
5,1,8,0,0,1.08239X$1,22.5*%
G01*
%ADD10C,0.099000*%
%ADD11C,0.100000*%
%ADD12C,0.105000*%
%ADD13C,0.096000*%
%ADD14C,0.098000*%
%ADD15C,0.102000*%


D10*
X195704Y94355D02*
X195704Y89845D01*
X184694Y89845D01*
X184694Y94355D01*
X195704Y94355D01*
X195704Y90785D02*
X184694Y90785D01*
X184694Y91725D02*
X195704Y91725D01*
X195704Y92665D02*
X184694Y92665D01*
X184694Y93605D02*
X195704Y93605D01*
X195704Y99345D02*
X195704Y103855D01*
X195704Y99345D02*
X184694Y99345D01*
X184694Y103855D01*
X195704Y103855D01*
X195704Y100285D02*
X184694Y100285D01*
X184694Y101225D02*
X195704Y101225D01*
X195704Y102165D02*
X184694Y102165D01*
X184694Y103105D02*
X195704Y103105D01*
X195704Y108845D02*
X195704Y113355D01*
X195704Y108845D02*
X184694Y108845D01*
X184694Y113355D01*
X195704Y113355D01*
X195704Y109785D02*
X184694Y109785D01*
X184694Y110725D02*
X195704Y110725D01*
X195704Y111665D02*
X184694Y111665D01*
X184694Y112605D02*
X195704Y112605D01*
X221706Y113355D02*
X221706Y108845D01*
X210696Y108845D01*
X210696Y113355D01*
X221706Y113355D01*
X221706Y109785D02*
X210696Y109785D01*
X210696Y110725D02*
X221706Y110725D01*
X221706Y111665D02*
X210696Y111665D01*
X210696Y112605D02*
X221706Y112605D01*
X221706Y94355D02*
X221706Y89845D01*
X210696Y89845D01*
X210696Y94355D01*
X221706Y94355D01*
X221706Y90785D02*
X210696Y90785D01*
X210696Y91725D02*
X221706Y91725D01*
X221706Y92665D02*
X210696Y92665D01*
X210696Y93605D02*
X221706Y93605D01*
D11*
X216700Y131500D02*
X206700Y131500D01*
X216700Y131500D02*
X216700Y122500D01*
X206700Y122500D01*
X206700Y131500D01*
X206700Y123450D02*
X216700Y123450D01*
X216700Y124400D02*
X206700Y124400D01*
X206700Y125350D02*
X216700Y125350D01*
X216700Y126300D02*
X206700Y126300D01*
X206700Y127250D02*
X216700Y127250D01*
X216700Y128200D02*
X206700Y128200D01*
X206700Y129150D02*
X216700Y129150D01*
X216700Y130100D02*
X206700Y130100D01*
X206700Y131050D02*
X216700Y131050D01*
X199700Y131500D02*
X189700Y131500D01*
X199700Y131500D02*
X199700Y122500D01*
X189700Y122500D01*
X189700Y131500D01*
X189700Y123450D02*
X199700Y123450D01*
X199700Y124400D02*
X189700Y124400D01*
X189700Y125350D02*
X199700Y125350D01*
X199700Y126300D02*
X189700Y126300D01*
X189700Y127250D02*
X199700Y127250D01*
X199700Y128200D02*
X189700Y128200D01*
X189700Y129150D02*
X199700Y129150D01*
X199700Y130100D02*
X189700Y130100D01*
X189700Y131050D02*
X199700Y131050D01*
X33600Y115100D02*
X33600Y105100D01*
X33600Y115100D02*
X42600Y115100D01*
X42600Y105100D01*
X33600Y105100D01*
X33600Y106050D02*
X42600Y106050D01*
X42600Y107000D02*
X33600Y107000D01*
X33600Y107950D02*
X42600Y107950D01*
X42600Y108900D02*
X33600Y108900D01*
X33600Y109850D02*
X42600Y109850D01*
X42600Y110800D02*
X33600Y110800D01*
X33600Y111750D02*
X42600Y111750D01*
X42600Y112700D02*
X33600Y112700D01*
X33600Y113650D02*
X42600Y113650D01*
X42600Y114600D02*
X33600Y114600D01*
X33600Y98100D02*
X33600Y88100D01*
X33600Y98100D02*
X42600Y98100D01*
X42600Y88100D01*
X33600Y88100D01*
X33600Y89050D02*
X42600Y89050D01*
X42600Y90000D02*
X33600Y90000D01*
X33600Y90950D02*
X42600Y90950D01*
X42600Y91900D02*
X33600Y91900D01*
X33600Y92850D02*
X42600Y92850D01*
X42600Y93800D02*
X33600Y93800D01*
X33600Y94750D02*
X42600Y94750D01*
X42600Y95700D02*
X33600Y95700D01*
X33600Y96650D02*
X42600Y96650D01*
X42600Y97600D02*
X33600Y97600D01*
X17200Y79050D02*
X17200Y69050D01*
X8200Y69050D01*
X8200Y79050D01*
X17200Y79050D01*
X17200Y70000D02*
X8200Y70000D01*
X8200Y70950D02*
X17200Y70950D01*
X17200Y71900D02*
X8200Y71900D01*
X8200Y72850D02*
X17200Y72850D01*
X17200Y73800D02*
X8200Y73800D01*
X8200Y74750D02*
X17200Y74750D01*
X17200Y75700D02*
X8200Y75700D01*
X8200Y76650D02*
X17200Y76650D01*
X17200Y77600D02*
X8200Y77600D01*
X8200Y78550D02*
X17200Y78550D01*
X17200Y86050D02*
X17200Y96050D01*
X17200Y86050D02*
X8200Y86050D01*
X8200Y96050D01*
X17200Y96050D01*
X17200Y87000D02*
X8200Y87000D01*
X8200Y87950D02*
X17200Y87950D01*
X17200Y88900D02*
X8200Y88900D01*
X8200Y89850D02*
X17200Y89850D01*
X17200Y90800D02*
X8200Y90800D01*
X8200Y91750D02*
X17200Y91750D01*
X17200Y92700D02*
X8200Y92700D01*
X8200Y93650D02*
X17200Y93650D01*
X17200Y94600D02*
X8200Y94600D01*
X8200Y95550D02*
X17200Y95550D01*
X8200Y124150D02*
X8200Y134150D01*
X17200Y134150D01*
X17200Y124150D01*
X8200Y124150D01*
X8200Y125100D02*
X17200Y125100D01*
X17200Y126050D02*
X8200Y126050D01*
X8200Y127000D02*
X17200Y127000D01*
X17200Y127950D02*
X8200Y127950D01*
X8200Y128900D02*
X17200Y128900D01*
X17200Y129850D02*
X8200Y129850D01*
X8200Y130800D02*
X17200Y130800D01*
X17200Y131750D02*
X8200Y131750D01*
X8200Y132700D02*
X17200Y132700D01*
X17200Y133650D02*
X8200Y133650D01*
X8200Y117150D02*
X8200Y107150D01*
X8200Y117150D02*
X17200Y117150D01*
X17200Y107150D01*
X8200Y107150D01*
X8200Y108100D02*
X17200Y108100D01*
X17200Y109050D02*
X8200Y109050D01*
X8200Y110000D02*
X17200Y110000D01*
X17200Y110950D02*
X8200Y110950D01*
X8200Y111900D02*
X17200Y111900D01*
X17200Y112850D02*
X8200Y112850D01*
X8200Y113800D02*
X17200Y113800D01*
X17200Y114750D02*
X8200Y114750D01*
X8200Y115700D02*
X17200Y115700D01*
X17200Y116650D02*
X8200Y116650D01*
D12*
X139435Y226125D02*
X154385Y226125D01*
X139435Y226125D02*
X139435Y232075D01*
X154385Y232075D01*
X154385Y226125D01*
X154385Y227122D02*
X139435Y227122D01*
X139435Y228119D02*
X154385Y228119D01*
X154385Y229116D02*
X139435Y229116D01*
X139435Y230113D02*
X154385Y230113D01*
X154385Y231110D02*
X139435Y231110D01*
X139435Y237125D02*
X154385Y237125D01*
X139435Y237125D02*
X139435Y243075D01*
X154385Y243075D01*
X154385Y237125D01*
X154385Y238122D02*
X139435Y238122D01*
X139435Y239119D02*
X154385Y239119D01*
X154385Y240116D02*
X139435Y240116D01*
X139435Y241113D02*
X154385Y241113D01*
X154385Y242110D02*
X139435Y242110D01*
X139435Y248125D02*
X154385Y248125D01*
X139435Y248125D02*
X139435Y254075D01*
X154385Y254075D01*
X154385Y248125D01*
X154385Y249122D02*
X139435Y249122D01*
X139435Y250119D02*
X154385Y250119D01*
X154385Y251116D02*
X139435Y251116D01*
X139435Y252113D02*
X154385Y252113D01*
X154385Y253110D02*
X139435Y253110D01*
X139435Y215125D02*
X154385Y215125D01*
X139435Y215125D02*
X139435Y221075D01*
X154385Y221075D01*
X154385Y215125D01*
X154385Y216122D02*
X139435Y216122D01*
X139435Y217119D02*
X154385Y217119D01*
X154385Y218116D02*
X139435Y218116D01*
X139435Y219113D02*
X154385Y219113D01*
X154385Y220110D02*
X139435Y220110D01*
X139435Y204125D02*
X154385Y204125D01*
X139435Y204125D02*
X139435Y210075D01*
X154385Y210075D01*
X154385Y204125D01*
X154385Y205122D02*
X139435Y205122D01*
X139435Y206119D02*
X154385Y206119D01*
X154385Y207116D02*
X139435Y207116D01*
X139435Y208113D02*
X154385Y208113D01*
X154385Y209110D02*
X139435Y209110D01*
X139435Y193125D02*
X154385Y193125D01*
X139435Y193125D02*
X139435Y199075D01*
X154385Y199075D01*
X154385Y193125D01*
X154385Y194122D02*
X139435Y194122D01*
X139435Y195119D02*
X154385Y195119D01*
X154385Y196116D02*
X139435Y196116D01*
X139435Y197113D02*
X154385Y197113D01*
X154385Y198110D02*
X139435Y198110D01*
X139435Y182125D02*
X154385Y182125D01*
X139435Y182125D02*
X139435Y188075D01*
X154385Y188075D01*
X154385Y182125D01*
X154385Y183122D02*
X139435Y183122D01*
X139435Y184119D02*
X154385Y184119D01*
X154385Y185116D02*
X139435Y185116D01*
X139435Y186113D02*
X154385Y186113D01*
X154385Y187110D02*
X139435Y187110D01*
X139435Y171125D02*
X154385Y171125D01*
X139435Y171125D02*
X139435Y177075D01*
X154385Y177075D01*
X154385Y171125D01*
X154385Y172122D02*
X139435Y172122D01*
X139435Y173119D02*
X154385Y173119D01*
X154385Y174116D02*
X139435Y174116D01*
X139435Y175113D02*
X154385Y175113D01*
X154385Y176110D02*
X139435Y176110D01*
X139435Y160125D02*
X154385Y160125D01*
X139435Y160125D02*
X139435Y166075D01*
X154385Y166075D01*
X154385Y160125D01*
X154385Y161122D02*
X139435Y161122D01*
X139435Y162119D02*
X154385Y162119D01*
X154385Y163116D02*
X139435Y163116D01*
X139435Y164113D02*
X154385Y164113D01*
X154385Y165110D02*
X139435Y165110D01*
D13*
X56430Y300580D02*
X56430Y311620D01*
X56430Y300580D02*
X35390Y300580D01*
X35390Y311620D01*
X56430Y311620D01*
X56430Y301492D02*
X35390Y301492D01*
X35390Y302404D02*
X56430Y302404D01*
X56430Y303316D02*
X35390Y303316D01*
X35390Y304228D02*
X56430Y304228D01*
X56430Y305140D02*
X35390Y305140D01*
X35390Y306052D02*
X56430Y306052D01*
X56430Y306964D02*
X35390Y306964D01*
X35390Y307876D02*
X56430Y307876D01*
X56430Y308788D02*
X35390Y308788D01*
X35390Y309700D02*
X56430Y309700D01*
X56430Y310612D02*
X35390Y310612D01*
X35390Y311524D02*
X56430Y311524D01*
X56430Y156620D02*
X56430Y145580D01*
X35390Y145580D01*
X35390Y156620D01*
X56430Y156620D01*
X56430Y146492D02*
X35390Y146492D01*
X35390Y147404D02*
X56430Y147404D01*
X56430Y148316D02*
X35390Y148316D01*
X35390Y149228D02*
X56430Y149228D01*
X56430Y150140D02*
X35390Y150140D01*
X35390Y151052D02*
X56430Y151052D01*
X56430Y151964D02*
X35390Y151964D01*
X35390Y152876D02*
X56430Y152876D01*
X56430Y153788D02*
X35390Y153788D01*
X35390Y154700D02*
X56430Y154700D01*
X56430Y155612D02*
X35390Y155612D01*
X35390Y156524D02*
X56430Y156524D01*
D14*
X148420Y289590D02*
X148420Y304610D01*
X148420Y289590D02*
X135400Y289590D01*
X135400Y304610D01*
X148420Y304610D01*
X148420Y290521D02*
X135400Y290521D01*
X135400Y291452D02*
X148420Y291452D01*
X148420Y292383D02*
X135400Y292383D01*
X135400Y293314D02*
X148420Y293314D01*
X148420Y294245D02*
X135400Y294245D01*
X135400Y295176D02*
X148420Y295176D01*
X148420Y296107D02*
X135400Y296107D01*
X135400Y297038D02*
X148420Y297038D01*
X148420Y297969D02*
X135400Y297969D01*
X135400Y298900D02*
X148420Y298900D01*
X148420Y299831D02*
X135400Y299831D01*
X135400Y300762D02*
X148420Y300762D01*
X148420Y301693D02*
X135400Y301693D01*
X135400Y302624D02*
X148420Y302624D01*
X148420Y303555D02*
X135400Y303555D01*
X135400Y304486D02*
X148420Y304486D01*
D13*
X148430Y156620D02*
X148430Y145580D01*
X133390Y145580D01*
X133390Y156620D01*
X148430Y156620D01*
X148430Y146492D02*
X133390Y146492D01*
X133390Y147404D02*
X148430Y147404D01*
X148430Y148316D02*
X133390Y148316D01*
X133390Y149228D02*
X148430Y149228D01*
X148430Y150140D02*
X133390Y150140D01*
X133390Y151052D02*
X148430Y151052D01*
X148430Y151964D02*
X133390Y151964D01*
X133390Y152876D02*
X148430Y152876D01*
X148430Y153788D02*
X133390Y153788D01*
X133390Y154700D02*
X148430Y154700D01*
X148430Y155612D02*
X133390Y155612D01*
X133390Y156524D02*
X148430Y156524D01*
D15*
X168960Y79090D02*
X173940Y79090D01*
X173940Y68110D01*
X168960Y68110D01*
X168960Y79090D01*
X168960Y69079D02*
X173940Y69079D01*
X173940Y70048D02*
X168960Y70048D01*
X168960Y71017D02*
X173940Y71017D01*
X173940Y71986D02*
X168960Y71986D01*
X168960Y72955D02*
X173940Y72955D01*
X173940Y73924D02*
X168960Y73924D01*
X168960Y74893D02*
X173940Y74893D01*
X173940Y75862D02*
X168960Y75862D01*
X168960Y76831D02*
X173940Y76831D01*
X173940Y77800D02*
X168960Y77800D01*
X168960Y78769D02*
X173940Y78769D01*
X161240Y79090D02*
X156260Y79090D01*
X161240Y79090D02*
X161240Y68110D01*
X156260Y68110D01*
X156260Y79090D01*
X156260Y69079D02*
X161240Y69079D01*
X161240Y70048D02*
X156260Y70048D01*
X156260Y71017D02*
X161240Y71017D01*
X161240Y71986D02*
X156260Y71986D01*
X156260Y72955D02*
X161240Y72955D01*
X161240Y73924D02*
X156260Y73924D01*
X156260Y74893D02*
X161240Y74893D01*
X161240Y75862D02*
X156260Y75862D01*
X156260Y76831D02*
X161240Y76831D01*
X161240Y77800D02*
X156260Y77800D01*
X156260Y78769D02*
X161240Y78769D01*
X148540Y79090D02*
X143560Y79090D01*
X148540Y79090D02*
X148540Y68110D01*
X143560Y68110D01*
X143560Y79090D01*
X143560Y69079D02*
X148540Y69079D01*
X148540Y70048D02*
X143560Y70048D01*
X143560Y71017D02*
X148540Y71017D01*
X148540Y71986D02*
X143560Y71986D01*
X143560Y72955D02*
X148540Y72955D01*
X148540Y73924D02*
X143560Y73924D01*
X143560Y74893D02*
X148540Y74893D01*
X148540Y75862D02*
X143560Y75862D01*
X143560Y76831D02*
X148540Y76831D01*
X148540Y77800D02*
X143560Y77800D01*
X143560Y78769D02*
X148540Y78769D01*
X135840Y79090D02*
X130860Y79090D01*
X135840Y79090D02*
X135840Y68110D01*
X130860Y68110D01*
X130860Y79090D01*
X130860Y69079D02*
X135840Y69079D01*
X135840Y70048D02*
X130860Y70048D01*
X130860Y71017D02*
X135840Y71017D01*
X135840Y71986D02*
X130860Y71986D01*
X130860Y72955D02*
X135840Y72955D01*
X135840Y73924D02*
X130860Y73924D01*
X130860Y74893D02*
X135840Y74893D01*
X135840Y75862D02*
X130860Y75862D01*
X130860Y76831D02*
X135840Y76831D01*
X135840Y77800D02*
X130860Y77800D01*
X130860Y78769D02*
X135840Y78769D01*
X123140Y79090D02*
X118160Y79090D01*
X123140Y79090D02*
X123140Y68110D01*
X118160Y68110D01*
X118160Y79090D01*
X118160Y69079D02*
X123140Y69079D01*
X123140Y70048D02*
X118160Y70048D01*
X118160Y71017D02*
X123140Y71017D01*
X123140Y71986D02*
X118160Y71986D01*
X118160Y72955D02*
X123140Y72955D01*
X123140Y73924D02*
X118160Y73924D01*
X118160Y74893D02*
X123140Y74893D01*
X123140Y75862D02*
X118160Y75862D01*
X118160Y76831D02*
X123140Y76831D01*
X123140Y77800D02*
X118160Y77800D01*
X118160Y78769D02*
X123140Y78769D01*
X110440Y79090D02*
X105460Y79090D01*
X110440Y79090D02*
X110440Y68110D01*
X105460Y68110D01*
X105460Y79090D01*
X105460Y69079D02*
X110440Y69079D01*
X110440Y70048D02*
X105460Y70048D01*
X105460Y71017D02*
X110440Y71017D01*
X110440Y71986D02*
X105460Y71986D01*
X105460Y72955D02*
X110440Y72955D01*
X110440Y73924D02*
X105460Y73924D01*
X105460Y74893D02*
X110440Y74893D01*
X110440Y75862D02*
X105460Y75862D01*
X105460Y76831D02*
X110440Y76831D01*
X110440Y77800D02*
X105460Y77800D01*
X105460Y78769D02*
X110440Y78769D01*
X97740Y79090D02*
X92760Y79090D01*
X97740Y79090D02*
X97740Y68110D01*
X92760Y68110D01*
X92760Y79090D01*
X92760Y69079D02*
X97740Y69079D01*
X97740Y70048D02*
X92760Y70048D01*
X92760Y71017D02*
X97740Y71017D01*
X97740Y71986D02*
X92760Y71986D01*
X92760Y72955D02*
X97740Y72955D01*
X97740Y73924D02*
X92760Y73924D01*
X92760Y74893D02*
X97740Y74893D01*
X97740Y75862D02*
X92760Y75862D01*
X92760Y76831D02*
X97740Y76831D01*
X97740Y77800D02*
X92760Y77800D01*
X92760Y78769D02*
X97740Y78769D01*
X85040Y79090D02*
X80060Y79090D01*
X85040Y79090D02*
X85040Y68110D01*
X80060Y68110D01*
X80060Y79090D01*
X80060Y69079D02*
X85040Y69079D01*
X85040Y70048D02*
X80060Y70048D01*
X80060Y71017D02*
X85040Y71017D01*
X85040Y71986D02*
X80060Y71986D01*
X80060Y72955D02*
X85040Y72955D01*
X85040Y73924D02*
X80060Y73924D01*
X80060Y74893D02*
X85040Y74893D01*
X85040Y75862D02*
X80060Y75862D01*
X80060Y76831D02*
X85040Y76831D01*
X85040Y77800D02*
X80060Y77800D01*
X80060Y78769D02*
X85040Y78769D01*
X85040Y135090D02*
X80060Y135090D01*
X85040Y135090D02*
X85040Y124110D01*
X80060Y124110D01*
X80060Y135090D01*
X80060Y125079D02*
X85040Y125079D01*
X85040Y126048D02*
X80060Y126048D01*
X80060Y127017D02*
X85040Y127017D01*
X85040Y127986D02*
X80060Y127986D01*
X80060Y128955D02*
X85040Y128955D01*
X85040Y129924D02*
X80060Y129924D01*
X80060Y130893D02*
X85040Y130893D01*
X85040Y131862D02*
X80060Y131862D01*
X80060Y132831D02*
X85040Y132831D01*
X85040Y133800D02*
X80060Y133800D01*
X80060Y134769D02*
X85040Y134769D01*
X92760Y135090D02*
X97740Y135090D01*
X97740Y124110D01*
X92760Y124110D01*
X92760Y135090D01*
X92760Y125079D02*
X97740Y125079D01*
X97740Y126048D02*
X92760Y126048D01*
X92760Y127017D02*
X97740Y127017D01*
X97740Y127986D02*
X92760Y127986D01*
X92760Y128955D02*
X97740Y128955D01*
X97740Y129924D02*
X92760Y129924D01*
X92760Y130893D02*
X97740Y130893D01*
X97740Y131862D02*
X92760Y131862D01*
X92760Y132831D02*
X97740Y132831D01*
X97740Y133800D02*
X92760Y133800D01*
X92760Y134769D02*
X97740Y134769D01*
X105460Y135090D02*
X110440Y135090D01*
X110440Y124110D01*
X105460Y124110D01*
X105460Y135090D01*
X105460Y125079D02*
X110440Y125079D01*
X110440Y126048D02*
X105460Y126048D01*
X105460Y127017D02*
X110440Y127017D01*
X110440Y127986D02*
X105460Y127986D01*
X105460Y128955D02*
X110440Y128955D01*
X110440Y129924D02*
X105460Y129924D01*
X105460Y130893D02*
X110440Y130893D01*
X110440Y131862D02*
X105460Y131862D01*
X105460Y132831D02*
X110440Y132831D01*
X110440Y133800D02*
X105460Y133800D01*
X105460Y134769D02*
X110440Y134769D01*
X118160Y135090D02*
X123140Y135090D01*
X123140Y124110D01*
X118160Y124110D01*
X118160Y135090D01*
X118160Y125079D02*
X123140Y125079D01*
X123140Y126048D02*
X118160Y126048D01*
X118160Y127017D02*
X123140Y127017D01*
X123140Y127986D02*
X118160Y127986D01*
X118160Y128955D02*
X123140Y128955D01*
X123140Y129924D02*
X118160Y129924D01*
X118160Y130893D02*
X123140Y130893D01*
X123140Y131862D02*
X118160Y131862D01*
X118160Y132831D02*
X123140Y132831D01*
X123140Y133800D02*
X118160Y133800D01*
X118160Y134769D02*
X123140Y134769D01*
X130860Y135090D02*
X135840Y135090D01*
X135840Y124110D01*
X130860Y124110D01*
X130860Y135090D01*
X130860Y125079D02*
X135840Y125079D01*
X135840Y126048D02*
X130860Y126048D01*
X130860Y127017D02*
X135840Y127017D01*
X135840Y127986D02*
X130860Y127986D01*
X130860Y128955D02*
X135840Y128955D01*
X135840Y129924D02*
X130860Y129924D01*
X130860Y130893D02*
X135840Y130893D01*
X135840Y131862D02*
X130860Y131862D01*
X130860Y132831D02*
X135840Y132831D01*
X135840Y133800D02*
X130860Y133800D01*
X130860Y134769D02*
X135840Y134769D01*
X143560Y135090D02*
X148540Y135090D01*
X148540Y124110D01*
X143560Y124110D01*
X143560Y135090D01*
X143560Y125079D02*
X148540Y125079D01*
X148540Y126048D02*
X143560Y126048D01*
X143560Y127017D02*
X148540Y127017D01*
X148540Y127986D02*
X143560Y127986D01*
X143560Y128955D02*
X148540Y128955D01*
X148540Y129924D02*
X143560Y129924D01*
X143560Y130893D02*
X148540Y130893D01*
X148540Y131862D02*
X143560Y131862D01*
X143560Y132831D02*
X148540Y132831D01*
X148540Y133800D02*
X143560Y133800D01*
X143560Y134769D02*
X148540Y134769D01*
X156260Y135090D02*
X161240Y135090D01*
X161240Y124110D01*
X156260Y124110D01*
X156260Y135090D01*
X156260Y125079D02*
X161240Y125079D01*
X161240Y126048D02*
X156260Y126048D01*
X156260Y127017D02*
X161240Y127017D01*
X161240Y127986D02*
X156260Y127986D01*
X156260Y128955D02*
X161240Y128955D01*
X161240Y129924D02*
X156260Y129924D01*
X156260Y130893D02*
X161240Y130893D01*
X161240Y131862D02*
X156260Y131862D01*
X156260Y132831D02*
X161240Y132831D01*
X161240Y133800D02*
X156260Y133800D01*
X156260Y134769D02*
X161240Y134769D01*
X168960Y135090D02*
X173940Y135090D01*
X173940Y124110D01*
X168960Y124110D01*
X168960Y135090D01*
X168960Y125079D02*
X173940Y125079D01*
X173940Y126048D02*
X168960Y126048D01*
X168960Y127017D02*
X173940Y127017D01*
X173940Y127986D02*
X168960Y127986D01*
X168960Y128955D02*
X173940Y128955D01*
X173940Y129924D02*
X168960Y129924D01*
X168960Y130893D02*
X173940Y130893D01*
X173940Y131862D02*
X168960Y131862D01*
X168960Y132831D02*
X173940Y132831D01*
X173940Y133800D02*
X168960Y133800D01*
X168960Y134769D02*
X173940Y134769D01*
D10*
X500504Y94355D02*
X500504Y89845D01*
X489494Y89845D01*
X489494Y94355D01*
X500504Y94355D01*
X500504Y90785D02*
X489494Y90785D01*
X489494Y91725D02*
X500504Y91725D01*
X500504Y92665D02*
X489494Y92665D01*
X489494Y93605D02*
X500504Y93605D01*
X500504Y99345D02*
X500504Y103855D01*
X500504Y99345D02*
X489494Y99345D01*
X489494Y103855D01*
X500504Y103855D01*
X500504Y100285D02*
X489494Y100285D01*
X489494Y101225D02*
X500504Y101225D01*
X500504Y102165D02*
X489494Y102165D01*
X489494Y103105D02*
X500504Y103105D01*
X500504Y108845D02*
X500504Y113355D01*
X500504Y108845D02*
X489494Y108845D01*
X489494Y113355D01*
X500504Y113355D01*
X500504Y109785D02*
X489494Y109785D01*
X489494Y110725D02*
X500504Y110725D01*
X500504Y111665D02*
X489494Y111665D01*
X489494Y112605D02*
X500504Y112605D01*
X526506Y113355D02*
X526506Y108845D01*
X515496Y108845D01*
X515496Y113355D01*
X526506Y113355D01*
X526506Y109785D02*
X515496Y109785D01*
X515496Y110725D02*
X526506Y110725D01*
X526506Y111665D02*
X515496Y111665D01*
X515496Y112605D02*
X526506Y112605D01*
X526506Y94355D02*
X526506Y89845D01*
X515496Y89845D01*
X515496Y94355D01*
X526506Y94355D01*
X526506Y90785D02*
X515496Y90785D01*
X515496Y91725D02*
X526506Y91725D01*
X526506Y92665D02*
X515496Y92665D01*
X515496Y93605D02*
X526506Y93605D01*
D11*
X521500Y131500D02*
X511500Y131500D01*
X521500Y131500D02*
X521500Y122500D01*
X511500Y122500D01*
X511500Y131500D01*
X511500Y123450D02*
X521500Y123450D01*
X521500Y124400D02*
X511500Y124400D01*
X511500Y125350D02*
X521500Y125350D01*
X521500Y126300D02*
X511500Y126300D01*
X511500Y127250D02*
X521500Y127250D01*
X521500Y128200D02*
X511500Y128200D01*
X511500Y129150D02*
X521500Y129150D01*
X521500Y130100D02*
X511500Y130100D01*
X511500Y131050D02*
X521500Y131050D01*
X504500Y131500D02*
X494500Y131500D01*
X504500Y131500D02*
X504500Y122500D01*
X494500Y122500D01*
X494500Y131500D01*
X494500Y123450D02*
X504500Y123450D01*
X504500Y124400D02*
X494500Y124400D01*
X494500Y125350D02*
X504500Y125350D01*
X504500Y126300D02*
X494500Y126300D01*
X494500Y127250D02*
X504500Y127250D01*
X504500Y128200D02*
X494500Y128200D01*
X494500Y129150D02*
X504500Y129150D01*
X504500Y130100D02*
X494500Y130100D01*
X494500Y131050D02*
X504500Y131050D01*
X338400Y115100D02*
X338400Y105100D01*
X338400Y115100D02*
X347400Y115100D01*
X347400Y105100D01*
X338400Y105100D01*
X338400Y106050D02*
X347400Y106050D01*
X347400Y107000D02*
X338400Y107000D01*
X338400Y107950D02*
X347400Y107950D01*
X347400Y108900D02*
X338400Y108900D01*
X338400Y109850D02*
X347400Y109850D01*
X347400Y110800D02*
X338400Y110800D01*
X338400Y111750D02*
X347400Y111750D01*
X347400Y112700D02*
X338400Y112700D01*
X338400Y113650D02*
X347400Y113650D01*
X347400Y114600D02*
X338400Y114600D01*
X338400Y98100D02*
X338400Y88100D01*
X338400Y98100D02*
X347400Y98100D01*
X347400Y88100D01*
X338400Y88100D01*
X338400Y89050D02*
X347400Y89050D01*
X347400Y90000D02*
X338400Y90000D01*
X338400Y90950D02*
X347400Y90950D01*
X347400Y91900D02*
X338400Y91900D01*
X338400Y92850D02*
X347400Y92850D01*
X347400Y93800D02*
X338400Y93800D01*
X338400Y94750D02*
X347400Y94750D01*
X347400Y95700D02*
X338400Y95700D01*
X338400Y96650D02*
X347400Y96650D01*
X347400Y97600D02*
X338400Y97600D01*
X322000Y79050D02*
X322000Y69050D01*
X313000Y69050D01*
X313000Y79050D01*
X322000Y79050D01*
X322000Y70000D02*
X313000Y70000D01*
X313000Y70950D02*
X322000Y70950D01*
X322000Y71900D02*
X313000Y71900D01*
X313000Y72850D02*
X322000Y72850D01*
X322000Y73800D02*
X313000Y73800D01*
X313000Y74750D02*
X322000Y74750D01*
X322000Y75700D02*
X313000Y75700D01*
X313000Y76650D02*
X322000Y76650D01*
X322000Y77600D02*
X313000Y77600D01*
X313000Y78550D02*
X322000Y78550D01*
X322000Y86050D02*
X322000Y96050D01*
X322000Y86050D02*
X313000Y86050D01*
X313000Y96050D01*
X322000Y96050D01*
X322000Y87000D02*
X313000Y87000D01*
X313000Y87950D02*
X322000Y87950D01*
X322000Y88900D02*
X313000Y88900D01*
X313000Y89850D02*
X322000Y89850D01*
X322000Y90800D02*
X313000Y90800D01*
X313000Y91750D02*
X322000Y91750D01*
X322000Y92700D02*
X313000Y92700D01*
X313000Y93650D02*
X322000Y93650D01*
X322000Y94600D02*
X313000Y94600D01*
X313000Y95550D02*
X322000Y95550D01*
X313000Y124150D02*
X313000Y134150D01*
X322000Y134150D01*
X322000Y124150D01*
X313000Y124150D01*
X313000Y125100D02*
X322000Y125100D01*
X322000Y126050D02*
X313000Y126050D01*
X313000Y127000D02*
X322000Y127000D01*
X322000Y127950D02*
X313000Y127950D01*
X313000Y128900D02*
X322000Y128900D01*
X322000Y129850D02*
X313000Y129850D01*
X313000Y130800D02*
X322000Y130800D01*
X322000Y131750D02*
X313000Y131750D01*
X313000Y132700D02*
X322000Y132700D01*
X322000Y133650D02*
X313000Y133650D01*
X313000Y117150D02*
X313000Y107150D01*
X313000Y117150D02*
X322000Y117150D01*
X322000Y107150D01*
X313000Y107150D01*
X313000Y108100D02*
X322000Y108100D01*
X322000Y109050D02*
X313000Y109050D01*
X313000Y110000D02*
X322000Y110000D01*
X322000Y110950D02*
X313000Y110950D01*
X313000Y111900D02*
X322000Y111900D01*
X322000Y112850D02*
X313000Y112850D01*
X313000Y113800D02*
X322000Y113800D01*
X322000Y114750D02*
X313000Y114750D01*
X313000Y115700D02*
X322000Y115700D01*
X322000Y116650D02*
X313000Y116650D01*
D12*
X444235Y226125D02*
X459185Y226125D01*
X444235Y226125D02*
X444235Y232075D01*
X459185Y232075D01*
X459185Y226125D01*
X459185Y227122D02*
X444235Y227122D01*
X444235Y228119D02*
X459185Y228119D01*
X459185Y229116D02*
X444235Y229116D01*
X444235Y230113D02*
X459185Y230113D01*
X459185Y231110D02*
X444235Y231110D01*
X444235Y237125D02*
X459185Y237125D01*
X444235Y237125D02*
X444235Y243075D01*
X459185Y243075D01*
X459185Y237125D01*
X459185Y238122D02*
X444235Y238122D01*
X444235Y239119D02*
X459185Y239119D01*
X459185Y240116D02*
X444235Y240116D01*
X444235Y241113D02*
X459185Y241113D01*
X459185Y242110D02*
X444235Y242110D01*
X444235Y248125D02*
X459185Y248125D01*
X444235Y248125D02*
X444235Y254075D01*
X459185Y254075D01*
X459185Y248125D01*
X459185Y249122D02*
X444235Y249122D01*
X444235Y250119D02*
X459185Y250119D01*
X459185Y251116D02*
X444235Y251116D01*
X444235Y252113D02*
X459185Y252113D01*
X459185Y253110D02*
X444235Y253110D01*
X444235Y215125D02*
X459185Y215125D01*
X444235Y215125D02*
X444235Y221075D01*
X459185Y221075D01*
X459185Y215125D01*
X459185Y216122D02*
X444235Y216122D01*
X444235Y217119D02*
X459185Y217119D01*
X459185Y218116D02*
X444235Y218116D01*
X444235Y219113D02*
X459185Y219113D01*
X459185Y220110D02*
X444235Y220110D01*
X444235Y204125D02*
X459185Y204125D01*
X444235Y204125D02*
X444235Y210075D01*
X459185Y210075D01*
X459185Y204125D01*
X459185Y205122D02*
X444235Y205122D01*
X444235Y206119D02*
X459185Y206119D01*
X459185Y207116D02*
X444235Y207116D01*
X444235Y208113D02*
X459185Y208113D01*
X459185Y209110D02*
X444235Y209110D01*
X444235Y193125D02*
X459185Y193125D01*
X444235Y193125D02*
X444235Y199075D01*
X459185Y199075D01*
X459185Y193125D01*
X459185Y194122D02*
X444235Y194122D01*
X444235Y195119D02*
X459185Y195119D01*
X459185Y196116D02*
X444235Y196116D01*
X444235Y197113D02*
X459185Y197113D01*
X459185Y198110D02*
X444235Y198110D01*
X444235Y182125D02*
X459185Y182125D01*
X444235Y182125D02*
X444235Y188075D01*
X459185Y188075D01*
X459185Y182125D01*
X459185Y183122D02*
X444235Y183122D01*
X444235Y184119D02*
X459185Y184119D01*
X459185Y185116D02*
X444235Y185116D01*
X444235Y186113D02*
X459185Y186113D01*
X459185Y187110D02*
X444235Y187110D01*
X444235Y171125D02*
X459185Y171125D01*
X444235Y171125D02*
X444235Y177075D01*
X459185Y177075D01*
X459185Y171125D01*
X459185Y172122D02*
X444235Y172122D01*
X444235Y173119D02*
X459185Y173119D01*
X459185Y174116D02*
X444235Y174116D01*
X444235Y175113D02*
X459185Y175113D01*
X459185Y176110D02*
X444235Y176110D01*
X444235Y160125D02*
X459185Y160125D01*
X444235Y160125D02*
X444235Y166075D01*
X459185Y166075D01*
X459185Y160125D01*
X459185Y161122D02*
X444235Y161122D01*
X444235Y162119D02*
X459185Y162119D01*
X459185Y163116D02*
X444235Y163116D01*
X444235Y164113D02*
X459185Y164113D01*
X459185Y165110D02*
X444235Y165110D01*
D13*
X361230Y300580D02*
X361230Y311620D01*
X361230Y300580D02*
X340190Y300580D01*
X340190Y311620D01*
X361230Y311620D01*
X361230Y301492D02*
X340190Y301492D01*
X340190Y302404D02*
X361230Y302404D01*
X361230Y303316D02*
X340190Y303316D01*
X340190Y304228D02*
X361230Y304228D01*
X361230Y305140D02*
X340190Y305140D01*
X340190Y306052D02*
X361230Y306052D01*
X361230Y306964D02*
X340190Y306964D01*
X340190Y307876D02*
X361230Y307876D01*
X361230Y308788D02*
X340190Y308788D01*
X340190Y309700D02*
X361230Y309700D01*
X361230Y310612D02*
X340190Y310612D01*
X340190Y311524D02*
X361230Y311524D01*
X361230Y156620D02*
X361230Y145580D01*
X340190Y145580D01*
X340190Y156620D01*
X361230Y156620D01*
X361230Y146492D02*
X340190Y146492D01*
X340190Y147404D02*
X361230Y147404D01*
X361230Y148316D02*
X340190Y148316D01*
X340190Y149228D02*
X361230Y149228D01*
X361230Y150140D02*
X340190Y150140D01*
X340190Y151052D02*
X361230Y151052D01*
X361230Y151964D02*
X340190Y151964D01*
X340190Y152876D02*
X361230Y152876D01*
X361230Y153788D02*
X340190Y153788D01*
X340190Y154700D02*
X361230Y154700D01*
X361230Y155612D02*
X340190Y155612D01*
X340190Y156524D02*
X361230Y156524D01*
D14*
X453220Y289590D02*
X453220Y304610D01*
X453220Y289590D02*
X440200Y289590D01*
X440200Y304610D01*
X453220Y304610D01*
X453220Y290521D02*
X440200Y290521D01*
X440200Y291452D02*
X453220Y291452D01*
X453220Y292383D02*
X440200Y292383D01*
X440200Y293314D02*
X453220Y293314D01*
X453220Y294245D02*
X440200Y294245D01*
X440200Y295176D02*
X453220Y295176D01*
X453220Y296107D02*
X440200Y296107D01*
X440200Y297038D02*
X453220Y297038D01*
X453220Y297969D02*
X440200Y297969D01*
X440200Y298900D02*
X453220Y298900D01*
X453220Y299831D02*
X440200Y299831D01*
X440200Y300762D02*
X453220Y300762D01*
X453220Y301693D02*
X440200Y301693D01*
X440200Y302624D02*
X453220Y302624D01*
X453220Y303555D02*
X440200Y303555D01*
X440200Y304486D02*
X453220Y304486D01*
D13*
X453230Y156620D02*
X453230Y145580D01*
X438190Y145580D01*
X438190Y156620D01*
X453230Y156620D01*
X453230Y146492D02*
X438190Y146492D01*
X438190Y147404D02*
X453230Y147404D01*
X453230Y148316D02*
X438190Y148316D01*
X438190Y149228D02*
X453230Y149228D01*
X453230Y150140D02*
X438190Y150140D01*
X438190Y151052D02*
X453230Y151052D01*
X453230Y151964D02*
X438190Y151964D01*
X438190Y152876D02*
X453230Y152876D01*
X453230Y153788D02*
X438190Y153788D01*
X438190Y154700D02*
X453230Y154700D01*
X453230Y155612D02*
X438190Y155612D01*
X438190Y156524D02*
X453230Y156524D01*
D15*
X473760Y79090D02*
X478740Y79090D01*
X478740Y68110D01*
X473760Y68110D01*
X473760Y79090D01*
X473760Y69079D02*
X478740Y69079D01*
X478740Y70048D02*
X473760Y70048D01*
X473760Y71017D02*
X478740Y71017D01*
X478740Y71986D02*
X473760Y71986D01*
X473760Y72955D02*
X478740Y72955D01*
X478740Y73924D02*
X473760Y73924D01*
X473760Y74893D02*
X478740Y74893D01*
X478740Y75862D02*
X473760Y75862D01*
X473760Y76831D02*
X478740Y76831D01*
X478740Y77800D02*
X473760Y77800D01*
X473760Y78769D02*
X478740Y78769D01*
X466040Y79090D02*
X461060Y79090D01*
X466040Y79090D02*
X466040Y68110D01*
X461060Y68110D01*
X461060Y79090D01*
X461060Y69079D02*
X466040Y69079D01*
X466040Y70048D02*
X461060Y70048D01*
X461060Y71017D02*
X466040Y71017D01*
X466040Y71986D02*
X461060Y71986D01*
X461060Y72955D02*
X466040Y72955D01*
X466040Y73924D02*
X461060Y73924D01*
X461060Y74893D02*
X466040Y74893D01*
X466040Y75862D02*
X461060Y75862D01*
X461060Y76831D02*
X466040Y76831D01*
X466040Y77800D02*
X461060Y77800D01*
X461060Y78769D02*
X466040Y78769D01*
X453340Y79090D02*
X448360Y79090D01*
X453340Y79090D02*
X453340Y68110D01*
X448360Y68110D01*
X448360Y79090D01*
X448360Y69079D02*
X453340Y69079D01*
X453340Y70048D02*
X448360Y70048D01*
X448360Y71017D02*
X453340Y71017D01*
X453340Y71986D02*
X448360Y71986D01*
X448360Y72955D02*
X453340Y72955D01*
X453340Y73924D02*
X448360Y73924D01*
X448360Y74893D02*
X453340Y74893D01*
X453340Y75862D02*
X448360Y75862D01*
X448360Y76831D02*
X453340Y76831D01*
X453340Y77800D02*
X448360Y77800D01*
X448360Y78769D02*
X453340Y78769D01*
X440640Y79090D02*
X435660Y79090D01*
X440640Y79090D02*
X440640Y68110D01*
X435660Y68110D01*
X435660Y79090D01*
X435660Y69079D02*
X440640Y69079D01*
X440640Y70048D02*
X435660Y70048D01*
X435660Y71017D02*
X440640Y71017D01*
X440640Y71986D02*
X435660Y71986D01*
X435660Y72955D02*
X440640Y72955D01*
X440640Y73924D02*
X435660Y73924D01*
X435660Y74893D02*
X440640Y74893D01*
X440640Y75862D02*
X435660Y75862D01*
X435660Y76831D02*
X440640Y76831D01*
X440640Y77800D02*
X435660Y77800D01*
X435660Y78769D02*
X440640Y78769D01*
X427940Y79090D02*
X422960Y79090D01*
X427940Y79090D02*
X427940Y68110D01*
X422960Y68110D01*
X422960Y79090D01*
X422960Y69079D02*
X427940Y69079D01*
X427940Y70048D02*
X422960Y70048D01*
X422960Y71017D02*
X427940Y71017D01*
X427940Y71986D02*
X422960Y71986D01*
X422960Y72955D02*
X427940Y72955D01*
X427940Y73924D02*
X422960Y73924D01*
X422960Y74893D02*
X427940Y74893D01*
X427940Y75862D02*
X422960Y75862D01*
X422960Y76831D02*
X427940Y76831D01*
X427940Y77800D02*
X422960Y77800D01*
X422960Y78769D02*
X427940Y78769D01*
X415240Y79090D02*
X410260Y79090D01*
X415240Y79090D02*
X415240Y68110D01*
X410260Y68110D01*
X410260Y79090D01*
X410260Y69079D02*
X415240Y69079D01*
X415240Y70048D02*
X410260Y70048D01*
X410260Y71017D02*
X415240Y71017D01*
X415240Y71986D02*
X410260Y71986D01*
X410260Y72955D02*
X415240Y72955D01*
X415240Y73924D02*
X410260Y73924D01*
X410260Y74893D02*
X415240Y74893D01*
X415240Y75862D02*
X410260Y75862D01*
X410260Y76831D02*
X415240Y76831D01*
X415240Y77800D02*
X410260Y77800D01*
X410260Y78769D02*
X415240Y78769D01*
X402540Y79090D02*
X397560Y79090D01*
X402540Y79090D02*
X402540Y68110D01*
X397560Y68110D01*
X397560Y79090D01*
X397560Y69079D02*
X402540Y69079D01*
X402540Y70048D02*
X397560Y70048D01*
X397560Y71017D02*
X402540Y71017D01*
X402540Y71986D02*
X397560Y71986D01*
X397560Y72955D02*
X402540Y72955D01*
X402540Y73924D02*
X397560Y73924D01*
X397560Y74893D02*
X402540Y74893D01*
X402540Y75862D02*
X397560Y75862D01*
X397560Y76831D02*
X402540Y76831D01*
X402540Y77800D02*
X397560Y77800D01*
X397560Y78769D02*
X402540Y78769D01*
X389840Y79090D02*
X384860Y79090D01*
X389840Y79090D02*
X389840Y68110D01*
X384860Y68110D01*
X384860Y79090D01*
X384860Y69079D02*
X389840Y69079D01*
X389840Y70048D02*
X384860Y70048D01*
X384860Y71017D02*
X389840Y71017D01*
X389840Y71986D02*
X384860Y71986D01*
X384860Y72955D02*
X389840Y72955D01*
X389840Y73924D02*
X384860Y73924D01*
X384860Y74893D02*
X389840Y74893D01*
X389840Y75862D02*
X384860Y75862D01*
X384860Y76831D02*
X389840Y76831D01*
X389840Y77800D02*
X384860Y77800D01*
X384860Y78769D02*
X389840Y78769D01*
X389840Y135090D02*
X384860Y135090D01*
X389840Y135090D02*
X389840Y124110D01*
X384860Y124110D01*
X384860Y135090D01*
X384860Y125079D02*
X389840Y125079D01*
X389840Y126048D02*
X384860Y126048D01*
X384860Y127017D02*
X389840Y127017D01*
X389840Y127986D02*
X384860Y127986D01*
X384860Y128955D02*
X389840Y128955D01*
X389840Y129924D02*
X384860Y129924D01*
X384860Y130893D02*
X389840Y130893D01*
X389840Y131862D02*
X384860Y131862D01*
X384860Y132831D02*
X389840Y132831D01*
X389840Y133800D02*
X384860Y133800D01*
X384860Y134769D02*
X389840Y134769D01*
X397560Y135090D02*
X402540Y135090D01*
X402540Y124110D01*
X397560Y124110D01*
X397560Y135090D01*
X397560Y125079D02*
X402540Y125079D01*
X402540Y126048D02*
X397560Y126048D01*
X397560Y127017D02*
X402540Y127017D01*
X402540Y127986D02*
X397560Y127986D01*
X397560Y128955D02*
X402540Y128955D01*
X402540Y129924D02*
X397560Y129924D01*
X397560Y130893D02*
X402540Y130893D01*
X402540Y131862D02*
X397560Y131862D01*
X397560Y132831D02*
X402540Y132831D01*
X402540Y133800D02*
X397560Y133800D01*
X397560Y134769D02*
X402540Y134769D01*
X410260Y135090D02*
X415240Y135090D01*
X415240Y124110D01*
X410260Y124110D01*
X410260Y135090D01*
X410260Y125079D02*
X415240Y125079D01*
X415240Y126048D02*
X410260Y126048D01*
X410260Y127017D02*
X415240Y127017D01*
X415240Y127986D02*
X410260Y127986D01*
X410260Y128955D02*
X415240Y128955D01*
X415240Y129924D02*
X410260Y129924D01*
X410260Y130893D02*
X415240Y130893D01*
X415240Y131862D02*
X410260Y131862D01*
X410260Y132831D02*
X415240Y132831D01*
X415240Y133800D02*
X410260Y133800D01*
X410260Y134769D02*
X415240Y134769D01*
X422960Y135090D02*
X427940Y135090D01*
X427940Y124110D01*
X422960Y124110D01*
X422960Y135090D01*
X422960Y125079D02*
X427940Y125079D01*
X427940Y126048D02*
X422960Y126048D01*
X422960Y127017D02*
X427940Y127017D01*
X427940Y127986D02*
X422960Y127986D01*
X422960Y128955D02*
X427940Y128955D01*
X427940Y129924D02*
X422960Y129924D01*
X422960Y130893D02*
X427940Y130893D01*
X427940Y131862D02*
X422960Y131862D01*
X422960Y132831D02*
X427940Y132831D01*
X427940Y133800D02*
X422960Y133800D01*
X422960Y134769D02*
X427940Y134769D01*
X435660Y135090D02*
X440640Y135090D01*
X440640Y124110D01*
X435660Y124110D01*
X435660Y135090D01*
X435660Y125079D02*
X440640Y125079D01*
X440640Y126048D02*
X435660Y126048D01*
X435660Y127017D02*
X440640Y127017D01*
X440640Y127986D02*
X435660Y127986D01*
X435660Y128955D02*
X440640Y128955D01*
X440640Y129924D02*
X435660Y129924D01*
X435660Y130893D02*
X440640Y130893D01*
X440640Y131862D02*
X435660Y131862D01*
X435660Y132831D02*
X440640Y132831D01*
X440640Y133800D02*
X435660Y133800D01*
X435660Y134769D02*
X440640Y134769D01*
X448360Y135090D02*
X453340Y135090D01*
X453340Y124110D01*
X448360Y124110D01*
X448360Y135090D01*
X448360Y125079D02*
X453340Y125079D01*
X453340Y126048D02*
X448360Y126048D01*
X448360Y127017D02*
X453340Y127017D01*
X453340Y127986D02*
X448360Y127986D01*
X448360Y128955D02*
X453340Y128955D01*
X453340Y129924D02*
X448360Y129924D01*
X448360Y130893D02*
X453340Y130893D01*
X453340Y131862D02*
X448360Y131862D01*
X448360Y132831D02*
X453340Y132831D01*
X453340Y133800D02*
X448360Y133800D01*
X448360Y134769D02*
X453340Y134769D01*
X461060Y135090D02*
X466040Y135090D01*
X466040Y124110D01*
X461060Y124110D01*
X461060Y135090D01*
X461060Y125079D02*
X466040Y125079D01*
X466040Y126048D02*
X461060Y126048D01*
X461060Y127017D02*
X466040Y127017D01*
X466040Y127986D02*
X461060Y127986D01*
X461060Y128955D02*
X466040Y128955D01*
X466040Y129924D02*
X461060Y129924D01*
X461060Y130893D02*
X466040Y130893D01*
X466040Y131862D02*
X461060Y131862D01*
X461060Y132831D02*
X466040Y132831D01*
X466040Y133800D02*
X461060Y133800D01*
X461060Y134769D02*
X466040Y134769D01*
X473760Y135090D02*
X478740Y135090D01*
X478740Y124110D01*
X473760Y124110D01*
X473760Y135090D01*
X473760Y125079D02*
X478740Y125079D01*
X478740Y126048D02*
X473760Y126048D01*
X473760Y127017D02*
X478740Y127017D01*
X478740Y127986D02*
X473760Y127986D01*
X473760Y128955D02*
X478740Y128955D01*
X478740Y129924D02*
X473760Y129924D01*
X473760Y130893D02*
X478740Y130893D01*
X478740Y131862D02*
X473760Y131862D01*
X473760Y132831D02*
X478740Y132831D01*
X478740Y133800D02*
X473760Y133800D01*
X473760Y134769D02*
X478740Y134769D01*
D10*
X805304Y94355D02*
X805304Y89845D01*
X794294Y89845D01*
X794294Y94355D01*
X805304Y94355D01*
X805304Y90785D02*
X794294Y90785D01*
X794294Y91725D02*
X805304Y91725D01*
X805304Y92665D02*
X794294Y92665D01*
X794294Y93605D02*
X805304Y93605D01*
X805304Y99345D02*
X805304Y103855D01*
X805304Y99345D02*
X794294Y99345D01*
X794294Y103855D01*
X805304Y103855D01*
X805304Y100285D02*
X794294Y100285D01*
X794294Y101225D02*
X805304Y101225D01*
X805304Y102165D02*
X794294Y102165D01*
X794294Y103105D02*
X805304Y103105D01*
X805304Y108845D02*
X805304Y113355D01*
X805304Y108845D02*
X794294Y108845D01*
X794294Y113355D01*
X805304Y113355D01*
X805304Y109785D02*
X794294Y109785D01*
X794294Y110725D02*
X805304Y110725D01*
X805304Y111665D02*
X794294Y111665D01*
X794294Y112605D02*
X805304Y112605D01*
X831306Y113355D02*
X831306Y108845D01*
X820296Y108845D01*
X820296Y113355D01*
X831306Y113355D01*
X831306Y109785D02*
X820296Y109785D01*
X820296Y110725D02*
X831306Y110725D01*
X831306Y111665D02*
X820296Y111665D01*
X820296Y112605D02*
X831306Y112605D01*
X831306Y94355D02*
X831306Y89845D01*
X820296Y89845D01*
X820296Y94355D01*
X831306Y94355D01*
X831306Y90785D02*
X820296Y90785D01*
X820296Y91725D02*
X831306Y91725D01*
X831306Y92665D02*
X820296Y92665D01*
X820296Y93605D02*
X831306Y93605D01*
D11*
X826300Y131500D02*
X816300Y131500D01*
X826300Y131500D02*
X826300Y122500D01*
X816300Y122500D01*
X816300Y131500D01*
X816300Y123450D02*
X826300Y123450D01*
X826300Y124400D02*
X816300Y124400D01*
X816300Y125350D02*
X826300Y125350D01*
X826300Y126300D02*
X816300Y126300D01*
X816300Y127250D02*
X826300Y127250D01*
X826300Y128200D02*
X816300Y128200D01*
X816300Y129150D02*
X826300Y129150D01*
X826300Y130100D02*
X816300Y130100D01*
X816300Y131050D02*
X826300Y131050D01*
X809300Y131500D02*
X799300Y131500D01*
X809300Y131500D02*
X809300Y122500D01*
X799300Y122500D01*
X799300Y131500D01*
X799300Y123450D02*
X809300Y123450D01*
X809300Y124400D02*
X799300Y124400D01*
X799300Y125350D02*
X809300Y125350D01*
X809300Y126300D02*
X799300Y126300D01*
X799300Y127250D02*
X809300Y127250D01*
X809300Y128200D02*
X799300Y128200D01*
X799300Y129150D02*
X809300Y129150D01*
X809300Y130100D02*
X799300Y130100D01*
X799300Y131050D02*
X809300Y131050D01*
X643200Y115100D02*
X643200Y105100D01*
X643200Y115100D02*
X652200Y115100D01*
X652200Y105100D01*
X643200Y105100D01*
X643200Y106050D02*
X652200Y106050D01*
X652200Y107000D02*
X643200Y107000D01*
X643200Y107950D02*
X652200Y107950D01*
X652200Y108900D02*
X643200Y108900D01*
X643200Y109850D02*
X652200Y109850D01*
X652200Y110800D02*
X643200Y110800D01*
X643200Y111750D02*
X652200Y111750D01*
X652200Y112700D02*
X643200Y112700D01*
X643200Y113650D02*
X652200Y113650D01*
X652200Y114600D02*
X643200Y114600D01*
X643200Y98100D02*
X643200Y88100D01*
X643200Y98100D02*
X652200Y98100D01*
X652200Y88100D01*
X643200Y88100D01*
X643200Y89050D02*
X652200Y89050D01*
X652200Y90000D02*
X643200Y90000D01*
X643200Y90950D02*
X652200Y90950D01*
X652200Y91900D02*
X643200Y91900D01*
X643200Y92850D02*
X652200Y92850D01*
X652200Y93800D02*
X643200Y93800D01*
X643200Y94750D02*
X652200Y94750D01*
X652200Y95700D02*
X643200Y95700D01*
X643200Y96650D02*
X652200Y96650D01*
X652200Y97600D02*
X643200Y97600D01*
X626800Y79050D02*
X626800Y69050D01*
X617800Y69050D01*
X617800Y79050D01*
X626800Y79050D01*
X626800Y70000D02*
X617800Y70000D01*
X617800Y70950D02*
X626800Y70950D01*
X626800Y71900D02*
X617800Y71900D01*
X617800Y72850D02*
X626800Y72850D01*
X626800Y73800D02*
X617800Y73800D01*
X617800Y74750D02*
X626800Y74750D01*
X626800Y75700D02*
X617800Y75700D01*
X617800Y76650D02*
X626800Y76650D01*
X626800Y77600D02*
X617800Y77600D01*
X617800Y78550D02*
X626800Y78550D01*
X626800Y86050D02*
X626800Y96050D01*
X626800Y86050D02*
X617800Y86050D01*
X617800Y96050D01*
X626800Y96050D01*
X626800Y87000D02*
X617800Y87000D01*
X617800Y87950D02*
X626800Y87950D01*
X626800Y88900D02*
X617800Y88900D01*
X617800Y89850D02*
X626800Y89850D01*
X626800Y90800D02*
X617800Y90800D01*
X617800Y91750D02*
X626800Y91750D01*
X626800Y92700D02*
X617800Y92700D01*
X617800Y93650D02*
X626800Y93650D01*
X626800Y94600D02*
X617800Y94600D01*
X617800Y95550D02*
X626800Y95550D01*
X617800Y124150D02*
X617800Y134150D01*
X626800Y134150D01*
X626800Y124150D01*
X617800Y124150D01*
X617800Y125100D02*
X626800Y125100D01*
X626800Y126050D02*
X617800Y126050D01*
X617800Y127000D02*
X626800Y127000D01*
X626800Y127950D02*
X617800Y127950D01*
X617800Y128900D02*
X626800Y128900D01*
X626800Y129850D02*
X617800Y129850D01*
X617800Y130800D02*
X626800Y130800D01*
X626800Y131750D02*
X617800Y131750D01*
X617800Y132700D02*
X626800Y132700D01*
X626800Y133650D02*
X617800Y133650D01*
X617800Y117150D02*
X617800Y107150D01*
X617800Y117150D02*
X626800Y117150D01*
X626800Y107150D01*
X617800Y107150D01*
X617800Y108100D02*
X626800Y108100D01*
X626800Y109050D02*
X617800Y109050D01*
X617800Y110000D02*
X626800Y110000D01*
X626800Y110950D02*
X617800Y110950D01*
X617800Y111900D02*
X626800Y111900D01*
X626800Y112850D02*
X617800Y112850D01*
X617800Y113800D02*
X626800Y113800D01*
X626800Y114750D02*
X617800Y114750D01*
X617800Y115700D02*
X626800Y115700D01*
X626800Y116650D02*
X617800Y116650D01*
D12*
X749035Y226125D02*
X763985Y226125D01*
X749035Y226125D02*
X749035Y232075D01*
X763985Y232075D01*
X763985Y226125D01*
X763985Y227122D02*
X749035Y227122D01*
X749035Y228119D02*
X763985Y228119D01*
X763985Y229116D02*
X749035Y229116D01*
X749035Y230113D02*
X763985Y230113D01*
X763985Y231110D02*
X749035Y231110D01*
X749035Y237125D02*
X763985Y237125D01*
X749035Y237125D02*
X749035Y243075D01*
X763985Y243075D01*
X763985Y237125D01*
X763985Y238122D02*
X749035Y238122D01*
X749035Y239119D02*
X763985Y239119D01*
X763985Y240116D02*
X749035Y240116D01*
X749035Y241113D02*
X763985Y241113D01*
X763985Y242110D02*
X749035Y242110D01*
X749035Y248125D02*
X763985Y248125D01*
X749035Y248125D02*
X749035Y254075D01*
X763985Y254075D01*
X763985Y248125D01*
X763985Y249122D02*
X749035Y249122D01*
X749035Y250119D02*
X763985Y250119D01*
X763985Y251116D02*
X749035Y251116D01*
X749035Y252113D02*
X763985Y252113D01*
X763985Y253110D02*
X749035Y253110D01*
X749035Y215125D02*
X763985Y215125D01*
X749035Y215125D02*
X749035Y221075D01*
X763985Y221075D01*
X763985Y215125D01*
X763985Y216122D02*
X749035Y216122D01*
X749035Y217119D02*
X763985Y217119D01*
X763985Y218116D02*
X749035Y218116D01*
X749035Y219113D02*
X763985Y219113D01*
X763985Y220110D02*
X749035Y220110D01*
X749035Y204125D02*
X763985Y204125D01*
X749035Y204125D02*
X749035Y210075D01*
X763985Y210075D01*
X763985Y204125D01*
X763985Y205122D02*
X749035Y205122D01*
X749035Y206119D02*
X763985Y206119D01*
X763985Y207116D02*
X749035Y207116D01*
X749035Y208113D02*
X763985Y208113D01*
X763985Y209110D02*
X749035Y209110D01*
X749035Y193125D02*
X763985Y193125D01*
X749035Y193125D02*
X749035Y199075D01*
X763985Y199075D01*
X763985Y193125D01*
X763985Y194122D02*
X749035Y194122D01*
X749035Y195119D02*
X763985Y195119D01*
X763985Y196116D02*
X749035Y196116D01*
X749035Y197113D02*
X763985Y197113D01*
X763985Y198110D02*
X749035Y198110D01*
X749035Y182125D02*
X763985Y182125D01*
X749035Y182125D02*
X749035Y188075D01*
X763985Y188075D01*
X763985Y182125D01*
X763985Y183122D02*
X749035Y183122D01*
X749035Y184119D02*
X763985Y184119D01*
X763985Y185116D02*
X749035Y185116D01*
X749035Y186113D02*
X763985Y186113D01*
X763985Y187110D02*
X749035Y187110D01*
X749035Y171125D02*
X763985Y171125D01*
X749035Y171125D02*
X749035Y177075D01*
X763985Y177075D01*
X763985Y171125D01*
X763985Y172122D02*
X749035Y172122D01*
X749035Y173119D02*
X763985Y173119D01*
X763985Y174116D02*
X749035Y174116D01*
X749035Y175113D02*
X763985Y175113D01*
X763985Y176110D02*
X749035Y176110D01*
X749035Y160125D02*
X763985Y160125D01*
X749035Y160125D02*
X749035Y166075D01*
X763985Y166075D01*
X763985Y160125D01*
X763985Y161122D02*
X749035Y161122D01*
X749035Y162119D02*
X763985Y162119D01*
X763985Y163116D02*
X749035Y163116D01*
X749035Y164113D02*
X763985Y164113D01*
X763985Y165110D02*
X749035Y165110D01*
D13*
X666030Y300580D02*
X666030Y311620D01*
X666030Y300580D02*
X644990Y300580D01*
X644990Y311620D01*
X666030Y311620D01*
X666030Y301492D02*
X644990Y301492D01*
X644990Y302404D02*
X666030Y302404D01*
X666030Y303316D02*
X644990Y303316D01*
X644990Y304228D02*
X666030Y304228D01*
X666030Y305140D02*
X644990Y305140D01*
X644990Y306052D02*
X666030Y306052D01*
X666030Y306964D02*
X644990Y306964D01*
X644990Y307876D02*
X666030Y307876D01*
X666030Y308788D02*
X644990Y308788D01*
X644990Y309700D02*
X666030Y309700D01*
X666030Y310612D02*
X644990Y310612D01*
X644990Y311524D02*
X666030Y311524D01*
X666030Y156620D02*
X666030Y145580D01*
X644990Y145580D01*
X644990Y156620D01*
X666030Y156620D01*
X666030Y146492D02*
X644990Y146492D01*
X644990Y147404D02*
X666030Y147404D01*
X666030Y148316D02*
X644990Y148316D01*
X644990Y149228D02*
X666030Y149228D01*
X666030Y150140D02*
X644990Y150140D01*
X644990Y151052D02*
X666030Y151052D01*
X666030Y151964D02*
X644990Y151964D01*
X644990Y152876D02*
X666030Y152876D01*
X666030Y153788D02*
X644990Y153788D01*
X644990Y154700D02*
X666030Y154700D01*
X666030Y155612D02*
X644990Y155612D01*
X644990Y156524D02*
X666030Y156524D01*
D14*
X758020Y289590D02*
X758020Y304610D01*
X758020Y289590D02*
X745000Y289590D01*
X745000Y304610D01*
X758020Y304610D01*
X758020Y290521D02*
X745000Y290521D01*
X745000Y291452D02*
X758020Y291452D01*
X758020Y292383D02*
X745000Y292383D01*
X745000Y293314D02*
X758020Y293314D01*
X758020Y294245D02*
X745000Y294245D01*
X745000Y295176D02*
X758020Y295176D01*
X758020Y296107D02*
X745000Y296107D01*
X745000Y297038D02*
X758020Y297038D01*
X758020Y297969D02*
X745000Y297969D01*
X745000Y298900D02*
X758020Y298900D01*
X758020Y299831D02*
X745000Y299831D01*
X745000Y300762D02*
X758020Y300762D01*
X758020Y301693D02*
X745000Y301693D01*
X745000Y302624D02*
X758020Y302624D01*
X758020Y303555D02*
X745000Y303555D01*
X745000Y304486D02*
X758020Y304486D01*
D13*
X758030Y156620D02*
X758030Y145580D01*
X742990Y145580D01*
X742990Y156620D01*
X758030Y156620D01*
X758030Y146492D02*
X742990Y146492D01*
X742990Y147404D02*
X758030Y147404D01*
X758030Y148316D02*
X742990Y148316D01*
X742990Y149228D02*
X758030Y149228D01*
X758030Y150140D02*
X742990Y150140D01*
X742990Y151052D02*
X758030Y151052D01*
X758030Y151964D02*
X742990Y151964D01*
X742990Y152876D02*
X758030Y152876D01*
X758030Y153788D02*
X742990Y153788D01*
X742990Y154700D02*
X758030Y154700D01*
X758030Y155612D02*
X742990Y155612D01*
X742990Y156524D02*
X758030Y156524D01*
D15*
X778560Y79090D02*
X783540Y79090D01*
X783540Y68110D01*
X778560Y68110D01*
X778560Y79090D01*
X778560Y69079D02*
X783540Y69079D01*
X783540Y70048D02*
X778560Y70048D01*
X778560Y71017D02*
X783540Y71017D01*
X783540Y71986D02*
X778560Y71986D01*
X778560Y72955D02*
X783540Y72955D01*
X783540Y73924D02*
X778560Y73924D01*
X778560Y74893D02*
X783540Y74893D01*
X783540Y75862D02*
X778560Y75862D01*
X778560Y76831D02*
X783540Y76831D01*
X783540Y77800D02*
X778560Y77800D01*
X778560Y78769D02*
X783540Y78769D01*
X770840Y79090D02*
X765860Y79090D01*
X770840Y79090D02*
X770840Y68110D01*
X765860Y68110D01*
X765860Y79090D01*
X765860Y69079D02*
X770840Y69079D01*
X770840Y70048D02*
X765860Y70048D01*
X765860Y71017D02*
X770840Y71017D01*
X770840Y71986D02*
X765860Y71986D01*
X765860Y72955D02*
X770840Y72955D01*
X770840Y73924D02*
X765860Y73924D01*
X765860Y74893D02*
X770840Y74893D01*
X770840Y75862D02*
X765860Y75862D01*
X765860Y76831D02*
X770840Y76831D01*
X770840Y77800D02*
X765860Y77800D01*
X765860Y78769D02*
X770840Y78769D01*
X758140Y79090D02*
X753160Y79090D01*
X758140Y79090D02*
X758140Y68110D01*
X753160Y68110D01*
X753160Y79090D01*
X753160Y69079D02*
X758140Y69079D01*
X758140Y70048D02*
X753160Y70048D01*
X753160Y71017D02*
X758140Y71017D01*
X758140Y71986D02*
X753160Y71986D01*
X753160Y72955D02*
X758140Y72955D01*
X758140Y73924D02*
X753160Y73924D01*
X753160Y74893D02*
X758140Y74893D01*
X758140Y75862D02*
X753160Y75862D01*
X753160Y76831D02*
X758140Y76831D01*
X758140Y77800D02*
X753160Y77800D01*
X753160Y78769D02*
X758140Y78769D01*
X745440Y79090D02*
X740460Y79090D01*
X745440Y79090D02*
X745440Y68110D01*
X740460Y68110D01*
X740460Y79090D01*
X740460Y69079D02*
X745440Y69079D01*
X745440Y70048D02*
X740460Y70048D01*
X740460Y71017D02*
X745440Y71017D01*
X745440Y71986D02*
X740460Y71986D01*
X740460Y72955D02*
X745440Y72955D01*
X745440Y73924D02*
X740460Y73924D01*
X740460Y74893D02*
X745440Y74893D01*
X745440Y75862D02*
X740460Y75862D01*
X740460Y76831D02*
X745440Y76831D01*
X745440Y77800D02*
X740460Y77800D01*
X740460Y78769D02*
X745440Y78769D01*
X732740Y79090D02*
X727760Y79090D01*
X732740Y79090D02*
X732740Y68110D01*
X727760Y68110D01*
X727760Y79090D01*
X727760Y69079D02*
X732740Y69079D01*
X732740Y70048D02*
X727760Y70048D01*
X727760Y71017D02*
X732740Y71017D01*
X732740Y71986D02*
X727760Y71986D01*
X727760Y72955D02*
X732740Y72955D01*
X732740Y73924D02*
X727760Y73924D01*
X727760Y74893D02*
X732740Y74893D01*
X732740Y75862D02*
X727760Y75862D01*
X727760Y76831D02*
X732740Y76831D01*
X732740Y77800D02*
X727760Y77800D01*
X727760Y78769D02*
X732740Y78769D01*
X720040Y79090D02*
X715060Y79090D01*
X720040Y79090D02*
X720040Y68110D01*
X715060Y68110D01*
X715060Y79090D01*
X715060Y69079D02*
X720040Y69079D01*
X720040Y70048D02*
X715060Y70048D01*
X715060Y71017D02*
X720040Y71017D01*
X720040Y71986D02*
X715060Y71986D01*
X715060Y72955D02*
X720040Y72955D01*
X720040Y73924D02*
X715060Y73924D01*
X715060Y74893D02*
X720040Y74893D01*
X720040Y75862D02*
X715060Y75862D01*
X715060Y76831D02*
X720040Y76831D01*
X720040Y77800D02*
X715060Y77800D01*
X715060Y78769D02*
X720040Y78769D01*
X707340Y79090D02*
X702360Y79090D01*
X707340Y79090D02*
X707340Y68110D01*
X702360Y68110D01*
X702360Y79090D01*
X702360Y69079D02*
X707340Y69079D01*
X707340Y70048D02*
X702360Y70048D01*
X702360Y71017D02*
X707340Y71017D01*
X707340Y71986D02*
X702360Y71986D01*
X702360Y72955D02*
X707340Y72955D01*
X707340Y73924D02*
X702360Y73924D01*
X702360Y74893D02*
X707340Y74893D01*
X707340Y75862D02*
X702360Y75862D01*
X702360Y76831D02*
X707340Y76831D01*
X707340Y77800D02*
X702360Y77800D01*
X702360Y78769D02*
X707340Y78769D01*
X694640Y79090D02*
X689660Y79090D01*
X694640Y79090D02*
X694640Y68110D01*
X689660Y68110D01*
X689660Y79090D01*
X689660Y69079D02*
X694640Y69079D01*
X694640Y70048D02*
X689660Y70048D01*
X689660Y71017D02*
X694640Y71017D01*
X694640Y71986D02*
X689660Y71986D01*
X689660Y72955D02*
X694640Y72955D01*
X694640Y73924D02*
X689660Y73924D01*
X689660Y74893D02*
X694640Y74893D01*
X694640Y75862D02*
X689660Y75862D01*
X689660Y76831D02*
X694640Y76831D01*
X694640Y77800D02*
X689660Y77800D01*
X689660Y78769D02*
X694640Y78769D01*
X694640Y135090D02*
X689660Y135090D01*
X694640Y135090D02*
X694640Y124110D01*
X689660Y124110D01*
X689660Y135090D01*
X689660Y125079D02*
X694640Y125079D01*
X694640Y126048D02*
X689660Y126048D01*
X689660Y127017D02*
X694640Y127017D01*
X694640Y127986D02*
X689660Y127986D01*
X689660Y128955D02*
X694640Y128955D01*
X694640Y129924D02*
X689660Y129924D01*
X689660Y130893D02*
X694640Y130893D01*
X694640Y131862D02*
X689660Y131862D01*
X689660Y132831D02*
X694640Y132831D01*
X694640Y133800D02*
X689660Y133800D01*
X689660Y134769D02*
X694640Y134769D01*
X702360Y135090D02*
X707340Y135090D01*
X707340Y124110D01*
X702360Y124110D01*
X702360Y135090D01*
X702360Y125079D02*
X707340Y125079D01*
X707340Y126048D02*
X702360Y126048D01*
X702360Y127017D02*
X707340Y127017D01*
X707340Y127986D02*
X702360Y127986D01*
X702360Y128955D02*
X707340Y128955D01*
X707340Y129924D02*
X702360Y129924D01*
X702360Y130893D02*
X707340Y130893D01*
X707340Y131862D02*
X702360Y131862D01*
X702360Y132831D02*
X707340Y132831D01*
X707340Y133800D02*
X702360Y133800D01*
X702360Y134769D02*
X707340Y134769D01*
X715060Y135090D02*
X720040Y135090D01*
X720040Y124110D01*
X715060Y124110D01*
X715060Y135090D01*
X715060Y125079D02*
X720040Y125079D01*
X720040Y126048D02*
X715060Y126048D01*
X715060Y127017D02*
X720040Y127017D01*
X720040Y127986D02*
X715060Y127986D01*
X715060Y128955D02*
X720040Y128955D01*
X720040Y129924D02*
X715060Y129924D01*
X715060Y130893D02*
X720040Y130893D01*
X720040Y131862D02*
X715060Y131862D01*
X715060Y132831D02*
X720040Y132831D01*
X720040Y133800D02*
X715060Y133800D01*
X715060Y134769D02*
X720040Y134769D01*
X727760Y135090D02*
X732740Y135090D01*
X732740Y124110D01*
X727760Y124110D01*
X727760Y135090D01*
X727760Y125079D02*
X732740Y125079D01*
X732740Y126048D02*
X727760Y126048D01*
X727760Y127017D02*
X732740Y127017D01*
X732740Y127986D02*
X727760Y127986D01*
X727760Y128955D02*
X732740Y128955D01*
X732740Y129924D02*
X727760Y129924D01*
X727760Y130893D02*
X732740Y130893D01*
X732740Y131862D02*
X727760Y131862D01*
X727760Y132831D02*
X732740Y132831D01*
X732740Y133800D02*
X727760Y133800D01*
X727760Y134769D02*
X732740Y134769D01*
X740460Y135090D02*
X745440Y135090D01*
X745440Y124110D01*
X740460Y124110D01*
X740460Y135090D01*
X740460Y125079D02*
X745440Y125079D01*
X745440Y126048D02*
X740460Y126048D01*
X740460Y127017D02*
X745440Y127017D01*
X745440Y127986D02*
X740460Y127986D01*
X740460Y128955D02*
X745440Y128955D01*
X745440Y129924D02*
X740460Y129924D01*
X740460Y130893D02*
X745440Y130893D01*
X745440Y131862D02*
X740460Y131862D01*
X740460Y132831D02*
X745440Y132831D01*
X745440Y133800D02*
X740460Y133800D01*
X740460Y134769D02*
X745440Y134769D01*
X753160Y135090D02*
X758140Y135090D01*
X758140Y124110D01*
X753160Y124110D01*
X753160Y135090D01*
X753160Y125079D02*
X758140Y125079D01*
X758140Y126048D02*
X753160Y126048D01*
X753160Y127017D02*
X758140Y127017D01*
X758140Y127986D02*
X753160Y127986D01*
X753160Y128955D02*
X758140Y128955D01*
X758140Y129924D02*
X753160Y129924D01*
X753160Y130893D02*
X758140Y130893D01*
X758140Y131862D02*
X753160Y131862D01*
X753160Y132831D02*
X758140Y132831D01*
X758140Y133800D02*
X753160Y133800D01*
X753160Y134769D02*
X758140Y134769D01*
X765860Y135090D02*
X770840Y135090D01*
X770840Y124110D01*
X765860Y124110D01*
X765860Y135090D01*
X765860Y125079D02*
X770840Y125079D01*
X770840Y126048D02*
X765860Y126048D01*
X765860Y127017D02*
X770840Y127017D01*
X770840Y127986D02*
X765860Y127986D01*
X765860Y128955D02*
X770840Y128955D01*
X770840Y129924D02*
X765860Y129924D01*
X765860Y130893D02*
X770840Y130893D01*
X770840Y131862D02*
X765860Y131862D01*
X765860Y132831D02*
X770840Y132831D01*
X770840Y133800D02*
X765860Y133800D01*
X765860Y134769D02*
X770840Y134769D01*
X778560Y135090D02*
X783540Y135090D01*
X783540Y124110D01*
X778560Y124110D01*
X778560Y135090D01*
X778560Y125079D02*
X783540Y125079D01*
X783540Y126048D02*
X778560Y126048D01*
X778560Y127017D02*
X783540Y127017D01*
X783540Y127986D02*
X778560Y127986D01*
X778560Y128955D02*
X783540Y128955D01*
X783540Y129924D02*
X778560Y129924D01*
X778560Y130893D02*
X783540Y130893D01*
X783540Y131862D02*
X778560Y131862D01*
X778560Y132831D02*
X783540Y132831D01*
X783540Y133800D02*
X778560Y133800D01*
X778560Y134769D02*
X783540Y134769D01*
D10*
X1110104Y94355D02*
X1110104Y89845D01*
X1099094Y89845D01*
X1099094Y94355D01*
X1110104Y94355D01*
X1110104Y90785D02*
X1099094Y90785D01*
X1099094Y91725D02*
X1110104Y91725D01*
X1110104Y92665D02*
X1099094Y92665D01*
X1099094Y93605D02*
X1110104Y93605D01*
X1110104Y99345D02*
X1110104Y103855D01*
X1110104Y99345D02*
X1099094Y99345D01*
X1099094Y103855D01*
X1110104Y103855D01*
X1110104Y100285D02*
X1099094Y100285D01*
X1099094Y101225D02*
X1110104Y101225D01*
X1110104Y102165D02*
X1099094Y102165D01*
X1099094Y103105D02*
X1110104Y103105D01*
X1110104Y108845D02*
X1110104Y113355D01*
X1110104Y108845D02*
X1099094Y108845D01*
X1099094Y113355D01*
X1110104Y113355D01*
X1110104Y109785D02*
X1099094Y109785D01*
X1099094Y110725D02*
X1110104Y110725D01*
X1110104Y111665D02*
X1099094Y111665D01*
X1099094Y112605D02*
X1110104Y112605D01*
X1136106Y113355D02*
X1136106Y108845D01*
X1125096Y108845D01*
X1125096Y113355D01*
X1136106Y113355D01*
X1136106Y109785D02*
X1125096Y109785D01*
X1125096Y110725D02*
X1136106Y110725D01*
X1136106Y111665D02*
X1125096Y111665D01*
X1125096Y112605D02*
X1136106Y112605D01*
X1136106Y94355D02*
X1136106Y89845D01*
X1125096Y89845D01*
X1125096Y94355D01*
X1136106Y94355D01*
X1136106Y90785D02*
X1125096Y90785D01*
X1125096Y91725D02*
X1136106Y91725D01*
X1136106Y92665D02*
X1125096Y92665D01*
X1125096Y93605D02*
X1136106Y93605D01*
D11*
X1131100Y131500D02*
X1121100Y131500D01*
X1131100Y131500D02*
X1131100Y122500D01*
X1121100Y122500D01*
X1121100Y131500D01*
X1121100Y123450D02*
X1131100Y123450D01*
X1131100Y124400D02*
X1121100Y124400D01*
X1121100Y125350D02*
X1131100Y125350D01*
X1131100Y126300D02*
X1121100Y126300D01*
X1121100Y127250D02*
X1131100Y127250D01*
X1131100Y128200D02*
X1121100Y128200D01*
X1121100Y129150D02*
X1131100Y129150D01*
X1131100Y130100D02*
X1121100Y130100D01*
X1121100Y131050D02*
X1131100Y131050D01*
X1114100Y131500D02*
X1104100Y131500D01*
X1114100Y131500D02*
X1114100Y122500D01*
X1104100Y122500D01*
X1104100Y131500D01*
X1104100Y123450D02*
X1114100Y123450D01*
X1114100Y124400D02*
X1104100Y124400D01*
X1104100Y125350D02*
X1114100Y125350D01*
X1114100Y126300D02*
X1104100Y126300D01*
X1104100Y127250D02*
X1114100Y127250D01*
X1114100Y128200D02*
X1104100Y128200D01*
X1104100Y129150D02*
X1114100Y129150D01*
X1114100Y130100D02*
X1104100Y130100D01*
X1104100Y131050D02*
X1114100Y131050D01*
X948000Y115100D02*
X948000Y105100D01*
X948000Y115100D02*
X957000Y115100D01*
X957000Y105100D01*
X948000Y105100D01*
X948000Y106050D02*
X957000Y106050D01*
X957000Y107000D02*
X948000Y107000D01*
X948000Y107950D02*
X957000Y107950D01*
X957000Y108900D02*
X948000Y108900D01*
X948000Y109850D02*
X957000Y109850D01*
X957000Y110800D02*
X948000Y110800D01*
X948000Y111750D02*
X957000Y111750D01*
X957000Y112700D02*
X948000Y112700D01*
X948000Y113650D02*
X957000Y113650D01*
X957000Y114600D02*
X948000Y114600D01*
X948000Y98100D02*
X948000Y88100D01*
X948000Y98100D02*
X957000Y98100D01*
X957000Y88100D01*
X948000Y88100D01*
X948000Y89050D02*
X957000Y89050D01*
X957000Y90000D02*
X948000Y90000D01*
X948000Y90950D02*
X957000Y90950D01*
X957000Y91900D02*
X948000Y91900D01*
X948000Y92850D02*
X957000Y92850D01*
X957000Y93800D02*
X948000Y93800D01*
X948000Y94750D02*
X957000Y94750D01*
X957000Y95700D02*
X948000Y95700D01*
X948000Y96650D02*
X957000Y96650D01*
X957000Y97600D02*
X948000Y97600D01*
X931600Y79050D02*
X931600Y69050D01*
X922600Y69050D01*
X922600Y79050D01*
X931600Y79050D01*
X931600Y70000D02*
X922600Y70000D01*
X922600Y70950D02*
X931600Y70950D01*
X931600Y71900D02*
X922600Y71900D01*
X922600Y72850D02*
X931600Y72850D01*
X931600Y73800D02*
X922600Y73800D01*
X922600Y74750D02*
X931600Y74750D01*
X931600Y75700D02*
X922600Y75700D01*
X922600Y76650D02*
X931600Y76650D01*
X931600Y77600D02*
X922600Y77600D01*
X922600Y78550D02*
X931600Y78550D01*
X931600Y86050D02*
X931600Y96050D01*
X931600Y86050D02*
X922600Y86050D01*
X922600Y96050D01*
X931600Y96050D01*
X931600Y87000D02*
X922600Y87000D01*
X922600Y87950D02*
X931600Y87950D01*
X931600Y88900D02*
X922600Y88900D01*
X922600Y89850D02*
X931600Y89850D01*
X931600Y90800D02*
X922600Y90800D01*
X922600Y91750D02*
X931600Y91750D01*
X931600Y92700D02*
X922600Y92700D01*
X922600Y93650D02*
X931600Y93650D01*
X931600Y94600D02*
X922600Y94600D01*
X922600Y95550D02*
X931600Y95550D01*
X922600Y124150D02*
X922600Y134150D01*
X931600Y134150D01*
X931600Y124150D01*
X922600Y124150D01*
X922600Y125100D02*
X931600Y125100D01*
X931600Y126050D02*
X922600Y126050D01*
X922600Y127000D02*
X931600Y127000D01*
X931600Y127950D02*
X922600Y127950D01*
X922600Y128900D02*
X931600Y128900D01*
X931600Y129850D02*
X922600Y129850D01*
X922600Y130800D02*
X931600Y130800D01*
X931600Y131750D02*
X922600Y131750D01*
X922600Y132700D02*
X931600Y132700D01*
X931600Y133650D02*
X922600Y133650D01*
X922600Y117150D02*
X922600Y107150D01*
X922600Y117150D02*
X931600Y117150D01*
X931600Y107150D01*
X922600Y107150D01*
X922600Y108100D02*
X931600Y108100D01*
X931600Y109050D02*
X922600Y109050D01*
X922600Y110000D02*
X931600Y110000D01*
X931600Y110950D02*
X922600Y110950D01*
X922600Y111900D02*
X931600Y111900D01*
X931600Y112850D02*
X922600Y112850D01*
X922600Y113800D02*
X931600Y113800D01*
X931600Y114750D02*
X922600Y114750D01*
X922600Y115700D02*
X931600Y115700D01*
X931600Y116650D02*
X922600Y116650D01*
D12*
X1053835Y226125D02*
X1068785Y226125D01*
X1053835Y226125D02*
X1053835Y232075D01*
X1068785Y232075D01*
X1068785Y226125D01*
X1068785Y227122D02*
X1053835Y227122D01*
X1053835Y228119D02*
X1068785Y228119D01*
X1068785Y229116D02*
X1053835Y229116D01*
X1053835Y230113D02*
X1068785Y230113D01*
X1068785Y231110D02*
X1053835Y231110D01*
X1053835Y237125D02*
X1068785Y237125D01*
X1053835Y237125D02*
X1053835Y243075D01*
X1068785Y243075D01*
X1068785Y237125D01*
X1068785Y238122D02*
X1053835Y238122D01*
X1053835Y239119D02*
X1068785Y239119D01*
X1068785Y240116D02*
X1053835Y240116D01*
X1053835Y241113D02*
X1068785Y241113D01*
X1068785Y242110D02*
X1053835Y242110D01*
X1053835Y248125D02*
X1068785Y248125D01*
X1053835Y248125D02*
X1053835Y254075D01*
X1068785Y254075D01*
X1068785Y248125D01*
X1068785Y249122D02*
X1053835Y249122D01*
X1053835Y250119D02*
X1068785Y250119D01*
X1068785Y251116D02*
X1053835Y251116D01*
X1053835Y252113D02*
X1068785Y252113D01*
X1068785Y253110D02*
X1053835Y253110D01*
X1053835Y215125D02*
X1068785Y215125D01*
X1053835Y215125D02*
X1053835Y221075D01*
X1068785Y221075D01*
X1068785Y215125D01*
X1068785Y216122D02*
X1053835Y216122D01*
X1053835Y217119D02*
X1068785Y217119D01*
X1068785Y218116D02*
X1053835Y218116D01*
X1053835Y219113D02*
X1068785Y219113D01*
X1068785Y220110D02*
X1053835Y220110D01*
X1053835Y204125D02*
X1068785Y204125D01*
X1053835Y204125D02*
X1053835Y210075D01*
X1068785Y210075D01*
X1068785Y204125D01*
X1068785Y205122D02*
X1053835Y205122D01*
X1053835Y206119D02*
X1068785Y206119D01*
X1068785Y207116D02*
X1053835Y207116D01*
X1053835Y208113D02*
X1068785Y208113D01*
X1068785Y209110D02*
X1053835Y209110D01*
X1053835Y193125D02*
X1068785Y193125D01*
X1053835Y193125D02*
X1053835Y199075D01*
X1068785Y199075D01*
X1068785Y193125D01*
X1068785Y194122D02*
X1053835Y194122D01*
X1053835Y195119D02*
X1068785Y195119D01*
X1068785Y196116D02*
X1053835Y196116D01*
X1053835Y197113D02*
X1068785Y197113D01*
X1068785Y198110D02*
X1053835Y198110D01*
X1053835Y182125D02*
X1068785Y182125D01*
X1053835Y182125D02*
X1053835Y188075D01*
X1068785Y188075D01*
X1068785Y182125D01*
X1068785Y183122D02*
X1053835Y183122D01*
X1053835Y184119D02*
X1068785Y184119D01*
X1068785Y185116D02*
X1053835Y185116D01*
X1053835Y186113D02*
X1068785Y186113D01*
X1068785Y187110D02*
X1053835Y187110D01*
X1053835Y171125D02*
X1068785Y171125D01*
X1053835Y171125D02*
X1053835Y177075D01*
X1068785Y177075D01*
X1068785Y171125D01*
X1068785Y172122D02*
X1053835Y172122D01*
X1053835Y173119D02*
X1068785Y173119D01*
X1068785Y174116D02*
X1053835Y174116D01*
X1053835Y175113D02*
X1068785Y175113D01*
X1068785Y176110D02*
X1053835Y176110D01*
X1053835Y160125D02*
X1068785Y160125D01*
X1053835Y160125D02*
X1053835Y166075D01*
X1068785Y166075D01*
X1068785Y160125D01*
X1068785Y161122D02*
X1053835Y161122D01*
X1053835Y162119D02*
X1068785Y162119D01*
X1068785Y163116D02*
X1053835Y163116D01*
X1053835Y164113D02*
X1068785Y164113D01*
X1068785Y165110D02*
X1053835Y165110D01*
D13*
X970830Y300580D02*
X970830Y311620D01*
X970830Y300580D02*
X949790Y300580D01*
X949790Y311620D01*
X970830Y311620D01*
X970830Y301492D02*
X949790Y301492D01*
X949790Y302404D02*
X970830Y302404D01*
X970830Y303316D02*
X949790Y303316D01*
X949790Y304228D02*
X970830Y304228D01*
X970830Y305140D02*
X949790Y305140D01*
X949790Y306052D02*
X970830Y306052D01*
X970830Y306964D02*
X949790Y306964D01*
X949790Y307876D02*
X970830Y307876D01*
X970830Y308788D02*
X949790Y308788D01*
X949790Y309700D02*
X970830Y309700D01*
X970830Y310612D02*
X949790Y310612D01*
X949790Y311524D02*
X970830Y311524D01*
X970830Y156620D02*
X970830Y145580D01*
X949790Y145580D01*
X949790Y156620D01*
X970830Y156620D01*
X970830Y146492D02*
X949790Y146492D01*
X949790Y147404D02*
X970830Y147404D01*
X970830Y148316D02*
X949790Y148316D01*
X949790Y149228D02*
X970830Y149228D01*
X970830Y150140D02*
X949790Y150140D01*
X949790Y151052D02*
X970830Y151052D01*
X970830Y151964D02*
X949790Y151964D01*
X949790Y152876D02*
X970830Y152876D01*
X970830Y153788D02*
X949790Y153788D01*
X949790Y154700D02*
X970830Y154700D01*
X970830Y155612D02*
X949790Y155612D01*
X949790Y156524D02*
X970830Y156524D01*
D14*
X1062820Y289590D02*
X1062820Y304610D01*
X1062820Y289590D02*
X1049800Y289590D01*
X1049800Y304610D01*
X1062820Y304610D01*
X1062820Y290521D02*
X1049800Y290521D01*
X1049800Y291452D02*
X1062820Y291452D01*
X1062820Y292383D02*
X1049800Y292383D01*
X1049800Y293314D02*
X1062820Y293314D01*
X1062820Y294245D02*
X1049800Y294245D01*
X1049800Y295176D02*
X1062820Y295176D01*
X1062820Y296107D02*
X1049800Y296107D01*
X1049800Y297038D02*
X1062820Y297038D01*
X1062820Y297969D02*
X1049800Y297969D01*
X1049800Y298900D02*
X1062820Y298900D01*
X1062820Y299831D02*
X1049800Y299831D01*
X1049800Y300762D02*
X1062820Y300762D01*
X1062820Y301693D02*
X1049800Y301693D01*
X1049800Y302624D02*
X1062820Y302624D01*
X1062820Y303555D02*
X1049800Y303555D01*
X1049800Y304486D02*
X1062820Y304486D01*
D13*
X1062830Y156620D02*
X1062830Y145580D01*
X1047790Y145580D01*
X1047790Y156620D01*
X1062830Y156620D01*
X1062830Y146492D02*
X1047790Y146492D01*
X1047790Y147404D02*
X1062830Y147404D01*
X1062830Y148316D02*
X1047790Y148316D01*
X1047790Y149228D02*
X1062830Y149228D01*
X1062830Y150140D02*
X1047790Y150140D01*
X1047790Y151052D02*
X1062830Y151052D01*
X1062830Y151964D02*
X1047790Y151964D01*
X1047790Y152876D02*
X1062830Y152876D01*
X1062830Y153788D02*
X1047790Y153788D01*
X1047790Y154700D02*
X1062830Y154700D01*
X1062830Y155612D02*
X1047790Y155612D01*
X1047790Y156524D02*
X1062830Y156524D01*
D15*
X1083360Y79090D02*
X1088340Y79090D01*
X1088340Y68110D01*
X1083360Y68110D01*
X1083360Y79090D01*
X1083360Y69079D02*
X1088340Y69079D01*
X1088340Y70048D02*
X1083360Y70048D01*
X1083360Y71017D02*
X1088340Y71017D01*
X1088340Y71986D02*
X1083360Y71986D01*
X1083360Y72955D02*
X1088340Y72955D01*
X1088340Y73924D02*
X1083360Y73924D01*
X1083360Y74893D02*
X1088340Y74893D01*
X1088340Y75862D02*
X1083360Y75862D01*
X1083360Y76831D02*
X1088340Y76831D01*
X1088340Y77800D02*
X1083360Y77800D01*
X1083360Y78769D02*
X1088340Y78769D01*
X1075640Y79090D02*
X1070660Y79090D01*
X1075640Y79090D02*
X1075640Y68110D01*
X1070660Y68110D01*
X1070660Y79090D01*
X1070660Y69079D02*
X1075640Y69079D01*
X1075640Y70048D02*
X1070660Y70048D01*
X1070660Y71017D02*
X1075640Y71017D01*
X1075640Y71986D02*
X1070660Y71986D01*
X1070660Y72955D02*
X1075640Y72955D01*
X1075640Y73924D02*
X1070660Y73924D01*
X1070660Y74893D02*
X1075640Y74893D01*
X1075640Y75862D02*
X1070660Y75862D01*
X1070660Y76831D02*
X1075640Y76831D01*
X1075640Y77800D02*
X1070660Y77800D01*
X1070660Y78769D02*
X1075640Y78769D01*
X1062940Y79090D02*
X1057960Y79090D01*
X1062940Y79090D02*
X1062940Y68110D01*
X1057960Y68110D01*
X1057960Y79090D01*
X1057960Y69079D02*
X1062940Y69079D01*
X1062940Y70048D02*
X1057960Y70048D01*
X1057960Y71017D02*
X1062940Y71017D01*
X1062940Y71986D02*
X1057960Y71986D01*
X1057960Y72955D02*
X1062940Y72955D01*
X1062940Y73924D02*
X1057960Y73924D01*
X1057960Y74893D02*
X1062940Y74893D01*
X1062940Y75862D02*
X1057960Y75862D01*
X1057960Y76831D02*
X1062940Y76831D01*
X1062940Y77800D02*
X1057960Y77800D01*
X1057960Y78769D02*
X1062940Y78769D01*
X1050240Y79090D02*
X1045260Y79090D01*
X1050240Y79090D02*
X1050240Y68110D01*
X1045260Y68110D01*
X1045260Y79090D01*
X1045260Y69079D02*
X1050240Y69079D01*
X1050240Y70048D02*
X1045260Y70048D01*
X1045260Y71017D02*
X1050240Y71017D01*
X1050240Y71986D02*
X1045260Y71986D01*
X1045260Y72955D02*
X1050240Y72955D01*
X1050240Y73924D02*
X1045260Y73924D01*
X1045260Y74893D02*
X1050240Y74893D01*
X1050240Y75862D02*
X1045260Y75862D01*
X1045260Y76831D02*
X1050240Y76831D01*
X1050240Y77800D02*
X1045260Y77800D01*
X1045260Y78769D02*
X1050240Y78769D01*
X1037540Y79090D02*
X1032560Y79090D01*
X1037540Y79090D02*
X1037540Y68110D01*
X1032560Y68110D01*
X1032560Y79090D01*
X1032560Y69079D02*
X1037540Y69079D01*
X1037540Y70048D02*
X1032560Y70048D01*
X1032560Y71017D02*
X1037540Y71017D01*
X1037540Y71986D02*
X1032560Y71986D01*
X1032560Y72955D02*
X1037540Y72955D01*
X1037540Y73924D02*
X1032560Y73924D01*
X1032560Y74893D02*
X1037540Y74893D01*
X1037540Y75862D02*
X1032560Y75862D01*
X1032560Y76831D02*
X1037540Y76831D01*
X1037540Y77800D02*
X1032560Y77800D01*
X1032560Y78769D02*
X1037540Y78769D01*
X1024840Y79090D02*
X1019860Y79090D01*
X1024840Y79090D02*
X1024840Y68110D01*
X1019860Y68110D01*
X1019860Y79090D01*
X1019860Y69079D02*
X1024840Y69079D01*
X1024840Y70048D02*
X1019860Y70048D01*
X1019860Y71017D02*
X1024840Y71017D01*
X1024840Y71986D02*
X1019860Y71986D01*
X1019860Y72955D02*
X1024840Y72955D01*
X1024840Y73924D02*
X1019860Y73924D01*
X1019860Y74893D02*
X1024840Y74893D01*
X1024840Y75862D02*
X1019860Y75862D01*
X1019860Y76831D02*
X1024840Y76831D01*
X1024840Y77800D02*
X1019860Y77800D01*
X1019860Y78769D02*
X1024840Y78769D01*
X1012140Y79090D02*
X1007160Y79090D01*
X1012140Y79090D02*
X1012140Y68110D01*
X1007160Y68110D01*
X1007160Y79090D01*
X1007160Y69079D02*
X1012140Y69079D01*
X1012140Y70048D02*
X1007160Y70048D01*
X1007160Y71017D02*
X1012140Y71017D01*
X1012140Y71986D02*
X1007160Y71986D01*
X1007160Y72955D02*
X1012140Y72955D01*
X1012140Y73924D02*
X1007160Y73924D01*
X1007160Y74893D02*
X1012140Y74893D01*
X1012140Y75862D02*
X1007160Y75862D01*
X1007160Y76831D02*
X1012140Y76831D01*
X1012140Y77800D02*
X1007160Y77800D01*
X1007160Y78769D02*
X1012140Y78769D01*
X999440Y79090D02*
X994460Y79090D01*
X999440Y79090D02*
X999440Y68110D01*
X994460Y68110D01*
X994460Y79090D01*
X994460Y69079D02*
X999440Y69079D01*
X999440Y70048D02*
X994460Y70048D01*
X994460Y71017D02*
X999440Y71017D01*
X999440Y71986D02*
X994460Y71986D01*
X994460Y72955D02*
X999440Y72955D01*
X999440Y73924D02*
X994460Y73924D01*
X994460Y74893D02*
X999440Y74893D01*
X999440Y75862D02*
X994460Y75862D01*
X994460Y76831D02*
X999440Y76831D01*
X999440Y77800D02*
X994460Y77800D01*
X994460Y78769D02*
X999440Y78769D01*
X999440Y135090D02*
X994460Y135090D01*
X999440Y135090D02*
X999440Y124110D01*
X994460Y124110D01*
X994460Y135090D01*
X994460Y125079D02*
X999440Y125079D01*
X999440Y126048D02*
X994460Y126048D01*
X994460Y127017D02*
X999440Y127017D01*
X999440Y127986D02*
X994460Y127986D01*
X994460Y128955D02*
X999440Y128955D01*
X999440Y129924D02*
X994460Y129924D01*
X994460Y130893D02*
X999440Y130893D01*
X999440Y131862D02*
X994460Y131862D01*
X994460Y132831D02*
X999440Y132831D01*
X999440Y133800D02*
X994460Y133800D01*
X994460Y134769D02*
X999440Y134769D01*
X1007160Y135090D02*
X1012140Y135090D01*
X1012140Y124110D01*
X1007160Y124110D01*
X1007160Y135090D01*
X1007160Y125079D02*
X1012140Y125079D01*
X1012140Y126048D02*
X1007160Y126048D01*
X1007160Y127017D02*
X1012140Y127017D01*
X1012140Y127986D02*
X1007160Y127986D01*
X1007160Y128955D02*
X1012140Y128955D01*
X1012140Y129924D02*
X1007160Y129924D01*
X1007160Y130893D02*
X1012140Y130893D01*
X1012140Y131862D02*
X1007160Y131862D01*
X1007160Y132831D02*
X1012140Y132831D01*
X1012140Y133800D02*
X1007160Y133800D01*
X1007160Y134769D02*
X1012140Y134769D01*
X1019860Y135090D02*
X1024840Y135090D01*
X1024840Y124110D01*
X1019860Y124110D01*
X1019860Y135090D01*
X1019860Y125079D02*
X1024840Y125079D01*
X1024840Y126048D02*
X1019860Y126048D01*
X1019860Y127017D02*
X1024840Y127017D01*
X1024840Y127986D02*
X1019860Y127986D01*
X1019860Y128955D02*
X1024840Y128955D01*
X1024840Y129924D02*
X1019860Y129924D01*
X1019860Y130893D02*
X1024840Y130893D01*
X1024840Y131862D02*
X1019860Y131862D01*
X1019860Y132831D02*
X1024840Y132831D01*
X1024840Y133800D02*
X1019860Y133800D01*
X1019860Y134769D02*
X1024840Y134769D01*
X1032560Y135090D02*
X1037540Y135090D01*
X1037540Y124110D01*
X1032560Y124110D01*
X1032560Y135090D01*
X1032560Y125079D02*
X1037540Y125079D01*
X1037540Y126048D02*
X1032560Y126048D01*
X1032560Y127017D02*
X1037540Y127017D01*
X1037540Y127986D02*
X1032560Y127986D01*
X1032560Y128955D02*
X1037540Y128955D01*
X1037540Y129924D02*
X1032560Y129924D01*
X1032560Y130893D02*
X1037540Y130893D01*
X1037540Y131862D02*
X1032560Y131862D01*
X1032560Y132831D02*
X1037540Y132831D01*
X1037540Y133800D02*
X1032560Y133800D01*
X1032560Y134769D02*
X1037540Y134769D01*
X1045260Y135090D02*
X1050240Y135090D01*
X1050240Y124110D01*
X1045260Y124110D01*
X1045260Y135090D01*
X1045260Y125079D02*
X1050240Y125079D01*
X1050240Y126048D02*
X1045260Y126048D01*
X1045260Y127017D02*
X1050240Y127017D01*
X1050240Y127986D02*
X1045260Y127986D01*
X1045260Y128955D02*
X1050240Y128955D01*
X1050240Y129924D02*
X1045260Y129924D01*
X1045260Y130893D02*
X1050240Y130893D01*
X1050240Y131862D02*
X1045260Y131862D01*
X1045260Y132831D02*
X1050240Y132831D01*
X1050240Y133800D02*
X1045260Y133800D01*
X1045260Y134769D02*
X1050240Y134769D01*
X1057960Y135090D02*
X1062940Y135090D01*
X1062940Y124110D01*
X1057960Y124110D01*
X1057960Y135090D01*
X1057960Y125079D02*
X1062940Y125079D01*
X1062940Y126048D02*
X1057960Y126048D01*
X1057960Y127017D02*
X1062940Y127017D01*
X1062940Y127986D02*
X1057960Y127986D01*
X1057960Y128955D02*
X1062940Y128955D01*
X1062940Y129924D02*
X1057960Y129924D01*
X1057960Y130893D02*
X1062940Y130893D01*
X1062940Y131862D02*
X1057960Y131862D01*
X1057960Y132831D02*
X1062940Y132831D01*
X1062940Y133800D02*
X1057960Y133800D01*
X1057960Y134769D02*
X1062940Y134769D01*
X1070660Y135090D02*
X1075640Y135090D01*
X1075640Y124110D01*
X1070660Y124110D01*
X1070660Y135090D01*
X1070660Y125079D02*
X1075640Y125079D01*
X1075640Y126048D02*
X1070660Y126048D01*
X1070660Y127017D02*
X1075640Y127017D01*
X1075640Y127986D02*
X1070660Y127986D01*
X1070660Y128955D02*
X1075640Y128955D01*
X1075640Y129924D02*
X1070660Y129924D01*
X1070660Y130893D02*
X1075640Y130893D01*
X1075640Y131862D02*
X1070660Y131862D01*
X1070660Y132831D02*
X1075640Y132831D01*
X1075640Y133800D02*
X1070660Y133800D01*
X1070660Y134769D02*
X1075640Y134769D01*
X1083360Y135090D02*
X1088340Y135090D01*
X1088340Y124110D01*
X1083360Y124110D01*
X1083360Y135090D01*
X1083360Y125079D02*
X1088340Y125079D01*
X1088340Y126048D02*
X1083360Y126048D01*
X1083360Y127017D02*
X1088340Y127017D01*
X1088340Y127986D02*
X1083360Y127986D01*
X1083360Y128955D02*
X1088340Y128955D01*
X1088340Y129924D02*
X1083360Y129924D01*
X1083360Y130893D02*
X1088340Y130893D01*
X1088340Y131862D02*
X1083360Y131862D01*
X1083360Y132831D02*
X1088340Y132831D01*
X1088340Y133800D02*
X1083360Y133800D01*
X1083360Y134769D02*
X1088340Y134769D01*
D10*
X1414904Y94355D02*
X1414904Y89845D01*
X1403894Y89845D01*
X1403894Y94355D01*
X1414904Y94355D01*
X1414904Y90785D02*
X1403894Y90785D01*
X1403894Y91725D02*
X1414904Y91725D01*
X1414904Y92665D02*
X1403894Y92665D01*
X1403894Y93605D02*
X1414904Y93605D01*
X1414904Y99345D02*
X1414904Y103855D01*
X1414904Y99345D02*
X1403894Y99345D01*
X1403894Y103855D01*
X1414904Y103855D01*
X1414904Y100285D02*
X1403894Y100285D01*
X1403894Y101225D02*
X1414904Y101225D01*
X1414904Y102165D02*
X1403894Y102165D01*
X1403894Y103105D02*
X1414904Y103105D01*
X1414904Y108845D02*
X1414904Y113355D01*
X1414904Y108845D02*
X1403894Y108845D01*
X1403894Y113355D01*
X1414904Y113355D01*
X1414904Y109785D02*
X1403894Y109785D01*
X1403894Y110725D02*
X1414904Y110725D01*
X1414904Y111665D02*
X1403894Y111665D01*
X1403894Y112605D02*
X1414904Y112605D01*
X1440906Y113355D02*
X1440906Y108845D01*
X1429896Y108845D01*
X1429896Y113355D01*
X1440906Y113355D01*
X1440906Y109785D02*
X1429896Y109785D01*
X1429896Y110725D02*
X1440906Y110725D01*
X1440906Y111665D02*
X1429896Y111665D01*
X1429896Y112605D02*
X1440906Y112605D01*
X1440906Y94355D02*
X1440906Y89845D01*
X1429896Y89845D01*
X1429896Y94355D01*
X1440906Y94355D01*
X1440906Y90785D02*
X1429896Y90785D01*
X1429896Y91725D02*
X1440906Y91725D01*
X1440906Y92665D02*
X1429896Y92665D01*
X1429896Y93605D02*
X1440906Y93605D01*
D11*
X1435900Y131500D02*
X1425900Y131500D01*
X1435900Y131500D02*
X1435900Y122500D01*
X1425900Y122500D01*
X1425900Y131500D01*
X1425900Y123450D02*
X1435900Y123450D01*
X1435900Y124400D02*
X1425900Y124400D01*
X1425900Y125350D02*
X1435900Y125350D01*
X1435900Y126300D02*
X1425900Y126300D01*
X1425900Y127250D02*
X1435900Y127250D01*
X1435900Y128200D02*
X1425900Y128200D01*
X1425900Y129150D02*
X1435900Y129150D01*
X1435900Y130100D02*
X1425900Y130100D01*
X1425900Y131050D02*
X1435900Y131050D01*
X1418900Y131500D02*
X1408900Y131500D01*
X1418900Y131500D02*
X1418900Y122500D01*
X1408900Y122500D01*
X1408900Y131500D01*
X1408900Y123450D02*
X1418900Y123450D01*
X1418900Y124400D02*
X1408900Y124400D01*
X1408900Y125350D02*
X1418900Y125350D01*
X1418900Y126300D02*
X1408900Y126300D01*
X1408900Y127250D02*
X1418900Y127250D01*
X1418900Y128200D02*
X1408900Y128200D01*
X1408900Y129150D02*
X1418900Y129150D01*
X1418900Y130100D02*
X1408900Y130100D01*
X1408900Y131050D02*
X1418900Y131050D01*
X1252800Y115100D02*
X1252800Y105100D01*
X1252800Y115100D02*
X1261800Y115100D01*
X1261800Y105100D01*
X1252800Y105100D01*
X1252800Y106050D02*
X1261800Y106050D01*
X1261800Y107000D02*
X1252800Y107000D01*
X1252800Y107950D02*
X1261800Y107950D01*
X1261800Y108900D02*
X1252800Y108900D01*
X1252800Y109850D02*
X1261800Y109850D01*
X1261800Y110800D02*
X1252800Y110800D01*
X1252800Y111750D02*
X1261800Y111750D01*
X1261800Y112700D02*
X1252800Y112700D01*
X1252800Y113650D02*
X1261800Y113650D01*
X1261800Y114600D02*
X1252800Y114600D01*
X1252800Y98100D02*
X1252800Y88100D01*
X1252800Y98100D02*
X1261800Y98100D01*
X1261800Y88100D01*
X1252800Y88100D01*
X1252800Y89050D02*
X1261800Y89050D01*
X1261800Y90000D02*
X1252800Y90000D01*
X1252800Y90950D02*
X1261800Y90950D01*
X1261800Y91900D02*
X1252800Y91900D01*
X1252800Y92850D02*
X1261800Y92850D01*
X1261800Y93800D02*
X1252800Y93800D01*
X1252800Y94750D02*
X1261800Y94750D01*
X1261800Y95700D02*
X1252800Y95700D01*
X1252800Y96650D02*
X1261800Y96650D01*
X1261800Y97600D02*
X1252800Y97600D01*
X1236400Y79050D02*
X1236400Y69050D01*
X1227400Y69050D01*
X1227400Y79050D01*
X1236400Y79050D01*
X1236400Y70000D02*
X1227400Y70000D01*
X1227400Y70950D02*
X1236400Y70950D01*
X1236400Y71900D02*
X1227400Y71900D01*
X1227400Y72850D02*
X1236400Y72850D01*
X1236400Y73800D02*
X1227400Y73800D01*
X1227400Y74750D02*
X1236400Y74750D01*
X1236400Y75700D02*
X1227400Y75700D01*
X1227400Y76650D02*
X1236400Y76650D01*
X1236400Y77600D02*
X1227400Y77600D01*
X1227400Y78550D02*
X1236400Y78550D01*
X1236400Y86050D02*
X1236400Y96050D01*
X1236400Y86050D02*
X1227400Y86050D01*
X1227400Y96050D01*
X1236400Y96050D01*
X1236400Y87000D02*
X1227400Y87000D01*
X1227400Y87950D02*
X1236400Y87950D01*
X1236400Y88900D02*
X1227400Y88900D01*
X1227400Y89850D02*
X1236400Y89850D01*
X1236400Y90800D02*
X1227400Y90800D01*
X1227400Y91750D02*
X1236400Y91750D01*
X1236400Y92700D02*
X1227400Y92700D01*
X1227400Y93650D02*
X1236400Y93650D01*
X1236400Y94600D02*
X1227400Y94600D01*
X1227400Y95550D02*
X1236400Y95550D01*
X1227400Y124150D02*
X1227400Y134150D01*
X1236400Y134150D01*
X1236400Y124150D01*
X1227400Y124150D01*
X1227400Y125100D02*
X1236400Y125100D01*
X1236400Y126050D02*
X1227400Y126050D01*
X1227400Y127000D02*
X1236400Y127000D01*
X1236400Y127950D02*
X1227400Y127950D01*
X1227400Y128900D02*
X1236400Y128900D01*
X1236400Y129850D02*
X1227400Y129850D01*
X1227400Y130800D02*
X1236400Y130800D01*
X1236400Y131750D02*
X1227400Y131750D01*
X1227400Y132700D02*
X1236400Y132700D01*
X1236400Y133650D02*
X1227400Y133650D01*
X1227400Y117150D02*
X1227400Y107150D01*
X1227400Y117150D02*
X1236400Y117150D01*
X1236400Y107150D01*
X1227400Y107150D01*
X1227400Y108100D02*
X1236400Y108100D01*
X1236400Y109050D02*
X1227400Y109050D01*
X1227400Y110000D02*
X1236400Y110000D01*
X1236400Y110950D02*
X1227400Y110950D01*
X1227400Y111900D02*
X1236400Y111900D01*
X1236400Y112850D02*
X1227400Y112850D01*
X1227400Y113800D02*
X1236400Y113800D01*
X1236400Y114750D02*
X1227400Y114750D01*
X1227400Y115700D02*
X1236400Y115700D01*
X1236400Y116650D02*
X1227400Y116650D01*
D12*
X1358635Y226125D02*
X1373585Y226125D01*
X1358635Y226125D02*
X1358635Y232075D01*
X1373585Y232075D01*
X1373585Y226125D01*
X1373585Y227122D02*
X1358635Y227122D01*
X1358635Y228119D02*
X1373585Y228119D01*
X1373585Y229116D02*
X1358635Y229116D01*
X1358635Y230113D02*
X1373585Y230113D01*
X1373585Y231110D02*
X1358635Y231110D01*
X1358635Y237125D02*
X1373585Y237125D01*
X1358635Y237125D02*
X1358635Y243075D01*
X1373585Y243075D01*
X1373585Y237125D01*
X1373585Y238122D02*
X1358635Y238122D01*
X1358635Y239119D02*
X1373585Y239119D01*
X1373585Y240116D02*
X1358635Y240116D01*
X1358635Y241113D02*
X1373585Y241113D01*
X1373585Y242110D02*
X1358635Y242110D01*
X1358635Y248125D02*
X1373585Y248125D01*
X1358635Y248125D02*
X1358635Y254075D01*
X1373585Y254075D01*
X1373585Y248125D01*
X1373585Y249122D02*
X1358635Y249122D01*
X1358635Y250119D02*
X1373585Y250119D01*
X1373585Y251116D02*
X1358635Y251116D01*
X1358635Y252113D02*
X1373585Y252113D01*
X1373585Y253110D02*
X1358635Y253110D01*
X1358635Y215125D02*
X1373585Y215125D01*
X1358635Y215125D02*
X1358635Y221075D01*
X1373585Y221075D01*
X1373585Y215125D01*
X1373585Y216122D02*
X1358635Y216122D01*
X1358635Y217119D02*
X1373585Y217119D01*
X1373585Y218116D02*
X1358635Y218116D01*
X1358635Y219113D02*
X1373585Y219113D01*
X1373585Y220110D02*
X1358635Y220110D01*
X1358635Y204125D02*
X1373585Y204125D01*
X1358635Y204125D02*
X1358635Y210075D01*
X1373585Y210075D01*
X1373585Y204125D01*
X1373585Y205122D02*
X1358635Y205122D01*
X1358635Y206119D02*
X1373585Y206119D01*
X1373585Y207116D02*
X1358635Y207116D01*
X1358635Y208113D02*
X1373585Y208113D01*
X1373585Y209110D02*
X1358635Y209110D01*
X1358635Y193125D02*
X1373585Y193125D01*
X1358635Y193125D02*
X1358635Y199075D01*
X1373585Y199075D01*
X1373585Y193125D01*
X1373585Y194122D02*
X1358635Y194122D01*
X1358635Y195119D02*
X1373585Y195119D01*
X1373585Y196116D02*
X1358635Y196116D01*
X1358635Y197113D02*
X1373585Y197113D01*
X1373585Y198110D02*
X1358635Y198110D01*
X1358635Y182125D02*
X1373585Y182125D01*
X1358635Y182125D02*
X1358635Y188075D01*
X1373585Y188075D01*
X1373585Y182125D01*
X1373585Y183122D02*
X1358635Y183122D01*
X1358635Y184119D02*
X1373585Y184119D01*
X1373585Y185116D02*
X1358635Y185116D01*
X1358635Y186113D02*
X1373585Y186113D01*
X1373585Y187110D02*
X1358635Y187110D01*
X1358635Y171125D02*
X1373585Y171125D01*
X1358635Y171125D02*
X1358635Y177075D01*
X1373585Y177075D01*
X1373585Y171125D01*
X1373585Y172122D02*
X1358635Y172122D01*
X1358635Y173119D02*
X1373585Y173119D01*
X1373585Y174116D02*
X1358635Y174116D01*
X1358635Y175113D02*
X1373585Y175113D01*
X1373585Y176110D02*
X1358635Y176110D01*
X1358635Y160125D02*
X1373585Y160125D01*
X1358635Y160125D02*
X1358635Y166075D01*
X1373585Y166075D01*
X1373585Y160125D01*
X1373585Y161122D02*
X1358635Y161122D01*
X1358635Y162119D02*
X1373585Y162119D01*
X1373585Y163116D02*
X1358635Y163116D01*
X1358635Y164113D02*
X1373585Y164113D01*
X1373585Y165110D02*
X1358635Y165110D01*
D13*
X1275630Y300580D02*
X1275630Y311620D01*
X1275630Y300580D02*
X1254590Y300580D01*
X1254590Y311620D01*
X1275630Y311620D01*
X1275630Y301492D02*
X1254590Y301492D01*
X1254590Y302404D02*
X1275630Y302404D01*
X1275630Y303316D02*
X1254590Y303316D01*
X1254590Y304228D02*
X1275630Y304228D01*
X1275630Y305140D02*
X1254590Y305140D01*
X1254590Y306052D02*
X1275630Y306052D01*
X1275630Y306964D02*
X1254590Y306964D01*
X1254590Y307876D02*
X1275630Y307876D01*
X1275630Y308788D02*
X1254590Y308788D01*
X1254590Y309700D02*
X1275630Y309700D01*
X1275630Y310612D02*
X1254590Y310612D01*
X1254590Y311524D02*
X1275630Y311524D01*
X1275630Y156620D02*
X1275630Y145580D01*
X1254590Y145580D01*
X1254590Y156620D01*
X1275630Y156620D01*
X1275630Y146492D02*
X1254590Y146492D01*
X1254590Y147404D02*
X1275630Y147404D01*
X1275630Y148316D02*
X1254590Y148316D01*
X1254590Y149228D02*
X1275630Y149228D01*
X1275630Y150140D02*
X1254590Y150140D01*
X1254590Y151052D02*
X1275630Y151052D01*
X1275630Y151964D02*
X1254590Y151964D01*
X1254590Y152876D02*
X1275630Y152876D01*
X1275630Y153788D02*
X1254590Y153788D01*
X1254590Y154700D02*
X1275630Y154700D01*
X1275630Y155612D02*
X1254590Y155612D01*
X1254590Y156524D02*
X1275630Y156524D01*
D14*
X1367620Y289590D02*
X1367620Y304610D01*
X1367620Y289590D02*
X1354600Y289590D01*
X1354600Y304610D01*
X1367620Y304610D01*
X1367620Y290521D02*
X1354600Y290521D01*
X1354600Y291452D02*
X1367620Y291452D01*
X1367620Y292383D02*
X1354600Y292383D01*
X1354600Y293314D02*
X1367620Y293314D01*
X1367620Y294245D02*
X1354600Y294245D01*
X1354600Y295176D02*
X1367620Y295176D01*
X1367620Y296107D02*
X1354600Y296107D01*
X1354600Y297038D02*
X1367620Y297038D01*
X1367620Y297969D02*
X1354600Y297969D01*
X1354600Y298900D02*
X1367620Y298900D01*
X1367620Y299831D02*
X1354600Y299831D01*
X1354600Y300762D02*
X1367620Y300762D01*
X1367620Y301693D02*
X1354600Y301693D01*
X1354600Y302624D02*
X1367620Y302624D01*
X1367620Y303555D02*
X1354600Y303555D01*
X1354600Y304486D02*
X1367620Y304486D01*
D13*
X1367630Y156620D02*
X1367630Y145580D01*
X1352590Y145580D01*
X1352590Y156620D01*
X1367630Y156620D01*
X1367630Y146492D02*
X1352590Y146492D01*
X1352590Y147404D02*
X1367630Y147404D01*
X1367630Y148316D02*
X1352590Y148316D01*
X1352590Y149228D02*
X1367630Y149228D01*
X1367630Y150140D02*
X1352590Y150140D01*
X1352590Y151052D02*
X1367630Y151052D01*
X1367630Y151964D02*
X1352590Y151964D01*
X1352590Y152876D02*
X1367630Y152876D01*
X1367630Y153788D02*
X1352590Y153788D01*
X1352590Y154700D02*
X1367630Y154700D01*
X1367630Y155612D02*
X1352590Y155612D01*
X1352590Y156524D02*
X1367630Y156524D01*
D15*
X1388160Y79090D02*
X1393140Y79090D01*
X1393140Y68110D01*
X1388160Y68110D01*
X1388160Y79090D01*
X1388160Y69079D02*
X1393140Y69079D01*
X1393140Y70048D02*
X1388160Y70048D01*
X1388160Y71017D02*
X1393140Y71017D01*
X1393140Y71986D02*
X1388160Y71986D01*
X1388160Y72955D02*
X1393140Y72955D01*
X1393140Y73924D02*
X1388160Y73924D01*
X1388160Y74893D02*
X1393140Y74893D01*
X1393140Y75862D02*
X1388160Y75862D01*
X1388160Y76831D02*
X1393140Y76831D01*
X1393140Y77800D02*
X1388160Y77800D01*
X1388160Y78769D02*
X1393140Y78769D01*
X1380440Y79090D02*
X1375460Y79090D01*
X1380440Y79090D02*
X1380440Y68110D01*
X1375460Y68110D01*
X1375460Y79090D01*
X1375460Y69079D02*
X1380440Y69079D01*
X1380440Y70048D02*
X1375460Y70048D01*
X1375460Y71017D02*
X1380440Y71017D01*
X1380440Y71986D02*
X1375460Y71986D01*
X1375460Y72955D02*
X1380440Y72955D01*
X1380440Y73924D02*
X1375460Y73924D01*
X1375460Y74893D02*
X1380440Y74893D01*
X1380440Y75862D02*
X1375460Y75862D01*
X1375460Y76831D02*
X1380440Y76831D01*
X1380440Y77800D02*
X1375460Y77800D01*
X1375460Y78769D02*
X1380440Y78769D01*
X1367740Y79090D02*
X1362760Y79090D01*
X1367740Y79090D02*
X1367740Y68110D01*
X1362760Y68110D01*
X1362760Y79090D01*
X1362760Y69079D02*
X1367740Y69079D01*
X1367740Y70048D02*
X1362760Y70048D01*
X1362760Y71017D02*
X1367740Y71017D01*
X1367740Y71986D02*
X1362760Y71986D01*
X1362760Y72955D02*
X1367740Y72955D01*
X1367740Y73924D02*
X1362760Y73924D01*
X1362760Y74893D02*
X1367740Y74893D01*
X1367740Y75862D02*
X1362760Y75862D01*
X1362760Y76831D02*
X1367740Y76831D01*
X1367740Y77800D02*
X1362760Y77800D01*
X1362760Y78769D02*
X1367740Y78769D01*
X1355040Y79090D02*
X1350060Y79090D01*
X1355040Y79090D02*
X1355040Y68110D01*
X1350060Y68110D01*
X1350060Y79090D01*
X1350060Y69079D02*
X1355040Y69079D01*
X1355040Y70048D02*
X1350060Y70048D01*
X1350060Y71017D02*
X1355040Y71017D01*
X1355040Y71986D02*
X1350060Y71986D01*
X1350060Y72955D02*
X1355040Y72955D01*
X1355040Y73924D02*
X1350060Y73924D01*
X1350060Y74893D02*
X1355040Y74893D01*
X1355040Y75862D02*
X1350060Y75862D01*
X1350060Y76831D02*
X1355040Y76831D01*
X1355040Y77800D02*
X1350060Y77800D01*
X1350060Y78769D02*
X1355040Y78769D01*
X1342340Y79090D02*
X1337360Y79090D01*
X1342340Y79090D02*
X1342340Y68110D01*
X1337360Y68110D01*
X1337360Y79090D01*
X1337360Y69079D02*
X1342340Y69079D01*
X1342340Y70048D02*
X1337360Y70048D01*
X1337360Y71017D02*
X1342340Y71017D01*
X1342340Y71986D02*
X1337360Y71986D01*
X1337360Y72955D02*
X1342340Y72955D01*
X1342340Y73924D02*
X1337360Y73924D01*
X1337360Y74893D02*
X1342340Y74893D01*
X1342340Y75862D02*
X1337360Y75862D01*
X1337360Y76831D02*
X1342340Y76831D01*
X1342340Y77800D02*
X1337360Y77800D01*
X1337360Y78769D02*
X1342340Y78769D01*
X1329640Y79090D02*
X1324660Y79090D01*
X1329640Y79090D02*
X1329640Y68110D01*
X1324660Y68110D01*
X1324660Y79090D01*
X1324660Y69079D02*
X1329640Y69079D01*
X1329640Y70048D02*
X1324660Y70048D01*
X1324660Y71017D02*
X1329640Y71017D01*
X1329640Y71986D02*
X1324660Y71986D01*
X1324660Y72955D02*
X1329640Y72955D01*
X1329640Y73924D02*
X1324660Y73924D01*
X1324660Y74893D02*
X1329640Y74893D01*
X1329640Y75862D02*
X1324660Y75862D01*
X1324660Y76831D02*
X1329640Y76831D01*
X1329640Y77800D02*
X1324660Y77800D01*
X1324660Y78769D02*
X1329640Y78769D01*
X1316940Y79090D02*
X1311960Y79090D01*
X1316940Y79090D02*
X1316940Y68110D01*
X1311960Y68110D01*
X1311960Y79090D01*
X1311960Y69079D02*
X1316940Y69079D01*
X1316940Y70048D02*
X1311960Y70048D01*
X1311960Y71017D02*
X1316940Y71017D01*
X1316940Y71986D02*
X1311960Y71986D01*
X1311960Y72955D02*
X1316940Y72955D01*
X1316940Y73924D02*
X1311960Y73924D01*
X1311960Y74893D02*
X1316940Y74893D01*
X1316940Y75862D02*
X1311960Y75862D01*
X1311960Y76831D02*
X1316940Y76831D01*
X1316940Y77800D02*
X1311960Y77800D01*
X1311960Y78769D02*
X1316940Y78769D01*
X1304240Y79090D02*
X1299260Y79090D01*
X1304240Y79090D02*
X1304240Y68110D01*
X1299260Y68110D01*
X1299260Y79090D01*
X1299260Y69079D02*
X1304240Y69079D01*
X1304240Y70048D02*
X1299260Y70048D01*
X1299260Y71017D02*
X1304240Y71017D01*
X1304240Y71986D02*
X1299260Y71986D01*
X1299260Y72955D02*
X1304240Y72955D01*
X1304240Y73924D02*
X1299260Y73924D01*
X1299260Y74893D02*
X1304240Y74893D01*
X1304240Y75862D02*
X1299260Y75862D01*
X1299260Y76831D02*
X1304240Y76831D01*
X1304240Y77800D02*
X1299260Y77800D01*
X1299260Y78769D02*
X1304240Y78769D01*
X1304240Y135090D02*
X1299260Y135090D01*
X1304240Y135090D02*
X1304240Y124110D01*
X1299260Y124110D01*
X1299260Y135090D01*
X1299260Y125079D02*
X1304240Y125079D01*
X1304240Y126048D02*
X1299260Y126048D01*
X1299260Y127017D02*
X1304240Y127017D01*
X1304240Y127986D02*
X1299260Y127986D01*
X1299260Y128955D02*
X1304240Y128955D01*
X1304240Y129924D02*
X1299260Y129924D01*
X1299260Y130893D02*
X1304240Y130893D01*
X1304240Y131862D02*
X1299260Y131862D01*
X1299260Y132831D02*
X1304240Y132831D01*
X1304240Y133800D02*
X1299260Y133800D01*
X1299260Y134769D02*
X1304240Y134769D01*
X1311960Y135090D02*
X1316940Y135090D01*
X1316940Y124110D01*
X1311960Y124110D01*
X1311960Y135090D01*
X1311960Y125079D02*
X1316940Y125079D01*
X1316940Y126048D02*
X1311960Y126048D01*
X1311960Y127017D02*
X1316940Y127017D01*
X1316940Y127986D02*
X1311960Y127986D01*
X1311960Y128955D02*
X1316940Y128955D01*
X1316940Y129924D02*
X1311960Y129924D01*
X1311960Y130893D02*
X1316940Y130893D01*
X1316940Y131862D02*
X1311960Y131862D01*
X1311960Y132831D02*
X1316940Y132831D01*
X1316940Y133800D02*
X1311960Y133800D01*
X1311960Y134769D02*
X1316940Y134769D01*
X1324660Y135090D02*
X1329640Y135090D01*
X1329640Y124110D01*
X1324660Y124110D01*
X1324660Y135090D01*
X1324660Y125079D02*
X1329640Y125079D01*
X1329640Y126048D02*
X1324660Y126048D01*
X1324660Y127017D02*
X1329640Y127017D01*
X1329640Y127986D02*
X1324660Y127986D01*
X1324660Y128955D02*
X1329640Y128955D01*
X1329640Y129924D02*
X1324660Y129924D01*
X1324660Y130893D02*
X1329640Y130893D01*
X1329640Y131862D02*
X1324660Y131862D01*
X1324660Y132831D02*
X1329640Y132831D01*
X1329640Y133800D02*
X1324660Y133800D01*
X1324660Y134769D02*
X1329640Y134769D01*
X1337360Y135090D02*
X1342340Y135090D01*
X1342340Y124110D01*
X1337360Y124110D01*
X1337360Y135090D01*
X1337360Y125079D02*
X1342340Y125079D01*
X1342340Y126048D02*
X1337360Y126048D01*
X1337360Y127017D02*
X1342340Y127017D01*
X1342340Y127986D02*
X1337360Y127986D01*
X1337360Y128955D02*
X1342340Y128955D01*
X1342340Y129924D02*
X1337360Y129924D01*
X1337360Y130893D02*
X1342340Y130893D01*
X1342340Y131862D02*
X1337360Y131862D01*
X1337360Y132831D02*
X1342340Y132831D01*
X1342340Y133800D02*
X1337360Y133800D01*
X1337360Y134769D02*
X1342340Y134769D01*
X1350060Y135090D02*
X1355040Y135090D01*
X1355040Y124110D01*
X1350060Y124110D01*
X1350060Y135090D01*
X1350060Y125079D02*
X1355040Y125079D01*
X1355040Y126048D02*
X1350060Y126048D01*
X1350060Y127017D02*
X1355040Y127017D01*
X1355040Y127986D02*
X1350060Y127986D01*
X1350060Y128955D02*
X1355040Y128955D01*
X1355040Y129924D02*
X1350060Y129924D01*
X1350060Y130893D02*
X1355040Y130893D01*
X1355040Y131862D02*
X1350060Y131862D01*
X1350060Y132831D02*
X1355040Y132831D01*
X1355040Y133800D02*
X1350060Y133800D01*
X1350060Y134769D02*
X1355040Y134769D01*
X1362760Y135090D02*
X1367740Y135090D01*
X1367740Y124110D01*
X1362760Y124110D01*
X1362760Y135090D01*
X1362760Y125079D02*
X1367740Y125079D01*
X1367740Y126048D02*
X1362760Y126048D01*
X1362760Y127017D02*
X1367740Y127017D01*
X1367740Y127986D02*
X1362760Y127986D01*
X1362760Y128955D02*
X1367740Y128955D01*
X1367740Y129924D02*
X1362760Y129924D01*
X1362760Y130893D02*
X1367740Y130893D01*
X1367740Y131862D02*
X1362760Y131862D01*
X1362760Y132831D02*
X1367740Y132831D01*
X1367740Y133800D02*
X1362760Y133800D01*
X1362760Y134769D02*
X1367740Y134769D01*
X1375460Y135090D02*
X1380440Y135090D01*
X1380440Y124110D01*
X1375460Y124110D01*
X1375460Y135090D01*
X1375460Y125079D02*
X1380440Y125079D01*
X1380440Y126048D02*
X1375460Y126048D01*
X1375460Y127017D02*
X1380440Y127017D01*
X1380440Y127986D02*
X1375460Y127986D01*
X1375460Y128955D02*
X1380440Y128955D01*
X1380440Y129924D02*
X1375460Y129924D01*
X1375460Y130893D02*
X1380440Y130893D01*
X1380440Y131862D02*
X1375460Y131862D01*
X1375460Y132831D02*
X1380440Y132831D01*
X1380440Y133800D02*
X1375460Y133800D01*
X1375460Y134769D02*
X1380440Y134769D01*
X1388160Y135090D02*
X1393140Y135090D01*
X1393140Y124110D01*
X1388160Y124110D01*
X1388160Y135090D01*
X1388160Y125079D02*
X1393140Y125079D01*
X1393140Y126048D02*
X1388160Y126048D01*
X1388160Y127017D02*
X1393140Y127017D01*
X1393140Y127986D02*
X1388160Y127986D01*
X1388160Y128955D02*
X1393140Y128955D01*
X1393140Y129924D02*
X1388160Y129924D01*
X1388160Y130893D02*
X1393140Y130893D01*
X1393140Y131862D02*
X1388160Y131862D01*
X1388160Y132831D02*
X1393140Y132831D01*
X1393140Y133800D02*
X1388160Y133800D01*
X1388160Y134769D02*
X1393140Y134769D01*
D10*
X195704Y602925D02*
X195704Y607435D01*
X195704Y602925D02*
X184694Y602925D01*
X184694Y607435D01*
X195704Y607435D01*
X195704Y603865D02*
X184694Y603865D01*
X184694Y604805D02*
X195704Y604805D01*
X195704Y605745D02*
X184694Y605745D01*
X184694Y606685D02*
X195704Y606685D01*
X195704Y612425D02*
X195704Y616935D01*
X195704Y612425D02*
X184694Y612425D01*
X184694Y616935D01*
X195704Y616935D01*
X195704Y613365D02*
X184694Y613365D01*
X184694Y614305D02*
X195704Y614305D01*
X195704Y615245D02*
X184694Y615245D01*
X184694Y616185D02*
X195704Y616185D01*
X195704Y621925D02*
X195704Y626435D01*
X195704Y621925D02*
X184694Y621925D01*
X184694Y626435D01*
X195704Y626435D01*
X195704Y622865D02*
X184694Y622865D01*
X184694Y623805D02*
X195704Y623805D01*
X195704Y624745D02*
X184694Y624745D01*
X184694Y625685D02*
X195704Y625685D01*
X221706Y626435D02*
X221706Y621925D01*
X210696Y621925D01*
X210696Y626435D01*
X221706Y626435D01*
X221706Y622865D02*
X210696Y622865D01*
X210696Y623805D02*
X221706Y623805D01*
X221706Y624745D02*
X210696Y624745D01*
X210696Y625685D02*
X221706Y625685D01*
X221706Y607435D02*
X221706Y602925D01*
X210696Y602925D01*
X210696Y607435D01*
X221706Y607435D01*
X221706Y603865D02*
X210696Y603865D01*
X210696Y604805D02*
X221706Y604805D01*
X221706Y605745D02*
X210696Y605745D01*
X210696Y606685D02*
X221706Y606685D01*
D11*
X216700Y644580D02*
X206700Y644580D01*
X216700Y644580D02*
X216700Y635580D01*
X206700Y635580D01*
X206700Y644580D01*
X206700Y636530D02*
X216700Y636530D01*
X216700Y637480D02*
X206700Y637480D01*
X206700Y638430D02*
X216700Y638430D01*
X216700Y639380D02*
X206700Y639380D01*
X206700Y640330D02*
X216700Y640330D01*
X216700Y641280D02*
X206700Y641280D01*
X206700Y642230D02*
X216700Y642230D01*
X216700Y643180D02*
X206700Y643180D01*
X206700Y644130D02*
X216700Y644130D01*
X199700Y644580D02*
X189700Y644580D01*
X199700Y644580D02*
X199700Y635580D01*
X189700Y635580D01*
X189700Y644580D01*
X189700Y636530D02*
X199700Y636530D01*
X199700Y637480D02*
X189700Y637480D01*
X189700Y638430D02*
X199700Y638430D01*
X199700Y639380D02*
X189700Y639380D01*
X189700Y640330D02*
X199700Y640330D01*
X199700Y641280D02*
X189700Y641280D01*
X189700Y642230D02*
X199700Y642230D01*
X199700Y643180D02*
X189700Y643180D01*
X189700Y644130D02*
X199700Y644130D01*
X33600Y628180D02*
X33600Y618180D01*
X33600Y628180D02*
X42600Y628180D01*
X42600Y618180D01*
X33600Y618180D01*
X33600Y619130D02*
X42600Y619130D01*
X42600Y620080D02*
X33600Y620080D01*
X33600Y621030D02*
X42600Y621030D01*
X42600Y621980D02*
X33600Y621980D01*
X33600Y622930D02*
X42600Y622930D01*
X42600Y623880D02*
X33600Y623880D01*
X33600Y624830D02*
X42600Y624830D01*
X42600Y625780D02*
X33600Y625780D01*
X33600Y626730D02*
X42600Y626730D01*
X42600Y627680D02*
X33600Y627680D01*
X33600Y611180D02*
X33600Y601180D01*
X33600Y611180D02*
X42600Y611180D01*
X42600Y601180D01*
X33600Y601180D01*
X33600Y602130D02*
X42600Y602130D01*
X42600Y603080D02*
X33600Y603080D01*
X33600Y604030D02*
X42600Y604030D01*
X42600Y604980D02*
X33600Y604980D01*
X33600Y605930D02*
X42600Y605930D01*
X42600Y606880D02*
X33600Y606880D01*
X33600Y607830D02*
X42600Y607830D01*
X42600Y608780D02*
X33600Y608780D01*
X33600Y609730D02*
X42600Y609730D01*
X42600Y610680D02*
X33600Y610680D01*
X17200Y592130D02*
X17200Y582130D01*
X8200Y582130D01*
X8200Y592130D01*
X17200Y592130D01*
X17200Y583080D02*
X8200Y583080D01*
X8200Y584030D02*
X17200Y584030D01*
X17200Y584980D02*
X8200Y584980D01*
X8200Y585930D02*
X17200Y585930D01*
X17200Y586880D02*
X8200Y586880D01*
X8200Y587830D02*
X17200Y587830D01*
X17200Y588780D02*
X8200Y588780D01*
X8200Y589730D02*
X17200Y589730D01*
X17200Y590680D02*
X8200Y590680D01*
X8200Y591630D02*
X17200Y591630D01*
X17200Y599130D02*
X17200Y609130D01*
X17200Y599130D02*
X8200Y599130D01*
X8200Y609130D01*
X17200Y609130D01*
X17200Y600080D02*
X8200Y600080D01*
X8200Y601030D02*
X17200Y601030D01*
X17200Y601980D02*
X8200Y601980D01*
X8200Y602930D02*
X17200Y602930D01*
X17200Y603880D02*
X8200Y603880D01*
X8200Y604830D02*
X17200Y604830D01*
X17200Y605780D02*
X8200Y605780D01*
X8200Y606730D02*
X17200Y606730D01*
X17200Y607680D02*
X8200Y607680D01*
X8200Y608630D02*
X17200Y608630D01*
X8200Y637230D02*
X8200Y647230D01*
X17200Y647230D01*
X17200Y637230D01*
X8200Y637230D01*
X8200Y638180D02*
X17200Y638180D01*
X17200Y639130D02*
X8200Y639130D01*
X8200Y640080D02*
X17200Y640080D01*
X17200Y641030D02*
X8200Y641030D01*
X8200Y641980D02*
X17200Y641980D01*
X17200Y642930D02*
X8200Y642930D01*
X8200Y643880D02*
X17200Y643880D01*
X17200Y644830D02*
X8200Y644830D01*
X8200Y645780D02*
X17200Y645780D01*
X17200Y646730D02*
X8200Y646730D01*
X8200Y630230D02*
X8200Y620230D01*
X8200Y630230D02*
X17200Y630230D01*
X17200Y620230D01*
X8200Y620230D01*
X8200Y621180D02*
X17200Y621180D01*
X17200Y622130D02*
X8200Y622130D01*
X8200Y623080D02*
X17200Y623080D01*
X17200Y624030D02*
X8200Y624030D01*
X8200Y624980D02*
X17200Y624980D01*
X17200Y625930D02*
X8200Y625930D01*
X8200Y626880D02*
X17200Y626880D01*
X17200Y627830D02*
X8200Y627830D01*
X8200Y628780D02*
X17200Y628780D01*
X17200Y629730D02*
X8200Y629730D01*
D12*
X139435Y739205D02*
X154385Y739205D01*
X139435Y739205D02*
X139435Y745155D01*
X154385Y745155D01*
X154385Y739205D01*
X154385Y740202D02*
X139435Y740202D01*
X139435Y741199D02*
X154385Y741199D01*
X154385Y742196D02*
X139435Y742196D01*
X139435Y743193D02*
X154385Y743193D01*
X154385Y744190D02*
X139435Y744190D01*
X139435Y750205D02*
X154385Y750205D01*
X139435Y750205D02*
X139435Y756155D01*
X154385Y756155D01*
X154385Y750205D01*
X154385Y751202D02*
X139435Y751202D01*
X139435Y752199D02*
X154385Y752199D01*
X154385Y753196D02*
X139435Y753196D01*
X139435Y754193D02*
X154385Y754193D01*
X154385Y755190D02*
X139435Y755190D01*
X139435Y761205D02*
X154385Y761205D01*
X139435Y761205D02*
X139435Y767155D01*
X154385Y767155D01*
X154385Y761205D01*
X154385Y762202D02*
X139435Y762202D01*
X139435Y763199D02*
X154385Y763199D01*
X154385Y764196D02*
X139435Y764196D01*
X139435Y765193D02*
X154385Y765193D01*
X154385Y766190D02*
X139435Y766190D01*
X139435Y728205D02*
X154385Y728205D01*
X139435Y728205D02*
X139435Y734155D01*
X154385Y734155D01*
X154385Y728205D01*
X154385Y729202D02*
X139435Y729202D01*
X139435Y730199D02*
X154385Y730199D01*
X154385Y731196D02*
X139435Y731196D01*
X139435Y732193D02*
X154385Y732193D01*
X154385Y733190D02*
X139435Y733190D01*
X139435Y717205D02*
X154385Y717205D01*
X139435Y717205D02*
X139435Y723155D01*
X154385Y723155D01*
X154385Y717205D01*
X154385Y718202D02*
X139435Y718202D01*
X139435Y719199D02*
X154385Y719199D01*
X154385Y720196D02*
X139435Y720196D01*
X139435Y721193D02*
X154385Y721193D01*
X154385Y722190D02*
X139435Y722190D01*
X139435Y706205D02*
X154385Y706205D01*
X139435Y706205D02*
X139435Y712155D01*
X154385Y712155D01*
X154385Y706205D01*
X154385Y707202D02*
X139435Y707202D01*
X139435Y708199D02*
X154385Y708199D01*
X154385Y709196D02*
X139435Y709196D01*
X139435Y710193D02*
X154385Y710193D01*
X154385Y711190D02*
X139435Y711190D01*
X139435Y695205D02*
X154385Y695205D01*
X139435Y695205D02*
X139435Y701155D01*
X154385Y701155D01*
X154385Y695205D01*
X154385Y696202D02*
X139435Y696202D01*
X139435Y697199D02*
X154385Y697199D01*
X154385Y698196D02*
X139435Y698196D01*
X139435Y699193D02*
X154385Y699193D01*
X154385Y700190D02*
X139435Y700190D01*
X139435Y684205D02*
X154385Y684205D01*
X139435Y684205D02*
X139435Y690155D01*
X154385Y690155D01*
X154385Y684205D01*
X154385Y685202D02*
X139435Y685202D01*
X139435Y686199D02*
X154385Y686199D01*
X154385Y687196D02*
X139435Y687196D01*
X139435Y688193D02*
X154385Y688193D01*
X154385Y689190D02*
X139435Y689190D01*
X139435Y673205D02*
X154385Y673205D01*
X139435Y673205D02*
X139435Y679155D01*
X154385Y679155D01*
X154385Y673205D01*
X154385Y674202D02*
X139435Y674202D01*
X139435Y675199D02*
X154385Y675199D01*
X154385Y676196D02*
X139435Y676196D01*
X139435Y677193D02*
X154385Y677193D01*
X154385Y678190D02*
X139435Y678190D01*
D13*
X56430Y813660D02*
X56430Y824700D01*
X56430Y813660D02*
X35390Y813660D01*
X35390Y824700D01*
X56430Y824700D01*
X56430Y814572D02*
X35390Y814572D01*
X35390Y815484D02*
X56430Y815484D01*
X56430Y816396D02*
X35390Y816396D01*
X35390Y817308D02*
X56430Y817308D01*
X56430Y818220D02*
X35390Y818220D01*
X35390Y819132D02*
X56430Y819132D01*
X56430Y820044D02*
X35390Y820044D01*
X35390Y820956D02*
X56430Y820956D01*
X56430Y821868D02*
X35390Y821868D01*
X35390Y822780D02*
X56430Y822780D01*
X56430Y823692D02*
X35390Y823692D01*
X35390Y824604D02*
X56430Y824604D01*
X56430Y669700D02*
X56430Y658660D01*
X35390Y658660D01*
X35390Y669700D01*
X56430Y669700D01*
X56430Y659572D02*
X35390Y659572D01*
X35390Y660484D02*
X56430Y660484D01*
X56430Y661396D02*
X35390Y661396D01*
X35390Y662308D02*
X56430Y662308D01*
X56430Y663220D02*
X35390Y663220D01*
X35390Y664132D02*
X56430Y664132D01*
X56430Y665044D02*
X35390Y665044D01*
X35390Y665956D02*
X56430Y665956D01*
X56430Y666868D02*
X35390Y666868D01*
X35390Y667780D02*
X56430Y667780D01*
X56430Y668692D02*
X35390Y668692D01*
X35390Y669604D02*
X56430Y669604D01*
D14*
X148420Y802670D02*
X148420Y817690D01*
X148420Y802670D02*
X135400Y802670D01*
X135400Y817690D01*
X148420Y817690D01*
X148420Y803601D02*
X135400Y803601D01*
X135400Y804532D02*
X148420Y804532D01*
X148420Y805463D02*
X135400Y805463D01*
X135400Y806394D02*
X148420Y806394D01*
X148420Y807325D02*
X135400Y807325D01*
X135400Y808256D02*
X148420Y808256D01*
X148420Y809187D02*
X135400Y809187D01*
X135400Y810118D02*
X148420Y810118D01*
X148420Y811049D02*
X135400Y811049D01*
X135400Y811980D02*
X148420Y811980D01*
X148420Y812911D02*
X135400Y812911D01*
X135400Y813842D02*
X148420Y813842D01*
X148420Y814773D02*
X135400Y814773D01*
X135400Y815704D02*
X148420Y815704D01*
X148420Y816635D02*
X135400Y816635D01*
X135400Y817566D02*
X148420Y817566D01*
D13*
X148430Y669700D02*
X148430Y658660D01*
X133390Y658660D01*
X133390Y669700D01*
X148430Y669700D01*
X148430Y659572D02*
X133390Y659572D01*
X133390Y660484D02*
X148430Y660484D01*
X148430Y661396D02*
X133390Y661396D01*
X133390Y662308D02*
X148430Y662308D01*
X148430Y663220D02*
X133390Y663220D01*
X133390Y664132D02*
X148430Y664132D01*
X148430Y665044D02*
X133390Y665044D01*
X133390Y665956D02*
X148430Y665956D01*
X148430Y666868D02*
X133390Y666868D01*
X133390Y667780D02*
X148430Y667780D01*
X148430Y668692D02*
X133390Y668692D01*
X133390Y669604D02*
X148430Y669604D01*
D15*
X168960Y592170D02*
X173940Y592170D01*
X173940Y581190D01*
X168960Y581190D01*
X168960Y592170D01*
X168960Y582159D02*
X173940Y582159D01*
X173940Y583128D02*
X168960Y583128D01*
X168960Y584097D02*
X173940Y584097D01*
X173940Y585066D02*
X168960Y585066D01*
X168960Y586035D02*
X173940Y586035D01*
X173940Y587004D02*
X168960Y587004D01*
X168960Y587973D02*
X173940Y587973D01*
X173940Y588942D02*
X168960Y588942D01*
X168960Y589911D02*
X173940Y589911D01*
X173940Y590880D02*
X168960Y590880D01*
X168960Y591849D02*
X173940Y591849D01*
X161240Y592170D02*
X156260Y592170D01*
X161240Y592170D02*
X161240Y581190D01*
X156260Y581190D01*
X156260Y592170D01*
X156260Y582159D02*
X161240Y582159D01*
X161240Y583128D02*
X156260Y583128D01*
X156260Y584097D02*
X161240Y584097D01*
X161240Y585066D02*
X156260Y585066D01*
X156260Y586035D02*
X161240Y586035D01*
X161240Y587004D02*
X156260Y587004D01*
X156260Y587973D02*
X161240Y587973D01*
X161240Y588942D02*
X156260Y588942D01*
X156260Y589911D02*
X161240Y589911D01*
X161240Y590880D02*
X156260Y590880D01*
X156260Y591849D02*
X161240Y591849D01*
X148540Y592170D02*
X143560Y592170D01*
X148540Y592170D02*
X148540Y581190D01*
X143560Y581190D01*
X143560Y592170D01*
X143560Y582159D02*
X148540Y582159D01*
X148540Y583128D02*
X143560Y583128D01*
X143560Y584097D02*
X148540Y584097D01*
X148540Y585066D02*
X143560Y585066D01*
X143560Y586035D02*
X148540Y586035D01*
X148540Y587004D02*
X143560Y587004D01*
X143560Y587973D02*
X148540Y587973D01*
X148540Y588942D02*
X143560Y588942D01*
X143560Y589911D02*
X148540Y589911D01*
X148540Y590880D02*
X143560Y590880D01*
X143560Y591849D02*
X148540Y591849D01*
X135840Y592170D02*
X130860Y592170D01*
X135840Y592170D02*
X135840Y581190D01*
X130860Y581190D01*
X130860Y592170D01*
X130860Y582159D02*
X135840Y582159D01*
X135840Y583128D02*
X130860Y583128D01*
X130860Y584097D02*
X135840Y584097D01*
X135840Y585066D02*
X130860Y585066D01*
X130860Y586035D02*
X135840Y586035D01*
X135840Y587004D02*
X130860Y587004D01*
X130860Y587973D02*
X135840Y587973D01*
X135840Y588942D02*
X130860Y588942D01*
X130860Y589911D02*
X135840Y589911D01*
X135840Y590880D02*
X130860Y590880D01*
X130860Y591849D02*
X135840Y591849D01*
X123140Y592170D02*
X118160Y592170D01*
X123140Y592170D02*
X123140Y581190D01*
X118160Y581190D01*
X118160Y592170D01*
X118160Y582159D02*
X123140Y582159D01*
X123140Y583128D02*
X118160Y583128D01*
X118160Y584097D02*
X123140Y584097D01*
X123140Y585066D02*
X118160Y585066D01*
X118160Y586035D02*
X123140Y586035D01*
X123140Y587004D02*
X118160Y587004D01*
X118160Y587973D02*
X123140Y587973D01*
X123140Y588942D02*
X118160Y588942D01*
X118160Y589911D02*
X123140Y589911D01*
X123140Y590880D02*
X118160Y590880D01*
X118160Y591849D02*
X123140Y591849D01*
X110440Y592170D02*
X105460Y592170D01*
X110440Y592170D02*
X110440Y581190D01*
X105460Y581190D01*
X105460Y592170D01*
X105460Y582159D02*
X110440Y582159D01*
X110440Y583128D02*
X105460Y583128D01*
X105460Y584097D02*
X110440Y584097D01*
X110440Y585066D02*
X105460Y585066D01*
X105460Y586035D02*
X110440Y586035D01*
X110440Y587004D02*
X105460Y587004D01*
X105460Y587973D02*
X110440Y587973D01*
X110440Y588942D02*
X105460Y588942D01*
X105460Y589911D02*
X110440Y589911D01*
X110440Y590880D02*
X105460Y590880D01*
X105460Y591849D02*
X110440Y591849D01*
X97740Y592170D02*
X92760Y592170D01*
X97740Y592170D02*
X97740Y581190D01*
X92760Y581190D01*
X92760Y592170D01*
X92760Y582159D02*
X97740Y582159D01*
X97740Y583128D02*
X92760Y583128D01*
X92760Y584097D02*
X97740Y584097D01*
X97740Y585066D02*
X92760Y585066D01*
X92760Y586035D02*
X97740Y586035D01*
X97740Y587004D02*
X92760Y587004D01*
X92760Y587973D02*
X97740Y587973D01*
X97740Y588942D02*
X92760Y588942D01*
X92760Y589911D02*
X97740Y589911D01*
X97740Y590880D02*
X92760Y590880D01*
X92760Y591849D02*
X97740Y591849D01*
X85040Y592170D02*
X80060Y592170D01*
X85040Y592170D02*
X85040Y581190D01*
X80060Y581190D01*
X80060Y592170D01*
X80060Y582159D02*
X85040Y582159D01*
X85040Y583128D02*
X80060Y583128D01*
X80060Y584097D02*
X85040Y584097D01*
X85040Y585066D02*
X80060Y585066D01*
X80060Y586035D02*
X85040Y586035D01*
X85040Y587004D02*
X80060Y587004D01*
X80060Y587973D02*
X85040Y587973D01*
X85040Y588942D02*
X80060Y588942D01*
X80060Y589911D02*
X85040Y589911D01*
X85040Y590880D02*
X80060Y590880D01*
X80060Y591849D02*
X85040Y591849D01*
X85040Y648170D02*
X80060Y648170D01*
X85040Y648170D02*
X85040Y637190D01*
X80060Y637190D01*
X80060Y648170D01*
X80060Y638159D02*
X85040Y638159D01*
X85040Y639128D02*
X80060Y639128D01*
X80060Y640097D02*
X85040Y640097D01*
X85040Y641066D02*
X80060Y641066D01*
X80060Y642035D02*
X85040Y642035D01*
X85040Y643004D02*
X80060Y643004D01*
X80060Y643973D02*
X85040Y643973D01*
X85040Y644942D02*
X80060Y644942D01*
X80060Y645911D02*
X85040Y645911D01*
X85040Y646880D02*
X80060Y646880D01*
X80060Y647849D02*
X85040Y647849D01*
X92760Y648170D02*
X97740Y648170D01*
X97740Y637190D01*
X92760Y637190D01*
X92760Y648170D01*
X92760Y638159D02*
X97740Y638159D01*
X97740Y639128D02*
X92760Y639128D01*
X92760Y640097D02*
X97740Y640097D01*
X97740Y641066D02*
X92760Y641066D01*
X92760Y642035D02*
X97740Y642035D01*
X97740Y643004D02*
X92760Y643004D01*
X92760Y643973D02*
X97740Y643973D01*
X97740Y644942D02*
X92760Y644942D01*
X92760Y645911D02*
X97740Y645911D01*
X97740Y646880D02*
X92760Y646880D01*
X92760Y647849D02*
X97740Y647849D01*
X105460Y648170D02*
X110440Y648170D01*
X110440Y637190D01*
X105460Y637190D01*
X105460Y648170D01*
X105460Y638159D02*
X110440Y638159D01*
X110440Y639128D02*
X105460Y639128D01*
X105460Y640097D02*
X110440Y640097D01*
X110440Y641066D02*
X105460Y641066D01*
X105460Y642035D02*
X110440Y642035D01*
X110440Y643004D02*
X105460Y643004D01*
X105460Y643973D02*
X110440Y643973D01*
X110440Y644942D02*
X105460Y644942D01*
X105460Y645911D02*
X110440Y645911D01*
X110440Y646880D02*
X105460Y646880D01*
X105460Y647849D02*
X110440Y647849D01*
X118160Y648170D02*
X123140Y648170D01*
X123140Y637190D01*
X118160Y637190D01*
X118160Y648170D01*
X118160Y638159D02*
X123140Y638159D01*
X123140Y639128D02*
X118160Y639128D01*
X118160Y640097D02*
X123140Y640097D01*
X123140Y641066D02*
X118160Y641066D01*
X118160Y642035D02*
X123140Y642035D01*
X123140Y643004D02*
X118160Y643004D01*
X118160Y643973D02*
X123140Y643973D01*
X123140Y644942D02*
X118160Y644942D01*
X118160Y645911D02*
X123140Y645911D01*
X123140Y646880D02*
X118160Y646880D01*
X118160Y647849D02*
X123140Y647849D01*
X130860Y648170D02*
X135840Y648170D01*
X135840Y637190D01*
X130860Y637190D01*
X130860Y648170D01*
X130860Y638159D02*
X135840Y638159D01*
X135840Y639128D02*
X130860Y639128D01*
X130860Y640097D02*
X135840Y640097D01*
X135840Y641066D02*
X130860Y641066D01*
X130860Y642035D02*
X135840Y642035D01*
X135840Y643004D02*
X130860Y643004D01*
X130860Y643973D02*
X135840Y643973D01*
X135840Y644942D02*
X130860Y644942D01*
X130860Y645911D02*
X135840Y645911D01*
X135840Y646880D02*
X130860Y646880D01*
X130860Y647849D02*
X135840Y647849D01*
X143560Y648170D02*
X148540Y648170D01*
X148540Y637190D01*
X143560Y637190D01*
X143560Y648170D01*
X143560Y638159D02*
X148540Y638159D01*
X148540Y639128D02*
X143560Y639128D01*
X143560Y640097D02*
X148540Y640097D01*
X148540Y641066D02*
X143560Y641066D01*
X143560Y642035D02*
X148540Y642035D01*
X148540Y643004D02*
X143560Y643004D01*
X143560Y643973D02*
X148540Y643973D01*
X148540Y644942D02*
X143560Y644942D01*
X143560Y645911D02*
X148540Y645911D01*
X148540Y646880D02*
X143560Y646880D01*
X143560Y647849D02*
X148540Y647849D01*
X156260Y648170D02*
X161240Y648170D01*
X161240Y637190D01*
X156260Y637190D01*
X156260Y648170D01*
X156260Y638159D02*
X161240Y638159D01*
X161240Y639128D02*
X156260Y639128D01*
X156260Y640097D02*
X161240Y640097D01*
X161240Y641066D02*
X156260Y641066D01*
X156260Y642035D02*
X161240Y642035D01*
X161240Y643004D02*
X156260Y643004D01*
X156260Y643973D02*
X161240Y643973D01*
X161240Y644942D02*
X156260Y644942D01*
X156260Y645911D02*
X161240Y645911D01*
X161240Y646880D02*
X156260Y646880D01*
X156260Y647849D02*
X161240Y647849D01*
X168960Y648170D02*
X173940Y648170D01*
X173940Y637190D01*
X168960Y637190D01*
X168960Y648170D01*
X168960Y638159D02*
X173940Y638159D01*
X173940Y639128D02*
X168960Y639128D01*
X168960Y640097D02*
X173940Y640097D01*
X173940Y641066D02*
X168960Y641066D01*
X168960Y642035D02*
X173940Y642035D01*
X173940Y643004D02*
X168960Y643004D01*
X168960Y643973D02*
X173940Y643973D01*
X173940Y644942D02*
X168960Y644942D01*
X168960Y645911D02*
X173940Y645911D01*
X173940Y646880D02*
X168960Y646880D01*
X168960Y647849D02*
X173940Y647849D01*
D10*
X500504Y607435D02*
X500504Y602925D01*
X489494Y602925D01*
X489494Y607435D01*
X500504Y607435D01*
X500504Y603865D02*
X489494Y603865D01*
X489494Y604805D02*
X500504Y604805D01*
X500504Y605745D02*
X489494Y605745D01*
X489494Y606685D02*
X500504Y606685D01*
X500504Y612425D02*
X500504Y616935D01*
X500504Y612425D02*
X489494Y612425D01*
X489494Y616935D01*
X500504Y616935D01*
X500504Y613365D02*
X489494Y613365D01*
X489494Y614305D02*
X500504Y614305D01*
X500504Y615245D02*
X489494Y615245D01*
X489494Y616185D02*
X500504Y616185D01*
X500504Y621925D02*
X500504Y626435D01*
X500504Y621925D02*
X489494Y621925D01*
X489494Y626435D01*
X500504Y626435D01*
X500504Y622865D02*
X489494Y622865D01*
X489494Y623805D02*
X500504Y623805D01*
X500504Y624745D02*
X489494Y624745D01*
X489494Y625685D02*
X500504Y625685D01*
X526506Y626435D02*
X526506Y621925D01*
X515496Y621925D01*
X515496Y626435D01*
X526506Y626435D01*
X526506Y622865D02*
X515496Y622865D01*
X515496Y623805D02*
X526506Y623805D01*
X526506Y624745D02*
X515496Y624745D01*
X515496Y625685D02*
X526506Y625685D01*
X526506Y607435D02*
X526506Y602925D01*
X515496Y602925D01*
X515496Y607435D01*
X526506Y607435D01*
X526506Y603865D02*
X515496Y603865D01*
X515496Y604805D02*
X526506Y604805D01*
X526506Y605745D02*
X515496Y605745D01*
X515496Y606685D02*
X526506Y606685D01*
D11*
X521500Y644580D02*
X511500Y644580D01*
X521500Y644580D02*
X521500Y635580D01*
X511500Y635580D01*
X511500Y644580D01*
X511500Y636530D02*
X521500Y636530D01*
X521500Y637480D02*
X511500Y637480D01*
X511500Y638430D02*
X521500Y638430D01*
X521500Y639380D02*
X511500Y639380D01*
X511500Y640330D02*
X521500Y640330D01*
X521500Y641280D02*
X511500Y641280D01*
X511500Y642230D02*
X521500Y642230D01*
X521500Y643180D02*
X511500Y643180D01*
X511500Y644130D02*
X521500Y644130D01*
X504500Y644580D02*
X494500Y644580D01*
X504500Y644580D02*
X504500Y635580D01*
X494500Y635580D01*
X494500Y644580D01*
X494500Y636530D02*
X504500Y636530D01*
X504500Y637480D02*
X494500Y637480D01*
X494500Y638430D02*
X504500Y638430D01*
X504500Y639380D02*
X494500Y639380D01*
X494500Y640330D02*
X504500Y640330D01*
X504500Y641280D02*
X494500Y641280D01*
X494500Y642230D02*
X504500Y642230D01*
X504500Y643180D02*
X494500Y643180D01*
X494500Y644130D02*
X504500Y644130D01*
X338400Y628180D02*
X338400Y618180D01*
X338400Y628180D02*
X347400Y628180D01*
X347400Y618180D01*
X338400Y618180D01*
X338400Y619130D02*
X347400Y619130D01*
X347400Y620080D02*
X338400Y620080D01*
X338400Y621030D02*
X347400Y621030D01*
X347400Y621980D02*
X338400Y621980D01*
X338400Y622930D02*
X347400Y622930D01*
X347400Y623880D02*
X338400Y623880D01*
X338400Y624830D02*
X347400Y624830D01*
X347400Y625780D02*
X338400Y625780D01*
X338400Y626730D02*
X347400Y626730D01*
X347400Y627680D02*
X338400Y627680D01*
X338400Y611180D02*
X338400Y601180D01*
X338400Y611180D02*
X347400Y611180D01*
X347400Y601180D01*
X338400Y601180D01*
X338400Y602130D02*
X347400Y602130D01*
X347400Y603080D02*
X338400Y603080D01*
X338400Y604030D02*
X347400Y604030D01*
X347400Y604980D02*
X338400Y604980D01*
X338400Y605930D02*
X347400Y605930D01*
X347400Y606880D02*
X338400Y606880D01*
X338400Y607830D02*
X347400Y607830D01*
X347400Y608780D02*
X338400Y608780D01*
X338400Y609730D02*
X347400Y609730D01*
X347400Y610680D02*
X338400Y610680D01*
X322000Y592130D02*
X322000Y582130D01*
X313000Y582130D01*
X313000Y592130D01*
X322000Y592130D01*
X322000Y583080D02*
X313000Y583080D01*
X313000Y584030D02*
X322000Y584030D01*
X322000Y584980D02*
X313000Y584980D01*
X313000Y585930D02*
X322000Y585930D01*
X322000Y586880D02*
X313000Y586880D01*
X313000Y587830D02*
X322000Y587830D01*
X322000Y588780D02*
X313000Y588780D01*
X313000Y589730D02*
X322000Y589730D01*
X322000Y590680D02*
X313000Y590680D01*
X313000Y591630D02*
X322000Y591630D01*
X322000Y599130D02*
X322000Y609130D01*
X322000Y599130D02*
X313000Y599130D01*
X313000Y609130D01*
X322000Y609130D01*
X322000Y600080D02*
X313000Y600080D01*
X313000Y601030D02*
X322000Y601030D01*
X322000Y601980D02*
X313000Y601980D01*
X313000Y602930D02*
X322000Y602930D01*
X322000Y603880D02*
X313000Y603880D01*
X313000Y604830D02*
X322000Y604830D01*
X322000Y605780D02*
X313000Y605780D01*
X313000Y606730D02*
X322000Y606730D01*
X322000Y607680D02*
X313000Y607680D01*
X313000Y608630D02*
X322000Y608630D01*
X313000Y637230D02*
X313000Y647230D01*
X322000Y647230D01*
X322000Y637230D01*
X313000Y637230D01*
X313000Y638180D02*
X322000Y638180D01*
X322000Y639130D02*
X313000Y639130D01*
X313000Y640080D02*
X322000Y640080D01*
X322000Y641030D02*
X313000Y641030D01*
X313000Y641980D02*
X322000Y641980D01*
X322000Y642930D02*
X313000Y642930D01*
X313000Y643880D02*
X322000Y643880D01*
X322000Y644830D02*
X313000Y644830D01*
X313000Y645780D02*
X322000Y645780D01*
X322000Y646730D02*
X313000Y646730D01*
X313000Y630230D02*
X313000Y620230D01*
X313000Y630230D02*
X322000Y630230D01*
X322000Y620230D01*
X313000Y620230D01*
X313000Y621180D02*
X322000Y621180D01*
X322000Y622130D02*
X313000Y622130D01*
X313000Y623080D02*
X322000Y623080D01*
X322000Y624030D02*
X313000Y624030D01*
X313000Y624980D02*
X322000Y624980D01*
X322000Y625930D02*
X313000Y625930D01*
X313000Y626880D02*
X322000Y626880D01*
X322000Y627830D02*
X313000Y627830D01*
X313000Y628780D02*
X322000Y628780D01*
X322000Y629730D02*
X313000Y629730D01*
D12*
X444235Y739205D02*
X459185Y739205D01*
X444235Y739205D02*
X444235Y745155D01*
X459185Y745155D01*
X459185Y739205D01*
X459185Y740202D02*
X444235Y740202D01*
X444235Y741199D02*
X459185Y741199D01*
X459185Y742196D02*
X444235Y742196D01*
X444235Y743193D02*
X459185Y743193D01*
X459185Y744190D02*
X444235Y744190D01*
X444235Y750205D02*
X459185Y750205D01*
X444235Y750205D02*
X444235Y756155D01*
X459185Y756155D01*
X459185Y750205D01*
X459185Y751202D02*
X444235Y751202D01*
X444235Y752199D02*
X459185Y752199D01*
X459185Y753196D02*
X444235Y753196D01*
X444235Y754193D02*
X459185Y754193D01*
X459185Y755190D02*
X444235Y755190D01*
X444235Y761205D02*
X459185Y761205D01*
X444235Y761205D02*
X444235Y767155D01*
X459185Y767155D01*
X459185Y761205D01*
X459185Y762202D02*
X444235Y762202D01*
X444235Y763199D02*
X459185Y763199D01*
X459185Y764196D02*
X444235Y764196D01*
X444235Y765193D02*
X459185Y765193D01*
X459185Y766190D02*
X444235Y766190D01*
X444235Y728205D02*
X459185Y728205D01*
X444235Y728205D02*
X444235Y734155D01*
X459185Y734155D01*
X459185Y728205D01*
X459185Y729202D02*
X444235Y729202D01*
X444235Y730199D02*
X459185Y730199D01*
X459185Y731196D02*
X444235Y731196D01*
X444235Y732193D02*
X459185Y732193D01*
X459185Y733190D02*
X444235Y733190D01*
X444235Y717205D02*
X459185Y717205D01*
X444235Y717205D02*
X444235Y723155D01*
X459185Y723155D01*
X459185Y717205D01*
X459185Y718202D02*
X444235Y718202D01*
X444235Y719199D02*
X459185Y719199D01*
X459185Y720196D02*
X444235Y720196D01*
X444235Y721193D02*
X459185Y721193D01*
X459185Y722190D02*
X444235Y722190D01*
X444235Y706205D02*
X459185Y706205D01*
X444235Y706205D02*
X444235Y712155D01*
X459185Y712155D01*
X459185Y706205D01*
X459185Y707202D02*
X444235Y707202D01*
X444235Y708199D02*
X459185Y708199D01*
X459185Y709196D02*
X444235Y709196D01*
X444235Y710193D02*
X459185Y710193D01*
X459185Y711190D02*
X444235Y711190D01*
X444235Y695205D02*
X459185Y695205D01*
X444235Y695205D02*
X444235Y701155D01*
X459185Y701155D01*
X459185Y695205D01*
X459185Y696202D02*
X444235Y696202D01*
X444235Y697199D02*
X459185Y697199D01*
X459185Y698196D02*
X444235Y698196D01*
X444235Y699193D02*
X459185Y699193D01*
X459185Y700190D02*
X444235Y700190D01*
X444235Y684205D02*
X459185Y684205D01*
X444235Y684205D02*
X444235Y690155D01*
X459185Y690155D01*
X459185Y684205D01*
X459185Y685202D02*
X444235Y685202D01*
X444235Y686199D02*
X459185Y686199D01*
X459185Y687196D02*
X444235Y687196D01*
X444235Y688193D02*
X459185Y688193D01*
X459185Y689190D02*
X444235Y689190D01*
X444235Y673205D02*
X459185Y673205D01*
X444235Y673205D02*
X444235Y679155D01*
X459185Y679155D01*
X459185Y673205D01*
X459185Y674202D02*
X444235Y674202D01*
X444235Y675199D02*
X459185Y675199D01*
X459185Y676196D02*
X444235Y676196D01*
X444235Y677193D02*
X459185Y677193D01*
X459185Y678190D02*
X444235Y678190D01*
D13*
X361230Y813660D02*
X361230Y824700D01*
X361230Y813660D02*
X340190Y813660D01*
X340190Y824700D01*
X361230Y824700D01*
X361230Y814572D02*
X340190Y814572D01*
X340190Y815484D02*
X361230Y815484D01*
X361230Y816396D02*
X340190Y816396D01*
X340190Y817308D02*
X361230Y817308D01*
X361230Y818220D02*
X340190Y818220D01*
X340190Y819132D02*
X361230Y819132D01*
X361230Y820044D02*
X340190Y820044D01*
X340190Y820956D02*
X361230Y820956D01*
X361230Y821868D02*
X340190Y821868D01*
X340190Y822780D02*
X361230Y822780D01*
X361230Y823692D02*
X340190Y823692D01*
X340190Y824604D02*
X361230Y824604D01*
X361230Y669700D02*
X361230Y658660D01*
X340190Y658660D01*
X340190Y669700D01*
X361230Y669700D01*
X361230Y659572D02*
X340190Y659572D01*
X340190Y660484D02*
X361230Y660484D01*
X361230Y661396D02*
X340190Y661396D01*
X340190Y662308D02*
X361230Y662308D01*
X361230Y663220D02*
X340190Y663220D01*
X340190Y664132D02*
X361230Y664132D01*
X361230Y665044D02*
X340190Y665044D01*
X340190Y665956D02*
X361230Y665956D01*
X361230Y666868D02*
X340190Y666868D01*
X340190Y667780D02*
X361230Y667780D01*
X361230Y668692D02*
X340190Y668692D01*
X340190Y669604D02*
X361230Y669604D01*
D14*
X453220Y802670D02*
X453220Y817690D01*
X453220Y802670D02*
X440200Y802670D01*
X440200Y817690D01*
X453220Y817690D01*
X453220Y803601D02*
X440200Y803601D01*
X440200Y804532D02*
X453220Y804532D01*
X453220Y805463D02*
X440200Y805463D01*
X440200Y806394D02*
X453220Y806394D01*
X453220Y807325D02*
X440200Y807325D01*
X440200Y808256D02*
X453220Y808256D01*
X453220Y809187D02*
X440200Y809187D01*
X440200Y810118D02*
X453220Y810118D01*
X453220Y811049D02*
X440200Y811049D01*
X440200Y811980D02*
X453220Y811980D01*
X453220Y812911D02*
X440200Y812911D01*
X440200Y813842D02*
X453220Y813842D01*
X453220Y814773D02*
X440200Y814773D01*
X440200Y815704D02*
X453220Y815704D01*
X453220Y816635D02*
X440200Y816635D01*
X440200Y817566D02*
X453220Y817566D01*
D13*
X453230Y669700D02*
X453230Y658660D01*
X438190Y658660D01*
X438190Y669700D01*
X453230Y669700D01*
X453230Y659572D02*
X438190Y659572D01*
X438190Y660484D02*
X453230Y660484D01*
X453230Y661396D02*
X438190Y661396D01*
X438190Y662308D02*
X453230Y662308D01*
X453230Y663220D02*
X438190Y663220D01*
X438190Y664132D02*
X453230Y664132D01*
X453230Y665044D02*
X438190Y665044D01*
X438190Y665956D02*
X453230Y665956D01*
X453230Y666868D02*
X438190Y666868D01*
X438190Y667780D02*
X453230Y667780D01*
X453230Y668692D02*
X438190Y668692D01*
X438190Y669604D02*
X453230Y669604D01*
D15*
X473760Y592170D02*
X478740Y592170D01*
X478740Y581190D01*
X473760Y581190D01*
X473760Y592170D01*
X473760Y582159D02*
X478740Y582159D01*
X478740Y583128D02*
X473760Y583128D01*
X473760Y584097D02*
X478740Y584097D01*
X478740Y585066D02*
X473760Y585066D01*
X473760Y586035D02*
X478740Y586035D01*
X478740Y587004D02*
X473760Y587004D01*
X473760Y587973D02*
X478740Y587973D01*
X478740Y588942D02*
X473760Y588942D01*
X473760Y589911D02*
X478740Y589911D01*
X478740Y590880D02*
X473760Y590880D01*
X473760Y591849D02*
X478740Y591849D01*
X466040Y592170D02*
X461060Y592170D01*
X466040Y592170D02*
X466040Y581190D01*
X461060Y581190D01*
X461060Y592170D01*
X461060Y582159D02*
X466040Y582159D01*
X466040Y583128D02*
X461060Y583128D01*
X461060Y584097D02*
X466040Y584097D01*
X466040Y585066D02*
X461060Y585066D01*
X461060Y586035D02*
X466040Y586035D01*
X466040Y587004D02*
X461060Y587004D01*
X461060Y587973D02*
X466040Y587973D01*
X466040Y588942D02*
X461060Y588942D01*
X461060Y589911D02*
X466040Y589911D01*
X466040Y590880D02*
X461060Y590880D01*
X461060Y591849D02*
X466040Y591849D01*
X453340Y592170D02*
X448360Y592170D01*
X453340Y592170D02*
X453340Y581190D01*
X448360Y581190D01*
X448360Y592170D01*
X448360Y582159D02*
X453340Y582159D01*
X453340Y583128D02*
X448360Y583128D01*
X448360Y584097D02*
X453340Y584097D01*
X453340Y585066D02*
X448360Y585066D01*
X448360Y586035D02*
X453340Y586035D01*
X453340Y587004D02*
X448360Y587004D01*
X448360Y587973D02*
X453340Y587973D01*
X453340Y588942D02*
X448360Y588942D01*
X448360Y589911D02*
X453340Y589911D01*
X453340Y590880D02*
X448360Y590880D01*
X448360Y591849D02*
X453340Y591849D01*
X440640Y592170D02*
X435660Y592170D01*
X440640Y592170D02*
X440640Y581190D01*
X435660Y581190D01*
X435660Y592170D01*
X435660Y582159D02*
X440640Y582159D01*
X440640Y583128D02*
X435660Y583128D01*
X435660Y584097D02*
X440640Y584097D01*
X440640Y585066D02*
X435660Y585066D01*
X435660Y586035D02*
X440640Y586035D01*
X440640Y587004D02*
X435660Y587004D01*
X435660Y587973D02*
X440640Y587973D01*
X440640Y588942D02*
X435660Y588942D01*
X435660Y589911D02*
X440640Y589911D01*
X440640Y590880D02*
X435660Y590880D01*
X435660Y591849D02*
X440640Y591849D01*
X427940Y592170D02*
X422960Y592170D01*
X427940Y592170D02*
X427940Y581190D01*
X422960Y581190D01*
X422960Y592170D01*
X422960Y582159D02*
X427940Y582159D01*
X427940Y583128D02*
X422960Y583128D01*
X422960Y584097D02*
X427940Y584097D01*
X427940Y585066D02*
X422960Y585066D01*
X422960Y586035D02*
X427940Y586035D01*
X427940Y587004D02*
X422960Y587004D01*
X422960Y587973D02*
X427940Y587973D01*
X427940Y588942D02*
X422960Y588942D01*
X422960Y589911D02*
X427940Y589911D01*
X427940Y590880D02*
X422960Y590880D01*
X422960Y591849D02*
X427940Y591849D01*
X415240Y592170D02*
X410260Y592170D01*
X415240Y592170D02*
X415240Y581190D01*
X410260Y581190D01*
X410260Y592170D01*
X410260Y582159D02*
X415240Y582159D01*
X415240Y583128D02*
X410260Y583128D01*
X410260Y584097D02*
X415240Y584097D01*
X415240Y585066D02*
X410260Y585066D01*
X410260Y586035D02*
X415240Y586035D01*
X415240Y587004D02*
X410260Y587004D01*
X410260Y587973D02*
X415240Y587973D01*
X415240Y588942D02*
X410260Y588942D01*
X410260Y589911D02*
X415240Y589911D01*
X415240Y590880D02*
X410260Y590880D01*
X410260Y591849D02*
X415240Y591849D01*
X402540Y592170D02*
X397560Y592170D01*
X402540Y592170D02*
X402540Y581190D01*
X397560Y581190D01*
X397560Y592170D01*
X397560Y582159D02*
X402540Y582159D01*
X402540Y583128D02*
X397560Y583128D01*
X397560Y584097D02*
X402540Y584097D01*
X402540Y585066D02*
X397560Y585066D01*
X397560Y586035D02*
X402540Y586035D01*
X402540Y587004D02*
X397560Y587004D01*
X397560Y587973D02*
X402540Y587973D01*
X402540Y588942D02*
X397560Y588942D01*
X397560Y589911D02*
X402540Y589911D01*
X402540Y590880D02*
X397560Y590880D01*
X397560Y591849D02*
X402540Y591849D01*
X389840Y592170D02*
X384860Y592170D01*
X389840Y592170D02*
X389840Y581190D01*
X384860Y581190D01*
X384860Y592170D01*
X384860Y582159D02*
X389840Y582159D01*
X389840Y583128D02*
X384860Y583128D01*
X384860Y584097D02*
X389840Y584097D01*
X389840Y585066D02*
X384860Y585066D01*
X384860Y586035D02*
X389840Y586035D01*
X389840Y587004D02*
X384860Y587004D01*
X384860Y587973D02*
X389840Y587973D01*
X389840Y588942D02*
X384860Y588942D01*
X384860Y589911D02*
X389840Y589911D01*
X389840Y590880D02*
X384860Y590880D01*
X384860Y591849D02*
X389840Y591849D01*
X389840Y648170D02*
X384860Y648170D01*
X389840Y648170D02*
X389840Y637190D01*
X384860Y637190D01*
X384860Y648170D01*
X384860Y638159D02*
X389840Y638159D01*
X389840Y639128D02*
X384860Y639128D01*
X384860Y640097D02*
X389840Y640097D01*
X389840Y641066D02*
X384860Y641066D01*
X384860Y642035D02*
X389840Y642035D01*
X389840Y643004D02*
X384860Y643004D01*
X384860Y643973D02*
X389840Y643973D01*
X389840Y644942D02*
X384860Y644942D01*
X384860Y645911D02*
X389840Y645911D01*
X389840Y646880D02*
X384860Y646880D01*
X384860Y647849D02*
X389840Y647849D01*
X397560Y648170D02*
X402540Y648170D01*
X402540Y637190D01*
X397560Y637190D01*
X397560Y648170D01*
X397560Y638159D02*
X402540Y638159D01*
X402540Y639128D02*
X397560Y639128D01*
X397560Y640097D02*
X402540Y640097D01*
X402540Y641066D02*
X397560Y641066D01*
X397560Y642035D02*
X402540Y642035D01*
X402540Y643004D02*
X397560Y643004D01*
X397560Y643973D02*
X402540Y643973D01*
X402540Y644942D02*
X397560Y644942D01*
X397560Y645911D02*
X402540Y645911D01*
X402540Y646880D02*
X397560Y646880D01*
X397560Y647849D02*
X402540Y647849D01*
X410260Y648170D02*
X415240Y648170D01*
X415240Y637190D01*
X410260Y637190D01*
X410260Y648170D01*
X410260Y638159D02*
X415240Y638159D01*
X415240Y639128D02*
X410260Y639128D01*
X410260Y640097D02*
X415240Y640097D01*
X415240Y641066D02*
X410260Y641066D01*
X410260Y642035D02*
X415240Y642035D01*
X415240Y643004D02*
X410260Y643004D01*
X410260Y643973D02*
X415240Y643973D01*
X415240Y644942D02*
X410260Y644942D01*
X410260Y645911D02*
X415240Y645911D01*
X415240Y646880D02*
X410260Y646880D01*
X410260Y647849D02*
X415240Y647849D01*
X422960Y648170D02*
X427940Y648170D01*
X427940Y637190D01*
X422960Y637190D01*
X422960Y648170D01*
X422960Y638159D02*
X427940Y638159D01*
X427940Y639128D02*
X422960Y639128D01*
X422960Y640097D02*
X427940Y640097D01*
X427940Y641066D02*
X422960Y641066D01*
X422960Y642035D02*
X427940Y642035D01*
X427940Y643004D02*
X422960Y643004D01*
X422960Y643973D02*
X427940Y643973D01*
X427940Y644942D02*
X422960Y644942D01*
X422960Y645911D02*
X427940Y645911D01*
X427940Y646880D02*
X422960Y646880D01*
X422960Y647849D02*
X427940Y647849D01*
X435660Y648170D02*
X440640Y648170D01*
X440640Y637190D01*
X435660Y637190D01*
X435660Y648170D01*
X435660Y638159D02*
X440640Y638159D01*
X440640Y639128D02*
X435660Y639128D01*
X435660Y640097D02*
X440640Y640097D01*
X440640Y641066D02*
X435660Y641066D01*
X435660Y642035D02*
X440640Y642035D01*
X440640Y643004D02*
X435660Y643004D01*
X435660Y643973D02*
X440640Y643973D01*
X440640Y644942D02*
X435660Y644942D01*
X435660Y645911D02*
X440640Y645911D01*
X440640Y646880D02*
X435660Y646880D01*
X435660Y647849D02*
X440640Y647849D01*
X448360Y648170D02*
X453340Y648170D01*
X453340Y637190D01*
X448360Y637190D01*
X448360Y648170D01*
X448360Y638159D02*
X453340Y638159D01*
X453340Y639128D02*
X448360Y639128D01*
X448360Y640097D02*
X453340Y640097D01*
X453340Y641066D02*
X448360Y641066D01*
X448360Y642035D02*
X453340Y642035D01*
X453340Y643004D02*
X448360Y643004D01*
X448360Y643973D02*
X453340Y643973D01*
X453340Y644942D02*
X448360Y644942D01*
X448360Y645911D02*
X453340Y645911D01*
X453340Y646880D02*
X448360Y646880D01*
X448360Y647849D02*
X453340Y647849D01*
X461060Y648170D02*
X466040Y648170D01*
X466040Y637190D01*
X461060Y637190D01*
X461060Y648170D01*
X461060Y638159D02*
X466040Y638159D01*
X466040Y639128D02*
X461060Y639128D01*
X461060Y640097D02*
X466040Y640097D01*
X466040Y641066D02*
X461060Y641066D01*
X461060Y642035D02*
X466040Y642035D01*
X466040Y643004D02*
X461060Y643004D01*
X461060Y643973D02*
X466040Y643973D01*
X466040Y644942D02*
X461060Y644942D01*
X461060Y645911D02*
X466040Y645911D01*
X466040Y646880D02*
X461060Y646880D01*
X461060Y647849D02*
X466040Y647849D01*
X473760Y648170D02*
X478740Y648170D01*
X478740Y637190D01*
X473760Y637190D01*
X473760Y648170D01*
X473760Y638159D02*
X478740Y638159D01*
X478740Y639128D02*
X473760Y639128D01*
X473760Y640097D02*
X478740Y640097D01*
X478740Y641066D02*
X473760Y641066D01*
X473760Y642035D02*
X478740Y642035D01*
X478740Y643004D02*
X473760Y643004D01*
X473760Y643973D02*
X478740Y643973D01*
X478740Y644942D02*
X473760Y644942D01*
X473760Y645911D02*
X478740Y645911D01*
X478740Y646880D02*
X473760Y646880D01*
X473760Y647849D02*
X478740Y647849D01*
D10*
X805304Y607435D02*
X805304Y602925D01*
X794294Y602925D01*
X794294Y607435D01*
X805304Y607435D01*
X805304Y603865D02*
X794294Y603865D01*
X794294Y604805D02*
X805304Y604805D01*
X805304Y605745D02*
X794294Y605745D01*
X794294Y606685D02*
X805304Y606685D01*
X805304Y612425D02*
X805304Y616935D01*
X805304Y612425D02*
X794294Y612425D01*
X794294Y616935D01*
X805304Y616935D01*
X805304Y613365D02*
X794294Y613365D01*
X794294Y614305D02*
X805304Y614305D01*
X805304Y615245D02*
X794294Y615245D01*
X794294Y616185D02*
X805304Y616185D01*
X805304Y621925D02*
X805304Y626435D01*
X805304Y621925D02*
X794294Y621925D01*
X794294Y626435D01*
X805304Y626435D01*
X805304Y622865D02*
X794294Y622865D01*
X794294Y623805D02*
X805304Y623805D01*
X805304Y624745D02*
X794294Y624745D01*
X794294Y625685D02*
X805304Y625685D01*
X831306Y626435D02*
X831306Y621925D01*
X820296Y621925D01*
X820296Y626435D01*
X831306Y626435D01*
X831306Y622865D02*
X820296Y622865D01*
X820296Y623805D02*
X831306Y623805D01*
X831306Y624745D02*
X820296Y624745D01*
X820296Y625685D02*
X831306Y625685D01*
X831306Y607435D02*
X831306Y602925D01*
X820296Y602925D01*
X820296Y607435D01*
X831306Y607435D01*
X831306Y603865D02*
X820296Y603865D01*
X820296Y604805D02*
X831306Y604805D01*
X831306Y605745D02*
X820296Y605745D01*
X820296Y606685D02*
X831306Y606685D01*
D11*
X826300Y644580D02*
X816300Y644580D01*
X826300Y644580D02*
X826300Y635580D01*
X816300Y635580D01*
X816300Y644580D01*
X816300Y636530D02*
X826300Y636530D01*
X826300Y637480D02*
X816300Y637480D01*
X816300Y638430D02*
X826300Y638430D01*
X826300Y639380D02*
X816300Y639380D01*
X816300Y640330D02*
X826300Y640330D01*
X826300Y641280D02*
X816300Y641280D01*
X816300Y642230D02*
X826300Y642230D01*
X826300Y643180D02*
X816300Y643180D01*
X816300Y644130D02*
X826300Y644130D01*
X809300Y644580D02*
X799300Y644580D01*
X809300Y644580D02*
X809300Y635580D01*
X799300Y635580D01*
X799300Y644580D01*
X799300Y636530D02*
X809300Y636530D01*
X809300Y637480D02*
X799300Y637480D01*
X799300Y638430D02*
X809300Y638430D01*
X809300Y639380D02*
X799300Y639380D01*
X799300Y640330D02*
X809300Y640330D01*
X809300Y641280D02*
X799300Y641280D01*
X799300Y642230D02*
X809300Y642230D01*
X809300Y643180D02*
X799300Y643180D01*
X799300Y644130D02*
X809300Y644130D01*
X643200Y628180D02*
X643200Y618180D01*
X643200Y628180D02*
X652200Y628180D01*
X652200Y618180D01*
X643200Y618180D01*
X643200Y619130D02*
X652200Y619130D01*
X652200Y620080D02*
X643200Y620080D01*
X643200Y621030D02*
X652200Y621030D01*
X652200Y621980D02*
X643200Y621980D01*
X643200Y622930D02*
X652200Y622930D01*
X652200Y623880D02*
X643200Y623880D01*
X643200Y624830D02*
X652200Y624830D01*
X652200Y625780D02*
X643200Y625780D01*
X643200Y626730D02*
X652200Y626730D01*
X652200Y627680D02*
X643200Y627680D01*
X643200Y611180D02*
X643200Y601180D01*
X643200Y611180D02*
X652200Y611180D01*
X652200Y601180D01*
X643200Y601180D01*
X643200Y602130D02*
X652200Y602130D01*
X652200Y603080D02*
X643200Y603080D01*
X643200Y604030D02*
X652200Y604030D01*
X652200Y604980D02*
X643200Y604980D01*
X643200Y605930D02*
X652200Y605930D01*
X652200Y606880D02*
X643200Y606880D01*
X643200Y607830D02*
X652200Y607830D01*
X652200Y608780D02*
X643200Y608780D01*
X643200Y609730D02*
X652200Y609730D01*
X652200Y610680D02*
X643200Y610680D01*
X626800Y592130D02*
X626800Y582130D01*
X617800Y582130D01*
X617800Y592130D01*
X626800Y592130D01*
X626800Y583080D02*
X617800Y583080D01*
X617800Y584030D02*
X626800Y584030D01*
X626800Y584980D02*
X617800Y584980D01*
X617800Y585930D02*
X626800Y585930D01*
X626800Y586880D02*
X617800Y586880D01*
X617800Y587830D02*
X626800Y587830D01*
X626800Y588780D02*
X617800Y588780D01*
X617800Y589730D02*
X626800Y589730D01*
X626800Y590680D02*
X617800Y590680D01*
X617800Y591630D02*
X626800Y591630D01*
X626800Y599130D02*
X626800Y609130D01*
X626800Y599130D02*
X617800Y599130D01*
X617800Y609130D01*
X626800Y609130D01*
X626800Y600080D02*
X617800Y600080D01*
X617800Y601030D02*
X626800Y601030D01*
X626800Y601980D02*
X617800Y601980D01*
X617800Y602930D02*
X626800Y602930D01*
X626800Y603880D02*
X617800Y603880D01*
X617800Y604830D02*
X626800Y604830D01*
X626800Y605780D02*
X617800Y605780D01*
X617800Y606730D02*
X626800Y606730D01*
X626800Y607680D02*
X617800Y607680D01*
X617800Y608630D02*
X626800Y608630D01*
X617800Y637230D02*
X617800Y647230D01*
X626800Y647230D01*
X626800Y637230D01*
X617800Y637230D01*
X617800Y638180D02*
X626800Y638180D01*
X626800Y639130D02*
X617800Y639130D01*
X617800Y640080D02*
X626800Y640080D01*
X626800Y641030D02*
X617800Y641030D01*
X617800Y641980D02*
X626800Y641980D01*
X626800Y642930D02*
X617800Y642930D01*
X617800Y643880D02*
X626800Y643880D01*
X626800Y644830D02*
X617800Y644830D01*
X617800Y645780D02*
X626800Y645780D01*
X626800Y646730D02*
X617800Y646730D01*
X617800Y630230D02*
X617800Y620230D01*
X617800Y630230D02*
X626800Y630230D01*
X626800Y620230D01*
X617800Y620230D01*
X617800Y621180D02*
X626800Y621180D01*
X626800Y622130D02*
X617800Y622130D01*
X617800Y623080D02*
X626800Y623080D01*
X626800Y624030D02*
X617800Y624030D01*
X617800Y624980D02*
X626800Y624980D01*
X626800Y625930D02*
X617800Y625930D01*
X617800Y626880D02*
X626800Y626880D01*
X626800Y627830D02*
X617800Y627830D01*
X617800Y628780D02*
X626800Y628780D01*
X626800Y629730D02*
X617800Y629730D01*
D12*
X749035Y739205D02*
X763985Y739205D01*
X749035Y739205D02*
X749035Y745155D01*
X763985Y745155D01*
X763985Y739205D01*
X763985Y740202D02*
X749035Y740202D01*
X749035Y741199D02*
X763985Y741199D01*
X763985Y742196D02*
X749035Y742196D01*
X749035Y743193D02*
X763985Y743193D01*
X763985Y744190D02*
X749035Y744190D01*
X749035Y750205D02*
X763985Y750205D01*
X749035Y750205D02*
X749035Y756155D01*
X763985Y756155D01*
X763985Y750205D01*
X763985Y751202D02*
X749035Y751202D01*
X749035Y752199D02*
X763985Y752199D01*
X763985Y753196D02*
X749035Y753196D01*
X749035Y754193D02*
X763985Y754193D01*
X763985Y755190D02*
X749035Y755190D01*
X749035Y761205D02*
X763985Y761205D01*
X749035Y761205D02*
X749035Y767155D01*
X763985Y767155D01*
X763985Y761205D01*
X763985Y762202D02*
X749035Y762202D01*
X749035Y763199D02*
X763985Y763199D01*
X763985Y764196D02*
X749035Y764196D01*
X749035Y765193D02*
X763985Y765193D01*
X763985Y766190D02*
X749035Y766190D01*
X749035Y728205D02*
X763985Y728205D01*
X749035Y728205D02*
X749035Y734155D01*
X763985Y734155D01*
X763985Y728205D01*
X763985Y729202D02*
X749035Y729202D01*
X749035Y730199D02*
X763985Y730199D01*
X763985Y731196D02*
X749035Y731196D01*
X749035Y732193D02*
X763985Y732193D01*
X763985Y733190D02*
X749035Y733190D01*
X749035Y717205D02*
X763985Y717205D01*
X749035Y717205D02*
X749035Y723155D01*
X763985Y723155D01*
X763985Y717205D01*
X763985Y718202D02*
X749035Y718202D01*
X749035Y719199D02*
X763985Y719199D01*
X763985Y720196D02*
X749035Y720196D01*
X749035Y721193D02*
X763985Y721193D01*
X763985Y722190D02*
X749035Y722190D01*
X749035Y706205D02*
X763985Y706205D01*
X749035Y706205D02*
X749035Y712155D01*
X763985Y712155D01*
X763985Y706205D01*
X763985Y707202D02*
X749035Y707202D01*
X749035Y708199D02*
X763985Y708199D01*
X763985Y709196D02*
X749035Y709196D01*
X749035Y710193D02*
X763985Y710193D01*
X763985Y711190D02*
X749035Y711190D01*
X749035Y695205D02*
X763985Y695205D01*
X749035Y695205D02*
X749035Y701155D01*
X763985Y701155D01*
X763985Y695205D01*
X763985Y696202D02*
X749035Y696202D01*
X749035Y697199D02*
X763985Y697199D01*
X763985Y698196D02*
X749035Y698196D01*
X749035Y699193D02*
X763985Y699193D01*
X763985Y700190D02*
X749035Y700190D01*
X749035Y684205D02*
X763985Y684205D01*
X749035Y684205D02*
X749035Y690155D01*
X763985Y690155D01*
X763985Y684205D01*
X763985Y685202D02*
X749035Y685202D01*
X749035Y686199D02*
X763985Y686199D01*
X763985Y687196D02*
X749035Y687196D01*
X749035Y688193D02*
X763985Y688193D01*
X763985Y689190D02*
X749035Y689190D01*
X749035Y673205D02*
X763985Y673205D01*
X749035Y673205D02*
X749035Y679155D01*
X763985Y679155D01*
X763985Y673205D01*
X763985Y674202D02*
X749035Y674202D01*
X749035Y675199D02*
X763985Y675199D01*
X763985Y676196D02*
X749035Y676196D01*
X749035Y677193D02*
X763985Y677193D01*
X763985Y678190D02*
X749035Y678190D01*
D13*
X666030Y813660D02*
X666030Y824700D01*
X666030Y813660D02*
X644990Y813660D01*
X644990Y824700D01*
X666030Y824700D01*
X666030Y814572D02*
X644990Y814572D01*
X644990Y815484D02*
X666030Y815484D01*
X666030Y816396D02*
X644990Y816396D01*
X644990Y817308D02*
X666030Y817308D01*
X666030Y818220D02*
X644990Y818220D01*
X644990Y819132D02*
X666030Y819132D01*
X666030Y820044D02*
X644990Y820044D01*
X644990Y820956D02*
X666030Y820956D01*
X666030Y821868D02*
X644990Y821868D01*
X644990Y822780D02*
X666030Y822780D01*
X666030Y823692D02*
X644990Y823692D01*
X644990Y824604D02*
X666030Y824604D01*
X666030Y669700D02*
X666030Y658660D01*
X644990Y658660D01*
X644990Y669700D01*
X666030Y669700D01*
X666030Y659572D02*
X644990Y659572D01*
X644990Y660484D02*
X666030Y660484D01*
X666030Y661396D02*
X644990Y661396D01*
X644990Y662308D02*
X666030Y662308D01*
X666030Y663220D02*
X644990Y663220D01*
X644990Y664132D02*
X666030Y664132D01*
X666030Y665044D02*
X644990Y665044D01*
X644990Y665956D02*
X666030Y665956D01*
X666030Y666868D02*
X644990Y666868D01*
X644990Y667780D02*
X666030Y667780D01*
X666030Y668692D02*
X644990Y668692D01*
X644990Y669604D02*
X666030Y669604D01*
D14*
X758020Y802670D02*
X758020Y817690D01*
X758020Y802670D02*
X745000Y802670D01*
X745000Y817690D01*
X758020Y817690D01*
X758020Y803601D02*
X745000Y803601D01*
X745000Y804532D02*
X758020Y804532D01*
X758020Y805463D02*
X745000Y805463D01*
X745000Y806394D02*
X758020Y806394D01*
X758020Y807325D02*
X745000Y807325D01*
X745000Y808256D02*
X758020Y808256D01*
X758020Y809187D02*
X745000Y809187D01*
X745000Y810118D02*
X758020Y810118D01*
X758020Y811049D02*
X745000Y811049D01*
X745000Y811980D02*
X758020Y811980D01*
X758020Y812911D02*
X745000Y812911D01*
X745000Y813842D02*
X758020Y813842D01*
X758020Y814773D02*
X745000Y814773D01*
X745000Y815704D02*
X758020Y815704D01*
X758020Y816635D02*
X745000Y816635D01*
X745000Y817566D02*
X758020Y817566D01*
D13*
X758030Y669700D02*
X758030Y658660D01*
X742990Y658660D01*
X742990Y669700D01*
X758030Y669700D01*
X758030Y659572D02*
X742990Y659572D01*
X742990Y660484D02*
X758030Y660484D01*
X758030Y661396D02*
X742990Y661396D01*
X742990Y662308D02*
X758030Y662308D01*
X758030Y663220D02*
X742990Y663220D01*
X742990Y664132D02*
X758030Y664132D01*
X758030Y665044D02*
X742990Y665044D01*
X742990Y665956D02*
X758030Y665956D01*
X758030Y666868D02*
X742990Y666868D01*
X742990Y667780D02*
X758030Y667780D01*
X758030Y668692D02*
X742990Y668692D01*
X742990Y669604D02*
X758030Y669604D01*
D15*
X778560Y592170D02*
X783540Y592170D01*
X783540Y581190D01*
X778560Y581190D01*
X778560Y592170D01*
X778560Y582159D02*
X783540Y582159D01*
X783540Y583128D02*
X778560Y583128D01*
X778560Y584097D02*
X783540Y584097D01*
X783540Y585066D02*
X778560Y585066D01*
X778560Y586035D02*
X783540Y586035D01*
X783540Y587004D02*
X778560Y587004D01*
X778560Y587973D02*
X783540Y587973D01*
X783540Y588942D02*
X778560Y588942D01*
X778560Y589911D02*
X783540Y589911D01*
X783540Y590880D02*
X778560Y590880D01*
X778560Y591849D02*
X783540Y591849D01*
X770840Y592170D02*
X765860Y592170D01*
X770840Y592170D02*
X770840Y581190D01*
X765860Y581190D01*
X765860Y592170D01*
X765860Y582159D02*
X770840Y582159D01*
X770840Y583128D02*
X765860Y583128D01*
X765860Y584097D02*
X770840Y584097D01*
X770840Y585066D02*
X765860Y585066D01*
X765860Y586035D02*
X770840Y586035D01*
X770840Y587004D02*
X765860Y587004D01*
X765860Y587973D02*
X770840Y587973D01*
X770840Y588942D02*
X765860Y588942D01*
X765860Y589911D02*
X770840Y589911D01*
X770840Y590880D02*
X765860Y590880D01*
X765860Y591849D02*
X770840Y591849D01*
X758140Y592170D02*
X753160Y592170D01*
X758140Y592170D02*
X758140Y581190D01*
X753160Y581190D01*
X753160Y592170D01*
X753160Y582159D02*
X758140Y582159D01*
X758140Y583128D02*
X753160Y583128D01*
X753160Y584097D02*
X758140Y584097D01*
X758140Y585066D02*
X753160Y585066D01*
X753160Y586035D02*
X758140Y586035D01*
X758140Y587004D02*
X753160Y587004D01*
X753160Y587973D02*
X758140Y587973D01*
X758140Y588942D02*
X753160Y588942D01*
X753160Y589911D02*
X758140Y589911D01*
X758140Y590880D02*
X753160Y590880D01*
X753160Y591849D02*
X758140Y591849D01*
X745440Y592170D02*
X740460Y592170D01*
X745440Y592170D02*
X745440Y581190D01*
X740460Y581190D01*
X740460Y592170D01*
X740460Y582159D02*
X745440Y582159D01*
X745440Y583128D02*
X740460Y583128D01*
X740460Y584097D02*
X745440Y584097D01*
X745440Y585066D02*
X740460Y585066D01*
X740460Y586035D02*
X745440Y586035D01*
X745440Y587004D02*
X740460Y587004D01*
X740460Y587973D02*
X745440Y587973D01*
X745440Y588942D02*
X740460Y588942D01*
X740460Y589911D02*
X745440Y589911D01*
X745440Y590880D02*
X740460Y590880D01*
X740460Y591849D02*
X745440Y591849D01*
X732740Y592170D02*
X727760Y592170D01*
X732740Y592170D02*
X732740Y581190D01*
X727760Y581190D01*
X727760Y592170D01*
X727760Y582159D02*
X732740Y582159D01*
X732740Y583128D02*
X727760Y583128D01*
X727760Y584097D02*
X732740Y584097D01*
X732740Y585066D02*
X727760Y585066D01*
X727760Y586035D02*
X732740Y586035D01*
X732740Y587004D02*
X727760Y587004D01*
X727760Y587973D02*
X732740Y587973D01*
X732740Y588942D02*
X727760Y588942D01*
X727760Y589911D02*
X732740Y589911D01*
X732740Y590880D02*
X727760Y590880D01*
X727760Y591849D02*
X732740Y591849D01*
X720040Y592170D02*
X715060Y592170D01*
X720040Y592170D02*
X720040Y581190D01*
X715060Y581190D01*
X715060Y592170D01*
X715060Y582159D02*
X720040Y582159D01*
X720040Y583128D02*
X715060Y583128D01*
X715060Y584097D02*
X720040Y584097D01*
X720040Y585066D02*
X715060Y585066D01*
X715060Y586035D02*
X720040Y586035D01*
X720040Y587004D02*
X715060Y587004D01*
X715060Y587973D02*
X720040Y587973D01*
X720040Y588942D02*
X715060Y588942D01*
X715060Y589911D02*
X720040Y589911D01*
X720040Y590880D02*
X715060Y590880D01*
X715060Y591849D02*
X720040Y591849D01*
X707340Y592170D02*
X702360Y592170D01*
X707340Y592170D02*
X707340Y581190D01*
X702360Y581190D01*
X702360Y592170D01*
X702360Y582159D02*
X707340Y582159D01*
X707340Y583128D02*
X702360Y583128D01*
X702360Y584097D02*
X707340Y584097D01*
X707340Y585066D02*
X702360Y585066D01*
X702360Y586035D02*
X707340Y586035D01*
X707340Y587004D02*
X702360Y587004D01*
X702360Y587973D02*
X707340Y587973D01*
X707340Y588942D02*
X702360Y588942D01*
X702360Y589911D02*
X707340Y589911D01*
X707340Y590880D02*
X702360Y590880D01*
X702360Y591849D02*
X707340Y591849D01*
X694640Y592170D02*
X689660Y592170D01*
X694640Y592170D02*
X694640Y581190D01*
X689660Y581190D01*
X689660Y592170D01*
X689660Y582159D02*
X694640Y582159D01*
X694640Y583128D02*
X689660Y583128D01*
X689660Y584097D02*
X694640Y584097D01*
X694640Y585066D02*
X689660Y585066D01*
X689660Y586035D02*
X694640Y586035D01*
X694640Y587004D02*
X689660Y587004D01*
X689660Y587973D02*
X694640Y587973D01*
X694640Y588942D02*
X689660Y588942D01*
X689660Y589911D02*
X694640Y589911D01*
X694640Y590880D02*
X689660Y590880D01*
X689660Y591849D02*
X694640Y591849D01*
X694640Y648170D02*
X689660Y648170D01*
X694640Y648170D02*
X694640Y637190D01*
X689660Y637190D01*
X689660Y648170D01*
X689660Y638159D02*
X694640Y638159D01*
X694640Y639128D02*
X689660Y639128D01*
X689660Y640097D02*
X694640Y640097D01*
X694640Y641066D02*
X689660Y641066D01*
X689660Y642035D02*
X694640Y642035D01*
X694640Y643004D02*
X689660Y643004D01*
X689660Y643973D02*
X694640Y643973D01*
X694640Y644942D02*
X689660Y644942D01*
X689660Y645911D02*
X694640Y645911D01*
X694640Y646880D02*
X689660Y646880D01*
X689660Y647849D02*
X694640Y647849D01*
X702360Y648170D02*
X707340Y648170D01*
X707340Y637190D01*
X702360Y637190D01*
X702360Y648170D01*
X702360Y638159D02*
X707340Y638159D01*
X707340Y639128D02*
X702360Y639128D01*
X702360Y640097D02*
X707340Y640097D01*
X707340Y641066D02*
X702360Y641066D01*
X702360Y642035D02*
X707340Y642035D01*
X707340Y643004D02*
X702360Y643004D01*
X702360Y643973D02*
X707340Y643973D01*
X707340Y644942D02*
X702360Y644942D01*
X702360Y645911D02*
X707340Y645911D01*
X707340Y646880D02*
X702360Y646880D01*
X702360Y647849D02*
X707340Y647849D01*
X715060Y648170D02*
X720040Y648170D01*
X720040Y637190D01*
X715060Y637190D01*
X715060Y648170D01*
X715060Y638159D02*
X720040Y638159D01*
X720040Y639128D02*
X715060Y639128D01*
X715060Y640097D02*
X720040Y640097D01*
X720040Y641066D02*
X715060Y641066D01*
X715060Y642035D02*
X720040Y642035D01*
X720040Y643004D02*
X715060Y643004D01*
X715060Y643973D02*
X720040Y643973D01*
X720040Y644942D02*
X715060Y644942D01*
X715060Y645911D02*
X720040Y645911D01*
X720040Y646880D02*
X715060Y646880D01*
X715060Y647849D02*
X720040Y647849D01*
X727760Y648170D02*
X732740Y648170D01*
X732740Y637190D01*
X727760Y637190D01*
X727760Y648170D01*
X727760Y638159D02*
X732740Y638159D01*
X732740Y639128D02*
X727760Y639128D01*
X727760Y640097D02*
X732740Y640097D01*
X732740Y641066D02*
X727760Y641066D01*
X727760Y642035D02*
X732740Y642035D01*
X732740Y643004D02*
X727760Y643004D01*
X727760Y643973D02*
X732740Y643973D01*
X732740Y644942D02*
X727760Y644942D01*
X727760Y645911D02*
X732740Y645911D01*
X732740Y646880D02*
X727760Y646880D01*
X727760Y647849D02*
X732740Y647849D01*
X740460Y648170D02*
X745440Y648170D01*
X745440Y637190D01*
X740460Y637190D01*
X740460Y648170D01*
X740460Y638159D02*
X745440Y638159D01*
X745440Y639128D02*
X740460Y639128D01*
X740460Y640097D02*
X745440Y640097D01*
X745440Y641066D02*
X740460Y641066D01*
X740460Y642035D02*
X745440Y642035D01*
X745440Y643004D02*
X740460Y643004D01*
X740460Y643973D02*
X745440Y643973D01*
X745440Y644942D02*
X740460Y644942D01*
X740460Y645911D02*
X745440Y645911D01*
X745440Y646880D02*
X740460Y646880D01*
X740460Y647849D02*
X745440Y647849D01*
X753160Y648170D02*
X758140Y648170D01*
X758140Y637190D01*
X753160Y637190D01*
X753160Y648170D01*
X753160Y638159D02*
X758140Y638159D01*
X758140Y639128D02*
X753160Y639128D01*
X753160Y640097D02*
X758140Y640097D01*
X758140Y641066D02*
X753160Y641066D01*
X753160Y642035D02*
X758140Y642035D01*
X758140Y643004D02*
X753160Y643004D01*
X753160Y643973D02*
X758140Y643973D01*
X758140Y644942D02*
X753160Y644942D01*
X753160Y645911D02*
X758140Y645911D01*
X758140Y646880D02*
X753160Y646880D01*
X753160Y647849D02*
X758140Y647849D01*
X765860Y648170D02*
X770840Y648170D01*
X770840Y637190D01*
X765860Y637190D01*
X765860Y648170D01*
X765860Y638159D02*
X770840Y638159D01*
X770840Y639128D02*
X765860Y639128D01*
X765860Y640097D02*
X770840Y640097D01*
X770840Y641066D02*
X765860Y641066D01*
X765860Y642035D02*
X770840Y642035D01*
X770840Y643004D02*
X765860Y643004D01*
X765860Y643973D02*
X770840Y643973D01*
X770840Y644942D02*
X765860Y644942D01*
X765860Y645911D02*
X770840Y645911D01*
X770840Y646880D02*
X765860Y646880D01*
X765860Y647849D02*
X770840Y647849D01*
X778560Y648170D02*
X783540Y648170D01*
X783540Y637190D01*
X778560Y637190D01*
X778560Y648170D01*
X778560Y638159D02*
X783540Y638159D01*
X783540Y639128D02*
X778560Y639128D01*
X778560Y640097D02*
X783540Y640097D01*
X783540Y641066D02*
X778560Y641066D01*
X778560Y642035D02*
X783540Y642035D01*
X783540Y643004D02*
X778560Y643004D01*
X778560Y643973D02*
X783540Y643973D01*
X783540Y644942D02*
X778560Y644942D01*
X778560Y645911D02*
X783540Y645911D01*
X783540Y646880D02*
X778560Y646880D01*
X778560Y647849D02*
X783540Y647849D01*
D10*
X1110104Y607435D02*
X1110104Y602925D01*
X1099094Y602925D01*
X1099094Y607435D01*
X1110104Y607435D01*
X1110104Y603865D02*
X1099094Y603865D01*
X1099094Y604805D02*
X1110104Y604805D01*
X1110104Y605745D02*
X1099094Y605745D01*
X1099094Y606685D02*
X1110104Y606685D01*
X1110104Y612425D02*
X1110104Y616935D01*
X1110104Y612425D02*
X1099094Y612425D01*
X1099094Y616935D01*
X1110104Y616935D01*
X1110104Y613365D02*
X1099094Y613365D01*
X1099094Y614305D02*
X1110104Y614305D01*
X1110104Y615245D02*
X1099094Y615245D01*
X1099094Y616185D02*
X1110104Y616185D01*
X1110104Y621925D02*
X1110104Y626435D01*
X1110104Y621925D02*
X1099094Y621925D01*
X1099094Y626435D01*
X1110104Y626435D01*
X1110104Y622865D02*
X1099094Y622865D01*
X1099094Y623805D02*
X1110104Y623805D01*
X1110104Y624745D02*
X1099094Y624745D01*
X1099094Y625685D02*
X1110104Y625685D01*
X1136106Y626435D02*
X1136106Y621925D01*
X1125096Y621925D01*
X1125096Y626435D01*
X1136106Y626435D01*
X1136106Y622865D02*
X1125096Y622865D01*
X1125096Y623805D02*
X1136106Y623805D01*
X1136106Y624745D02*
X1125096Y624745D01*
X1125096Y625685D02*
X1136106Y625685D01*
X1136106Y607435D02*
X1136106Y602925D01*
X1125096Y602925D01*
X1125096Y607435D01*
X1136106Y607435D01*
X1136106Y603865D02*
X1125096Y603865D01*
X1125096Y604805D02*
X1136106Y604805D01*
X1136106Y605745D02*
X1125096Y605745D01*
X1125096Y606685D02*
X1136106Y606685D01*
D11*
X1131100Y644580D02*
X1121100Y644580D01*
X1131100Y644580D02*
X1131100Y635580D01*
X1121100Y635580D01*
X1121100Y644580D01*
X1121100Y636530D02*
X1131100Y636530D01*
X1131100Y637480D02*
X1121100Y637480D01*
X1121100Y638430D02*
X1131100Y638430D01*
X1131100Y639380D02*
X1121100Y639380D01*
X1121100Y640330D02*
X1131100Y640330D01*
X1131100Y641280D02*
X1121100Y641280D01*
X1121100Y642230D02*
X1131100Y642230D01*
X1131100Y643180D02*
X1121100Y643180D01*
X1121100Y644130D02*
X1131100Y644130D01*
X1114100Y644580D02*
X1104100Y644580D01*
X1114100Y644580D02*
X1114100Y635580D01*
X1104100Y635580D01*
X1104100Y644580D01*
X1104100Y636530D02*
X1114100Y636530D01*
X1114100Y637480D02*
X1104100Y637480D01*
X1104100Y638430D02*
X1114100Y638430D01*
X1114100Y639380D02*
X1104100Y639380D01*
X1104100Y640330D02*
X1114100Y640330D01*
X1114100Y641280D02*
X1104100Y641280D01*
X1104100Y642230D02*
X1114100Y642230D01*
X1114100Y643180D02*
X1104100Y643180D01*
X1104100Y644130D02*
X1114100Y644130D01*
X948000Y628180D02*
X948000Y618180D01*
X948000Y628180D02*
X957000Y628180D01*
X957000Y618180D01*
X948000Y618180D01*
X948000Y619130D02*
X957000Y619130D01*
X957000Y620080D02*
X948000Y620080D01*
X948000Y621030D02*
X957000Y621030D01*
X957000Y621980D02*
X948000Y621980D01*
X948000Y622930D02*
X957000Y622930D01*
X957000Y623880D02*
X948000Y623880D01*
X948000Y624830D02*
X957000Y624830D01*
X957000Y625780D02*
X948000Y625780D01*
X948000Y626730D02*
X957000Y626730D01*
X957000Y627680D02*
X948000Y627680D01*
X948000Y611180D02*
X948000Y601180D01*
X948000Y611180D02*
X957000Y611180D01*
X957000Y601180D01*
X948000Y601180D01*
X948000Y602130D02*
X957000Y602130D01*
X957000Y603080D02*
X948000Y603080D01*
X948000Y604030D02*
X957000Y604030D01*
X957000Y604980D02*
X948000Y604980D01*
X948000Y605930D02*
X957000Y605930D01*
X957000Y606880D02*
X948000Y606880D01*
X948000Y607830D02*
X957000Y607830D01*
X957000Y608780D02*
X948000Y608780D01*
X948000Y609730D02*
X957000Y609730D01*
X957000Y610680D02*
X948000Y610680D01*
X931600Y592130D02*
X931600Y582130D01*
X922600Y582130D01*
X922600Y592130D01*
X931600Y592130D01*
X931600Y583080D02*
X922600Y583080D01*
X922600Y584030D02*
X931600Y584030D01*
X931600Y584980D02*
X922600Y584980D01*
X922600Y585930D02*
X931600Y585930D01*
X931600Y586880D02*
X922600Y586880D01*
X922600Y587830D02*
X931600Y587830D01*
X931600Y588780D02*
X922600Y588780D01*
X922600Y589730D02*
X931600Y589730D01*
X931600Y590680D02*
X922600Y590680D01*
X922600Y591630D02*
X931600Y591630D01*
X931600Y599130D02*
X931600Y609130D01*
X931600Y599130D02*
X922600Y599130D01*
X922600Y609130D01*
X931600Y609130D01*
X931600Y600080D02*
X922600Y600080D01*
X922600Y601030D02*
X931600Y601030D01*
X931600Y601980D02*
X922600Y601980D01*
X922600Y602930D02*
X931600Y602930D01*
X931600Y603880D02*
X922600Y603880D01*
X922600Y604830D02*
X931600Y604830D01*
X931600Y605780D02*
X922600Y605780D01*
X922600Y606730D02*
X931600Y606730D01*
X931600Y607680D02*
X922600Y607680D01*
X922600Y608630D02*
X931600Y608630D01*
X922600Y637230D02*
X922600Y647230D01*
X931600Y647230D01*
X931600Y637230D01*
X922600Y637230D01*
X922600Y638180D02*
X931600Y638180D01*
X931600Y639130D02*
X922600Y639130D01*
X922600Y640080D02*
X931600Y640080D01*
X931600Y641030D02*
X922600Y641030D01*
X922600Y641980D02*
X931600Y641980D01*
X931600Y642930D02*
X922600Y642930D01*
X922600Y643880D02*
X931600Y643880D01*
X931600Y644830D02*
X922600Y644830D01*
X922600Y645780D02*
X931600Y645780D01*
X931600Y646730D02*
X922600Y646730D01*
X922600Y630230D02*
X922600Y620230D01*
X922600Y630230D02*
X931600Y630230D01*
X931600Y620230D01*
X922600Y620230D01*
X922600Y621180D02*
X931600Y621180D01*
X931600Y622130D02*
X922600Y622130D01*
X922600Y623080D02*
X931600Y623080D01*
X931600Y624030D02*
X922600Y624030D01*
X922600Y624980D02*
X931600Y624980D01*
X931600Y625930D02*
X922600Y625930D01*
X922600Y626880D02*
X931600Y626880D01*
X931600Y627830D02*
X922600Y627830D01*
X922600Y628780D02*
X931600Y628780D01*
X931600Y629730D02*
X922600Y629730D01*
D12*
X1053835Y739205D02*
X1068785Y739205D01*
X1053835Y739205D02*
X1053835Y745155D01*
X1068785Y745155D01*
X1068785Y739205D01*
X1068785Y740202D02*
X1053835Y740202D01*
X1053835Y741199D02*
X1068785Y741199D01*
X1068785Y742196D02*
X1053835Y742196D01*
X1053835Y743193D02*
X1068785Y743193D01*
X1068785Y744190D02*
X1053835Y744190D01*
X1053835Y750205D02*
X1068785Y750205D01*
X1053835Y750205D02*
X1053835Y756155D01*
X1068785Y756155D01*
X1068785Y750205D01*
X1068785Y751202D02*
X1053835Y751202D01*
X1053835Y752199D02*
X1068785Y752199D01*
X1068785Y753196D02*
X1053835Y753196D01*
X1053835Y754193D02*
X1068785Y754193D01*
X1068785Y755190D02*
X1053835Y755190D01*
X1053835Y761205D02*
X1068785Y761205D01*
X1053835Y761205D02*
X1053835Y767155D01*
X1068785Y767155D01*
X1068785Y761205D01*
X1068785Y762202D02*
X1053835Y762202D01*
X1053835Y763199D02*
X1068785Y763199D01*
X1068785Y764196D02*
X1053835Y764196D01*
X1053835Y765193D02*
X1068785Y765193D01*
X1068785Y766190D02*
X1053835Y766190D01*
X1053835Y728205D02*
X1068785Y728205D01*
X1053835Y728205D02*
X1053835Y734155D01*
X1068785Y734155D01*
X1068785Y728205D01*
X1068785Y729202D02*
X1053835Y729202D01*
X1053835Y730199D02*
X1068785Y730199D01*
X1068785Y731196D02*
X1053835Y731196D01*
X1053835Y732193D02*
X1068785Y732193D01*
X1068785Y733190D02*
X1053835Y733190D01*
X1053835Y717205D02*
X1068785Y717205D01*
X1053835Y717205D02*
X1053835Y723155D01*
X1068785Y723155D01*
X1068785Y717205D01*
X1068785Y718202D02*
X1053835Y718202D01*
X1053835Y719199D02*
X1068785Y719199D01*
X1068785Y720196D02*
X1053835Y720196D01*
X1053835Y721193D02*
X1068785Y721193D01*
X1068785Y722190D02*
X1053835Y722190D01*
X1053835Y706205D02*
X1068785Y706205D01*
X1053835Y706205D02*
X1053835Y712155D01*
X1068785Y712155D01*
X1068785Y706205D01*
X1068785Y707202D02*
X1053835Y707202D01*
X1053835Y708199D02*
X1068785Y708199D01*
X1068785Y709196D02*
X1053835Y709196D01*
X1053835Y710193D02*
X1068785Y710193D01*
X1068785Y711190D02*
X1053835Y711190D01*
X1053835Y695205D02*
X1068785Y695205D01*
X1053835Y695205D02*
X1053835Y701155D01*
X1068785Y701155D01*
X1068785Y695205D01*
X1068785Y696202D02*
X1053835Y696202D01*
X1053835Y697199D02*
X1068785Y697199D01*
X1068785Y698196D02*
X1053835Y698196D01*
X1053835Y699193D02*
X1068785Y699193D01*
X1068785Y700190D02*
X1053835Y700190D01*
X1053835Y684205D02*
X1068785Y684205D01*
X1053835Y684205D02*
X1053835Y690155D01*
X1068785Y690155D01*
X1068785Y684205D01*
X1068785Y685202D02*
X1053835Y685202D01*
X1053835Y686199D02*
X1068785Y686199D01*
X1068785Y687196D02*
X1053835Y687196D01*
X1053835Y688193D02*
X1068785Y688193D01*
X1068785Y689190D02*
X1053835Y689190D01*
X1053835Y673205D02*
X1068785Y673205D01*
X1053835Y673205D02*
X1053835Y679155D01*
X1068785Y679155D01*
X1068785Y673205D01*
X1068785Y674202D02*
X1053835Y674202D01*
X1053835Y675199D02*
X1068785Y675199D01*
X1068785Y676196D02*
X1053835Y676196D01*
X1053835Y677193D02*
X1068785Y677193D01*
X1068785Y678190D02*
X1053835Y678190D01*
D13*
X970830Y813660D02*
X970830Y824700D01*
X970830Y813660D02*
X949790Y813660D01*
X949790Y824700D01*
X970830Y824700D01*
X970830Y814572D02*
X949790Y814572D01*
X949790Y815484D02*
X970830Y815484D01*
X970830Y816396D02*
X949790Y816396D01*
X949790Y817308D02*
X970830Y817308D01*
X970830Y818220D02*
X949790Y818220D01*
X949790Y819132D02*
X970830Y819132D01*
X970830Y820044D02*
X949790Y820044D01*
X949790Y820956D02*
X970830Y820956D01*
X970830Y821868D02*
X949790Y821868D01*
X949790Y822780D02*
X970830Y822780D01*
X970830Y823692D02*
X949790Y823692D01*
X949790Y824604D02*
X970830Y824604D01*
X970830Y669700D02*
X970830Y658660D01*
X949790Y658660D01*
X949790Y669700D01*
X970830Y669700D01*
X970830Y659572D02*
X949790Y659572D01*
X949790Y660484D02*
X970830Y660484D01*
X970830Y661396D02*
X949790Y661396D01*
X949790Y662308D02*
X970830Y662308D01*
X970830Y663220D02*
X949790Y663220D01*
X949790Y664132D02*
X970830Y664132D01*
X970830Y665044D02*
X949790Y665044D01*
X949790Y665956D02*
X970830Y665956D01*
X970830Y666868D02*
X949790Y666868D01*
X949790Y667780D02*
X970830Y667780D01*
X970830Y668692D02*
X949790Y668692D01*
X949790Y669604D02*
X970830Y669604D01*
D14*
X1062820Y802670D02*
X1062820Y817690D01*
X1062820Y802670D02*
X1049800Y802670D01*
X1049800Y817690D01*
X1062820Y817690D01*
X1062820Y803601D02*
X1049800Y803601D01*
X1049800Y804532D02*
X1062820Y804532D01*
X1062820Y805463D02*
X1049800Y805463D01*
X1049800Y806394D02*
X1062820Y806394D01*
X1062820Y807325D02*
X1049800Y807325D01*
X1049800Y808256D02*
X1062820Y808256D01*
X1062820Y809187D02*
X1049800Y809187D01*
X1049800Y810118D02*
X1062820Y810118D01*
X1062820Y811049D02*
X1049800Y811049D01*
X1049800Y811980D02*
X1062820Y811980D01*
X1062820Y812911D02*
X1049800Y812911D01*
X1049800Y813842D02*
X1062820Y813842D01*
X1062820Y814773D02*
X1049800Y814773D01*
X1049800Y815704D02*
X1062820Y815704D01*
X1062820Y816635D02*
X1049800Y816635D01*
X1049800Y817566D02*
X1062820Y817566D01*
D13*
X1062830Y669700D02*
X1062830Y658660D01*
X1047790Y658660D01*
X1047790Y669700D01*
X1062830Y669700D01*
X1062830Y659572D02*
X1047790Y659572D01*
X1047790Y660484D02*
X1062830Y660484D01*
X1062830Y661396D02*
X1047790Y661396D01*
X1047790Y662308D02*
X1062830Y662308D01*
X1062830Y663220D02*
X1047790Y663220D01*
X1047790Y664132D02*
X1062830Y664132D01*
X1062830Y665044D02*
X1047790Y665044D01*
X1047790Y665956D02*
X1062830Y665956D01*
X1062830Y666868D02*
X1047790Y666868D01*
X1047790Y667780D02*
X1062830Y667780D01*
X1062830Y668692D02*
X1047790Y668692D01*
X1047790Y669604D02*
X1062830Y669604D01*
D15*
X1083360Y592170D02*
X1088340Y592170D01*
X1088340Y581190D01*
X1083360Y581190D01*
X1083360Y592170D01*
X1083360Y582159D02*
X1088340Y582159D01*
X1088340Y583128D02*
X1083360Y583128D01*
X1083360Y584097D02*
X1088340Y584097D01*
X1088340Y585066D02*
X1083360Y585066D01*
X1083360Y586035D02*
X1088340Y586035D01*
X1088340Y587004D02*
X1083360Y587004D01*
X1083360Y587973D02*
X1088340Y587973D01*
X1088340Y588942D02*
X1083360Y588942D01*
X1083360Y589911D02*
X1088340Y589911D01*
X1088340Y590880D02*
X1083360Y590880D01*
X1083360Y591849D02*
X1088340Y591849D01*
X1075640Y592170D02*
X1070660Y592170D01*
X1075640Y592170D02*
X1075640Y581190D01*
X1070660Y581190D01*
X1070660Y592170D01*
X1070660Y582159D02*
X1075640Y582159D01*
X1075640Y583128D02*
X1070660Y583128D01*
X1070660Y584097D02*
X1075640Y584097D01*
X1075640Y585066D02*
X1070660Y585066D01*
X1070660Y586035D02*
X1075640Y586035D01*
X1075640Y587004D02*
X1070660Y587004D01*
X1070660Y587973D02*
X1075640Y587973D01*
X1075640Y588942D02*
X1070660Y588942D01*
X1070660Y589911D02*
X1075640Y589911D01*
X1075640Y590880D02*
X1070660Y590880D01*
X1070660Y591849D02*
X1075640Y591849D01*
X1062940Y592170D02*
X1057960Y592170D01*
X1062940Y592170D02*
X1062940Y581190D01*
X1057960Y581190D01*
X1057960Y592170D01*
X1057960Y582159D02*
X1062940Y582159D01*
X1062940Y583128D02*
X1057960Y583128D01*
X1057960Y584097D02*
X1062940Y584097D01*
X1062940Y585066D02*
X1057960Y585066D01*
X1057960Y586035D02*
X1062940Y586035D01*
X1062940Y587004D02*
X1057960Y587004D01*
X1057960Y587973D02*
X1062940Y587973D01*
X1062940Y588942D02*
X1057960Y588942D01*
X1057960Y589911D02*
X1062940Y589911D01*
X1062940Y590880D02*
X1057960Y590880D01*
X1057960Y591849D02*
X1062940Y591849D01*
X1050240Y592170D02*
X1045260Y592170D01*
X1050240Y592170D02*
X1050240Y581190D01*
X1045260Y581190D01*
X1045260Y592170D01*
X1045260Y582159D02*
X1050240Y582159D01*
X1050240Y583128D02*
X1045260Y583128D01*
X1045260Y584097D02*
X1050240Y584097D01*
X1050240Y585066D02*
X1045260Y585066D01*
X1045260Y586035D02*
X1050240Y586035D01*
X1050240Y587004D02*
X1045260Y587004D01*
X1045260Y587973D02*
X1050240Y587973D01*
X1050240Y588942D02*
X1045260Y588942D01*
X1045260Y589911D02*
X1050240Y589911D01*
X1050240Y590880D02*
X1045260Y590880D01*
X1045260Y591849D02*
X1050240Y591849D01*
X1037540Y592170D02*
X1032560Y592170D01*
X1037540Y592170D02*
X1037540Y581190D01*
X1032560Y581190D01*
X1032560Y592170D01*
X1032560Y582159D02*
X1037540Y582159D01*
X1037540Y583128D02*
X1032560Y583128D01*
X1032560Y584097D02*
X1037540Y584097D01*
X1037540Y585066D02*
X1032560Y585066D01*
X1032560Y586035D02*
X1037540Y586035D01*
X1037540Y587004D02*
X1032560Y587004D01*
X1032560Y587973D02*
X1037540Y587973D01*
X1037540Y588942D02*
X1032560Y588942D01*
X1032560Y589911D02*
X1037540Y589911D01*
X1037540Y590880D02*
X1032560Y590880D01*
X1032560Y591849D02*
X1037540Y591849D01*
X1024840Y592170D02*
X1019860Y592170D01*
X1024840Y592170D02*
X1024840Y581190D01*
X1019860Y581190D01*
X1019860Y592170D01*
X1019860Y582159D02*
X1024840Y582159D01*
X1024840Y583128D02*
X1019860Y583128D01*
X1019860Y584097D02*
X1024840Y584097D01*
X1024840Y585066D02*
X1019860Y585066D01*
X1019860Y586035D02*
X1024840Y586035D01*
X1024840Y587004D02*
X1019860Y587004D01*
X1019860Y587973D02*
X1024840Y587973D01*
X1024840Y588942D02*
X1019860Y588942D01*
X1019860Y589911D02*
X1024840Y589911D01*
X1024840Y590880D02*
X1019860Y590880D01*
X1019860Y591849D02*
X1024840Y591849D01*
X1012140Y592170D02*
X1007160Y592170D01*
X1012140Y592170D02*
X1012140Y581190D01*
X1007160Y581190D01*
X1007160Y592170D01*
X1007160Y582159D02*
X1012140Y582159D01*
X1012140Y583128D02*
X1007160Y583128D01*
X1007160Y584097D02*
X1012140Y584097D01*
X1012140Y585066D02*
X1007160Y585066D01*
X1007160Y586035D02*
X1012140Y586035D01*
X1012140Y587004D02*
X1007160Y587004D01*
X1007160Y587973D02*
X1012140Y587973D01*
X1012140Y588942D02*
X1007160Y588942D01*
X1007160Y589911D02*
X1012140Y589911D01*
X1012140Y590880D02*
X1007160Y590880D01*
X1007160Y591849D02*
X1012140Y591849D01*
X999440Y592170D02*
X994460Y592170D01*
X999440Y592170D02*
X999440Y581190D01*
X994460Y581190D01*
X994460Y592170D01*
X994460Y582159D02*
X999440Y582159D01*
X999440Y583128D02*
X994460Y583128D01*
X994460Y584097D02*
X999440Y584097D01*
X999440Y585066D02*
X994460Y585066D01*
X994460Y586035D02*
X999440Y586035D01*
X999440Y587004D02*
X994460Y587004D01*
X994460Y587973D02*
X999440Y587973D01*
X999440Y588942D02*
X994460Y588942D01*
X994460Y589911D02*
X999440Y589911D01*
X999440Y590880D02*
X994460Y590880D01*
X994460Y591849D02*
X999440Y591849D01*
X999440Y648170D02*
X994460Y648170D01*
X999440Y648170D02*
X999440Y637190D01*
X994460Y637190D01*
X994460Y648170D01*
X994460Y638159D02*
X999440Y638159D01*
X999440Y639128D02*
X994460Y639128D01*
X994460Y640097D02*
X999440Y640097D01*
X999440Y641066D02*
X994460Y641066D01*
X994460Y642035D02*
X999440Y642035D01*
X999440Y643004D02*
X994460Y643004D01*
X994460Y643973D02*
X999440Y643973D01*
X999440Y644942D02*
X994460Y644942D01*
X994460Y645911D02*
X999440Y645911D01*
X999440Y646880D02*
X994460Y646880D01*
X994460Y647849D02*
X999440Y647849D01*
X1007160Y648170D02*
X1012140Y648170D01*
X1012140Y637190D01*
X1007160Y637190D01*
X1007160Y648170D01*
X1007160Y638159D02*
X1012140Y638159D01*
X1012140Y639128D02*
X1007160Y639128D01*
X1007160Y640097D02*
X1012140Y640097D01*
X1012140Y641066D02*
X1007160Y641066D01*
X1007160Y642035D02*
X1012140Y642035D01*
X1012140Y643004D02*
X1007160Y643004D01*
X1007160Y643973D02*
X1012140Y643973D01*
X1012140Y644942D02*
X1007160Y644942D01*
X1007160Y645911D02*
X1012140Y645911D01*
X1012140Y646880D02*
X1007160Y646880D01*
X1007160Y647849D02*
X1012140Y647849D01*
X1019860Y648170D02*
X1024840Y648170D01*
X1024840Y637190D01*
X1019860Y637190D01*
X1019860Y648170D01*
X1019860Y638159D02*
X1024840Y638159D01*
X1024840Y639128D02*
X1019860Y639128D01*
X1019860Y640097D02*
X1024840Y640097D01*
X1024840Y641066D02*
X1019860Y641066D01*
X1019860Y642035D02*
X1024840Y642035D01*
X1024840Y643004D02*
X1019860Y643004D01*
X1019860Y643973D02*
X1024840Y643973D01*
X1024840Y644942D02*
X1019860Y644942D01*
X1019860Y645911D02*
X1024840Y645911D01*
X1024840Y646880D02*
X1019860Y646880D01*
X1019860Y647849D02*
X1024840Y647849D01*
X1032560Y648170D02*
X1037540Y648170D01*
X1037540Y637190D01*
X1032560Y637190D01*
X1032560Y648170D01*
X1032560Y638159D02*
X1037540Y638159D01*
X1037540Y639128D02*
X1032560Y639128D01*
X1032560Y640097D02*
X1037540Y640097D01*
X1037540Y641066D02*
X1032560Y641066D01*
X1032560Y642035D02*
X1037540Y642035D01*
X1037540Y643004D02*
X1032560Y643004D01*
X1032560Y643973D02*
X1037540Y643973D01*
X1037540Y644942D02*
X1032560Y644942D01*
X1032560Y645911D02*
X1037540Y645911D01*
X1037540Y646880D02*
X1032560Y646880D01*
X1032560Y647849D02*
X1037540Y647849D01*
X1045260Y648170D02*
X1050240Y648170D01*
X1050240Y637190D01*
X1045260Y637190D01*
X1045260Y648170D01*
X1045260Y638159D02*
X1050240Y638159D01*
X1050240Y639128D02*
X1045260Y639128D01*
X1045260Y640097D02*
X1050240Y640097D01*
X1050240Y641066D02*
X1045260Y641066D01*
X1045260Y642035D02*
X1050240Y642035D01*
X1050240Y643004D02*
X1045260Y643004D01*
X1045260Y643973D02*
X1050240Y643973D01*
X1050240Y644942D02*
X1045260Y644942D01*
X1045260Y645911D02*
X1050240Y645911D01*
X1050240Y646880D02*
X1045260Y646880D01*
X1045260Y647849D02*
X1050240Y647849D01*
X1057960Y648170D02*
X1062940Y648170D01*
X1062940Y637190D01*
X1057960Y637190D01*
X1057960Y648170D01*
X1057960Y638159D02*
X1062940Y638159D01*
X1062940Y639128D02*
X1057960Y639128D01*
X1057960Y640097D02*
X1062940Y640097D01*
X1062940Y641066D02*
X1057960Y641066D01*
X1057960Y642035D02*
X1062940Y642035D01*
X1062940Y643004D02*
X1057960Y643004D01*
X1057960Y643973D02*
X1062940Y643973D01*
X1062940Y644942D02*
X1057960Y644942D01*
X1057960Y645911D02*
X1062940Y645911D01*
X1062940Y646880D02*
X1057960Y646880D01*
X1057960Y647849D02*
X1062940Y647849D01*
X1070660Y648170D02*
X1075640Y648170D01*
X1075640Y637190D01*
X1070660Y637190D01*
X1070660Y648170D01*
X1070660Y638159D02*
X1075640Y638159D01*
X1075640Y639128D02*
X1070660Y639128D01*
X1070660Y640097D02*
X1075640Y640097D01*
X1075640Y641066D02*
X1070660Y641066D01*
X1070660Y642035D02*
X1075640Y642035D01*
X1075640Y643004D02*
X1070660Y643004D01*
X1070660Y643973D02*
X1075640Y643973D01*
X1075640Y644942D02*
X1070660Y644942D01*
X1070660Y645911D02*
X1075640Y645911D01*
X1075640Y646880D02*
X1070660Y646880D01*
X1070660Y647849D02*
X1075640Y647849D01*
X1083360Y648170D02*
X1088340Y648170D01*
X1088340Y637190D01*
X1083360Y637190D01*
X1083360Y648170D01*
X1083360Y638159D02*
X1088340Y638159D01*
X1088340Y639128D02*
X1083360Y639128D01*
X1083360Y640097D02*
X1088340Y640097D01*
X1088340Y641066D02*
X1083360Y641066D01*
X1083360Y642035D02*
X1088340Y642035D01*
X1088340Y643004D02*
X1083360Y643004D01*
X1083360Y643973D02*
X1088340Y643973D01*
X1088340Y644942D02*
X1083360Y644942D01*
X1083360Y645911D02*
X1088340Y645911D01*
X1088340Y646880D02*
X1083360Y646880D01*
X1083360Y647849D02*
X1088340Y647849D01*
D10*
X1414904Y607435D02*
X1414904Y602925D01*
X1403894Y602925D01*
X1403894Y607435D01*
X1414904Y607435D01*
X1414904Y603865D02*
X1403894Y603865D01*
X1403894Y604805D02*
X1414904Y604805D01*
X1414904Y605745D02*
X1403894Y605745D01*
X1403894Y606685D02*
X1414904Y606685D01*
X1414904Y612425D02*
X1414904Y616935D01*
X1414904Y612425D02*
X1403894Y612425D01*
X1403894Y616935D01*
X1414904Y616935D01*
X1414904Y613365D02*
X1403894Y613365D01*
X1403894Y614305D02*
X1414904Y614305D01*
X1414904Y615245D02*
X1403894Y615245D01*
X1403894Y616185D02*
X1414904Y616185D01*
X1414904Y621925D02*
X1414904Y626435D01*
X1414904Y621925D02*
X1403894Y621925D01*
X1403894Y626435D01*
X1414904Y626435D01*
X1414904Y622865D02*
X1403894Y622865D01*
X1403894Y623805D02*
X1414904Y623805D01*
X1414904Y624745D02*
X1403894Y624745D01*
X1403894Y625685D02*
X1414904Y625685D01*
X1440906Y626435D02*
X1440906Y621925D01*
X1429896Y621925D01*
X1429896Y626435D01*
X1440906Y626435D01*
X1440906Y622865D02*
X1429896Y622865D01*
X1429896Y623805D02*
X1440906Y623805D01*
X1440906Y624745D02*
X1429896Y624745D01*
X1429896Y625685D02*
X1440906Y625685D01*
X1440906Y607435D02*
X1440906Y602925D01*
X1429896Y602925D01*
X1429896Y607435D01*
X1440906Y607435D01*
X1440906Y603865D02*
X1429896Y603865D01*
X1429896Y604805D02*
X1440906Y604805D01*
X1440906Y605745D02*
X1429896Y605745D01*
X1429896Y606685D02*
X1440906Y606685D01*
D11*
X1435900Y644580D02*
X1425900Y644580D01*
X1435900Y644580D02*
X1435900Y635580D01*
X1425900Y635580D01*
X1425900Y644580D01*
X1425900Y636530D02*
X1435900Y636530D01*
X1435900Y637480D02*
X1425900Y637480D01*
X1425900Y638430D02*
X1435900Y638430D01*
X1435900Y639380D02*
X1425900Y639380D01*
X1425900Y640330D02*
X1435900Y640330D01*
X1435900Y641280D02*
X1425900Y641280D01*
X1425900Y642230D02*
X1435900Y642230D01*
X1435900Y643180D02*
X1425900Y643180D01*
X1425900Y644130D02*
X1435900Y644130D01*
X1418900Y644580D02*
X1408900Y644580D01*
X1418900Y644580D02*
X1418900Y635580D01*
X1408900Y635580D01*
X1408900Y644580D01*
X1408900Y636530D02*
X1418900Y636530D01*
X1418900Y637480D02*
X1408900Y637480D01*
X1408900Y638430D02*
X1418900Y638430D01*
X1418900Y639380D02*
X1408900Y639380D01*
X1408900Y640330D02*
X1418900Y640330D01*
X1418900Y641280D02*
X1408900Y641280D01*
X1408900Y642230D02*
X1418900Y642230D01*
X1418900Y643180D02*
X1408900Y643180D01*
X1408900Y644130D02*
X1418900Y644130D01*
X1252800Y628180D02*
X1252800Y618180D01*
X1252800Y628180D02*
X1261800Y628180D01*
X1261800Y618180D01*
X1252800Y618180D01*
X1252800Y619130D02*
X1261800Y619130D01*
X1261800Y620080D02*
X1252800Y620080D01*
X1252800Y621030D02*
X1261800Y621030D01*
X1261800Y621980D02*
X1252800Y621980D01*
X1252800Y622930D02*
X1261800Y622930D01*
X1261800Y623880D02*
X1252800Y623880D01*
X1252800Y624830D02*
X1261800Y624830D01*
X1261800Y625780D02*
X1252800Y625780D01*
X1252800Y626730D02*
X1261800Y626730D01*
X1261800Y627680D02*
X1252800Y627680D01*
X1252800Y611180D02*
X1252800Y601180D01*
X1252800Y611180D02*
X1261800Y611180D01*
X1261800Y601180D01*
X1252800Y601180D01*
X1252800Y602130D02*
X1261800Y602130D01*
X1261800Y603080D02*
X1252800Y603080D01*
X1252800Y604030D02*
X1261800Y604030D01*
X1261800Y604980D02*
X1252800Y604980D01*
X1252800Y605930D02*
X1261800Y605930D01*
X1261800Y606880D02*
X1252800Y606880D01*
X1252800Y607830D02*
X1261800Y607830D01*
X1261800Y608780D02*
X1252800Y608780D01*
X1252800Y609730D02*
X1261800Y609730D01*
X1261800Y610680D02*
X1252800Y610680D01*
X1236400Y592130D02*
X1236400Y582130D01*
X1227400Y582130D01*
X1227400Y592130D01*
X1236400Y592130D01*
X1236400Y583080D02*
X1227400Y583080D01*
X1227400Y584030D02*
X1236400Y584030D01*
X1236400Y584980D02*
X1227400Y584980D01*
X1227400Y585930D02*
X1236400Y585930D01*
X1236400Y586880D02*
X1227400Y586880D01*
X1227400Y587830D02*
X1236400Y587830D01*
X1236400Y588780D02*
X1227400Y588780D01*
X1227400Y589730D02*
X1236400Y589730D01*
X1236400Y590680D02*
X1227400Y590680D01*
X1227400Y591630D02*
X1236400Y591630D01*
X1236400Y599130D02*
X1236400Y609130D01*
X1236400Y599130D02*
X1227400Y599130D01*
X1227400Y609130D01*
X1236400Y609130D01*
X1236400Y600080D02*
X1227400Y600080D01*
X1227400Y601030D02*
X1236400Y601030D01*
X1236400Y601980D02*
X1227400Y601980D01*
X1227400Y602930D02*
X1236400Y602930D01*
X1236400Y603880D02*
X1227400Y603880D01*
X1227400Y604830D02*
X1236400Y604830D01*
X1236400Y605780D02*
X1227400Y605780D01*
X1227400Y606730D02*
X1236400Y606730D01*
X1236400Y607680D02*
X1227400Y607680D01*
X1227400Y608630D02*
X1236400Y608630D01*
X1227400Y637230D02*
X1227400Y647230D01*
X1236400Y647230D01*
X1236400Y637230D01*
X1227400Y637230D01*
X1227400Y638180D02*
X1236400Y638180D01*
X1236400Y639130D02*
X1227400Y639130D01*
X1227400Y640080D02*
X1236400Y640080D01*
X1236400Y641030D02*
X1227400Y641030D01*
X1227400Y641980D02*
X1236400Y641980D01*
X1236400Y642930D02*
X1227400Y642930D01*
X1227400Y643880D02*
X1236400Y643880D01*
X1236400Y644830D02*
X1227400Y644830D01*
X1227400Y645780D02*
X1236400Y645780D01*
X1236400Y646730D02*
X1227400Y646730D01*
X1227400Y630230D02*
X1227400Y620230D01*
X1227400Y630230D02*
X1236400Y630230D01*
X1236400Y620230D01*
X1227400Y620230D01*
X1227400Y621180D02*
X1236400Y621180D01*
X1236400Y622130D02*
X1227400Y622130D01*
X1227400Y623080D02*
X1236400Y623080D01*
X1236400Y624030D02*
X1227400Y624030D01*
X1227400Y624980D02*
X1236400Y624980D01*
X1236400Y625930D02*
X1227400Y625930D01*
X1227400Y626880D02*
X1236400Y626880D01*
X1236400Y627830D02*
X1227400Y627830D01*
X1227400Y628780D02*
X1236400Y628780D01*
X1236400Y629730D02*
X1227400Y629730D01*
D12*
X1358635Y739205D02*
X1373585Y739205D01*
X1358635Y739205D02*
X1358635Y745155D01*
X1373585Y745155D01*
X1373585Y739205D01*
X1373585Y740202D02*
X1358635Y740202D01*
X1358635Y741199D02*
X1373585Y741199D01*
X1373585Y742196D02*
X1358635Y742196D01*
X1358635Y743193D02*
X1373585Y743193D01*
X1373585Y744190D02*
X1358635Y744190D01*
X1358635Y750205D02*
X1373585Y750205D01*
X1358635Y750205D02*
X1358635Y756155D01*
X1373585Y756155D01*
X1373585Y750205D01*
X1373585Y751202D02*
X1358635Y751202D01*
X1358635Y752199D02*
X1373585Y752199D01*
X1373585Y753196D02*
X1358635Y753196D01*
X1358635Y754193D02*
X1373585Y754193D01*
X1373585Y755190D02*
X1358635Y755190D01*
X1358635Y761205D02*
X1373585Y761205D01*
X1358635Y761205D02*
X1358635Y767155D01*
X1373585Y767155D01*
X1373585Y761205D01*
X1373585Y762202D02*
X1358635Y762202D01*
X1358635Y763199D02*
X1373585Y763199D01*
X1373585Y764196D02*
X1358635Y764196D01*
X1358635Y765193D02*
X1373585Y765193D01*
X1373585Y766190D02*
X1358635Y766190D01*
X1358635Y728205D02*
X1373585Y728205D01*
X1358635Y728205D02*
X1358635Y734155D01*
X1373585Y734155D01*
X1373585Y728205D01*
X1373585Y729202D02*
X1358635Y729202D01*
X1358635Y730199D02*
X1373585Y730199D01*
X1373585Y731196D02*
X1358635Y731196D01*
X1358635Y732193D02*
X1373585Y732193D01*
X1373585Y733190D02*
X1358635Y733190D01*
X1358635Y717205D02*
X1373585Y717205D01*
X1358635Y717205D02*
X1358635Y723155D01*
X1373585Y723155D01*
X1373585Y717205D01*
X1373585Y718202D02*
X1358635Y718202D01*
X1358635Y719199D02*
X1373585Y719199D01*
X1373585Y720196D02*
X1358635Y720196D01*
X1358635Y721193D02*
X1373585Y721193D01*
X1373585Y722190D02*
X1358635Y722190D01*
X1358635Y706205D02*
X1373585Y706205D01*
X1358635Y706205D02*
X1358635Y712155D01*
X1373585Y712155D01*
X1373585Y706205D01*
X1373585Y707202D02*
X1358635Y707202D01*
X1358635Y708199D02*
X1373585Y708199D01*
X1373585Y709196D02*
X1358635Y709196D01*
X1358635Y710193D02*
X1373585Y710193D01*
X1373585Y711190D02*
X1358635Y711190D01*
X1358635Y695205D02*
X1373585Y695205D01*
X1358635Y695205D02*
X1358635Y701155D01*
X1373585Y701155D01*
X1373585Y695205D01*
X1373585Y696202D02*
X1358635Y696202D01*
X1358635Y697199D02*
X1373585Y697199D01*
X1373585Y698196D02*
X1358635Y698196D01*
X1358635Y699193D02*
X1373585Y699193D01*
X1373585Y700190D02*
X1358635Y700190D01*
X1358635Y684205D02*
X1373585Y684205D01*
X1358635Y684205D02*
X1358635Y690155D01*
X1373585Y690155D01*
X1373585Y684205D01*
X1373585Y685202D02*
X1358635Y685202D01*
X1358635Y686199D02*
X1373585Y686199D01*
X1373585Y687196D02*
X1358635Y687196D01*
X1358635Y688193D02*
X1373585Y688193D01*
X1373585Y689190D02*
X1358635Y689190D01*
X1358635Y673205D02*
X1373585Y673205D01*
X1358635Y673205D02*
X1358635Y679155D01*
X1373585Y679155D01*
X1373585Y673205D01*
X1373585Y674202D02*
X1358635Y674202D01*
X1358635Y675199D02*
X1373585Y675199D01*
X1373585Y676196D02*
X1358635Y676196D01*
X1358635Y677193D02*
X1373585Y677193D01*
X1373585Y678190D02*
X1358635Y678190D01*
D13*
X1275630Y813660D02*
X1275630Y824700D01*
X1275630Y813660D02*
X1254590Y813660D01*
X1254590Y824700D01*
X1275630Y824700D01*
X1275630Y814572D02*
X1254590Y814572D01*
X1254590Y815484D02*
X1275630Y815484D01*
X1275630Y816396D02*
X1254590Y816396D01*
X1254590Y817308D02*
X1275630Y817308D01*
X1275630Y818220D02*
X1254590Y818220D01*
X1254590Y819132D02*
X1275630Y819132D01*
X1275630Y820044D02*
X1254590Y820044D01*
X1254590Y820956D02*
X1275630Y820956D01*
X1275630Y821868D02*
X1254590Y821868D01*
X1254590Y822780D02*
X1275630Y822780D01*
X1275630Y823692D02*
X1254590Y823692D01*
X1254590Y824604D02*
X1275630Y824604D01*
X1275630Y669700D02*
X1275630Y658660D01*
X1254590Y658660D01*
X1254590Y669700D01*
X1275630Y669700D01*
X1275630Y659572D02*
X1254590Y659572D01*
X1254590Y660484D02*
X1275630Y660484D01*
X1275630Y661396D02*
X1254590Y661396D01*
X1254590Y662308D02*
X1275630Y662308D01*
X1275630Y663220D02*
X1254590Y663220D01*
X1254590Y664132D02*
X1275630Y664132D01*
X1275630Y665044D02*
X1254590Y665044D01*
X1254590Y665956D02*
X1275630Y665956D01*
X1275630Y666868D02*
X1254590Y666868D01*
X1254590Y667780D02*
X1275630Y667780D01*
X1275630Y668692D02*
X1254590Y668692D01*
X1254590Y669604D02*
X1275630Y669604D01*
D14*
X1367620Y802670D02*
X1367620Y817690D01*
X1367620Y802670D02*
X1354600Y802670D01*
X1354600Y817690D01*
X1367620Y817690D01*
X1367620Y803601D02*
X1354600Y803601D01*
X1354600Y804532D02*
X1367620Y804532D01*
X1367620Y805463D02*
X1354600Y805463D01*
X1354600Y806394D02*
X1367620Y806394D01*
X1367620Y807325D02*
X1354600Y807325D01*
X1354600Y808256D02*
X1367620Y808256D01*
X1367620Y809187D02*
X1354600Y809187D01*
X1354600Y810118D02*
X1367620Y810118D01*
X1367620Y811049D02*
X1354600Y811049D01*
X1354600Y811980D02*
X1367620Y811980D01*
X1367620Y812911D02*
X1354600Y812911D01*
X1354600Y813842D02*
X1367620Y813842D01*
X1367620Y814773D02*
X1354600Y814773D01*
X1354600Y815704D02*
X1367620Y815704D01*
X1367620Y816635D02*
X1354600Y816635D01*
X1354600Y817566D02*
X1367620Y817566D01*
D13*
X1367630Y669700D02*
X1367630Y658660D01*
X1352590Y658660D01*
X1352590Y669700D01*
X1367630Y669700D01*
X1367630Y659572D02*
X1352590Y659572D01*
X1352590Y660484D02*
X1367630Y660484D01*
X1367630Y661396D02*
X1352590Y661396D01*
X1352590Y662308D02*
X1367630Y662308D01*
X1367630Y663220D02*
X1352590Y663220D01*
X1352590Y664132D02*
X1367630Y664132D01*
X1367630Y665044D02*
X1352590Y665044D01*
X1352590Y665956D02*
X1367630Y665956D01*
X1367630Y666868D02*
X1352590Y666868D01*
X1352590Y667780D02*
X1367630Y667780D01*
X1367630Y668692D02*
X1352590Y668692D01*
X1352590Y669604D02*
X1367630Y669604D01*
D15*
X1388160Y592170D02*
X1393140Y592170D01*
X1393140Y581190D01*
X1388160Y581190D01*
X1388160Y592170D01*
X1388160Y582159D02*
X1393140Y582159D01*
X1393140Y583128D02*
X1388160Y583128D01*
X1388160Y584097D02*
X1393140Y584097D01*
X1393140Y585066D02*
X1388160Y585066D01*
X1388160Y586035D02*
X1393140Y586035D01*
X1393140Y587004D02*
X1388160Y587004D01*
X1388160Y587973D02*
X1393140Y587973D01*
X1393140Y588942D02*
X1388160Y588942D01*
X1388160Y589911D02*
X1393140Y589911D01*
X1393140Y590880D02*
X1388160Y590880D01*
X1388160Y591849D02*
X1393140Y591849D01*
X1380440Y592170D02*
X1375460Y592170D01*
X1380440Y592170D02*
X1380440Y581190D01*
X1375460Y581190D01*
X1375460Y592170D01*
X1375460Y582159D02*
X1380440Y582159D01*
X1380440Y583128D02*
X1375460Y583128D01*
X1375460Y584097D02*
X1380440Y584097D01*
X1380440Y585066D02*
X1375460Y585066D01*
X1375460Y586035D02*
X1380440Y586035D01*
X1380440Y587004D02*
X1375460Y587004D01*
X1375460Y587973D02*
X1380440Y587973D01*
X1380440Y588942D02*
X1375460Y588942D01*
X1375460Y589911D02*
X1380440Y589911D01*
X1380440Y590880D02*
X1375460Y590880D01*
X1375460Y591849D02*
X1380440Y591849D01*
X1367740Y592170D02*
X1362760Y592170D01*
X1367740Y592170D02*
X1367740Y581190D01*
X1362760Y581190D01*
X1362760Y592170D01*
X1362760Y582159D02*
X1367740Y582159D01*
X1367740Y583128D02*
X1362760Y583128D01*
X1362760Y584097D02*
X1367740Y584097D01*
X1367740Y585066D02*
X1362760Y585066D01*
X1362760Y586035D02*
X1367740Y586035D01*
X1367740Y587004D02*
X1362760Y587004D01*
X1362760Y587973D02*
X1367740Y587973D01*
X1367740Y588942D02*
X1362760Y588942D01*
X1362760Y589911D02*
X1367740Y589911D01*
X1367740Y590880D02*
X1362760Y590880D01*
X1362760Y591849D02*
X1367740Y591849D01*
X1355040Y592170D02*
X1350060Y592170D01*
X1355040Y592170D02*
X1355040Y581190D01*
X1350060Y581190D01*
X1350060Y592170D01*
X1350060Y582159D02*
X1355040Y582159D01*
X1355040Y583128D02*
X1350060Y583128D01*
X1350060Y584097D02*
X1355040Y584097D01*
X1355040Y585066D02*
X1350060Y585066D01*
X1350060Y586035D02*
X1355040Y586035D01*
X1355040Y587004D02*
X1350060Y587004D01*
X1350060Y587973D02*
X1355040Y587973D01*
X1355040Y588942D02*
X1350060Y588942D01*
X1350060Y589911D02*
X1355040Y589911D01*
X1355040Y590880D02*
X1350060Y590880D01*
X1350060Y591849D02*
X1355040Y591849D01*
X1342340Y592170D02*
X1337360Y592170D01*
X1342340Y592170D02*
X1342340Y581190D01*
X1337360Y581190D01*
X1337360Y592170D01*
X1337360Y582159D02*
X1342340Y582159D01*
X1342340Y583128D02*
X1337360Y583128D01*
X1337360Y584097D02*
X1342340Y584097D01*
X1342340Y585066D02*
X1337360Y585066D01*
X1337360Y586035D02*
X1342340Y586035D01*
X1342340Y587004D02*
X1337360Y587004D01*
X1337360Y587973D02*
X1342340Y587973D01*
X1342340Y588942D02*
X1337360Y588942D01*
X1337360Y589911D02*
X1342340Y589911D01*
X1342340Y590880D02*
X1337360Y590880D01*
X1337360Y591849D02*
X1342340Y591849D01*
X1329640Y592170D02*
X1324660Y592170D01*
X1329640Y592170D02*
X1329640Y581190D01*
X1324660Y581190D01*
X1324660Y592170D01*
X1324660Y582159D02*
X1329640Y582159D01*
X1329640Y583128D02*
X1324660Y583128D01*
X1324660Y584097D02*
X1329640Y584097D01*
X1329640Y585066D02*
X1324660Y585066D01*
X1324660Y586035D02*
X1329640Y586035D01*
X1329640Y587004D02*
X1324660Y587004D01*
X1324660Y587973D02*
X1329640Y587973D01*
X1329640Y588942D02*
X1324660Y588942D01*
X1324660Y589911D02*
X1329640Y589911D01*
X1329640Y590880D02*
X1324660Y590880D01*
X1324660Y591849D02*
X1329640Y591849D01*
X1316940Y592170D02*
X1311960Y592170D01*
X1316940Y592170D02*
X1316940Y581190D01*
X1311960Y581190D01*
X1311960Y592170D01*
X1311960Y582159D02*
X1316940Y582159D01*
X1316940Y583128D02*
X1311960Y583128D01*
X1311960Y584097D02*
X1316940Y584097D01*
X1316940Y585066D02*
X1311960Y585066D01*
X1311960Y586035D02*
X1316940Y586035D01*
X1316940Y587004D02*
X1311960Y587004D01*
X1311960Y587973D02*
X1316940Y587973D01*
X1316940Y588942D02*
X1311960Y588942D01*
X1311960Y589911D02*
X1316940Y589911D01*
X1316940Y590880D02*
X1311960Y590880D01*
X1311960Y591849D02*
X1316940Y591849D01*
X1304240Y592170D02*
X1299260Y592170D01*
X1304240Y592170D02*
X1304240Y581190D01*
X1299260Y581190D01*
X1299260Y592170D01*
X1299260Y582159D02*
X1304240Y582159D01*
X1304240Y583128D02*
X1299260Y583128D01*
X1299260Y584097D02*
X1304240Y584097D01*
X1304240Y585066D02*
X1299260Y585066D01*
X1299260Y586035D02*
X1304240Y586035D01*
X1304240Y587004D02*
X1299260Y587004D01*
X1299260Y587973D02*
X1304240Y587973D01*
X1304240Y588942D02*
X1299260Y588942D01*
X1299260Y589911D02*
X1304240Y589911D01*
X1304240Y590880D02*
X1299260Y590880D01*
X1299260Y591849D02*
X1304240Y591849D01*
X1304240Y648170D02*
X1299260Y648170D01*
X1304240Y648170D02*
X1304240Y637190D01*
X1299260Y637190D01*
X1299260Y648170D01*
X1299260Y638159D02*
X1304240Y638159D01*
X1304240Y639128D02*
X1299260Y639128D01*
X1299260Y640097D02*
X1304240Y640097D01*
X1304240Y641066D02*
X1299260Y641066D01*
X1299260Y642035D02*
X1304240Y642035D01*
X1304240Y643004D02*
X1299260Y643004D01*
X1299260Y643973D02*
X1304240Y643973D01*
X1304240Y644942D02*
X1299260Y644942D01*
X1299260Y645911D02*
X1304240Y645911D01*
X1304240Y646880D02*
X1299260Y646880D01*
X1299260Y647849D02*
X1304240Y647849D01*
X1311960Y648170D02*
X1316940Y648170D01*
X1316940Y637190D01*
X1311960Y637190D01*
X1311960Y648170D01*
X1311960Y638159D02*
X1316940Y638159D01*
X1316940Y639128D02*
X1311960Y639128D01*
X1311960Y640097D02*
X1316940Y640097D01*
X1316940Y641066D02*
X1311960Y641066D01*
X1311960Y642035D02*
X1316940Y642035D01*
X1316940Y643004D02*
X1311960Y643004D01*
X1311960Y643973D02*
X1316940Y643973D01*
X1316940Y644942D02*
X1311960Y644942D01*
X1311960Y645911D02*
X1316940Y645911D01*
X1316940Y646880D02*
X1311960Y646880D01*
X1311960Y647849D02*
X1316940Y647849D01*
X1324660Y648170D02*
X1329640Y648170D01*
X1329640Y637190D01*
X1324660Y637190D01*
X1324660Y648170D01*
X1324660Y638159D02*
X1329640Y638159D01*
X1329640Y639128D02*
X1324660Y639128D01*
X1324660Y640097D02*
X1329640Y640097D01*
X1329640Y641066D02*
X1324660Y641066D01*
X1324660Y642035D02*
X1329640Y642035D01*
X1329640Y643004D02*
X1324660Y643004D01*
X1324660Y643973D02*
X1329640Y643973D01*
X1329640Y644942D02*
X1324660Y644942D01*
X1324660Y645911D02*
X1329640Y645911D01*
X1329640Y646880D02*
X1324660Y646880D01*
X1324660Y647849D02*
X1329640Y647849D01*
X1337360Y648170D02*
X1342340Y648170D01*
X1342340Y637190D01*
X1337360Y637190D01*
X1337360Y648170D01*
X1337360Y638159D02*
X1342340Y638159D01*
X1342340Y639128D02*
X1337360Y639128D01*
X1337360Y640097D02*
X1342340Y640097D01*
X1342340Y641066D02*
X1337360Y641066D01*
X1337360Y642035D02*
X1342340Y642035D01*
X1342340Y643004D02*
X1337360Y643004D01*
X1337360Y643973D02*
X1342340Y643973D01*
X1342340Y644942D02*
X1337360Y644942D01*
X1337360Y645911D02*
X1342340Y645911D01*
X1342340Y646880D02*
X1337360Y646880D01*
X1337360Y647849D02*
X1342340Y647849D01*
X1350060Y648170D02*
X1355040Y648170D01*
X1355040Y637190D01*
X1350060Y637190D01*
X1350060Y648170D01*
X1350060Y638159D02*
X1355040Y638159D01*
X1355040Y639128D02*
X1350060Y639128D01*
X1350060Y640097D02*
X1355040Y640097D01*
X1355040Y641066D02*
X1350060Y641066D01*
X1350060Y642035D02*
X1355040Y642035D01*
X1355040Y643004D02*
X1350060Y643004D01*
X1350060Y643973D02*
X1355040Y643973D01*
X1355040Y644942D02*
X1350060Y644942D01*
X1350060Y645911D02*
X1355040Y645911D01*
X1355040Y646880D02*
X1350060Y646880D01*
X1350060Y647849D02*
X1355040Y647849D01*
X1362760Y648170D02*
X1367740Y648170D01*
X1367740Y637190D01*
X1362760Y637190D01*
X1362760Y648170D01*
X1362760Y638159D02*
X1367740Y638159D01*
X1367740Y639128D02*
X1362760Y639128D01*
X1362760Y640097D02*
X1367740Y640097D01*
X1367740Y641066D02*
X1362760Y641066D01*
X1362760Y642035D02*
X1367740Y642035D01*
X1367740Y643004D02*
X1362760Y643004D01*
X1362760Y643973D02*
X1367740Y643973D01*
X1367740Y644942D02*
X1362760Y644942D01*
X1362760Y645911D02*
X1367740Y645911D01*
X1367740Y646880D02*
X1362760Y646880D01*
X1362760Y647849D02*
X1367740Y647849D01*
X1375460Y648170D02*
X1380440Y648170D01*
X1380440Y637190D01*
X1375460Y637190D01*
X1375460Y648170D01*
X1375460Y638159D02*
X1380440Y638159D01*
X1380440Y639128D02*
X1375460Y639128D01*
X1375460Y640097D02*
X1380440Y640097D01*
X1380440Y641066D02*
X1375460Y641066D01*
X1375460Y642035D02*
X1380440Y642035D01*
X1380440Y643004D02*
X1375460Y643004D01*
X1375460Y643973D02*
X1380440Y643973D01*
X1380440Y644942D02*
X1375460Y644942D01*
X1375460Y645911D02*
X1380440Y645911D01*
X1380440Y646880D02*
X1375460Y646880D01*
X1375460Y647849D02*
X1380440Y647849D01*
X1388160Y648170D02*
X1393140Y648170D01*
X1393140Y637190D01*
X1388160Y637190D01*
X1388160Y648170D01*
X1388160Y638159D02*
X1393140Y638159D01*
X1393140Y639128D02*
X1388160Y639128D01*
X1388160Y640097D02*
X1393140Y640097D01*
X1393140Y641066D02*
X1388160Y641066D01*
X1388160Y642035D02*
X1393140Y642035D01*
X1393140Y643004D02*
X1388160Y643004D01*
X1388160Y643973D02*
X1393140Y643973D01*
X1393140Y644942D02*
X1388160Y644942D01*
X1388160Y645911D02*
X1393140Y645911D01*
X1393140Y646880D02*
X1388160Y646880D01*
X1388160Y647849D02*
X1393140Y647849D01*
M02*
