G75*
%MOIN*%
%OFA0B0*%
%FSLAX25Y25*%
%IPPOS*%
%LPD*%
%AMOC8*
5,1,8,0,0,1.08239X$1,22.5*
%
%ADD10C,0.13800*%
%ADD11C,0.08200*%
%ADD12C,0.03300*%
%ADD13R,0.03162X0.05524*%
%ADD14R,0.06312X0.07887*%
%ADD15R,0.08280X0.06312*%
%ADD16R,0.06706X0.03950*%
%ADD17C,0.05524*%
%ADD18R,0.05524X0.02965*%
%ADD19R,0.05131X0.04737*%
%ADD20R,0.04737X0.05131*%
%ADD21C,0.04737*%
%ADD22C,0.05000*%
%ADD23C,0.06706*%
D10*
X0054750Y0038500D03*
X0134750Y0038500D03*
X0172750Y0038500D03*
X0252750Y0038500D03*
X0290750Y0038500D03*
X0370750Y0038500D03*
X0370750Y0218500D03*
X0370750Y0240500D03*
X0290750Y0240500D03*
X0290750Y0218500D03*
X0252750Y0218500D03*
X0252750Y0240500D03*
X0172750Y0240500D03*
X0172750Y0218500D03*
X0134750Y0218500D03*
X0134750Y0240500D03*
X0054750Y0240500D03*
X0054750Y0218500D03*
X0054750Y0420500D03*
X0134750Y0420500D03*
X0172750Y0420500D03*
X0252750Y0420500D03*
X0290750Y0420500D03*
X0370750Y0420500D03*
D11*
X0345750Y0415500D03*
X0345750Y0425500D03*
X0335750Y0425500D03*
X0335750Y0415500D03*
X0325750Y0415500D03*
X0325750Y0425500D03*
X0315750Y0425500D03*
X0315750Y0415500D03*
X0340750Y0395500D03*
X0340750Y0385500D03*
X0340750Y0375500D03*
X0340750Y0360500D03*
X0340750Y0350500D03*
X0227750Y0415500D03*
X0227750Y0425500D03*
X0217750Y0425500D03*
X0217750Y0415500D03*
X0207750Y0415500D03*
X0207750Y0425500D03*
X0197750Y0425500D03*
X0197750Y0415500D03*
X0222750Y0395500D03*
X0222750Y0385500D03*
X0222750Y0375500D03*
X0222750Y0360500D03*
X0222750Y0350500D03*
X0109750Y0415500D03*
X0109750Y0425500D03*
X0099750Y0425500D03*
X0099750Y0415500D03*
X0089750Y0415500D03*
X0089750Y0425500D03*
X0079750Y0425500D03*
X0079750Y0415500D03*
X0104750Y0395500D03*
X0104750Y0385500D03*
X0104750Y0375500D03*
X0104750Y0360500D03*
X0104750Y0350500D03*
X0099750Y0235500D03*
X0089750Y0235500D03*
X0079750Y0235500D03*
X0069750Y0235500D03*
X0079750Y0223500D03*
X0079750Y0213500D03*
X0089750Y0213500D03*
X0089750Y0223500D03*
X0099750Y0223500D03*
X0099750Y0213500D03*
X0109750Y0213500D03*
X0109750Y0223500D03*
X0109750Y0235500D03*
X0119750Y0235500D03*
X0104750Y0193500D03*
X0104750Y0183500D03*
X0104750Y0173500D03*
X0104750Y0158500D03*
X0104750Y0148500D03*
X0197750Y0213500D03*
X0197750Y0223500D03*
X0207750Y0223500D03*
X0207750Y0213500D03*
X0217750Y0213500D03*
X0217750Y0223500D03*
X0227750Y0223500D03*
X0227750Y0213500D03*
X0222750Y0193500D03*
X0222750Y0183500D03*
X0222750Y0173500D03*
X0222750Y0158500D03*
X0222750Y0148500D03*
X0217750Y0235500D03*
X0207750Y0235500D03*
X0197750Y0235500D03*
X0187750Y0235500D03*
X0227750Y0235500D03*
X0237750Y0235500D03*
X0305750Y0235500D03*
X0315750Y0235500D03*
X0325750Y0235500D03*
X0335750Y0235500D03*
X0345750Y0235500D03*
X0355750Y0235500D03*
X0345750Y0223500D03*
X0345750Y0213500D03*
X0335750Y0213500D03*
X0335750Y0223500D03*
X0325750Y0223500D03*
X0325750Y0213500D03*
X0315750Y0213500D03*
X0315750Y0223500D03*
X0340750Y0193500D03*
X0340750Y0183500D03*
X0340750Y0173500D03*
X0340750Y0158500D03*
X0340750Y0148500D03*
X0335750Y0033500D03*
X0325750Y0033500D03*
X0315750Y0033500D03*
X0305750Y0033500D03*
X0345750Y0033500D03*
X0355750Y0033500D03*
X0237750Y0033500D03*
X0227750Y0033500D03*
X0217750Y0033500D03*
X0207750Y0033500D03*
X0197750Y0033500D03*
X0187750Y0033500D03*
X0119750Y0033500D03*
X0109750Y0033500D03*
X0099750Y0033500D03*
X0089750Y0033500D03*
X0079750Y0033500D03*
X0069750Y0033500D03*
D12*
X0141250Y0032000D03*
X0259250Y0032000D03*
X0377250Y0032000D03*
X0283750Y0225500D03*
X0259250Y0234000D03*
X0165750Y0225500D03*
X0141250Y0234000D03*
X0047750Y0225500D03*
X0047750Y0427500D03*
X0165750Y0427500D03*
X0283750Y0427500D03*
X0377250Y0234000D03*
D13*
X0348250Y0259476D03*
X0343250Y0259476D03*
X0338250Y0259476D03*
X0333250Y0259476D03*
X0328250Y0259476D03*
X0323250Y0259476D03*
X0318250Y0259476D03*
X0313250Y0259476D03*
X0313250Y0281524D03*
X0318250Y0281524D03*
X0323250Y0281524D03*
X0328250Y0281524D03*
X0333250Y0281524D03*
X0338250Y0281524D03*
X0343250Y0281524D03*
X0348250Y0281524D03*
X0230250Y0281524D03*
X0225250Y0281524D03*
X0220250Y0281524D03*
X0215250Y0281524D03*
X0210250Y0281524D03*
X0205250Y0281524D03*
X0200250Y0281524D03*
X0195250Y0281524D03*
X0195250Y0259476D03*
X0200250Y0259476D03*
X0205250Y0259476D03*
X0210250Y0259476D03*
X0215250Y0259476D03*
X0220250Y0259476D03*
X0225250Y0259476D03*
X0230250Y0259476D03*
X0112250Y0259476D03*
X0107250Y0259476D03*
X0102250Y0259476D03*
X0097250Y0259476D03*
X0092250Y0259476D03*
X0087250Y0259476D03*
X0082250Y0259476D03*
X0077250Y0259476D03*
X0077250Y0281524D03*
X0082250Y0281524D03*
X0087250Y0281524D03*
X0092250Y0281524D03*
X0097250Y0281524D03*
X0102250Y0281524D03*
X0107250Y0281524D03*
X0112250Y0281524D03*
X0112250Y0079524D03*
X0107250Y0079524D03*
X0102250Y0079524D03*
X0097250Y0079524D03*
X0092250Y0079524D03*
X0087250Y0079524D03*
X0082250Y0079524D03*
X0077250Y0079524D03*
X0077250Y0057476D03*
X0082250Y0057476D03*
X0087250Y0057476D03*
X0092250Y0057476D03*
X0097250Y0057476D03*
X0102250Y0057476D03*
X0107250Y0057476D03*
X0112250Y0057476D03*
X0195250Y0057476D03*
X0200250Y0057476D03*
X0205250Y0057476D03*
X0210250Y0057476D03*
X0215250Y0057476D03*
X0220250Y0057476D03*
X0225250Y0057476D03*
X0230250Y0057476D03*
X0230250Y0079524D03*
X0225250Y0079524D03*
X0220250Y0079524D03*
X0215250Y0079524D03*
X0210250Y0079524D03*
X0205250Y0079524D03*
X0200250Y0079524D03*
X0195250Y0079524D03*
X0313250Y0079524D03*
X0318250Y0079524D03*
X0323250Y0079524D03*
X0328250Y0079524D03*
X0333250Y0079524D03*
X0338250Y0079524D03*
X0343250Y0079524D03*
X0348250Y0079524D03*
X0348250Y0057476D03*
X0343250Y0057476D03*
X0338250Y0057476D03*
X0333250Y0057476D03*
X0328250Y0057476D03*
X0323250Y0057476D03*
X0318250Y0057476D03*
X0313250Y0057476D03*
D14*
X0342675Y0094071D03*
X0342675Y0116512D03*
X0224675Y0116512D03*
X0224675Y0094071D03*
X0106675Y0094071D03*
X0106675Y0116512D03*
X0106675Y0296071D03*
X0106675Y0318512D03*
X0224675Y0318512D03*
X0224675Y0296071D03*
X0342675Y0296071D03*
X0342675Y0318512D03*
D15*
X0290904Y0289772D03*
X0286967Y0341543D03*
X0172904Y0289772D03*
X0168967Y0341543D03*
X0050967Y0341543D03*
X0054904Y0289772D03*
X0050967Y0139543D03*
X0054904Y0087772D03*
X0168967Y0139543D03*
X0172904Y0087772D03*
X0286967Y0139543D03*
X0290904Y0087772D03*
D16*
X0302124Y0090882D03*
X0302124Y0095213D03*
X0301337Y0099543D03*
X0302124Y0103874D03*
X0301337Y0108205D03*
X0302124Y0112535D03*
X0303699Y0116866D03*
X0302124Y0121197D03*
X0185699Y0116866D03*
X0184124Y0112535D03*
X0183337Y0108205D03*
X0184124Y0103874D03*
X0183337Y0099543D03*
X0184124Y0095213D03*
X0184124Y0090882D03*
X0184124Y0121197D03*
X0067699Y0116866D03*
X0066124Y0112535D03*
X0065337Y0108205D03*
X0066124Y0103874D03*
X0065337Y0099543D03*
X0066124Y0095213D03*
X0066124Y0090882D03*
X0066124Y0121197D03*
X0066124Y0292882D03*
X0066124Y0297213D03*
X0065337Y0301543D03*
X0066124Y0305874D03*
X0065337Y0310205D03*
X0066124Y0314535D03*
X0067699Y0318866D03*
X0066124Y0323197D03*
X0183337Y0310205D03*
X0184124Y0314535D03*
X0185699Y0318866D03*
X0184124Y0323197D03*
X0184124Y0305874D03*
X0183337Y0301543D03*
X0184124Y0297213D03*
X0184124Y0292882D03*
X0301337Y0301543D03*
X0302124Y0297213D03*
X0302124Y0292882D03*
X0302124Y0305874D03*
X0301337Y0310205D03*
X0302124Y0314535D03*
X0303699Y0318866D03*
X0302124Y0323197D03*
D17*
X0314608Y0385500D03*
X0287049Y0385500D03*
X0196608Y0385500D03*
X0169049Y0385500D03*
X0078608Y0385500D03*
X0051049Y0385500D03*
X0051049Y0183500D03*
X0078608Y0183500D03*
X0169049Y0183500D03*
X0196608Y0183500D03*
X0287049Y0183500D03*
X0314608Y0183500D03*
D18*
X0355631Y0266760D03*
X0355631Y0270500D03*
X0355631Y0274240D03*
X0365869Y0274240D03*
X0365869Y0266760D03*
X0247869Y0266760D03*
X0247869Y0274240D03*
X0237631Y0274240D03*
X0237631Y0270500D03*
X0237631Y0266760D03*
X0129869Y0266760D03*
X0129869Y0274240D03*
X0119631Y0274240D03*
X0119631Y0270500D03*
X0119631Y0266760D03*
X0119631Y0072240D03*
X0119631Y0068500D03*
X0119631Y0064760D03*
X0129869Y0064760D03*
X0129869Y0072240D03*
X0237631Y0072240D03*
X0237631Y0068500D03*
X0237631Y0064760D03*
X0247869Y0064760D03*
X0247869Y0072240D03*
X0355631Y0072240D03*
X0355631Y0068500D03*
X0355631Y0064760D03*
X0365869Y0064760D03*
X0365869Y0072240D03*
D19*
X0364096Y0078500D03*
X0357404Y0078500D03*
X0246096Y0078500D03*
X0239404Y0078500D03*
X0128096Y0078500D03*
X0121404Y0078500D03*
X0121404Y0280500D03*
X0128096Y0280500D03*
X0239404Y0280500D03*
X0246096Y0280500D03*
X0357404Y0280500D03*
X0364096Y0280500D03*
D20*
X0295750Y0273846D03*
X0295750Y0267154D03*
X0177750Y0267154D03*
X0177750Y0273846D03*
X0059750Y0273846D03*
X0059750Y0267154D03*
X0059750Y0071846D03*
X0059750Y0065154D03*
X0177750Y0065154D03*
X0177750Y0071846D03*
X0295750Y0071846D03*
X0295750Y0065154D03*
D21*
X0337750Y0438750D03*
X0087750Y0438750D03*
D22*
X0084185Y0020250D02*
X0084187Y0020369D01*
X0084193Y0020488D01*
X0084203Y0020607D01*
X0084217Y0020725D01*
X0084235Y0020843D01*
X0084256Y0020960D01*
X0084282Y0021076D01*
X0084312Y0021192D01*
X0084345Y0021306D01*
X0084382Y0021419D01*
X0084423Y0021531D01*
X0084468Y0021642D01*
X0084516Y0021751D01*
X0084568Y0021858D01*
X0084624Y0021963D01*
X0084683Y0022067D01*
X0084745Y0022168D01*
X0084811Y0022268D01*
X0084880Y0022365D01*
X0084952Y0022459D01*
X0085028Y0022552D01*
X0085106Y0022641D01*
X0085187Y0022728D01*
X0085272Y0022813D01*
X0085359Y0022894D01*
X0085448Y0022972D01*
X0085541Y0023048D01*
X0085635Y0023120D01*
X0085732Y0023189D01*
X0085832Y0023255D01*
X0085933Y0023317D01*
X0086037Y0023376D01*
X0086142Y0023432D01*
X0086249Y0023484D01*
X0086358Y0023532D01*
X0086469Y0023577D01*
X0086581Y0023618D01*
X0086694Y0023655D01*
X0086808Y0023688D01*
X0086924Y0023718D01*
X0087040Y0023744D01*
X0087157Y0023765D01*
X0087275Y0023783D01*
X0087393Y0023797D01*
X0087512Y0023807D01*
X0087631Y0023813D01*
X0087750Y0023815D01*
X0087869Y0023813D01*
X0087988Y0023807D01*
X0088107Y0023797D01*
X0088225Y0023783D01*
X0088343Y0023765D01*
X0088460Y0023744D01*
X0088576Y0023718D01*
X0088692Y0023688D01*
X0088806Y0023655D01*
X0088919Y0023618D01*
X0089031Y0023577D01*
X0089142Y0023532D01*
X0089251Y0023484D01*
X0089358Y0023432D01*
X0089463Y0023376D01*
X0089567Y0023317D01*
X0089668Y0023255D01*
X0089768Y0023189D01*
X0089865Y0023120D01*
X0089959Y0023048D01*
X0090052Y0022972D01*
X0090141Y0022894D01*
X0090228Y0022813D01*
X0090313Y0022728D01*
X0090394Y0022641D01*
X0090472Y0022552D01*
X0090548Y0022459D01*
X0090620Y0022365D01*
X0090689Y0022268D01*
X0090755Y0022168D01*
X0090817Y0022067D01*
X0090876Y0021963D01*
X0090932Y0021858D01*
X0090984Y0021751D01*
X0091032Y0021642D01*
X0091077Y0021531D01*
X0091118Y0021419D01*
X0091155Y0021306D01*
X0091188Y0021192D01*
X0091218Y0021076D01*
X0091244Y0020960D01*
X0091265Y0020843D01*
X0091283Y0020725D01*
X0091297Y0020607D01*
X0091307Y0020488D01*
X0091313Y0020369D01*
X0091315Y0020250D01*
X0091313Y0020131D01*
X0091307Y0020012D01*
X0091297Y0019893D01*
X0091283Y0019775D01*
X0091265Y0019657D01*
X0091244Y0019540D01*
X0091218Y0019424D01*
X0091188Y0019308D01*
X0091155Y0019194D01*
X0091118Y0019081D01*
X0091077Y0018969D01*
X0091032Y0018858D01*
X0090984Y0018749D01*
X0090932Y0018642D01*
X0090876Y0018537D01*
X0090817Y0018433D01*
X0090755Y0018332D01*
X0090689Y0018232D01*
X0090620Y0018135D01*
X0090548Y0018041D01*
X0090472Y0017948D01*
X0090394Y0017859D01*
X0090313Y0017772D01*
X0090228Y0017687D01*
X0090141Y0017606D01*
X0090052Y0017528D01*
X0089959Y0017452D01*
X0089865Y0017380D01*
X0089768Y0017311D01*
X0089668Y0017245D01*
X0089567Y0017183D01*
X0089463Y0017124D01*
X0089358Y0017068D01*
X0089251Y0017016D01*
X0089142Y0016968D01*
X0089031Y0016923D01*
X0088919Y0016882D01*
X0088806Y0016845D01*
X0088692Y0016812D01*
X0088576Y0016782D01*
X0088460Y0016756D01*
X0088343Y0016735D01*
X0088225Y0016717D01*
X0088107Y0016703D01*
X0087988Y0016693D01*
X0087869Y0016687D01*
X0087750Y0016685D01*
X0087631Y0016687D01*
X0087512Y0016693D01*
X0087393Y0016703D01*
X0087275Y0016717D01*
X0087157Y0016735D01*
X0087040Y0016756D01*
X0086924Y0016782D01*
X0086808Y0016812D01*
X0086694Y0016845D01*
X0086581Y0016882D01*
X0086469Y0016923D01*
X0086358Y0016968D01*
X0086249Y0017016D01*
X0086142Y0017068D01*
X0086037Y0017124D01*
X0085933Y0017183D01*
X0085832Y0017245D01*
X0085732Y0017311D01*
X0085635Y0017380D01*
X0085541Y0017452D01*
X0085448Y0017528D01*
X0085359Y0017606D01*
X0085272Y0017687D01*
X0085187Y0017772D01*
X0085106Y0017859D01*
X0085028Y0017948D01*
X0084952Y0018041D01*
X0084880Y0018135D01*
X0084811Y0018232D01*
X0084745Y0018332D01*
X0084683Y0018433D01*
X0084624Y0018537D01*
X0084568Y0018642D01*
X0084516Y0018749D01*
X0084468Y0018858D01*
X0084423Y0018969D01*
X0084382Y0019081D01*
X0084345Y0019194D01*
X0084312Y0019308D01*
X0084282Y0019424D01*
X0084256Y0019540D01*
X0084235Y0019657D01*
X0084217Y0019775D01*
X0084203Y0019893D01*
X0084193Y0020012D01*
X0084187Y0020131D01*
X0084185Y0020250D01*
D23*
X0087750Y0020250D03*
M02*
